999
Output
0
SECTION
2
HEADER
9
$ACADVER
1
AC1021
9
$HANDSEED
5
8c5
9
$INSUNITS
70
0
0
ENDSEC
0
SECTION
2
CLASSES
0
ENDSEC
0
SECTION
2
TABLES
0
TABLE
2
VPORT
5
2
100
AcDbSymbolTable
70
1
0
VPORT
5
1
100
AcDbSymbolTableRecord
100
AcDbViewportTableRecord
2
*ACTIVE
10
0
20
0
11
1
21
1
12
500.0
22
500.0
40
1000.0
70
0
0
ENDTAB
0
TABLE
2
LTYPE
5
3
100
AcDbSymbolTable
70
3
0
LTYPE
5
b
100
AcDbSymbolTableRecord
100
AcDbLinetypeTableRecord
2
Solid
70
0
72
65
73
0
3

0
LTYPE
5
c
100
AcDbSymbolTableRecord
100
AcDbLinetypeTableRecord
2
ByBlock
70
0
72
65
73
0
3

0
LTYPE
5
d
100
AcDbSymbolTableRecord
100
AcDbLinetypeTableRecord
2
ByLayer
70
0
72
65
73
0
3

0
ENDTAB
0
TABLE
2
LAYER
5
4
100
AcDbSymbolTable
70
2
0
LAYER
5
e
100
AcDbSymbolTableRecord
100
AcDbLayerTableRecord
2
0
6
Solid
370
35
62
0
70
0
390
0
0
LAYER
5
19
100
AcDbSymbolTableRecord
100
AcDbLayerTableRecord
2
Layer 1
6
Solid
370
0
62
0
70
0
390
0
0
ENDTAB
0
TABLE
2
STYLE
5
5
100
AcDbSymbolTable
70
0
0
ENDTAB
0
TABLE
2
VIEW
5
6
100
AcDbSymbolTable
70
0
0
ENDTAB
0
TABLE
2
UCS
5
7
100
AcDbSymbolTable
70
0
0
ENDTAB
0
TABLE
2
APPID
5
8
100
AcDbSymbolTable
70
1
0
APPID
5
10
100
AcDbSymbolTableRecord
100
AcDbRegAppTableRecord
2
ACAD
70
0
0
ENDTAB
0
TABLE
2
DIMSTYLE
5
9
100
AcDbSymbolTable
70
0
100
AcDbDimStyleTable
71
1
0
ENDTAB
0
TABLE
2
BLOCK_RECORD
5
a
100
AcDbSymbolTable
70
2
0
BLOCK_RECORD
5
13
100
AcDbSymbolTableRecord
100
AcDbBlockTableRecord
2
*Model_Space
70
0
280
1
281
0
0
BLOCK_RECORD
5
16
100
AcDbSymbolTableRecord
100
AcDbBlockTableRecord
2
*Paper_Space
70
0
280
1
281
0
0
ENDTAB
0
ENDSEC
0
SECTION
2
BLOCKS
0
BLOCK
5
11
100
AcDbEntity
8
0
100
AcDbBlockBegin
2
*Model_Space
70
0
10
0
20
0
30
0
3
*Model_Space
1

0
ENDBLK
5
12
100
AcDbEntity
8
0
100
AcDbBlockEnd
0
BLOCK
5
14
100
AcDbEntity
8
0
100
AcDbBlockBegin
2
*Paper_Space
70
0
10
0
20
0
30
0
3
*Paper_Space
1

0
ENDBLK
5
15
100
AcDbEntity
8
0
100
AcDbBlockEnd
0
ENDSEC
0
SECTION
2
ENTITIES
0
HATCH
5
42b
100
AcDbEntity
8
Layer 1
6
Solid
370
0
62
0
100
AcDbHatch
10
0
20
0
30
0
210
0
220
0
230
1
2
FILL_1067
70
1
71
0
91
15
92
0
93
4
72
1
10
300.0
20
192.0
11
300.0
21
0.0
72
1
10
300.0
20
0.0
11
0.0
21
0.0
72
1
10
0.0
20
0.0
11
0.0
21
192.0
72
1
10
0.0
20
192.0
11
300.0
21
192.0
97
0
92
0
93
22
72
4
94
2
73
0
74
0
95
6
96
3
40
0.0
40
0.0
40
0.0
40
1.0
40
1.0
40
1.0
10
203.4
20
152.39
10
196.32
20
172.07
10
177.53
20
181.04
72
4
94
2
73
0
74
0
95
6
96
3
40
0.0
40
0.0
40
0.0
40
1.0
40
1.0
40
1.0
10
177.53
20
181.04
10
168.08
20
185.54
10
156.99
20
185.45
72
4
94
2
73
0
74
0
95
6
96
3
40
0.0
40
0.0
40
0.0
40
1.0
40
1.0
40
1.0
10
156.99
20
185.45
10
138.49
20
185.29
10
124.29
20
172.58
72
4
94
2
73
0
74
0
95
6
96
3
40
0.0
40
0.0
40
0.0
40
1.0
40
1.0
40
1.0
10
124.29
20
172.58
10
123.94
20
172.27
10
123.49
20
172.36
72
4
94
2
73
0
74
0
95
6
96
3
40
0.0
40
0.0
40
0.0
40
1.0
40
1.0
40
1.0
10
123.49
20
172.36
10
110.65
20
174.84
10
99.67
20
171.34
72
4
94
2
73
0
74
0
95
6
96
3
40
0.0
40
0.0
40
0.0
40
1.0
40
1.0
40
1.0
10
99.67
20
171.34
10
76.54
20
163.97
10
67.39
20
140.56
72
4
94
2
73
0
74
0
95
6
96
3
40
0.0
40
0.0
40
0.0
40
1.0
40
1.0
40
1.0
10
67.39
20
140.56
10
65.71
20
136.26
10
64.81
20
128.8
72
4
94
2
73
0
74
0
95
6
96
3
40
0.0
40
0.0
40
0.0
40
1.0
40
1.0
40
1.0
10
64.81
20
128.8
10
64.75
20
128.32
10
64.33
20
128.07
72
4
94
2
73
0
74
0
95
6
96
3
40
0.0
40
0.0
40
0.0
40
1.0
40
1.0
40
1.0
10
64.33
20
128.07
10
51.97
20
120.8
10
46.16
20
108.63
72
4
94
2
73
0
74
0
95
6
96
3
40
0.0
40
0.0
40
0.0
40
1.0
40
1.0
40
1.0
10
46.16
20
108.63
10
45.93
20
108.15
10
45.39
20
108.1
72
1
10
45.39
20
108.1
11
7.8
21
104.7
72
4
94
2
73
0
74
0
95
6
96
3
40
0.0
40
0.0
40
0.0
40
1.0
40
1.0
40
1.0
10
7.8
20
104.7
10
7.77
20
104.69
10
7.74
20
104.67
72
1
10
7.74
20
104.67
11
7.54
21
104.52
72
4
94
2
73
0
74
0
95
6
96
3
40
0.0
40
0.0
40
0.0
40
1.0
40
1.0
40
1.0
10
7.54
20
104.52
10
7.24
20
104.29
10
7.67
20
104.29
72
4
94
2
73
0
74
0
95
6
96
3
40
0.0
40
0.0
40
0.0
40
1.0
40
1.0
40
1.0
10
7.67
20
104.29
10
141.44
20
104.8
10
275.23
20
105.3
72
4
94
3
73
0
74
0
95
8
96
4
40
0.0
40
0.0
40
0.0
40
0.0
40
1.0
40
1.0
40
1.0
40
1.0
10
275.23
20
105.3
10
278.49
20
105.32
10
283.39
20
104.97
10
287.31
20
105.26
72
4
94
2
73
0
74
0
95
6
96
3
40
0.0
40
0.0
40
0.0
40
1.0
40
1.0
40
1.0
10
287.31
20
105.26
10
289.34
20
105.41
10
287.31
20
105.56
72
1
10
287.31
20
105.56
11
251.13
21
108.35
72
4
94
2
73
0
74
0
95
6
96
3
40
0.0
40
0.0
40
0.0
40
1.0
40
1.0
40
1.0
10
251.13
20
108.35
10
250.68
20
108.38
10
250.58
20
108.83
72
4
94
2
73
0
74
0
95
6
96
3
40
0.0
40
0.0
40
0.0
40
1.0
40
1.0
40
1.0
10
250.58
20
108.83
10
247.05
20
125.0
10
236.96
20
134.93
72
4
94
2
73
0
74
0
95
6
96
3
40
0.0
40
0.0
40
0.0
40
1.0
40
1.0
40
1.0
10
236.96
20
134.93
10
224.16
20
147.53
10
204.04
20
151.83
72
4
94
2
73
0
74
0
95
6
96
3
40
0.0
40
0.0
40
0.0
40
1.0
40
1.0
40
1.0
10
204.04
20
151.83
10
203.57
20
151.94
10
203.4
20
152.39
97
0
92
0
93
148
72
1
10
81.4
20
96.34
11
100.96
21
95.11
72
4
94
2
73
0
74
0
95
6
96
3
40
0.0
40
0.0
40
0.0
40
1.0
40
1.0
40
1.0
10
100.96
20
95.11
10
101.41
20
95.08
10
101.53
20
94.64
72
1
10
101.53
20
94.64
11
103.78
21
86.28
72
4
94
3
73
0
74
0
95
8
96
4
40
0.0
40
0.0
40
0.0
40
0.0
40
1.0
40
1.0
40
1.0
40
1.0
10
103.78
20
86.28
10
103.8596592189
20
85.9736183888
10
103.7589776567
20
85.6483394956
10
103.52
20
85.44
72
1
10
103.52
20
85.44
11
96.49
21
79.38
72
1
10
96.49
20
79.38
11
96.49
21
79.38
72
4
94
3
73
0
74
0
95
8
96
4
40
0.0
40
0.0
40
0.0
40
0.0
40
1.0
40
1.0
40
1.0
40
1.0
10
96.49
20
79.38
10
96.1936519982
20
79.1243272141
10
96.1182454106
20
78.6970232177
10
96.31
20
78.36
72
1
10
96.31
20
78.36
11
100.91
21
70.4
72
4
94
3
73
0
74
0
95
8
96
4
40
0.0
40
0.0
40
0.0
40
0.0
40
1.0
40
1.0
40
1.0
40
1.0
10
100.91
20
70.4
10
101.2865047729
20
69.7454609333
10
102.0817447409
20
69.4551352307
10
102.8
20
69.71
72
1
10
102.8
20
69.71
11
111.1
21
72.7
72
4
94
2
73
0
74
0
95
6
96
3
40
0.0
40
0.0
40
0.0
40
1.0
40
1.0
40
1.0
10
111.1
20
72.7
10
111.43
20
72.82
10
111.68
20
72.57
72
1
10
111.68
20
72.57
11
118.14
21
66.11
72
4
94
3
73
0
74
0
95
8
96
4
40
0.0
40
0.0
40
0.0
40
0.0
40
1.0
40
1.0
40
1.0
40
1.0
10
118.14
20
66.11
10
118.2559750603
20
65.9940249397
10
118.2949355549
20
65.8225987636
10
118.24
20
65.67
72
1
10
118.24
20
65.67
11
115.12
21
56.74
72
4
94
3
73
0
74
0
95
8
96
4
40
0.0
40
0.0
40
0.0
40
0.0
40
1.0
40
1.0
40
1.0
40
1.0
10
115.12
20
56.74
10
114.9866320897
20
56.3572920833
10
115.1462851073
20
55.9329511679
10
115.5
20
55.73
72
1
10
115.5
20
55.73
11
123.72
21
50.98
72
4
94
3
73
0
74
0
95
8
96
4
40
0.0
40
0.0
40
0.0
40
0.0
40
1.0
40
1.0
40
1.0
40
1.0
10
123.72
20
50.98
10
124.1943699974
20
50.7081050015
10
124.7971150019
20
50.8176950023
10
125.15
20
51.24
72
1
10
125.15
20
51.24
11
130.9
21
58.07
72
4
94
2
73
0
74
0
95
6
96
3
40
0.0
40
0.0
40
0.0
40
1.0
40
1.0
40
1.0
10
130.9
20
58.07
10
131.3
20
58.54
10
131.89
20
58.38
72
1
10
131.89
20
58.38
11
140.4
21
56.05
72
4
94
2
73
0
74
0
95
6
96
3
40
0.0
40
0.0
40
0.0
40
1.0
40
1.0
40
1.0
10
140.4
20
56.05
10
140.78
20
55.94
10
140.85
20
55.55
72
1
10
140.85
20
55.55
11
142.48
21
46.65
72
1
10
142.48
20
46.65
11
142.48
21
46.65
72
4
94
3
73
0
74
0
95
8
96
4
40
0.0
40
0.0
40
0.0
40
0.0
40
1.0
40
1.0
40
1.0
40
1.0
10
142.48
20
46.65
10
142.58402907
20
46.0836195077
10
143.077840115
20
45.6742206072
10
143.65
20
45.68
72
1
10
143.65
20
45.68
11
152.5
21
45.81
72
4
94
2
73
0
74
0
95
6
96
3
40
0.0
40
0.0
40
0.0
40
1.0
40
1.0
40
1.0
10
152.5
20
45.81
10
153.83
20
45.83
10
154.06
20
47.14
72
1
10
154.06
20
47.14
11
155.54
21
55.55
72
4
94
2
73
0
74
0
95
6
96
3
40
0.0
40
0.0
40
0.0
40
1.0
40
1.0
40
1.0
10
155.54
20
55.55
10
155.63
20
56.06
10
156.13
20
56.19
72
1
10
156.13
20
56.19
11
164.66
21
58.49
72
4
94
2
73
0
74
0
95
6
96
3
40
0.0
40
0.0
40
0.0
40
1.0
40
1.0
40
1.0
10
164.66
20
58.49
10
165.11
20
58.61
10
165.41
20
58.26
72
1
10
165.41
20
58.26
11
171.11
21
51.64
72
4
94
3
73
0
74
0
95
8
96
4
40
0.0
40
0.0
40
0.0
40
0.0
40
1.0
40
1.0
40
1.0
40
1.0
10
171.11
20
51.64
10
171.5678363192
20
51.1068235271
10
172.3414833733
20
50.9764808169
10
172.95
20
51.33
72
1
10
172.95
20
51.33
11
180.58
21
55.73
72
4
94
2
73
0
74
0
95
6
96
3
40
0.0
40
0.0
40
0.0
40
1.0
40
1.0
40
1.0
10
180.58
20
55.73
10
181.53
20
56.28
10
181.16
20
57.31
72
1
10
181.16
20
57.31
11
178.08
21
65.88
72
1
10
178.08
20
65.88
11
178.08
21
65.88
72
4
94
3
73
0
74
0
95
8
96
4
40
0.0
40
0.0
40
0.0
40
0.0
40
1.0
40
1.0
40
1.0
40
1.0
10
178.08
20
65.88
10
178.0133321771
20
66.0557606239
10
178.0566643543
20
66.2527250654
10
178.19
20
66.38
72
1
10
178.19
20
66.38
11
184.48
21
72.68
72
1
10
184.48
20
72.68
11
184.48
21
72.68
72
4
94
3
73
0
74
0
95
8
96
4
40
0.0
40
0.0
40
0.0
40
0.0
40
1.0
40
1.0
40
1.0
40
1.0
10
184.48
20
72.68
10
184.7308449344
20
72.9247267653
10
185.095737036
20
73.0062452135
10
185.42
20
72.89
72
1
10
185.42
20
72.89
11
193.93
21
69.92
72
1
10
193.93
20
69.92
11
193.93
21
69.92
72
4
94
3
73
0
74
0
95
8
96
4
40
0.0
40
0.0
40
0.0
40
0.0
40
1.0
40
1.0
40
1.0
40
1.0
10
193.93
20
69.92
10
194.3698859359
20
69.7637247333
10
194.8584810864
20
69.9448419011
10
195.09
20
70.35
72
1
10
195.09
20
70.35
11
199.81
21
78.53
72
1
10
199.81
20
78.53
11
199.81
21
78.53
72
4
94
3
73
0
74
0
95
8
96
4
40
0.0
40
0.0
40
0.0
40
0.0
40
1.0
40
1.0
40
1.0
40
1.0
10
199.81
20
78.53
10
200.0810217163
20
78.9913135597
10
199.9794157843
20
79.5797812497
10
199.57
20
79.92
72
1
10
199.57
20
79.92
11
192.79
21
85.63
72
1
10
192.79
20
85.63
11
192.79
21
85.63
72
4
94
3
73
0
74
0
95
8
96
4
40
0.0
40
0.0
40
0.0
40
0.0
40
1.0
40
1.0
40
1.0
40
1.0
10
192.79
20
85.63
10
192.4369472551
20
85.922181582
10
192.2882576742
20
86.3956405108
10
192.41
20
86.84
72
1
10
192.41
20
86.84
11
194.68
21
95.13
72
4
94
2
73
0
74
0
95
6
96
3
40
0.0
40
0.0
40
0.0
40
1.0
40
1.0
40
1.0
10
194.68
20
95.13
10
194.78
20
95.49
10
195.15
20
95.51
72
1
10
195.15
20
95.51
11
219.02
21
97.35
72
1
10
219.02
20
97.35
11
219.02
21
97.35
72
4
94
3
73
0
74
0
95
8
96
4
40
0.0
40
0.0
40
0.0
40
0.0
40
1.0
40
1.0
40
1.0
40
1.0
10
219.02
20
97.35
10
219.1514670931
20
97.359666698
10
219.277645849
20
97.2956879427
10
219.3470963129
20
97.1841462885
72
4
94
3
73
0
74
0
95
8
96
4
40
0.0
40
0.0
40
0.0
40
0.0
40
1.0
40
1.0
40
1.0
40
1.0
10
219.3470963129
20
97.1841462885
10
219.4165467769
20
97.0726046343
10
219.4176668862
20
96.9321336971
10
219.35
20
96.82
72
4
94
2
73
0
74
0
95
6
96
3
40
0.0
40
0.0
40
0.0
40
1.0
40
1.0
40
1.0
10
219.35
20
96.82
10
218.33
20
95.14
10
216.91
20
96.01
72
4
94
2
73
0
74
0
95
6
96
3
40
0.0
40
0.0
40
0.0
40
1.0
40
1.0
40
1.0
10
216.91
20
96.01
10
216.12
20
96.49
10
215.66
20
95.69
72
1
10
215.66
20
95.69
11
215.13
21
94.78
72
4
94
2
73
0
74
0
95
6
96
3
40
0.0
40
0.0
40
0.0
40
1.0
40
1.0
40
1.0
10
215.13
20
94.78
10
214.71
20
94.04
10
215.44
20
93.61
72
1
10
215.44
20
93.61
11
219.31
21
91.38
72
4
94
2
73
0
74
0
95
6
96
3
40
0.0
40
0.0
40
0.0
40
1.0
40
1.0
40
1.0
10
219.31
20
91.38
10
219.72
20
91.14
10
219.97
20
91.55
72
4
94
2
73
0
74
0
95
6
96
3
40
0.0
40
0.0
40
0.0
40
1.0
40
1.0
40
1.0
10
219.97
20
91.55
10
222.98
20
96.54
10
227.63
20
95.02
72
4
94
2
73
0
74
0
95
6
96
3
40
0.0
40
0.0
40
0.0
40
1.0
40
1.0
40
1.0
10
227.63
20
95.02
10
231.08
20
93.9
10
231.83
20
90.47
72
4
94
2
73
0
74
0
95
6
96
3
40
0.0
40
0.0
40
0.0
40
1.0
40
1.0
40
1.0
10
231.83
20
90.47
10
232.72
20
86.36
10
228.92
20
83.68
72
4
94
2
73
0
74
0
95
6
96
3
40
0.0
40
0.0
40
0.0
40
1.0
40
1.0
40
1.0
10
228.92
20
83.68
10
228.55
20
83.42
10
228.71
20
82.99
72
1
10
228.71
20
82.99
11
230.2
21
78.84
72
4
94
2
73
0
74
0
95
6
96
3
40
0.0
40
0.0
40
0.0
40
1.0
40
1.0
40
1.0
10
230.2
20
78.84
10
230.44
20
78.17
10
231.12
20
78.41
72
1
10
231.12
20
78.41
11
232.27
21
78.83
72
4
94
2
73
0
74
0
95
6
96
3
40
0.0
40
0.0
40
0.0
40
1.0
40
1.0
40
1.0
10
232.27
20
78.83
10
233.11
20
79.13
10
232.63
20
79.87
72
4
94
2
73
0
74
0
95
6
96
3
40
0.0
40
0.0
40
0.0
40
1.0
40
1.0
40
1.0
10
232.63
20
79.87
10
231.65
20
81.42
10
233.12
20
82.53
72
1
10
233.12
20
82.53
11
233.12
21
82.53
72
4
94
3
73
0
74
0
95
8
96
4
40
0.0
40
0.0
40
0.0
40
0.0
40
1.0
40
1.0
40
1.0
40
1.0
10
233.12
20
82.53
10
233.3995720079
20
82.7366401798
10
233.7721950351
20
82.7601742657
10
234.07
20
82.59
72
1
10
234.07
20
82.59
11
234.7
21
82.23
72
4
94
2
73
0
74
0
95
6
96
3
40
0.0
40
0.0
40
0.0
40
1.0
40
1.0
40
1.0
10
234.7
20
82.23
10
235.2
20
81.93
10
235.58
20
82.38
72
1
10
235.58
20
82.38
11
236.6
21
83.6
72
4
94
3
73
0
74
0
95
8
96
4
40
0.0
40
0.0
40
0.0
40
0.0
40
1.0
40
1.0
40
1.0
40
1.0
10
236.6
20
83.6
10
236.7229922176
20
83.7471083387
10
236.7720179164
20
83.942351939
10
236.7329964493
20
84.129654981
72
4
94
3
73
0
74
0
95
8
96
4
40
0.0
40
0.0
40
0.0
40
0.0
40
1.0
40
1.0
40
1.0
40
1.0
10
236.7329964493
20
84.129654981
10
236.6939749823
20
84.316958023
10
236.5712244597
20
84.4755935762
10
236.4
20
84.56
72
4
94
2
73
0
74
0
95
6
96
3
40
0.0
40
0.0
40
0.0
40
1.0
40
1.0
40
1.0
10
236.4
20
84.56
10
234.6
20
85.42
10
235.65
20
87.37
72
4
94
2
73
0
74
0
95
6
96
3
40
0.0
40
0.0
40
0.0
40
1.0
40
1.0
40
1.0
10
235.65
20
87.37
10
235.85
20
87.74
10
236.27
20
87.72
72
1
10
236.27
20
87.72
11
237.09
21
87.67
72
4
94
2
73
0
74
0
95
6
96
3
40
0.0
40
0.0
40
0.0
40
1.0
40
1.0
40
1.0
10
237.09
20
87.67
10
237.66
20
87.63
10
237.7
20
88.2
72
1
10
237.7
20
88.2
11
237.81
21
89.92
72
1
10
237.81
20
89.92
11
237.81
21
89.92
72
4
94
3
73
0
74
0
95
8
96
4
40
0.0
40
0.0
40
0.0
40
0.0
40
1.0
40
1.0
40
1.0
40
1.0
10
237.81
20
89.92
10
237.817719103
20
90.0743820606
10
237.7604800498
20
90.2249435038
10
237.6521711497
20
90.33515256
72
4
94
3
73
0
74
0
95
8
96
4
40
0.0
40
0.0
40
0.0
40
0.0
40
1.0
40
1.0
40
1.0
40
1.0
10
237.6521711497
20
90.33515256
10
237.5438622496
20
90.4453616163
10
237.3943820606
20
90.5051460687
10
237.24
20
90.5
72
4
94
2
73
0
74
0
95
6
96
3
40
0.0
40
0.0
40
0.0
40
1.0
40
1.0
40
1.0
10
237.24
20
90.5
10
235.65
20
90.46
10
235.23
20
91.85
72
4
94
2
73
0
74
0
95
6
96
3
40
0.0
40
0.0
40
0.0
40
1.0
40
1.0
40
1.0
10
235.23
20
91.85
10
235.08
20
92.35
10
235.37
20
92.78
72
4
94
2
73
0
74
0
95
6
96
3
40
0.0
40
0.0
40
0.0
40
1.0
40
1.0
40
1.0
10
235.37
20
92.78
10
235.66
20
93.2
10
236.34
20
93.68
72
1
10
236.34
20
93.68
11
236.34
21
93.68
72
4
94
3
73
0
74
0
95
8
96
4
40
0.0
40
0.0
40
0.0
40
0.0
40
1.0
40
1.0
40
1.0
40
1.0
10
236.34
20
93.68
10
236.6224913489
20
93.8777439442
10
236.7051446363
20
94.2605591702
10
236.53
20
94.56
72
1
10
236.53
20
94.56
11
235.83
21
95.78
72
4
94
2
73
0
74
0
95
6
96
3
40
0.0
40
0.0
40
0.0
40
1.0
40
1.0
40
1.0
10
235.83
20
95.78
10
235.59
20
96.2
10
235.13
20
96.04
72
1
10
235.13
20
96.04
11
234.09
21
95.66
72
4
94
2
73
0
74
0
95
6
96
3
40
0.0
40
0.0
40
0.0
40
1.0
40
1.0
40
1.0
10
234.09
20
95.66
10
233.55
20
95.47
10
233.1
20
95.82
72
4
94
2
73
0
74
0
95
6
96
3
40
0.0
40
0.0
40
0.0
40
1.0
40
1.0
40
1.0
10
233.1
20
95.82
10
232.26
20
96.48
10
232.26
20
97.37
72
1
10
232.26
20
97.37
11
232.26
21
97.37
72
4
94
3
73
0
74
0
95
8
96
4
40
0.0
40
0.0
40
0.0
40
0.0
40
1.0
40
1.0
40
1.0
40
1.0
10
232.26
20
97.37
10
232.2543635357
20
97.9054641104
10
232.6688994253
20
98.3549082854
10
233.21
20
98.4
72
1
10
233.21
20
98.4
11
286.5
21
102.49
72
4
94
2
73
0
74
0
95
6
96
3
40
0.0
40
0.0
40
0.0
40
1.0
40
1.0
40
1.0
10
286.5
20
102.49
10
286.71
20
102.51
10
286.69
20
102.65
72
1
10
286.69
20
102.65
11
286.69
21
102.66
72
4
94
2
73
0
74
0
95
6
96
3
40
0.0
40
0.0
40
0.0
40
1.0
40
1.0
40
1.0
10
286.69
20
102.66
10
286.68
20
102.77
10
286.5
20
102.77
72
1
10
286.5
20
102.77
11
178.53
21
102.75
72
4
94
2
73
0
74
0
95
6
96
3
40
0.0
40
0.0
40
0.0
40
1.0
40
1.0
40
1.0
10
178.53
20
102.75
10
178.02
20
102.75
10
177.99
20
102.23
72
4
94
2
73
0
74
0
95
6
96
3
40
0.0
40
0.0
40
0.0
40
1.0
40
1.0
40
1.0
10
177.99
20
102.23
10
177.29
20
89.67
10
169.23
20
81.67
72
4
94
3
73
0
74
0
95
8
96
4
40
0.0
40
0.0
40
0.0
40
0.0
40
1.0
40
1.0
40
1.0
40
1.0
10
169.23
20
81.67
10
150.45
20
63.03
10
118.75
20
75.83
10
118.14
20
102.12
72
4
94
2
73
0
74
0
95
6
96
3
40
0.0
40
0.0
40
0.0
40
1.0
40
1.0
40
1.0
10
118.14
20
102.12
10
118.12
20
102.8
10
117.45
20
102.79
72
1
10
117.45
20
102.79
11
7.68
21
101.19
72
4
94
2
73
0
74
0
95
6
96
3
40
0.0
40
0.0
40
0.0
40
1.0
40
1.0
40
1.0
10
7.68
20
101.19
10
7.53
20
101.19
10
7.56
20
101.04
72
1
10
7.56
20
101.04
11
7.61
21
100.77
72
4
94
2
73
0
74
0
95
6
96
3
40
0.0
40
0.0
40
0.0
40
1.0
40
1.0
40
1.0
10
7.61
20
100.77
10
7.61
20
100.75
10
7.63
20
100.75
72
1
10
7.63
20
100.75
11
64.04
21
97.19
72
1
10
64.04
20
97.19
11
64.04
21
97.19
72
4
94
3
73
0
74
0
95
8
96
4
40
0.0
40
0.0
40
0.0
40
0.0
40
1.0
40
1.0
40
1.0
40
1.0
10
64.04
20
97.19
10
64.2141559259
20
97.1792274685
10
64.3657071244
20
97.0676355512
10
64.4280434462
20
96.9042713973
72
4
94
3
73
0
74
0
95
8
96
4
40
0.0
40
0.0
40
0.0
40
0.0
40
1.0
40
1.0
40
1.0
40
1.0
10
64.4280434462
20
96.9042713973
10
64.4903797681
20
96.7409072434
10
64.4520886904
20
96.5556795342
10
64.33
20
96.43
72
4
94
2
73
0
74
0
95
6
96
3
40
0.0
40
0.0
40
0.0
40
1.0
40
1.0
40
1.0
10
64.33
20
96.43
10
63.09
20
95.16
10
62.04
20
95.94
72
4
94
2
73
0
74
0
95
6
96
3
40
0.0
40
0.0
40
0.0
40
1.0
40
1.0
40
1.0
10
62.04
20
95.94
10
61.61
20
96.25
10
61.17
20
95.94
72
4
94
2
73
0
74
0
95
6
96
3
40
0.0
40
0.0
40
0.0
40
1.0
40
1.0
40
1.0
10
61.17
20
95.94
10
60.33
20
95.33
10
60.08
20
94.51
72
1
10
60.08
20
94.51
11
60.08
21
94.51
72
4
94
3
73
0
74
0
95
8
96
4
40
0.0
40
0.0
40
0.0
40
0.0
40
1.0
40
1.0
40
1.0
40
1.0
10
60.08
20
94.51
10
59.9829936328
20
94.1886664085
10
60.085358286
20
93.8422014283
10
60.34
20
93.63
72
1
10
60.34
20
93.63
11
61.3
21
92.82
72
4
94
2
73
0
74
0
95
6
96
3
40
0.0
40
0.0
40
0.0
40
1.0
40
1.0
40
1.0
10
61.3
20
92.82
10
61.72
20
92.47
10
61.52
20
91.97
72
4
94
2
73
0
74
0
95
6
96
3
40
0.0
40
0.0
40
0.0
40
1.0
40
1.0
40
1.0
10
61.52
20
91.97
10
60.97
20
90.51
10
59.83
20
90.54
72
4
94
2
73
0
74
0
95
6
96
3
40
0.0
40
0.0
40
0.0
40
1.0
40
1.0
40
1.0
10
59.83
20
90.54
10
59.3
20
90.55
10
59.06
20
90.08
72
4
94
2
73
0
74
0
95
6
96
3
40
0.0
40
0.0
40
0.0
40
1.0
40
1.0
40
1.0
10
59.06
20
90.08
10
58.59
20
89.16
10
58.97
20
88.17
72
4
94
2
73
0
74
0
95
6
96
3
40
0.0
40
0.0
40
0.0
40
1.0
40
1.0
40
1.0
10
58.97
20
88.17
10
59.17
20
87.62
10
59.75
20
87.7
72
4
94
2
73
0
74
0
95
6
96
3
40
0.0
40
0.0
40
0.0
40
1.0
40
1.0
40
1.0
10
59.75
20
87.7
10
61.35
20
87.92
10
61.49
20
85.96
72
1
10
61.49
20
85.96
11
61.49
21
85.96
72
4
94
3
73
0
74
0
95
8
96
4
40
0.0
40
0.0
40
0.0
40
0.0
40
1.0
40
1.0
40
1.0
40
1.0
10
61.49
20
85.96
10
61.5027260153
20
85.730931724
10
61.4190751917
20
85.5090751917
10
61.26
20
85.35
72
1
10
61.26
20
85.35
11
60.32
21
84.41
72
4
94
2
73
0
74
0
95
6
96
3
40
0.0
40
0.0
40
0.0
40
1.0
40
1.0
40
1.0
10
60.32
20
84.41
10
59.95
20
84.04
10
60.21
20
83.59
72
1
10
60.21
20
83.59
11
60.87
21
82.45
72
1
10
60.87
20
82.45
11
60.87
21
82.45
72
4
94
3
73
0
74
0
95
8
96
4
40
0.0
40
0.0
40
0.0
40
0.0
40
1.0
40
1.0
40
1.0
40
1.0
10
60.87
20
82.45
10
61.0260374804
20
82.1769344094
10
61.3669344094
20
82.0751080539
10
61.64
20
82.22
72
4
94
2
73
0
74
0
95
6
96
3
40
0.0
40
0.0
40
0.0
40
1.0
40
1.0
40
1.0
10
61.64
20
82.22
10
63.29
20
83.06
10
64.15
20
82.09
72
4
94
2
73
0
74
0
95
6
96
3
40
0.0
40
0.0
40
0.0
40
1.0
40
1.0
40
1.0
10
64.15
20
82.09
10
64.5
20
81.69
10
64.41
20
81.17
72
1
10
64.41
20
81.17
11
64.13
21
79.6
72
4
94
2
73
0
74
0
95
6
96
3
40
0.0
40
0.0
40
0.0
40
1.0
40
1.0
40
1.0
10
64.13
20
79.6
10
64.02
20
78.97
10
64.64
20
78.8
72
1
10
64.64
20
78.8
11
65.24
21
78.63
72
4
94
2
73
0
74
0
95
6
96
3
40
0.0
40
0.0
40
0.0
40
1.0
40
1.0
40
1.0
10
65.24
20
78.63
10
65.66
20
78.52
10
65.87
20
78.89
72
1
10
65.87
20
78.89
11
68.12
21
82.79
72
4
94
3
73
0
74
0
95
8
96
4
40
0.0
40
0.0
40
0.0
40
0.0
40
1.0
40
1.0
40
1.0
40
1.0
10
68.12
20
82.79
10
68.2978385201
20
83.0956599564
10
68.2001025027
20
83.4866040261
10
67.9
20
83.67
72
4
94
3
73
0
74
0
95
8
96
4
40
0.0
40
0.0
40
0.0
40
0.0
40
1.0
40
1.0
40
1.0
40
1.0
10
67.9
20
83.67
10
62.67
20
86.86
10
64.1
20
94.6
10
70.24
20
95.31
72
4
94
2
73
0
74
0
95
6
96
3
40
0.0
40
0.0
40
0.0
40
1.0
40
1.0
40
1.0
10
70.24
20
95.31
10
74.51
20
95.8
10
76.56
20
91.96
72
4
94
2
73
0
74
0
95
6
96
3
40
0.0
40
0.0
40
0.0
40
1.0
40
1.0
40
1.0
10
76.56
20
91.96
10
76.78
20
91.54
10
77.19
20
91.78
72
1
10
77.19
20
91.78
11
81.41
21
94.21
72
4
94
3
73
0
74
0
95
8
96
4
40
0.0
40
0.0
40
0.0
40
0.0
40
1.0
40
1.0
40
1.0
40
1.0
10
81.41
20
94.21
10
81.6440861867
20
94.3470260605
10
81.7384789646
20
94.6387855557
10
81.63
20
94.89
72
4
94
2
73
0
74
0
95
6
96
3
40
0.0
40
0.0
40
0.0
40
1.0
40
1.0
40
1.0
10
81.63
20
94.89
10
81.51
20
95.16
10
81.07
20
95.66
72
4
94
2
73
0
74
0
95
6
96
3
40
0.0
40
0.0
40
0.0
40
1.0
40
1.0
40
1.0
10
81.07
20
95.66
10
80.4
20
96.41
10
81.4
20
96.34
97
0
92
0
93
99
72
4
94
2
73
0
74
0
95
6
96
3
40
0.0
40
0.0
40
0.0
40
1.0
40
1.0
40
1.0
10
93.0689565849
20
49.6363530003
10
93.198047055
20
50.3451427417
10
93.8966211862
20
50.465573836
72
1
10
93.8966211862
20
50.465573836
11
96.9503736384
21
51.0074293862
72
4
94
2
73
0
74
0
95
6
96
3
40
0.0
40
0.0
40
0.0
40
1.0
40
1.0
40
1.0
10
96.9503736384
20
51.0074293862
10
97.3196138042
20
51.0776449207
10
97.5694166158
20
50.7884234038
72
1
10
97.5694166158
20
50.7884234038
11
99.6978014448
21
48.2551859154
72
1
10
99.6978014448
20
48.2551859154
11
99.6978014448
21
48.2551859154
72
4
94
3
73
0
74
0
95
8
96
4
40
0.0
40
0.0
40
0.0
40
0.0
40
1.0
40
1.0
40
1.0
40
1.0
10
99.6978014448
20
48.2551859154
10
99.8894354468
20
48.029140277
10
100.2155760869
20
47.9709183572
10
100.4764692242
20
48.1161798321
72
1
10
100.4764692242
20
48.1161798321
11
103.6288246892
21
49.9457087781
72
4
94
2
73
0
74
0
95
6
96
3
40
0.0
40
0.0
40
0.0
40
1.0
40
1.0
40
1.0
10
103.6288246892
20
49.9457087781
10
104.1575490333
20
50.2456427753
10
103.9573805373
20
50.8243670564
72
1
10
103.9573805373
20
50.8243670564
11
102.8164726096
21
54.0672005281
72
4
94
2
73
0
74
0
95
6
96
3
40
0.0
40
0.0
40
0.0
40
1.0
40
1.0
40
1.0
10
102.8164726096
20
54.0672005281
10
102.6163134885
20
54.6359435716
10
103.0750847955
20
55.0256430826
72
1
10
103.0750847955
20
55.0256430826
11
105.4686880818
21
57.0441030497
72
4
94
2
73
0
74
0
95
6
96
3
40
0.0
40
0.0
40
0.0
40
1.0
40
1.0
40
1.0
10
105.4686880818
20
57.0441030497
10
105.8277313872
20
57.3438776734
10
106.2670558389
20
57.1845903682
72
1
10
106.2670558389
20
57.1845903682
11
109.3523082382
21
56.0695886061
72
4
94
2
73
0
74
0
95
6
96
3
40
0.0
40
0.0
40
0.0
40
1.0
40
1.0
40
1.0
10
109.3523082382
20
56.0695886061
10
109.7716608398
20
55.9202637885
10
109.9908824451
20
56.3097383018
72
1
10
109.9908824451
20
56.3097383018
11
111.8941957274
21
59.6153185453
72
4
94
2
73
0
74
0
95
6
96
3
40
0.0
40
0.0
40
0.0
40
1.0
40
1.0
40
1.0
10
111.8941957274
20
59.6153185453
10
112.1632578962
20
60.0747085961
10
111.753699034
20
60.4236675399
72
1
10
111.753699034
20
60.4236675399
11
109.1265054488
21
62.6869428685
72
4
94
2
73
0
74
0
95
6
96
3
40
0.0
40
0.0
40
0.0
40
1.0
40
1.0
40
1.0
10
109.1265054488
20
62.6869428685
10
108.8667776491
20
62.9162675851
10
108.9263557026
20
63.2457046745
72
1
10
108.9263557026
20
63.2457046745
11
109.4824269105
21
66.3104696039
72
4
94
3
73
0
74
0
95
8
96
4
40
0.0
40
0.0
40
0.0
40
0.0
40
1.0
40
1.0
40
1.0
40
1.0
10
109.4824269105
20
66.3104696039
10
109.5498882572
20
66.692793661
10
109.8205088935
20
67.0097552014
10
110.1903166609
20
67.1395779407
72
1
10
110.1903166609
20
67.1395779407
11
112.5052044103
21
67.9502331623
72
1
10
112.5052044103
20
67.9502331623
11
112.5052044103
21
67.9502331623
72
4
94
3
73
0
74
0
95
8
96
4
40
0.0
40
0.0
40
0.0
40
0.0
40
1.0
40
1.0
40
1.0
40
1.0
10
112.5052044103
20
67.9502331623
10
112.6805582486
20
68.0132323751
10
112.8229789359
20
68.1443882268
10
112.8999386919
20
68.3137457383
72
4
94
3
73
0
74
0
95
8
96
4
40
0.0
40
0.0
40
0.0
40
0.0
40
1.0
40
1.0
40
1.0
40
1.0
10
112.8999386919
20
68.3137457383
10
112.9768984479
20
68.4831032498
10
112.9818243676
20
68.6761980971
10
112.9135914092
20
68.8489289149
72
1
10
112.9135914092
20
68.8489289149
11
112.2432641327
21
70.5351299459
72
4
94
2
73
0
74
0
95
6
96
3
40
0.0
40
0.0
40
0.0
40
1.0
40
1.0
40
1.0
10
112.2432641327
20
70.5351299459
10
112.0031613115
20
71.123797965
10
111.4044839302
20
70.9136294816
72
1
10
111.4044839302
20
70.9136294816
11
102.9232257158
21
67.9312520148
72
4
94
2
73
0
74
0
95
6
96
3
40
0.0
40
0.0
40
0.0
40
1.0
40
1.0
40
1.0
10
102.9232257158
20
67.9312520148
10
102.4243232106
20
67.7611022308
10
102.3150170924
20
67.2419747531
72
4
94
2
73
0
74
0
95
6
96
3
40
0.0
40
0.0
40
0.0
40
1.0
40
1.0
40
1.0
10
102.3150170924
20
67.2419747531
10
100.2181164982
20
57.5082900149
10
89.8276856851
20
57.4586057874
72
4
94
3
73
0
74
0
95
8
96
4
40
0.0
40
0.0
40
0.0
40
0.0
40
1.0
40
1.0
40
1.0
40
1.0
10
89.8276856851
20
57.4586057874
10
81.0841590714
20
57.4104684193
10
74.9576073952
20
65.9786046764
10
77.9740849581
20
74.3257598834
72
4
94
2
73
0
74
0
95
6
96
3
40
0.0
40
0.0
40
0.0
40
1.0
40
1.0
40
1.0
10
77.9740849581
20
74.3257598834
10
80.1343885676
20
80.3165367814
10
86.3409652301
20
82.188859399
72
4
94
2
73
0
74
0
95
6
96
3
40
0.0
40
0.0
40
0.0
40
1.0
40
1.0
40
1.0
10
86.3409652301
20
82.188859399
10
91.4698682318
20
83.7407699244
10
95.8738439786
20
81.3494072407
72
1
10
95.8738439786
20
81.3494072407
11
95.8738439786
21
81.3494072407
72
4
94
3
73
0
74
0
95
8
96
4
40
0.0
40
0.0
40
0.0
40
0.0
40
1.0
40
1.0
40
1.0
40
1.0
10
95.8738439786
20
81.3494072407
10
96.036342571
20
81.2593298752
10
96.2385853576
20
81.2793494
10
96.3828402203
20
81.3997915488
72
1
10
96.3828402203
20
81.3997915488
11
101.8482365782
21
86.0062795182
72
4
94
2
73
0
74
0
95
6
96
3
40
0.0
40
0.0
40
0.0
40
1.0
40
1.0
40
1.0
10
101.8482365782
20
86.0062795182
10
102.9652539451
20
86.9455658394
10
102.52477638
20
88.3325453661
72
4
94
2
73
0
74
0
95
6
96
3
40
0.0
40
0.0
40
0.0
40
1.0
40
1.0
40
1.0
10
102.52477638
20
88.3325453661
10
101.7739429595
20
90.7173580279
10
101.0544032382
20
91.664900604
72
4
94
2
73
0
74
0
95
6
96
3
40
0.0
40
0.0
40
0.0
40
1.0
40
1.0
40
1.0
10
101.0544032382
20
91.664900604
10
100.184976205
20
92.7919648329
10
99.2577336006
20
91.7131193088
72
1
10
99.2577336006
20
91.7131193088
11
97.1938767756
21
89.3057004483
72
4
94
2
73
0
74
0
95
6
96
3
40
0.0
40
0.0
40
0.0
40
1.0
40
1.0
40
1.0
10
97.1938767756
20
89.3057004483
10
96.775114793
20
88.8262072988
10
96.1760436657
20
89.0352507934
72
1
10
96.1760436657
20
89.0352507934
11
93.3304253422
21
90.0606464151
72
4
94
2
73
0
74
0
95
6
96
3
40
0.0
40
0.0
40
0.0
40
1.0
40
1.0
40
1.0
10
93.3304253422
20
90.0606464151
10
93.0009320035
20
90.1801118941
10
92.9307352188
20
90.5293895848
72
1
10
92.9307352188
20
90.5293895848
11
92.3587390828
21
93.7927199013
72
4
94
2
73
0
74
0
95
6
96
3
40
0.0
40
0.0
40
0.0
40
1.0
40
1.0
40
1.0
10
92.3587390828
20
93.7927199013
10
92.2584110873
20
94.3415942187
10
91.6994617832
20
94.3410692239
72
1
10
91.6994617832
20
94.3410692239
11
88.0263663566
21
94.3376192585
72
4
94
2
73
0
74
0
95
6
96
3
40
0.0
40
0.0
40
0.0
40
1.0
40
1.0
40
1.0
10
88.0263663566
20
94.3376192585
10
87.4674170526
20
94.3370942637
10
87.3681202967
20
93.7880324482
72
1
10
87.3681202967
20
93.7880324482
11
86.7325835594
21
90.3139617791
72
1
10
86.7325835594
20
90.3139617791
11
86.7325835594
21
90.3139617791
72
4
94
3
73
0
74
0
95
8
96
4
40
0.0
40
0.0
40
0.0
40
0.0
40
1.0
40
1.0
40
1.0
40
1.0
10
86.7325835594
20
90.3139617791
10
86.6789339258
20
90.0082697728
10
86.4398624853
20
89.768748813
10
86.1342717994
20
89.7145250304
72
1
10
86.1342717994
20
89.7145250304
11
82.940810146
21
89.1425945188
72
4
94
2
73
0
74
0
95
6
96
3
40
0.0
40
0.0
40
0.0
40
1.0
40
1.0
40
1.0
10
82.940810146
20
89.1425945188
10
82.5116919296
20
89.0623414972
10
82.2219172932
20
89.4014317024
72
1
10
82.2219172932
20
89.4014317024
11
80.2234385511
21
91.7750912634
72
4
94
3
73
0
74
0
95
8
96
4
40
0.0
40
0.0
40
0.0
40
0.0
40
1.0
40
1.0
40
1.0
40
1.0
10
80.2234385511
20
91.7750912634
10
79.9693117365
20
92.0806142131
10
79.5269642346
20
92.1560175962
10
79.1752398577
20
91.9537691745
72
1
10
79.1752398577
20
91.9537691745
11
76.3820120723
21
90.3341837141
72
1
10
76.3820120723
20
90.3341837141
11
76.3820120723
21
90.3341837141
72
4
94
3
73
0
74
0
95
8
96
4
40
0.0
40
0.0
40
0.0
40
0.0
40
1.0
40
1.0
40
1.0
40
1.0
10
76.3820120723
20
90.3341837141
10
75.9479457861
20
90.0847770386
10
75.7514771176
20
89.564961517
10
75.9140563947
20
89.0960696346
72
1
10
75.9140563947
20
89.0960696346
11
76.9048426379
21
86.2822887549
72
4
94
2
73
0
74
0
95
6
96
3
40
0.0
40
0.0
40
0.0
40
1.0
40
1.0
40
1.0
10
76.9048426379
20
86.2822887549
10
77.0749642972
20
85.8133299624
10
76.7459397038
20
85.4337335628
72
1
10
76.7459397038
20
85.4337335628
11
74.672111016
21
83.0163240898
72
4
94
2
73
0
74
0
95
6
96
3
40
0.0
40
0.0
40
0.0
40
1.0
40
1.0
40
1.0
10
74.672111016
20
83.0163240898
10
74.4029082237
20
82.7066526026
10
74.0135087097
20
82.8460243073
72
1
10
74.0135087097
20
82.8460243073
11
70.6287254341
21
84.0605571979
72
1
10
70.6287254341
20
84.0605571979
11
70.6287254341
21
84.0605571979
72
4
94
3
73
0
74
0
95
8
96
4
40
0.0
40
0.0
40
0.0
40
0.0
40
1.0
40
1.0
40
1.0
40
1.0
10
70.6287254341
20
84.0605571979
10
70.2938604457
20
84.1814457839
10
69.9193306471
20
84.0421749034
10
69.7407046621
20
83.7303419914
72
1
10
69.7407046621
20
83.7303419914
11
67.937044382
21
80.5945365357
72
4
94
3
73
0
74
0
95
8
96
4
40
0.0
40
0.0
40
0.0
40
0.0
40
1.0
40
1.0
40
1.0
40
1.0
10
67.937044382
20
80.5945365357
10
67.7634835243
20
80.2930438565
10
67.8266379704
20
79.912136662
10
68.0876160621
20
79.6863845402
72
1
10
68.0876160621
20
79.6863845402
11
70.7048190348
21
77.4330810743
72
4
94
2
73
0
74
0
95
6
96
3
40
0.0
40
0.0
40
0.0
40
1.0
40
1.0
40
1.0
10
70.7048190348
20
77.4330810743
10
71.1743121969
20
77.034272192
10
70.9652593274
20
76.4451823022
72
1
10
70.9652593274
20
76.4451823022
11
69.9597886812
21
73.6395076788
72
4
94
3
73
0
74
0
95
8
96
4
40
0.0
40
0.0
40
0.0
40
0.0
40
1.0
40
1.0
40
1.0
40
1.0
10
69.9597886812
20
73.6395076788
10
69.8550384143
20
73.349051368
10
69.6004096716
20
73.1358207874
10
69.2915707586
20
73.0799302561
72
1
10
69.2915707586
20
73.0799302561
11
66.2078839686
21
72.5280653436
72
4
94
2
73
0
74
0
95
6
96
3
40
0.0
40
0.0
40
0.0
40
1.0
40
1.0
40
1.0
10
66.2078839686
20
72.5280653436
10
65.6290659385
20
72.4277092233
10
65.629609683
20
71.8487974441
72
1
10
65.629609683
20
71.8487974441
11
65.6331440226
21
68.0858708794
72
4
94
2
73
0
74
0
95
6
96
3
40
0.0
40
0.0
40
0.0
40
1.0
40
1.0
40
1.0
10
65.6331440226
20
68.0858708794
10
65.6336221429
20
67.5768277632
10
66.1427496332
20
67.4874747453
72
1
10
66.1427496332
20
67.4874747453
11
69.4970267017
21
66.8717879843
72
4
94
2
73
0
74
0
95
6
96
3
40
0.0
40
0.0
40
0.0
40
1.0
40
1.0
40
1.0
10
69.4970267017
20
66.8717879843
10
70.1958352055
20
66.7426881393
10
70.3262569123
20
66.0341421454
72
1
10
70.3262569123
20
66.0341421454
11
70.8580656005
21
63.0502489813
72
4
94
2
73
0
74
0
95
6
96
3
40
0.0
40
0.0
40
0.0
40
1.0
40
1.0
40
1.0
10
70.8580656005
20
63.0502489813
10
70.9183092724
20
62.671018203
10
70.6290783805
20
62.431196629
72
1
10
70.6290783805
20
62.431196629
11
68.0759065418
21
60.2728493374
72
4
94
2
73
0
74
0
95
6
96
3
40
0.0
40
0.0
40
0.0
40
1.0
40
1.0
40
1.0
10
68.0759065418
20
60.2728493374
10
67.6869382735
20
59.9530841138
10
67.9468629462
20
59.5141534081
72
1
10
67.9468629462
20
59.5141534081
11
69.8763823912
21
56.1722481783
72
4
94
2
73
0
74
0
95
6
96
3
40
0.0
40
0.0
40
0.0
40
1.0
40
1.0
40
1.0
10
69.8763823912
20
56.1722481783
10
70.0963352391
20
55.7831861609
10
70.5253878311
20
55.9333078455
72
1
10
70.5253878311
20
55.9333078455
11
73.9178929919
21
57.1242625847
72
4
94
2
73
0
74
0
95
6
96
3
40
0.0
40
0.0
40
0.0
40
1.0
40
1.0
40
1.0
10
73.9178929919
20
57.1242625847
10
74.4766641727
20
57.3144310933
10
74.8563730712
20
56.865631649
72
1
10
74.8563730712
20
56.865631649
11
76.8948236382
21
54.4421033998
72
4
94
2
73
0
74
0
95
6
96
3
40
0.0
40
0.0
40
0.0
40
1.0
40
1.0
40
1.0
10
76.8948236382
20
54.4421033998
10
77.1646076747
20
54.1329381575
10
77.0252265951
20
53.7535198811
72
1
10
77.0252265951
20
53.7535198811
11
75.8903279822
21
50.5983800689
72
1
10
75.8903279822
20
50.5983800689
11
75.8903279822
21
50.5983800689
72
4
94
3
73
0
74
0
95
8
96
4
40
0.0
40
0.0
40
0.0
40
0.0
40
1.0
40
1.0
40
1.0
40
1.0
10
75.8903279822
20
50.5983800689
10
75.798236692
20
50.3443864721
10
75.8995567087
20
50.0623693955
10
76.1305058027
20
49.9298621493
72
1
10
76.1305058027
20
49.9298621493
11
79.4161141961
21
48.0365113547
72
4
94
2
73
0
74
0
95
6
96
3
40
0.0
40
0.0
40
0.0
40
1.0
40
1.0
40
1.0
10
79.4161141961
20
48.0365113547
10
79.8655136344
20
47.7774210486
10
80.1945194781
20
48.1769799234
72
1
10
80.1945194781
20
48.1769799234
11
82.3979730056
21
50.7342485962
72
4
94
2
73
0
74
0
95
6
96
3
40
0.0
40
0.0
40
0.0
40
1.0
40
1.0
40
1.0
10
82.3979730056
20
50.7342485962
10
82.6472414475
20
51.0139576208
10
83.0066222495
20
50.954407692
72
1
10
83.0066222495
20
50.954407692
11
86.2610681925
21
50.3585896571
72
4
94
2
73
0
74
0
95
6
96
3
40
0.0
40
0.0
40
0.0
40
1.0
40
1.0
40
1.0
10
86.2610681925
20
50.3585896571
10
86.7602144452
20
50.2692272642
10
86.8505143287
20
49.7702497598
72
1
10
86.8505143287
20
49.7702497598
11
87.4726697749
21
46.2374729034
72
4
94
2
73
0
74
0
95
6
96
3
40
0.0
40
0.0
40
0.0
40
1.0
40
1.0
40
1.0
10
87.4726697749
20
46.2374729034
10
87.5629321588
20
45.7784203492
10
88.0320503247
20
45.7788609698
72
1
10
88.0320503247
20
45.7788609698
11
91.7949768894
21
45.7823953094
72
4
94
2
73
0
74
0
95
6
96
3
40
0.0
40
0.0
40
0.0
40
1.0
40
1.0
40
1.0
10
91.7949768894
20
45.7823953094
10
92.363907431
20
45.7829296791
10
92.4731760496
20
46.3419821071
72
1
10
92.4731760496
20
46.3419821071
11
93.0689565849
21
49.6363530003
97
0
92
0
93
102
72
1
10
203.15
20
49.61
11
203.75
21
46.31
72
4
94
2
73
0
74
0
95
6
96
3
40
0.0
40
0.0
40
0.0
40
1.0
40
1.0
40
1.0
10
203.75
20
46.31
10
203.86
20
45.75
10
204.43
20
45.75
72
1
10
204.43
20
45.75
11
208.2
21
45.75
72
4
94
2
73
0
74
0
95
6
96
3
40
0.0
40
0.0
40
0.0
40
1.0
40
1.0
40
1.0
10
208.2
20
45.75
10
208.67
20
45.75
10
208.76
20
46.21
72
1
10
208.76
20
46.21
11
209.38
21
49.75
72
4
94
2
73
0
74
0
95
6
96
3
40
0.0
40
0.0
40
0.0
40
1.0
40
1.0
40
1.0
10
209.38
20
49.75
10
209.47
20
50.25
10
209.97
20
50.34
72
1
10
209.97
20
50.34
11
213.23
21
50.94
72
4
94
2
73
0
74
0
95
6
96
3
40
0.0
40
0.0
40
0.0
40
1.0
40
1.0
40
1.0
10
213.23
20
50.94
10
213.59
20
51.0
10
213.84
20
50.72
72
1
10
213.84
20
50.72
11
216.05
21
48.16
72
4
94
2
73
0
74
0
95
6
96
3
40
0.0
40
0.0
40
0.0
40
1.0
40
1.0
40
1.0
10
216.05
20
48.16
10
216.38
20
47.76
10
216.83
20
48.02
72
1
10
216.83
20
48.02
11
220.12
21
49.92
72
1
10
220.12
20
49.92
11
220.12
21
49.92
72
4
94
3
73
0
74
0
95
8
96
4
40
0.0
40
0.0
40
0.0
40
0.0
40
1.0
40
1.0
40
1.0
40
1.0
10
220.12
20
49.92
10
220.3512583293
20
50.0529735393
10
220.4525033317
20
50.3356158378
10
220.36
20
50.59
72
1
10
220.36
20
50.59
11
219.22
21
53.75
72
4
94
2
73
0
74
0
95
6
96
3
40
0.0
40
0.0
40
0.0
40
1.0
40
1.0
40
1.0
10
219.22
20
53.75
10
219.08
20
54.13
10
219.35
20
54.44
72
1
10
219.35
20
54.44
11
221.39
21
56.87
72
4
94
2
73
0
74
0
95
6
96
3
40
0.0
40
0.0
40
0.0
40
1.0
40
1.0
40
1.0
10
221.39
20
56.87
10
221.77
20
57.32
10
222.33
20
57.13
72
1
10
222.33
20
57.13
11
225.73
21
55.94
72
4
94
2
73
0
74
0
95
6
96
3
40
0.0
40
0.0
40
0.0
40
1.0
40
1.0
40
1.0
10
225.73
20
55.94
10
226.16
20
55.79
10
226.38
20
56.18
72
1
10
226.38
20
56.18
11
228.31
21
59.53
72
4
94
2
73
0
74
0
95
6
96
3
40
0.0
40
0.0
40
0.0
40
1.0
40
1.0
40
1.0
10
228.31
20
59.53
10
228.57
20
59.97
10
228.18
20
60.29
72
1
10
228.18
20
60.29
11
225.62
21
62.45
72
4
94
2
73
0
74
0
95
6
96
3
40
0.0
40
0.0
40
0.0
40
1.0
40
1.0
40
1.0
10
225.62
20
62.45
10
225.33
20
62.69
10
225.39
20
63.07
72
1
10
225.39
20
63.07
11
225.92
21
66.06
72
4
94
2
73
0
74
0
95
6
96
3
40
0.0
40
0.0
40
0.0
40
1.0
40
1.0
40
1.0
10
225.92
20
66.06
10
226.05
20
66.77
10
226.75
20
66.9
72
1
10
226.75
20
66.9
11
230.11
21
67.52
72
4
94
2
73
0
74
0
95
6
96
3
40
0.0
40
0.0
40
0.0
40
1.0
40
1.0
40
1.0
10
230.11
20
67.52
10
230.62
20
67.61
10
230.62
20
68.12
72
1
10
230.62
20
68.12
11
230.62
21
71.89
72
4
94
2
73
0
74
0
95
6
96
3
40
0.0
40
0.0
40
0.0
40
1.0
40
1.0
40
1.0
10
230.62
20
71.89
10
230.62
20
72.47
10
230.04
20
72.57
72
1
10
230.04
20
72.57
11
226.95
21
73.12
72
1
10
226.95
20
73.12
11
226.95
21
73.12
72
4
94
3
73
0
74
0
95
8
96
4
40
0.0
40
0.0
40
0.0
40
0.0
40
1.0
40
1.0
40
1.0
40
1.0
10
226.95
20
73.12
10
226.64052822
20
73.1757049204
10
226.3852204052
20
73.3890965268
10
226.28
20
73.68
72
1
10
226.28
20
73.68
11
225.27
21
76.49
72
4
94
2
73
0
74
0
95
6
96
3
40
0.0
40
0.0
40
0.0
40
1.0
40
1.0
40
1.0
10
225.27
20
76.49
10
225.06
20
77.08
10
225.53
20
77.48
72
1
10
225.53
20
77.48
11
228.15
21
79.74
72
1
10
228.15
20
79.74
11
228.15
21
79.74
72
4
94
3
73
0
74
0
95
8
96
4
40
0.0
40
0.0
40
0.0
40
0.0
40
1.0
40
1.0
40
1.0
40
1.0
10
228.15
20
79.74
10
228.411256003
20
79.9664218692
10
228.4741706686
20
80.3481041743
10
228.3
20
80.65
72
1
10
228.3
20
80.65
11
226.49
21
83.79
72
1
10
226.49
20
83.79
11
226.49
21
83.79
72
4
94
3
73
0
74
0
95
8
96
4
40
0.0
40
0.0
40
0.0
40
0.0
40
1.0
40
1.0
40
1.0
40
1.0
10
226.49
20
83.79
10
226.3107449569
20
84.1022507203
10
225.9353804032
20
84.2414308357
10
225.6
20
84.12
72
1
10
225.6
20
84.12
11
222.21
21
82.9
72
4
94
2
73
0
74
0
95
6
96
3
40
0.0
40
0.0
40
0.0
40
1.0
40
1.0
40
1.0
10
222.21
20
82.9
10
221.82
20
82.76
10
221.55
20
83.07
72
1
10
221.55
20
83.07
11
219.47
21
85.49
72
4
94
2
73
0
74
0
95
6
96
3
40
0.0
40
0.0
40
0.0
40
1.0
40
1.0
40
1.0
10
219.47
20
85.49
10
219.14
20
85.87
10
219.31
20
86.34
72
1
10
219.31
20
86.34
11
220.3
21
89.16
72
1
10
220.3
20
89.16
11
220.3
21
89.16
72
4
94
3
73
0
74
0
95
8
96
4
40
0.0
40
0.0
40
0.0
40
0.0
40
1.0
40
1.0
40
1.0
40
1.0
10
220.3
20
89.16
10
220.4624435095
20
89.6299258667
10
220.2651165432
20
90.1505331819
10
219.83
20
90.4
72
1
10
219.83
20
90.4
11
217.03
21
92.02
72
1
10
217.03
20
92.02
11
217.03
21
92.02
72
4
94
3
73
0
74
0
95
8
96
4
40
0.0
40
0.0
40
0.0
40
0.0
40
1.0
40
1.0
40
1.0
40
1.0
10
217.03
20
92.02
10
216.6774244539
20
92.2222974445
10
216.2343167874
20
92.1463361302
10
215.98
20
91.84
72
1
10
215.98
20
91.84
11
213.98
21
89.46
72
4
94
2
73
0
74
0
95
6
96
3
40
0.0
40
0.0
40
0.0
40
1.0
40
1.0
40
1.0
10
213.98
20
89.46
10
213.69
20
89.12
10
213.26
20
89.2
72
1
10
213.26
20
89.2
11
210.06
21
89.77
72
1
10
210.06
20
89.77
11
210.06
21
89.77
72
4
94
3
73
0
74
0
95
8
96
4
40
0.0
40
0.0
40
0.0
40
0.0
40
1.0
40
1.0
40
1.0
40
1.0
10
210.06
20
89.77
10
209.7537841186
20
89.8240380967
10
209.5140380967
20
90.0637841186
10
209.46
20
90.37
72
1
10
209.46
20
90.37
11
208.82
21
93.85
72
4
94
2
73
0
74
0
95
6
96
3
40
0.0
40
0.0
40
0.0
40
1.0
40
1.0
40
1.0
10
208.82
20
93.85
10
208.72
20
94.4
10
208.16
20
94.4
72
1
10
208.16
20
94.4
11
204.48
21
94.4
72
4
94
2
73
0
74
0
95
6
96
3
40
0.0
40
0.0
40
0.0
40
1.0
40
1.0
40
1.0
10
204.48
20
94.4
10
203.92
20
94.4
10
203.82
20
93.85
72
1
10
203.82
20
93.85
11
203.25
21
90.58
72
4
94
2
73
0
74
0
95
6
96
3
40
0.0
40
0.0
40
0.0
40
1.0
40
1.0
40
1.0
10
203.25
20
90.58
10
203.18
20
90.23
10
202.85
20
90.11
72
1
10
202.85
20
90.11
11
200.0
21
89.08
72
4
94
2
73
0
74
0
95
6
96
3
40
0.0
40
0.0
40
0.0
40
1.0
40
1.0
40
1.0
10
200.0
20
89.08
10
199.4
20
88.87
10
198.98
20
89.35
72
1
10
198.98
20
89.35
11
196.91
21
91.76
72
4
94
2
73
0
74
0
95
6
96
3
40
0.0
40
0.0
40
0.0
40
1.0
40
1.0
40
1.0
10
196.91
20
91.76
10
195.98
20
92.84
10
195.11
20
91.71
72
4
94
2
73
0
74
0
95
6
96
3
40
0.0
40
0.0
40
0.0
40
1.0
40
1.0
40
1.0
10
195.11
20
91.71
10
194.39
20
90.76
10
193.64
20
88.37
72
4
94
2
73
0
74
0
95
6
96
3
40
0.0
40
0.0
40
0.0
40
1.0
40
1.0
40
1.0
10
193.64
20
88.37
10
193.2
20
86.98
10
194.32
20
86.04
72
1
10
194.32
20
86.04
11
199.8
21
81.43
72
1
10
199.8
20
81.43
11
199.8
21
81.43
72
4
94
3
73
0
74
0
95
8
96
4
40
0.0
40
0.0
40
0.0
40
0.0
40
1.0
40
1.0
40
1.0
40
1.0
10
199.8
20
81.43
10
199.9446392393
20
81.3094673005
10
200.1472808557
20
81.2896004754
10
200.31
20
81.38
72
4
94
2
73
0
74
0
95
6
96
3
40
0.0
40
0.0
40
0.0
40
1.0
40
1.0
40
1.0
10
200.31
20
81.38
10
204.72
20
83.78
10
209.86
20
82.23
72
4
94
2
73
0
74
0
95
6
96
3
40
0.0
40
0.0
40
0.0
40
1.0
40
1.0
40
1.0
10
209.86
20
82.23
10
216.08
20
80.36
10
218.25
20
74.36
72
4
94
3
73
0
74
0
95
8
96
4
40
0.0
40
0.0
40
0.0
40
0.0
40
1.0
40
1.0
40
1.0
40
1.0
10
218.25
20
74.36
10
221.28
20
66.0
10
215.15
20
57.41
10
206.39
20
57.45
72
4
94
2
73
0
74
0
95
6
96
3
40
0.0
40
0.0
40
0.0
40
1.0
40
1.0
40
1.0
10
206.39
20
57.45
10
195.98
20
57.49
10
193.87
20
67.24
72
4
94
2
73
0
74
0
95
6
96
3
40
0.0
40
0.0
40
0.0
40
1.0
40
1.0
40
1.0
10
193.87
20
67.24
10
193.76
20
67.76
10
193.26
20
67.93
72
1
10
193.26
20
67.93
11
184.76
21
70.91
72
4
94
2
73
0
74
0
95
6
96
3
40
0.0
40
0.0
40
0.0
40
1.0
40
1.0
40
1.0
10
184.76
20
70.91
10
184.16
20
71.12
10
183.92
20
70.53
72
1
10
183.92
20
70.53
11
183.25
21
68.84
72
4
94
3
73
0
74
0
95
8
96
4
40
0.0
40
0.0
40
0.0
40
0.0
40
1.0
40
1.0
40
1.0
40
1.0
10
183.25
20
68.84
10
183.1818013824
20
68.6668804322
10
183.186918263
20
68.4734274172
10
183.264181986
20
68.3038241227
72
4
94
3
73
0
74
0
95
8
96
4
40
0.0
40
0.0
40
0.0
40
0.0
40
1.0
40
1.0
40
1.0
40
1.0
10
183.264181986
20
68.3038241227
10
183.3414457091
20
68.1342208283
10
183.4842574084
20
68.0029525701
10
183.66
20
67.94
72
1
10
183.66
20
67.94
11
185.98
21
67.13
72
1
10
185.98
20
67.13
11
185.98
21
67.13
72
4
94
3
73
0
74
0
95
8
96
4
40
0.0
40
0.0
40
0.0
40
0.0
40
1.0
40
1.0
40
1.0
40
1.0
10
185.98
20
67.13
10
186.3506247594
20
67.0002813342
10
186.6220521274
20
66.6829789181
10
186.69
20
66.3
72
1
10
186.69
20
66.3
11
187.25
21
63.23
72
4
94
2
73
0
74
0
95
6
96
3
40
0.0
40
0.0
40
0.0
40
1.0
40
1.0
40
1.0
10
187.25
20
63.23
10
187.31
20
62.9
10
187.05
20
62.67
72
1
10
187.05
20
62.67
11
184.42
21
60.4
72
4
94
2
73
0
74
0
95
6
96
3
40
0.0
40
0.0
40
0.0
40
1.0
40
1.0
40
1.0
10
184.42
20
60.4
10
184.01
20
60.05
10
184.28
20
59.59
72
1
10
184.28
20
59.59
11
186.19
21
56.28
72
4
94
2
73
0
74
0
95
6
96
3
40
0.0
40
0.0
40
0.0
40
1.0
40
1.0
40
1.0
10
186.19
20
56.28
10
186.41
20
55.89
10
186.83
20
56.04
72
1
10
186.83
20
56.04
11
189.92
21
57.16
72
4
94
2
73
0
74
0
95
6
96
3
40
0.0
40
0.0
40
0.0
40
1.0
40
1.0
40
1.0
10
189.92
20
57.16
10
190.36
20
57.32
10
190.72
20
57.02
72
1
10
190.72
20
57.02
11
193.12
21
55.0
72
4
94
2
73
0
74
0
95
6
96
3
40
0.0
40
0.0
40
0.0
40
1.0
40
1.0
40
1.0
10
193.12
20
55.0
10
193.58
20
54.61
10
193.38
20
54.04
72
1
10
193.38
20
54.04
11
192.24
21
50.79
72
4
94
2
73
0
74
0
95
6
96
3
40
0.0
40
0.0
40
0.0
40
1.0
40
1.0
40
1.0
10
192.24
20
50.79
10
192.04
20
50.21
10
192.57
20
49.91
72
1
10
192.57
20
49.91
11
195.73
21
48.08
72
1
10
195.73
20
48.08
11
195.73
21
48.08
72
4
94
3
73
0
74
0
95
8
96
4
40
0.0
40
0.0
40
0.0
40
0.0
40
1.0
40
1.0
40
1.0
40
1.0
10
195.73
20
48.08
10
195.9915200193
20
47.9347111004
10
196.3182186525
20
47.9933493166
10
196.51
20
48.22
72
1
10
196.51
20
48.22
11
198.64
21
50.76
72
4
94
2
73
0
74
0
95
6
96
3
40
0.0
40
0.0
40
0.0
40
1.0
40
1.0
40
1.0
10
198.64
20
50.76
10
198.89
20
51.05
10
199.26
20
50.98
72
1
10
199.26
20
50.98
11
202.32
21
50.44
72
4
94
2
73
0
74
0
95
6
96
3
40
0.0
40
0.0
40
0.0
40
1.0
40
1.0
40
1.0
10
202.32
20
50.44
10
203.02
20
50.32
10
203.15
20
49.61
97
0
92
0
93
8
72
4
94
3
73
0
74
0
95
8
96
4
40
0.0
40
0.0
40
0.0
40
0.0
40
1.0
40
1.0
40
1.0
40
1.0
10
168.49
20
19.95
10
168.49
20
20.1819595949
10
168.3019595949
20
20.37
10
168.07
20
20.37
72
1
10
168.07
20
20.37
11
167.29
21
20.37
72
4
94
3
73
0
74
0
95
8
96
4
40
0.0
40
0.0
40
0.0
40
0.0
40
1.0
40
1.0
40
1.0
40
1.0
10
167.29
20
20.37
10
167.0580404051
20
20.37
10
166.87
20
20.1819595949
10
166.87
20
19.95
72
1
10
166.87
20
19.95
11
166.87
21
7.45
72
4
94
3
73
0
74
0
95
8
96
4
40
0.0
40
0.0
40
0.0
40
0.0
40
1.0
40
1.0
40
1.0
40
1.0
10
166.87
20
7.45
10
166.87
20
7.2180404051
10
167.0580404051
20
7.03
10
167.29
20
7.03
72
1
10
167.29
20
7.03
11
168.07
21
7.03
72
4
94
3
73
0
74
0
95
8
96
4
40
0.0
40
0.0
40
0.0
40
0.0
40
1.0
40
1.0
40
1.0
40
1.0
10
168.07
20
7.03
10
168.3019595949
20
7.03
10
168.49
20
7.2180404051
10
168.49
20
7.45
72
1
10
168.49
20
7.45
11
168.49
21
19.95
97
0
92
0
93
15
72
4
94
3
73
0
74
0
95
8
96
4
40
0.0
40
0.0
40
0.0
40
0.0
40
1.0
40
1.0
40
1.0
40
1.0
10
201.78
20
15.73
10
195.39
20
20.26
10
190.61
20
11.41
10
196.21
20
7.41
72
4
94
3
73
0
74
0
95
8
96
4
40
0.0
40
0.0
40
0.0
40
0.0
40
1.0
40
1.0
40
1.0
40
1.0
10
196.21
20
7.41
10
197.06
20
6.81
10
199.62
20
6.5
10
200.85
20
7.49
72
4
94
2
73
0
74
0
95
6
96
3
40
0.0
40
0.0
40
0.0
40
1.0
40
1.0
40
1.0
10
200.85
20
7.49
10
201.59
20
8.07
10
201.8
20
8.21
72
4
94
2
73
0
74
0
95
6
96
3
40
0.0
40
0.0
40
0.0
40
1.0
40
1.0
40
1.0
10
201.8
20
8.21
10
202.31
20
8.54
10
202.11
20
7.97
72
4
94
2
73
0
74
0
95
6
96
3
40
0.0
40
0.0
40
0.0
40
1.0
40
1.0
40
1.0
10
202.11
20
7.97
10
202.05
20
7.8
10
202.04
20
7.63
72
4
94
2
73
0
74
0
95
6
96
3
40
0.0
40
0.0
40
0.0
40
1.0
40
1.0
40
1.0
10
202.04
20
7.63
10
202.02
20
7.18
10
202.45
20
7.08
72
4
94
2
73
0
74
0
95
6
96
3
40
0.0
40
0.0
40
0.0
40
1.0
40
1.0
40
1.0
10
202.45
20
7.08
10
202.9
20
6.98
10
203.18
20
7.01
72
4
94
2
73
0
74
0
95
6
96
3
40
0.0
40
0.0
40
0.0
40
1.0
40
1.0
40
1.0
10
203.18
20
7.01
10
203.74
20
7.05
10
203.74
20
7.61
72
1
10
203.74
20
7.61
11
203.74
21
19.77
72
1
10
203.74
20
19.77
11
203.74
21
19.77
72
4
94
3
73
0
74
0
95
8
96
4
40
0.0
40
0.0
40
0.0
40
0.0
40
1.0
40
1.0
40
1.0
40
1.0
10
203.74
20
19.77
10
203.74
20
20.0856405236
10
203.5000040856
20
20.3474542483
10
203.19
20
20.37
72
1
10
203.19
20
20.37
11
202.81
21
20.4
72
4
94
2
73
0
74
0
95
6
96
3
40
0.0
40
0.0
40
0.0
40
1.0
40
1.0
40
1.0
10
202.81
20
20.4
10
202.14
20
20.45
10
202.14
20
19.78
72
1
10
202.14
20
19.78
11
202.14
21
15.92
72
4
94
2
73
0
74
0
95
6
96
3
40
0.0
40
0.0
40
0.0
40
1.0
40
1.0
40
1.0
10
202.14
20
15.92
10
202.14
20
15.48
10
201.78
20
15.73
97
0
92
0
93
16
72
4
94
3
73
0
74
0
95
8
96
4
40
0.0
40
0.0
40
0.0
40
0.0
40
1.0
40
1.0
40
1.0
40
1.0
10
145.35
20
9.03
10
147.37
20
10.65
10
149.82
20
12.86
10
150.3
20
15.4
72
4
94
3
73
0
74
0
95
8
96
4
40
0.0
40
0.0
40
0.0
40
0.0
40
1.0
40
1.0
40
1.0
40
1.0
10
150.3
20
15.4
10
151.45
20
21.45
10
143.16
20
21.89
10
142.21
20
16.67
72
4
94
2
73
0
74
0
95
6
96
3
40
0.0
40
0.0
40
0.0
40
1.0
40
1.0
40
1.0
10
142.21
20
16.67
10
142.09
20
16.05
10
142.73
20
16.05
72
1
10
142.73
20
16.05
11
143.09
21
16.05
72
4
94
2
73
0
74
0
95
6
96
3
40
0.0
40
0.0
40
0.0
40
1.0
40
1.0
40
1.0
10
143.09
20
16.05
10
143.8
20
16.05
10
143.9
20
16.75
72
4
94
2
73
0
74
0
95
6
96
3
40
0.0
40
0.0
40
0.0
40
1.0
40
1.0
40
1.0
10
143.9
20
16.75
10
144.18
20
18.64
10
146.4
20
18.85
72
4
94
3
73
0
74
0
95
8
96
4
40
0.0
40
0.0
40
0.0
40
0.0
40
1.0
40
1.0
40
1.0
40
1.0
10
146.4
20
18.85
10
147.0428387167
20
18.9107406661
10
147.6807830693
20
18.6923185651
10
148.151483083
20
18.2503197716
72
4
94
3
73
0
74
0
95
8
96
4
40
0.0
40
0.0
40
0.0
40
0.0
40
1.0
40
1.0
40
1.0
40
1.0
10
148.151483083
20
18.2503197716
10
148.6221830968
20
17.8083209782
10
148.8802468887
20
17.1853695778
10
148.86
20
16.54
72
4
94
3
73
0
74
0
95
8
96
4
40
0.0
40
0.0
40
0.0
40
0.0
40
1.0
40
1.0
40
1.0
40
1.0
10
148.86
20
16.54
10
148.77
20
13.41
10
145.54
20
10.98
10
143.05
20
9.0
72
4
94
2
73
0
74
0
95
6
96
3
40
0.0
40
0.0
40
0.0
40
1.0
40
1.0
40
1.0
10
143.05
20
9.0
10
140.7
20
7.12
10
143.71
20
7.12
72
1
10
143.71
20
7.12
11
150.47
21
7.12
72
4
94
2
73
0
74
0
95
6
96
3
40
0.0
40
0.0
40
0.0
40
1.0
40
1.0
40
1.0
10
150.47
20
7.12
10
150.87
20
7.12
10
150.87
20
7.52
72
1
10
150.87
20
7.52
11
150.87
21
8.06
72
4
94
2
73
0
74
0
95
6
96
3
40
0.0
40
0.0
40
0.0
40
1.0
40
1.0
40
1.0
10
150.87
20
8.06
10
150.87
20
8.48
10
150.45
20
8.48
72
1
10
150.45
20
8.48
11
145.54
21
8.48
72
4
94
2
73
0
74
0
95
6
96
3
40
0.0
40
0.0
40
0.0
40
1.0
40
1.0
40
1.0
10
145.54
20
8.48
10
144.66
20
8.48
10
145.35
20
9.03
97
0
92
0
93
15
72
4
94
2
73
0
74
0
95
6
96
3
40
0.0
40
0.0
40
0.0
40
1.0
40
1.0
40
1.0
10
152.3767990535
20
13.3511275138
10
152.3426285704
20
9.7442371809
10
155.133189853
20
8.0084023801
72
4
94
2
73
0
74
0
95
6
96
3
40
0.0
40
0.0
40
0.0
40
1.0
40
1.0
40
1.0
10
155.133189853
20
8.0084023801
10
160.14
20
4.89
10
164.19
20
9.84
72
1
10
164.19
20
9.84
11
164.19
21
9.84
72
4
94
3
73
0
74
0
95
8
96
4
40
0.0
40
0.0
40
0.0
40
0.0
40
1.0
40
1.0
40
1.0
40
1.0
10
164.19
20
9.84
10
164.3049926493
20
9.9822790407
10
164.3310019085
20
10.17665964
10
164.2575206689
20
10.3446167591
72
4
94
3
73
0
74
0
95
8
96
4
40
0.0
40
0.0
40
0.0
40
0.0
40
1.0
40
1.0
40
1.0
40
1.0
10
164.2575206689
20
10.3446167591
10
164.1840394293
20
10.5125738783
10
164.0232086278
20
10.6263568043
10
163.84
20
10.64
72
1
10
163.84
20
10.64
11
163.53
21
10.66
72
4
94
2
73
0
74
0
95
6
96
3
40
0.0
40
0.0
40
0.0
40
1.0
40
1.0
40
1.0
10
163.53
20
10.66
10
162.76
20
10.72
10
162.2503194902
20
10.1429973198
72
4
94
3
73
0
74
0
95
8
96
4
40
0.0
40
0.0
40
0.0
40
0.0
40
1.0
40
1.0
40
1.0
40
1.0
10
162.2503194902
20
10.1429973198
10
159.1068929087
20
6.5629096414
10
154.070693477
20
8.4666618332
10
154.1168111186
20
13.3346432164
72
4
94
3
73
0
74
0
95
8
96
4
40
0.0
40
0.0
40
0.0
40
0.0
40
1.0
40
1.0
40
1.0
40
1.0
10
154.1168111186
20
13.3346432164
10
154.1629287602
20
18.2026245996
10
159.2342920682
20
20.0106210933
10
162.309327413
20
16.3716217685
72
4
94
2
73
0
74
0
95
6
96
3
40
0.0
40
0.0
40
0.0
40
1.0
40
1.0
40
1.0
10
162.309327413
20
16.3716217685
10
162.80798476
20
15.7850664297
10
163.5789832949
20
15.8304675206
72
1
10
163.5789832949
20
15.8304675206
11
163.8893065674
21
15.8445907836
72
4
94
3
73
0
74
0
95
8
96
4
40
0.0
40
0.0
40
0.0
40
0.0
40
1.0
40
1.0
40
1.0
40
1.0
10
163.8893065674
20
15.8445907836
10
164.0727407911
20
15.8547605264
10
164.2356984159
20
15.9654759883
10
164.3123485213
20
16.1320108128
72
4
94
3
73
0
74
0
95
8
96
4
40
0.0
40
0.0
40
0.0
40
0.0
40
1.0
40
1.0
40
1.0
40
1.0
10
164.3123485213
20
16.1320108128
10
164.3889986267
20
16.2985456374
10
164.3666766999
20
16.4933841103
10
164.254400257
20
16.637816223
72
4
94
2
73
0
74
0
95
6
96
3
40
0.0
40
0.0
40
0.0
40
1.0
40
1.0
40
1.0
10
164.254400257
20
16.637816223
10
160.2989080705
20
21.6636576017
10
155.2339164514
20
18.6406721321
72
4
94
2
73
0
74
0
95
6
96
3
40
0.0
40
0.0
40
0.0
40
1.0
40
1.0
40
1.0
10
155.2339164514
20
18.6406721321
10
152.4109695366
20
16.9580178467
10
152.3767990535
20
13.3511275138
97
0
92
0
93
28
72
4
94
2
73
0
74
0
95
6
96
3
40
0.0
40
0.0
40
0.0
40
1.0
40
1.0
40
1.0
10
100.7402390091
20
7.0241835893
10
101.0314026265
20
7.0234692411
10
101.2561043309
20
7.1486067615
72
4
94
2
73
0
74
0
95
6
96
3
40
0.0
40
0.0
40
0.0
40
1.0
40
1.0
40
1.0
10
101.2561043309
20
7.1486067615
10
101.44
20
7.25
10
101.56
20
7.52
72
4
94
2
73
0
74
0
95
6
96
3
40
0.0
40
0.0
40
0.0
40
1.0
40
1.0
40
1.0
10
101.56
20
7.52
10
103.04
20
10.77
10
104.97
20
15.22
72
4
94
2
73
0
74
0
95
6
96
3
40
0.0
40
0.0
40
0.0
40
1.0
40
1.0
40
1.0
10
104.97
20
15.22
10
105.49
20
16.41
10
105.49
20
15.11
72
1
10
105.49
20
15.11
11
105.49
21
7.54
72
4
94
2
73
0
74
0
95
6
96
3
40
0.0
40
0.0
40
0.0
40
1.0
40
1.0
40
1.0
10
105.49
20
7.54
10
105.49
20
7.01
10
106.02
20
7.01
72
1
10
106.02
20
7.01
11
106.55
21
7.01
72
4
94
2
73
0
74
0
95
6
96
3
40
0.0
40
0.0
40
0.0
40
1.0
40
1.0
40
1.0
10
106.55
20
7.01
10
107.13
20
7.01
10
107.13
20
7.59
72
1
10
107.13
20
7.59
11
107.13
21
18.96
72
4
94
2
73
0
74
0
95
6
96
3
40
0.0
40
0.0
40
0.0
40
1.0
40
1.0
40
1.0
10
107.13
20
18.96
10
107.13
20
19.49
10
106.61
20
19.55
72
4
94
2
73
0
74
0
95
6
96
3
40
0.0
40
0.0
40
0.0
40
1.0
40
1.0
40
1.0
10
106.61
20
19.55
10
106.19
20
19.59
10
105.81
20
19.53
72
4
94
2
73
0
74
0
95
6
96
3
40
0.0
40
0.0
40
0.0
40
1.0
40
1.0
40
1.0
10
105.81
20
19.53
10
105.38
20
19.45
10
105.02
20
18.65
72
4
94
2
73
0
74
0
95
6
96
3
40
0.0
40
0.0
40
0.0
40
1.0
40
1.0
40
1.0
10
105.02
20
18.65
10
102.94
20
14.06
10
100.8719183771
20
9.4648647704
72
4
94
2
73
0
74
0
95
6
96
3
40
0.0
40
0.0
40
0.0
40
1.0
40
1.0
40
1.0
10
100.8719183771
20
9.4648647704
10
100.83176809
20
9.3757649565
10
100.746008955
20
9.3759753601
72
4
94
2
73
0
74
0
95
6
96
3
40
0.0
40
0.0
40
0.0
40
1.0
40
1.0
40
1.0
10
100.746008955
20
9.3759753601
10
100.6602498201
20
9.3761857638
10
100.6205372132
20
9.4654815154
72
4
94
2
73
0
74
0
95
6
96
3
40
0.0
40
0.0
40
0.0
40
1.0
40
1.0
40
1.0
10
100.6205372132
20
9.4654815154
10
98.5750279953
20
14.0707091337
10
96.5175753461
20
18.6708600657
72
4
94
2
73
0
74
0
95
6
96
3
40
0.0
40
0.0
40
0.0
40
1.0
40
1.0
40
1.0
10
96.5175753461
20
18.6708600657
10
96.1615051372
20
19.4726168906
10
95.7319028595
20
19.5547258607
72
4
94
2
73
0
74
0
95
6
96
3
40
0.0
40
0.0
40
0.0
40
1.0
40
1.0
40
1.0
10
95.7319028595
20
19.5547258607
10
95.3522018434
20
19.6165897306
10
94.9320106267
20
19.5786510772
72
4
94
2
73
0
74
0
95
6
96
3
40
0.0
40
0.0
40
0.0
40
1.0
40
1.0
40
1.0
10
94.9320106267
20
19.5786510772
10
94.4117224775
20
19.5212033467
10
94.4091218621
20
18.9912097271
72
1
10
94.4091218621
20
18.9912097271
11
94.3533313015
21
7.6213466051
72
4
94
2
73
0
74
0
95
6
96
3
40
0.0
40
0.0
40
0.0
40
1.0
40
1.0
40
1.0
10
94.3533313015
20
7.6213466051
10
94.350485345
20
7.0413535874
10
94.9304783627
20
7.038507631
72
1
10
94.9304783627
20
7.038507631
11
95.4604719823
21
7.0359070156
72
4
94
2
73
0
74
0
95
6
96
3
40
0.0
40
0.0
40
0.0
40
1.0
40
1.0
40
1.0
10
95.4604719823
20
7.0359070156
10
95.9904656019
20
7.0333064001
10
95.9930662173
20
7.5633000197
72
1
10
95.9930662173
20
7.5633000197
11
96.0302108561
21
15.1332088881
72
4
94
2
73
0
74
0
95
6
96
3
40
0.0
40
0.0
40
0.0
40
1.0
40
1.0
40
1.0
10
96.0302108561
20
15.1332088881
10
96.0365897241
20
16.4331932381
10
96.5507443464
20
15.2406560167
72
4
94
2
73
0
74
0
95
6
96
3
40
0.0
40
0.0
40
0.0
40
1.0
40
1.0
40
1.0
10
96.5507443464
20
15.2406560167
10
98.4588857564
20
10.7812394226
10
99.9229207694
20
7.524016452
72
4
94
2
73
0
74
0
95
6
96
3
40
0.0
40
0.0
40
0.0
40
1.0
40
1.0
40
1.0
10
99.9229207694
20
7.524016452
10
100.041594483
20
7.2534308838
10
100.2249904198
20
7.1511365227
72
4
94
2
73
0
74
0
95
6
96
3
40
0.0
40
0.0
40
0.0
40
1.0
40
1.0
40
1.0
10
100.2249904198
20
7.1511365227
10
100.4490753916
20
7.0248979376
10
100.7402390091
20
7.0241835893
97
0
92
0
93
4
72
4
94
3
73
0
74
0
95
8
96
4
40
0.0
40
0.0
40
0.0
40
0.0
40
1.0
40
1.0
40
1.0
40
1.0
10
119.34
20
11.95
10
119.34
20
14.7611293766
10
117.0611293766
20
17.04
10
114.25
20
17.04
72
4
94
3
73
0
74
0
95
8
96
4
40
0.0
40
0.0
40
0.0
40
0.0
40
1.0
40
1.0
40
1.0
40
1.0
10
114.25
20
17.04
10
111.4388706234
20
17.04
10
109.16
20
14.7611293766
10
109.16
20
11.95
72
4
94
3
73
0
74
0
95
8
96
4
40
0.0
40
0.0
40
0.0
40
0.0
40
1.0
40
1.0
40
1.0
40
1.0
10
109.16
20
11.95
10
109.16
20
9.1388706234
10
111.4388706234
20
6.86
10
114.25
20
6.86
72
4
94
3
73
0
74
0
95
8
96
4
40
0.0
40
0.0
40
0.0
40
0.0
40
1.0
40
1.0
40
1.0
40
1.0
10
114.25
20
6.86
10
117.0611293766
20
6.86
10
119.34
20
9.1388706234
10
119.34
20
11.95
97
0
92
0
93
20
72
4
94
2
73
0
74
0
95
6
96
3
40
0.0
40
0.0
40
0.0
40
1.0
40
1.0
40
1.0
10
125.0720958351
20
6.9746513761
10
125.4411662458
20
6.9750460565
10
125.5875419134
20
7.0081698138
72
4
94
2
73
0
74
0
95
6
96
3
40
0.0
40
0.0
40
0.0
40
1.0
40
1.0
40
1.0
10
125.5875419134
20
7.0081698138
10
126.07
20
7.12
10
126.25
20
7.58
72
1
10
126.25
20
7.58
11
129.66
21
16.28
72
4
94
2
73
0
74
0
95
6
96
3
40
0.0
40
0.0
40
0.0
40
1.0
40
1.0
40
1.0
10
129.66
20
16.28
10
129.8
20
16.65
10
129.43
20
16.78
72
1
10
129.43
20
16.78
11
129.06
21
16.91
72
1
10
129.06
20
16.91
11
129.06
21
16.91
72
4
94
3
73
0
74
0
95
8
96
4
40
0.0
40
0.0
40
0.0
40
0.0
40
1.0
40
1.0
40
1.0
40
1.0
10
129.06
20
16.91
10
128.6001745018
20
17.0706619211
10
128.0962019873
20
16.8298254982
10
127.93
20
16.37
72
4
94
2
73
0
74
0
95
6
96
3
40
0.0
40
0.0
40
0.0
40
1.0
40
1.0
40
1.0
10
127.93
20
16.37
10
126.67
20
12.86
10
125.24
20
8.99
72
4
94
2
73
0
74
0
95
6
96
3
40
0.0
40
0.0
40
0.0
40
1.0
40
1.0
40
1.0
10
125.24
20
8.99
10
125.22
20
8.92
10
125.185092393
20
8.8997854502
72
4
94
2
73
0
74
0
95
6
96
3
40
0.0
40
0.0
40
0.0
40
1.0
40
1.0
40
1.0
10
125.185092393
20
8.8997854502
10
125.1308126262
20
8.8661229196
10
125.0700731829
20
8.8660579654
72
4
94
2
73
0
74
0
95
6
96
3
40
0.0
40
0.0
40
0.0
40
1.0
40
1.0
40
1.0
10
125.0700731829
20
8.8660579654
10
125.0093337396
20
8.8659930112
10
124.9549821003
20
8.8995393725
72
4
94
2
73
0
74
0
95
6
96
3
40
0.0
40
0.0
40
0.0
40
1.0
40
1.0
40
1.0
10
124.9549821003
20
8.8995393725
10
124.9200313387
20
8.9196792164
10
124.89988167
20
8.9896362807
72
4
94
2
73
0
74
0
95
6
96
3
40
0.0
40
0.0
40
0.0
40
1.0
40
1.0
40
1.0
10
124.89988167
20
8.9896362807
10
123.4616078681
20
12.8565689761
10
122.1941036377
20
16.3638660873
72
1
10
122.1941036377
20
16.3638660873
11
122.1941036377
21
16.3638660873
72
4
94
3
73
0
74
0
95
8
96
4
40
0.0
40
0.0
40
0.0
40
0.0
40
1.0
40
1.0
40
1.0
40
1.0
10
122.1941036377
20
16.3638660873
10
122.0269185656
20
16.8233350645
10
121.5224321081
20
17.063093051
10
121.0629512818
20
16.9014480325
72
1
10
121.0629512818
20
16.9014480325
11
120.6932301693
21
16.7706569819
72
4
94
2
73
0
74
0
95
6
96
3
40
0.0
40
0.0
40
0.0
40
1.0
40
1.0
40
1.0
10
120.6932301693
20
16.7706569819
10
120.3235090567
20
16.6398659312
10
120.4643000846
20
16.2701662064
72
1
10
120.4643000846
20
16.2701662064
11
123.8928996576
21
7.5774793394
72
4
94
2
73
0
74
0
95
6
96
3
40
0.0
40
0.0
40
0.0
40
1.0
40
1.0
40
1.0
10
123.8928996576
20
7.5774793394
10
124.073883084
20
7.1178653717
10
124.5565792472
20
7.0070673122
72
4
94
2
73
0
74
0
95
6
96
3
40
0.0
40
0.0
40
0.0
40
1.0
40
1.0
40
1.0
10
124.5565792472
20
7.0070673122
10
124.7030254243
20
6.9742566957
10
125.0720958351
20
6.9746513761
97
0
92
0
93
14
72
1
10
133.19
20
11.36
11
138.86
21
11.36
72
4
94
2
73
0
74
0
95
6
96
3
40
0.0
40
0.0
40
0.0
40
1.0
40
1.0
40
1.0
10
138.86
20
11.36
10
141.4
20
11.36
10
140.34
20
13.66
72
1
10
140.34
20
13.66
11
140.0
21
14.42
72
4
94
2
73
0
74
0
95
6
96
3
40
0.0
40
0.0
40
0.0
40
1.0
40
1.0
40
1.0
10
140.0
20
14.42
10
138.78
20
17.07
10
136.06
20
16.99
72
4
94
2
73
0
74
0
95
6
96
3
40
0.0
40
0.0
40
0.0
40
1.0
40
1.0
40
1.0
10
136.06
20
16.99
10
130.72
20
16.84
10
130.93
20
11.8
72
4
94
2
73
0
74
0
95
6
96
3
40
0.0
40
0.0
40
0.0
40
1.0
40
1.0
40
1.0
10
130.93
20
11.8
10
131.1
20
7.47
10
135.18
20
6.9
72
4
94
2
73
0
74
0
95
6
96
3
40
0.0
40
0.0
40
0.0
40
1.0
40
1.0
40
1.0
10
135.18
20
6.9
10
138.51
20
6.44
10
140.12
20
9.42
72
1
10
140.12
20
9.42
11
140.12
21
9.42
72
4
94
3
73
0
74
0
95
8
96
4
40
0.0
40
0.0
40
0.0
40
0.0
40
1.0
40
1.0
40
1.0
40
1.0
10
140.12
20
9.42
10
140.1913415909
20
9.5504531948
10
140.1868041744
20
9.7092000237
10
140.108123801
20
9.8355027284
72
4
94
3
73
0
74
0
95
8
96
4
40
0.0
40
0.0
40
0.0
40
0.0
40
1.0
40
1.0
40
1.0
40
1.0
10
140.108123801
20
9.8355027284
10
140.0294434276
20
9.9618054331
10
139.8887981753
20
10.0361149935
10
139.74
20
10.03
72
4
94
2
73
0
74
0
95
6
96
3
40
0.0
40
0.0
40
0.0
40
1.0
40
1.0
40
1.0
10
139.74
20
10.03
10
138.56
20
9.98
10
137.82
20
9.05
72
4
94
2
73
0
74
0
95
6
96
3
40
0.0
40
0.0
40
0.0
40
1.0
40
1.0
40
1.0
10
137.82
20
9.05
10
137.51
20
8.65
10
137.04
20
8.47
72
4
94
3
73
0
74
0
95
8
96
4
40
0.0
40
0.0
40
0.0
40
0.0
40
1.0
40
1.0
40
1.0
40
1.0
10
137.04
20
8.47
10
135.14
20
7.74
10
133.05
20
8.47
10
132.68
20
10.76
72
4
94
2
73
0
74
0
95
6
96
3
40
0.0
40
0.0
40
0.0
40
1.0
40
1.0
40
1.0
10
132.68
20
10.76
10
132.59
20
11.36
10
133.19
20
11.36
97
0
92
0
93
4
72
4
94
3
73
0
74
0
95
8
96
4
40
0.0
40
0.0
40
0.0
40
0.0
40
1.0
40
1.0
40
1.0
40
1.0
10
180.79
20
11.93
10
180.79
20
14.7356065291
10
178.5156065291
20
17.01
10
175.71
20
17.01
72
4
94
3
73
0
74
0
95
8
96
4
40
0.0
40
0.0
40
0.0
40
0.0
40
1.0
40
1.0
40
1.0
40
1.0
10
175.71
20
17.01
10
172.9043934709
20
17.01
10
170.63
20
14.7356065291
10
170.63
20
11.93
72
4
94
3
73
0
74
0
95
8
96
4
40
0.0
40
0.0
40
0.0
40
0.0
40
1.0
40
1.0
40
1.0
40
1.0
10
170.63
20
11.93
10
170.63
20
9.1243934709
10
172.9043934709
20
6.85
10
175.71
20
6.85
72
4
94
3
73
0
74
0
95
8
96
4
40
0.0
40
0.0
40
0.0
40
0.0
40
1.0
40
1.0
40
1.0
40
1.0
10
175.71
20
6.85
10
178.5156065291
20
6.85
10
180.79
20
9.1243934709
10
180.79
20
11.93
97
0
92
0
93
21
72
4
94
2
73
0
74
0
95
6
96
3
40
0.0
40
0.0
40
0.0
40
1.0
40
1.0
40
1.0
10
189.84
20
7.65
10
190.23
20
6.84
10
191.16
20
7.01
72
4
94
2
73
0
74
0
95
6
96
3
40
0.0
40
0.0
40
0.0
40
1.0
40
1.0
40
1.0
10
191.16
20
7.01
10
191.62
20
7.1
10
191.62
20
7.57
72
1
10
191.62
20
7.57
11
191.62
21
16.46
72
4
94
2
73
0
74
0
95
6
96
3
40
0.0
40
0.0
40
0.0
40
1.0
40
1.0
40
1.0
10
191.62
20
16.46
10
191.62
20
16.94
10
191.14
20
16.94
72
1
10
191.14
20
16.94
11
190.76
21
16.94
72
4
94
2
73
0
74
0
95
6
96
3
40
0.0
40
0.0
40
0.0
40
1.0
40
1.0
40
1.0
10
190.76
20
16.94
10
190.07
20
16.94
10
190.05
20
16.26
72
1
10
190.05
20
16.26
11
189.91
21
10.89
72
4
94
2
73
0
74
0
95
6
96
3
40
0.0
40
0.0
40
0.0
40
1.0
40
1.0
40
1.0
10
189.91
20
10.89
10
189.84
20
8.37
10
187.22
20
8.3
72
4
94
2
73
0
74
0
95
6
96
3
40
0.0
40
0.0
40
0.0
40
1.0
40
1.0
40
1.0
10
187.22
20
8.3
10
187.15
20
8.29
10
187.12
20
8.29
72
4
94
2
73
0
74
0
95
6
96
3
40
0.0
40
0.0
40
0.0
40
1.0
40
1.0
40
1.0
10
187.12
20
8.29
10
184.43
20
8.35
10
184.4
20
10.99
72
1
10
184.4
20
10.99
11
184.35
21
16.51
72
4
94
3
73
0
74
0
95
8
96
4
40
0.0
40
0.0
40
0.0
40
0.0
40
1.0
40
1.0
40
1.0
40
1.0
10
184.35
20
16.51
10
184.35
20
16.7143453574
10
184.1798682049
20
16.88
10
183.97
20
16.88
72
1
10
183.97
20
16.88
11
183.15
21
16.88
72
4
94
3
73
0
74
0
95
8
96
4
40
0.0
40
0.0
40
0.0
40
0.0
40
1.0
40
1.0
40
1.0
40
1.0
10
183.15
20
16.88
10
183.0369068071
20
16.88
10
182.9285706598
20
16.8354273925
10
182.84951516
20
16.7563718927
72
4
94
3
73
0
74
0
95
8
96
4
40
0.0
40
0.0
40
0.0
40
0.0
40
1.0
40
1.0
40
1.0
40
1.0
10
182.84951516
20
16.7563718927
10
182.7704596602
20
16.6773163929
10
182.7273699257
20
16.5704631187
10
182.73
20
16.46
72
4
94
2
73
0
74
0
95
6
96
3
40
0.0
40
0.0
40
0.0
40
1.0
40
1.0
40
1.0
10
182.73
20
16.46
10
182.79
20
12.72
10
182.75
20
12.0
72
4
94
3
73
0
74
0
95
8
96
4
40
0.0
40
0.0
40
0.0
40
0.0
40
1.0
40
1.0
40
1.0
40
1.0
10
182.75
20
12.0
10
182.54
20
8.4
10
184.67
20
6.08
10
188.34
20
7.15
72
1
10
188.34
20
7.15
11
188.34
21
7.15
72
4
94
3
73
0
74
0
95
8
96
4
40
0.0
40
0.0
40
0.0
40
0.0
40
1.0
40
1.0
40
1.0
40
1.0
10
188.34
20
7.15
10
188.4835372806
20
7.1891465311
10
188.6156092505
20
7.2725604068
10
188.72
20
7.39
72
1
10
188.72
20
7.39
11
189.02
21
7.76
72
4
94
2
73
0
74
0
95
6
96
3
40
0.0
40
0.0
40
0.0
40
1.0
40
1.0
40
1.0
10
189.02
20
7.76
10
189.51
20
8.33
10
189.84
20
7.65
97
0
75
0
76
1
98
0
0
HATCH
5
459
100
AcDbEntity
8
Layer 1
6
Solid
370
0
62
160
100
AcDbHatch
10
0
20
0
30
0
210
0
220
0
230
1
2
FILL_1113
70
1
71
0
91
1
92
0
93
22
72
4
94
2
73
0
74
0
95
6
96
3
40
0.0
40
0.0
40
0.0
40
1.0
40
1.0
40
1.0
10
204.04
20
151.83
10
224.16
20
147.53
10
236.96
20
134.93
72
4
94
2
73
0
74
0
95
6
96
3
40
0.0
40
0.0
40
0.0
40
1.0
40
1.0
40
1.0
10
236.96
20
134.93
10
247.05
20
125.0
10
250.58
20
108.83
72
4
94
2
73
0
74
0
95
6
96
3
40
0.0
40
0.0
40
0.0
40
1.0
40
1.0
40
1.0
10
250.58
20
108.83
10
250.68
20
108.38
10
251.13
20
108.35
72
1
10
251.13
20
108.35
11
287.31
21
105.56
72
4
94
2
73
0
74
0
95
6
96
3
40
0.0
40
0.0
40
0.0
40
1.0
40
1.0
40
1.0
10
287.31
20
105.56
10
289.34
20
105.41
10
287.31
20
105.26
72
4
94
3
73
0
74
0
95
8
96
4
40
0.0
40
0.0
40
0.0
40
0.0
40
1.0
40
1.0
40
1.0
40
1.0
10
287.31
20
105.26
10
283.39
20
104.97
10
278.49
20
105.32
10
275.23
20
105.3
72
4
94
2
73
0
74
0
95
6
96
3
40
0.0
40
0.0
40
0.0
40
1.0
40
1.0
40
1.0
10
275.23
20
105.3
10
141.44
20
104.8
10
7.67
20
104.29
72
4
94
2
73
0
74
0
95
6
96
3
40
0.0
40
0.0
40
0.0
40
1.0
40
1.0
40
1.0
10
7.67
20
104.29
10
7.24
20
104.29
10
7.54
20
104.52
72
1
10
7.54
20
104.52
11
7.74
21
104.67
72
4
94
2
73
0
74
0
95
6
96
3
40
0.0
40
0.0
40
0.0
40
1.0
40
1.0
40
1.0
10
7.74
20
104.67
10
7.77
20
104.69
10
7.8
20
104.7
72
1
10
7.8
20
104.7
11
45.39
21
108.1
72
4
94
2
73
0
74
0
95
6
96
3
40
0.0
40
0.0
40
0.0
40
1.0
40
1.0
40
1.0
10
45.39
20
108.1
10
45.93
20
108.15
10
46.16
20
108.63
72
4
94
2
73
0
74
0
95
6
96
3
40
0.0
40
0.0
40
0.0
40
1.0
40
1.0
40
1.0
10
46.16
20
108.63
10
51.97
20
120.8
10
64.33
20
128.07
72
4
94
2
73
0
74
0
95
6
96
3
40
0.0
40
0.0
40
0.0
40
1.0
40
1.0
40
1.0
10
64.33
20
128.07
10
64.75
20
128.32
10
64.81
20
128.8
72
4
94
2
73
0
74
0
95
6
96
3
40
0.0
40
0.0
40
0.0
40
1.0
40
1.0
40
1.0
10
64.81
20
128.8
10
65.71
20
136.26
10
67.39
20
140.56
72
4
94
2
73
0
74
0
95
6
96
3
40
0.0
40
0.0
40
0.0
40
1.0
40
1.0
40
1.0
10
67.39
20
140.56
10
76.54
20
163.97
10
99.67
20
171.34
72
4
94
2
73
0
74
0
95
6
96
3
40
0.0
40
0.0
40
0.0
40
1.0
40
1.0
40
1.0
10
99.67
20
171.34
10
110.65
20
174.84
10
123.49
20
172.36
72
4
94
2
73
0
74
0
95
6
96
3
40
0.0
40
0.0
40
0.0
40
1.0
40
1.0
40
1.0
10
123.49
20
172.36
10
123.94
20
172.27
10
124.29
20
172.58
72
4
94
2
73
0
74
0
95
6
96
3
40
0.0
40
0.0
40
0.0
40
1.0
40
1.0
40
1.0
10
124.29
20
172.58
10
138.49
20
185.29
10
156.99
20
185.45
72
4
94
2
73
0
74
0
95
6
96
3
40
0.0
40
0.0
40
0.0
40
1.0
40
1.0
40
1.0
10
156.99
20
185.45
10
168.08
20
185.54
10
177.53
20
181.04
72
4
94
2
73
0
74
0
95
6
96
3
40
0.0
40
0.0
40
0.0
40
1.0
40
1.0
40
1.0
10
177.53
20
181.04
10
196.32
20
172.07
10
203.4
20
152.39
72
4
94
2
73
0
74
0
95
6
96
3
40
0.0
40
0.0
40
0.0
40
1.0
40
1.0
40
1.0
10
203.4
20
152.39
10
203.57
20
151.94
10
204.04
20
151.83
97
0
75
0
76
1
98
0
0
HATCH
5
58d
100
AcDbEntity
8
Layer 1
6
Solid
370
0
62
160
100
AcDbHatch
10
0
20
0
30
0
210
0
220
0
230
1
2
FILL_1421
70
1
71
0
91
2
92
0
93
146
72
4
94
2
73
0
74
0
95
6
96
3
40
0.0
40
0.0
40
0.0
40
1.0
40
1.0
40
1.0
10
81.07
20
95.66
10
81.51
20
95.16
10
81.63
20
94.89
72
1
10
81.63
20
94.89
11
81.63
21
94.89
72
4
94
3
73
0
74
0
95
8
96
4
40
0.0
40
0.0
40
0.0
40
0.0
40
1.0
40
1.0
40
1.0
40
1.0
10
81.63
20
94.89
10
81.7384789646
20
94.6387855557
10
81.6440861867
20
94.3470260605
10
81.41
20
94.21
72
1
10
81.41
20
94.21
11
77.19
21
91.78
72
4
94
2
73
0
74
0
95
6
96
3
40
0.0
40
0.0
40
0.0
40
1.0
40
1.0
40
1.0
10
77.19
20
91.78
10
76.78
20
91.54
10
76.56
20
91.96
72
4
94
2
73
0
74
0
95
6
96
3
40
0.0
40
0.0
40
0.0
40
1.0
40
1.0
40
1.0
10
76.56
20
91.96
10
74.51
20
95.8
10
70.24
20
95.31
72
4
94
3
73
0
74
0
95
8
96
4
40
0.0
40
0.0
40
0.0
40
0.0
40
1.0
40
1.0
40
1.0
40
1.0
10
70.24
20
95.31
10
64.1
20
94.6
10
62.67
20
86.86
10
67.9
20
83.67
72
1
10
67.9
20
83.67
11
67.9
21
83.67
72
4
94
3
73
0
74
0
95
8
96
4
40
0.0
40
0.0
40
0.0
40
0.0
40
1.0
40
1.0
40
1.0
40
1.0
10
67.9
20
83.67
10
68.2001025027
20
83.4866040261
10
68.2978385201
20
83.0956599564
10
68.12
20
82.79
72
1
10
68.12
20
82.79
11
65.87
21
78.89
72
4
94
2
73
0
74
0
95
6
96
3
40
0.0
40
0.0
40
0.0
40
1.0
40
1.0
40
1.0
10
65.87
20
78.89
10
65.66
20
78.52
10
65.24
20
78.63
72
1
10
65.24
20
78.63
11
64.64
21
78.8
72
4
94
2
73
0
74
0
95
6
96
3
40
0.0
40
0.0
40
0.0
40
1.0
40
1.0
40
1.0
10
64.64
20
78.8
10
64.02
20
78.97
10
64.13
20
79.6
72
1
10
64.13
20
79.6
11
64.41
21
81.17
72
4
94
2
73
0
74
0
95
6
96
3
40
0.0
40
0.0
40
0.0
40
1.0
40
1.0
40
1.0
10
64.41
20
81.17
10
64.5
20
81.69
10
64.15
20
82.09
72
4
94
2
73
0
74
0
95
6
96
3
40
0.0
40
0.0
40
0.0
40
1.0
40
1.0
40
1.0
10
64.15
20
82.09
10
63.29
20
83.06
10
61.64
20
82.22
72
1
10
61.64
20
82.22
11
61.64
21
82.22
72
4
94
3
73
0
74
0
95
8
96
4
40
0.0
40
0.0
40
0.0
40
0.0
40
1.0
40
1.0
40
1.0
40
1.0
10
61.64
20
82.22
10
61.3669344094
20
82.0751080539
10
61.0260374804
20
82.1769344094
10
60.87
20
82.45
72
1
10
60.87
20
82.45
11
60.21
21
83.59
72
4
94
2
73
0
74
0
95
6
96
3
40
0.0
40
0.0
40
0.0
40
1.0
40
1.0
40
1.0
10
60.21
20
83.59
10
59.95
20
84.04
10
60.32
20
84.41
72
1
10
60.32
20
84.41
11
61.26
21
85.35
72
1
10
61.26
20
85.35
11
61.26
21
85.35
72
4
94
3
73
0
74
0
95
8
96
4
40
0.0
40
0.0
40
0.0
40
0.0
40
1.0
40
1.0
40
1.0
40
1.0
10
61.26
20
85.35
10
61.4190751917
20
85.5090751917
10
61.5027260153
20
85.730931724
10
61.49
20
85.96
72
4
94
2
73
0
74
0
95
6
96
3
40
0.0
40
0.0
40
0.0
40
1.0
40
1.0
40
1.0
10
61.49
20
85.96
10
61.35
20
87.92
10
59.75
20
87.7
72
4
94
2
73
0
74
0
95
6
96
3
40
0.0
40
0.0
40
0.0
40
1.0
40
1.0
40
1.0
10
59.75
20
87.7
10
59.17
20
87.62
10
58.97
20
88.17
72
4
94
2
73
0
74
0
95
6
96
3
40
0.0
40
0.0
40
0.0
40
1.0
40
1.0
40
1.0
10
58.97
20
88.17
10
58.59
20
89.16
10
59.06
20
90.08
72
4
94
2
73
0
74
0
95
6
96
3
40
0.0
40
0.0
40
0.0
40
1.0
40
1.0
40
1.0
10
59.06
20
90.08
10
59.3
20
90.55
10
59.83
20
90.54
72
4
94
2
73
0
74
0
95
6
96
3
40
0.0
40
0.0
40
0.0
40
1.0
40
1.0
40
1.0
10
59.83
20
90.54
10
60.97
20
90.51
10
61.52
20
91.97
72
4
94
2
73
0
74
0
95
6
96
3
40
0.0
40
0.0
40
0.0
40
1.0
40
1.0
40
1.0
10
61.52
20
91.97
10
61.72
20
92.47
10
61.3
20
92.82
72
1
10
61.3
20
92.82
11
60.34
21
93.63
72
4
94
3
73
0
74
0
95
8
96
4
40
0.0
40
0.0
40
0.0
40
0.0
40
1.0
40
1.0
40
1.0
40
1.0
10
60.34
20
93.63
10
60.085358286
20
93.8422014283
10
59.9829936328
20
94.1886664085
10
60.08
20
94.51
72
4
94
2
73
0
74
0
95
6
96
3
40
0.0
40
0.0
40
0.0
40
1.0
40
1.0
40
1.0
10
60.08
20
94.51
10
60.33
20
95.33
10
61.17
20
95.94
72
4
94
2
73
0
74
0
95
6
96
3
40
0.0
40
0.0
40
0.0
40
1.0
40
1.0
40
1.0
10
61.17
20
95.94
10
61.61
20
96.25
10
62.04
20
95.94
72
4
94
2
73
0
74
0
95
6
96
3
40
0.0
40
0.0
40
0.0
40
1.0
40
1.0
40
1.0
10
62.04
20
95.94
10
63.09
20
95.16
10
64.33
20
96.43
72
4
94
3
73
0
74
0
95
8
96
4
40
0.0
40
0.0
40
0.0
40
0.0
40
1.0
40
1.0
40
1.0
40
1.0
10
64.33
20
96.43
10
64.4520886904
20
96.5556795342
10
64.4903797681
20
96.7409072434
10
64.4280434462
20
96.9042713973
72
4
94
3
73
0
74
0
95
8
96
4
40
0.0
40
0.0
40
0.0
40
0.0
40
1.0
40
1.0
40
1.0
40
1.0
10
64.4280434462
20
96.9042713973
10
64.3657071244
20
97.0676355512
10
64.2141559259
20
97.1792274685
10
64.04
20
97.19
72
1
10
64.04
20
97.19
11
7.63
21
100.75
72
4
94
2
73
0
74
0
95
6
96
3
40
0.0
40
0.0
40
0.0
40
1.0
40
1.0
40
1.0
10
7.63
20
100.75
10
7.61
20
100.75
10
7.61
20
100.77
72
1
10
7.61
20
100.77
11
7.56
21
101.04
72
4
94
2
73
0
74
0
95
6
96
3
40
0.0
40
0.0
40
0.0
40
1.0
40
1.0
40
1.0
10
7.56
20
101.04
10
7.53
20
101.19
10
7.68
20
101.19
72
1
10
7.68
20
101.19
11
117.45
21
102.79
72
4
94
2
73
0
74
0
95
6
96
3
40
0.0
40
0.0
40
0.0
40
1.0
40
1.0
40
1.0
10
117.45
20
102.79
10
118.12
20
102.8
10
118.14
20
102.12
72
4
94
3
73
0
74
0
95
8
96
4
40
0.0
40
0.0
40
0.0
40
0.0
40
1.0
40
1.0
40
1.0
40
1.0
10
118.14
20
102.12
10
118.75
20
75.83
10
150.45
20
63.03
10
169.23
20
81.67
72
4
94
2
73
0
74
0
95
6
96
3
40
0.0
40
0.0
40
0.0
40
1.0
40
1.0
40
1.0
10
169.23
20
81.67
10
177.29
20
89.67
10
177.99
20
102.23
72
4
94
2
73
0
74
0
95
6
96
3
40
0.0
40
0.0
40
0.0
40
1.0
40
1.0
40
1.0
10
177.99
20
102.23
10
178.02
20
102.75
10
178.53
20
102.75
72
1
10
178.53
20
102.75
11
286.5
21
102.77
72
4
94
2
73
0
74
0
95
6
96
3
40
0.0
40
0.0
40
0.0
40
1.0
40
1.0
40
1.0
10
286.5
20
102.77
10
286.68
20
102.77
10
286.69
20
102.66
72
1
10
286.69
20
102.66
11
286.69
21
102.65
72
4
94
2
73
0
74
0
95
6
96
3
40
0.0
40
0.0
40
0.0
40
1.0
40
1.0
40
1.0
10
286.69
20
102.65
10
286.71
20
102.51
10
286.5
20
102.49
72
1
10
286.5
20
102.49
11
233.21
21
98.4
72
4
94
3
73
0
74
0
95
8
96
4
40
0.0
40
0.0
40
0.0
40
0.0
40
1.0
40
1.0
40
1.0
40
1.0
10
233.21
20
98.4
10
232.6688994253
20
98.3549082854
10
232.2543635357
20
97.9054641104
10
232.26
20
97.37
72
4
94
2
73
0
74
0
95
6
96
3
40
0.0
40
0.0
40
0.0
40
1.0
40
1.0
40
1.0
10
232.26
20
97.37
10
232.26
20
96.48
10
233.1
20
95.82
72
4
94
2
73
0
74
0
95
6
96
3
40
0.0
40
0.0
40
0.0
40
1.0
40
1.0
40
1.0
10
233.1
20
95.82
10
233.55
20
95.47
10
234.09
20
95.66
72
1
10
234.09
20
95.66
11
235.13
21
96.04
72
4
94
2
73
0
74
0
95
6
96
3
40
0.0
40
0.0
40
0.0
40
1.0
40
1.0
40
1.0
10
235.13
20
96.04
10
235.59
20
96.2
10
235.83
20
95.78
72
1
10
235.83
20
95.78
11
236.53
21
94.56
72
1
10
236.53
20
94.56
11
236.53
21
94.56
72
4
94
3
73
0
74
0
95
8
96
4
40
0.0
40
0.0
40
0.0
40
0.0
40
1.0
40
1.0
40
1.0
40
1.0
10
236.53
20
94.56
10
236.7051446363
20
94.2605591702
10
236.6224913489
20
93.8777439442
10
236.34
20
93.68
72
4
94
2
73
0
74
0
95
6
96
3
40
0.0
40
0.0
40
0.0
40
1.0
40
1.0
40
1.0
10
236.34
20
93.68
10
235.66
20
93.2
10
235.37
20
92.78
72
4
94
2
73
0
74
0
95
6
96
3
40
0.0
40
0.0
40
0.0
40
1.0
40
1.0
40
1.0
10
235.37
20
92.78
10
235.08
20
92.35
10
235.23
20
91.85
72
4
94
2
73
0
74
0
95
6
96
3
40
0.0
40
0.0
40
0.0
40
1.0
40
1.0
40
1.0
10
235.23
20
91.85
10
235.65
20
90.46
10
237.24
20
90.5
72
4
94
3
73
0
74
0
95
8
96
4
40
0.0
40
0.0
40
0.0
40
0.0
40
1.0
40
1.0
40
1.0
40
1.0
10
237.24
20
90.5
10
237.3943820606
20
90.5051460687
10
237.5438622496
20
90.4453616163
10
237.6521711497
20
90.33515256
72
4
94
3
73
0
74
0
95
8
96
4
40
0.0
40
0.0
40
0.0
40
0.0
40
1.0
40
1.0
40
1.0
40
1.0
10
237.6521711497
20
90.33515256
10
237.7604800498
20
90.2249435038
10
237.817719103
20
90.0743820606
10
237.81
20
89.92
72
1
10
237.81
20
89.92
11
237.7
21
88.2
72
4
94
2
73
0
74
0
95
6
96
3
40
0.0
40
0.0
40
0.0
40
1.0
40
1.0
40
1.0
10
237.7
20
88.2
10
237.66
20
87.63
10
237.09
20
87.67
72
1
10
237.09
20
87.67
11
236.27
21
87.72
72
4
94
2
73
0
74
0
95
6
96
3
40
0.0
40
0.0
40
0.0
40
1.0
40
1.0
40
1.0
10
236.27
20
87.72
10
235.85
20
87.74
10
235.65
20
87.37
72
4
94
2
73
0
74
0
95
6
96
3
40
0.0
40
0.0
40
0.0
40
1.0
40
1.0
40
1.0
10
235.65
20
87.37
10
234.6
20
85.42
10
236.4
20
84.56
72
4
94
3
73
0
74
0
95
8
96
4
40
0.0
40
0.0
40
0.0
40
0.0
40
1.0
40
1.0
40
1.0
40
1.0
10
236.4
20
84.56
10
236.5712244597
20
84.4755935762
10
236.6939749823
20
84.316958023
10
236.7329964493
20
84.129654981
72
4
94
3
73
0
74
0
95
8
96
4
40
0.0
40
0.0
40
0.0
40
0.0
40
1.0
40
1.0
40
1.0
40
1.0
10
236.7329964493
20
84.129654981
10
236.7720179164
20
83.942351939
10
236.7229922176
20
83.7471083387
10
236.6
20
83.6
72
1
10
236.6
20
83.6
11
235.58
21
82.38
72
4
94
2
73
0
74
0
95
6
96
3
40
0.0
40
0.0
40
0.0
40
1.0
40
1.0
40
1.0
10
235.58
20
82.38
10
235.2
20
81.93
10
234.7
20
82.23
72
1
10
234.7
20
82.23
11
234.07
21
82.59
72
4
94
3
73
0
74
0
95
8
96
4
40
0.0
40
0.0
40
0.0
40
0.0
40
1.0
40
1.0
40
1.0
40
1.0
10
234.07
20
82.59
10
233.7721950351
20
82.7601742657
10
233.3995720079
20
82.7366401798
10
233.12
20
82.53
72
4
94
2
73
0
74
0
95
6
96
3
40
0.0
40
0.0
40
0.0
40
1.0
40
1.0
40
1.0
10
233.12
20
82.53
10
231.65
20
81.42
10
232.63
20
79.87
72
4
94
2
73
0
74
0
95
6
96
3
40
0.0
40
0.0
40
0.0
40
1.0
40
1.0
40
1.0
10
232.63
20
79.87
10
233.11
20
79.13
10
232.27
20
78.83
72
1
10
232.27
20
78.83
11
231.12
21
78.41
72
4
94
2
73
0
74
0
95
6
96
3
40
0.0
40
0.0
40
0.0
40
1.0
40
1.0
40
1.0
10
231.12
20
78.41
10
230.44
20
78.17
10
230.2
20
78.84
72
1
10
230.2
20
78.84
11
228.71
21
82.99
72
4
94
2
73
0
74
0
95
6
96
3
40
0.0
40
0.0
40
0.0
40
1.0
40
1.0
40
1.0
10
228.71
20
82.99
10
228.55
20
83.42
10
228.92
20
83.68
72
4
94
2
73
0
74
0
95
6
96
3
40
0.0
40
0.0
40
0.0
40
1.0
40
1.0
40
1.0
10
228.92
20
83.68
10
232.72
20
86.36
10
231.83
20
90.47
72
4
94
2
73
0
74
0
95
6
96
3
40
0.0
40
0.0
40
0.0
40
1.0
40
1.0
40
1.0
10
231.83
20
90.47
10
231.08
20
93.9
10
227.63
20
95.02
72
4
94
2
73
0
74
0
95
6
96
3
40
0.0
40
0.0
40
0.0
40
1.0
40
1.0
40
1.0
10
227.63
20
95.02
10
222.98
20
96.54
10
219.97
20
91.55
72
4
94
2
73
0
74
0
95
6
96
3
40
0.0
40
0.0
40
0.0
40
1.0
40
1.0
40
1.0
10
219.97
20
91.55
10
219.72
20
91.14
10
219.31
20
91.38
72
1
10
219.31
20
91.38
11
215.44
21
93.61
72
4
94
2
73
0
74
0
95
6
96
3
40
0.0
40
0.0
40
0.0
40
1.0
40
1.0
40
1.0
10
215.44
20
93.61
10
214.71
20
94.04
10
215.13
20
94.78
72
1
10
215.13
20
94.78
11
215.66
21
95.69
72
4
94
2
73
0
74
0
95
6
96
3
40
0.0
40
0.0
40
0.0
40
1.0
40
1.0
40
1.0
10
215.66
20
95.69
10
216.12
20
96.49
10
216.91
20
96.01
72
4
94
2
73
0
74
0
95
6
96
3
40
0.0
40
0.0
40
0.0
40
1.0
40
1.0
40
1.0
10
216.91
20
96.01
10
218.33
20
95.14
10
219.35
20
96.82
72
1
10
219.35
20
96.82
11
219.35
21
96.82
72
4
94
3
73
0
74
0
95
8
96
4
40
0.0
40
0.0
40
0.0
40
0.0
40
1.0
40
1.0
40
1.0
40
1.0
10
219.35
20
96.82
10
219.4176668862
20
96.9321336971
10
219.4165467769
20
97.0726046343
10
219.3470963129
20
97.1841462885
72
4
94
3
73
0
74
0
95
8
96
4
40
0.0
40
0.0
40
0.0
40
0.0
40
1.0
40
1.0
40
1.0
40
1.0
10
219.3470963129
20
97.1841462885
10
219.277645849
20
97.2956879427
10
219.1514670931
20
97.359666698
10
219.02
20
97.35
72
1
10
219.02
20
97.35
11
195.15
21
95.51
72
4
94
2
73
0
74
0
95
6
96
3
40
0.0
40
0.0
40
0.0
40
1.0
40
1.0
40
1.0
10
195.15
20
95.51
10
194.78
20
95.49
10
194.68
20
95.13
72
1
10
194.68
20
95.13
11
192.41
21
86.84
72
1
10
192.41
20
86.84
11
192.41
21
86.84
72
4
94
3
73
0
74
0
95
8
96
4
40
0.0
40
0.0
40
0.0
40
0.0
40
1.0
40
1.0
40
1.0
40
1.0
10
192.41
20
86.84
10
192.2882576742
20
86.3956405108
10
192.4369472551
20
85.922181582
10
192.79
20
85.63
72
1
10
192.79
20
85.63
11
199.57
21
79.92
72
4
94
3
73
0
74
0
95
8
96
4
40
0.0
40
0.0
40
0.0
40
0.0
40
1.0
40
1.0
40
1.0
40
1.0
10
199.57
20
79.92
10
199.9794157843
20
79.5797812497
10
200.0810217163
20
78.9913135597
10
199.81
20
78.53
72
1
10
199.81
20
78.53
11
195.09
21
70.35
72
1
10
195.09
20
70.35
11
195.09
21
70.35
72
4
94
3
73
0
74
0
95
8
96
4
40
0.0
40
0.0
40
0.0
40
0.0
40
1.0
40
1.0
40
1.0
40
1.0
10
195.09
20
70.35
10
194.8584810864
20
69.9448419011
10
194.3698859359
20
69.7637247333
10
193.93
20
69.92
72
1
10
193.93
20
69.92
11
185.42
21
72.89
72
1
10
185.42
20
72.89
11
185.42
21
72.89
72
4
94
3
73
0
74
0
95
8
96
4
40
0.0
40
0.0
40
0.0
40
0.0
40
1.0
40
1.0
40
1.0
40
1.0
10
185.42
20
72.89
10
185.095737036
20
73.0062452135
10
184.7308449344
20
72.9247267653
10
184.48
20
72.68
72
1
10
184.48
20
72.68
11
178.19
21
66.38
72
4
94
3
73
0
74
0
95
8
96
4
40
0.0
40
0.0
40
0.0
40
0.0
40
1.0
40
1.0
40
1.0
40
1.0
10
178.19
20
66.38
10
178.0566643543
20
66.2527250654
10
178.0133321771
20
66.0557606239
10
178.08
20
65.88
72
1
10
178.08
20
65.88
11
181.16
21
57.31
72
4
94
2
73
0
74
0
95
6
96
3
40
0.0
40
0.0
40
0.0
40
1.0
40
1.0
40
1.0
10
181.16
20
57.31
10
181.53
20
56.28
10
180.58
20
55.73
72
1
10
180.58
20
55.73
11
172.95
21
51.33
72
1
10
172.95
20
51.33
11
172.95
21
51.33
72
4
94
3
73
0
74
0
95
8
96
4
40
0.0
40
0.0
40
0.0
40
0.0
40
1.0
40
1.0
40
1.0
40
1.0
10
172.95
20
51.33
10
172.3414833733
20
50.9764808169
10
171.5678363192
20
51.1068235271
10
171.11
20
51.64
72
1
10
171.11
20
51.64
11
165.41
21
58.26
72
4
94
2
73
0
74
0
95
6
96
3
40
0.0
40
0.0
40
0.0
40
1.0
40
1.0
40
1.0
10
165.41
20
58.26
10
165.11
20
58.61
10
164.66
20
58.49
72
1
10
164.66
20
58.49
11
156.13
21
56.19
72
4
94
2
73
0
74
0
95
6
96
3
40
0.0
40
0.0
40
0.0
40
1.0
40
1.0
40
1.0
10
156.13
20
56.19
10
155.63
20
56.06
10
155.54
20
55.55
72
1
10
155.54
20
55.55
11
154.06
21
47.14
72
4
94
2
73
0
74
0
95
6
96
3
40
0.0
40
0.0
40
0.0
40
1.0
40
1.0
40
1.0
10
154.06
20
47.14
10
153.83
20
45.83
10
152.5
20
45.81
72
1
10
152.5
20
45.81
11
143.65
21
45.68
72
4
94
3
73
0
74
0
95
8
96
4
40
0.0
40
0.0
40
0.0
40
0.0
40
1.0
40
1.0
40
1.0
40
1.0
10
143.65
20
45.68
10
143.077840115
20
45.6742206072
10
142.58402907
20
46.0836195077
10
142.48
20
46.65
72
1
10
142.48
20
46.65
11
140.85
21
55.55
72
4
94
2
73
0
74
0
95
6
96
3
40
0.0
40
0.0
40
0.0
40
1.0
40
1.0
40
1.0
10
140.85
20
55.55
10
140.78
20
55.94
10
140.4
20
56.05
72
1
10
140.4
20
56.05
11
131.89
21
58.38
72
4
94
2
73
0
74
0
95
6
96
3
40
0.0
40
0.0
40
0.0
40
1.0
40
1.0
40
1.0
10
131.89
20
58.38
10
131.3
20
58.54
10
130.9
20
58.07
72
1
10
130.9
20
58.07
11
125.15
21
51.24
72
4
94
3
73
0
74
0
95
8
96
4
40
0.0
40
0.0
40
0.0
40
0.0
40
1.0
40
1.0
40
1.0
40
1.0
10
125.15
20
51.24
10
124.7971150019
20
50.8176950023
10
124.1943699974
20
50.7081050015
10
123.72
20
50.98
72
1
10
123.72
20
50.98
11
115.5
21
55.73
72
4
94
3
73
0
74
0
95
8
96
4
40
0.0
40
0.0
40
0.0
40
0.0
40
1.0
40
1.0
40
1.0
40
1.0
10
115.5
20
55.73
10
115.1462851073
20
55.9329511679
10
114.9866320897
20
56.3572920833
10
115.12
20
56.74
72
1
10
115.12
20
56.74
11
118.24
21
65.67
72
1
10
118.24
20
65.67
11
118.24
21
65.67
72
4
94
3
73
0
74
0
95
8
96
4
40
0.0
40
0.0
40
0.0
40
0.0
40
1.0
40
1.0
40
1.0
40
1.0
10
118.24
20
65.67
10
118.2949355549
20
65.8225987636
10
118.2559750603
20
65.9940249397
10
118.14
20
66.11
72
1
10
118.14
20
66.11
11
111.68
21
72.57
72
4
94
2
73
0
74
0
95
6
96
3
40
0.0
40
0.0
40
0.0
40
1.0
40
1.0
40
1.0
10
111.68
20
72.57
10
111.43
20
72.82
10
111.1
20
72.7
72
1
10
111.1
20
72.7
11
102.8
21
69.71
72
1
10
102.8
20
69.71
11
102.8
21
69.71
72
4
94
3
73
0
74
0
95
8
96
4
40
0.0
40
0.0
40
0.0
40
0.0
40
1.0
40
1.0
40
1.0
40
1.0
10
102.8
20
69.71
10
102.0817447409
20
69.4551352307
10
101.2865047729
20
69.7454609333
10
100.91
20
70.4
72
1
10
100.91
20
70.4
11
96.31
21
78.36
72
1
10
96.31
20
78.36
11
96.31
21
78.36
72
4
94
3
73
0
74
0
95
8
96
4
40
0.0
40
0.0
40
0.0
40
0.0
40
1.0
40
1.0
40
1.0
40
1.0
10
96.31
20
78.36
10
96.1182454106
20
78.6970232177
10
96.1936519982
20
79.1243272141
10
96.49
20
79.38
72
1
10
96.49
20
79.38
11
103.52
21
85.44
72
1
10
103.52
20
85.44
11
103.52
21
85.44
72
4
94
3
73
0
74
0
95
8
96
4
40
0.0
40
0.0
40
0.0
40
0.0
40
1.0
40
1.0
40
1.0
40
1.0
10
103.52
20
85.44
10
103.7589776567
20
85.6483394956
10
103.8596592189
20
85.9736183888
10
103.78
20
86.28
72
1
10
103.78
20
86.28
11
101.53
21
94.64
72
4
94
2
73
0
74
0
95
6
96
3
40
0.0
40
0.0
40
0.0
40
1.0
40
1.0
40
1.0
10
101.53
20
94.64
10
101.41
20
95.08
10
100.96
20
95.11
72
1
10
100.96
20
95.11
11
81.4
21
96.34
72
4
94
2
73
0
74
0
95
6
96
3
40
0.0
40
0.0
40
0.0
40
1.0
40
1.0
40
1.0
10
81.4
20
96.34
10
80.4
20
96.41
10
81.07
20
95.66
97
0
92
0
93
7
72
1
10
78.2
20
96.39
11
78.2
21
96.39
72
4
94
3
73
0
74
0
95
8
96
4
40
0.0
40
0.0
40
0.0
40
0.0
40
1.0
40
1.0
40
1.0
40
1.0
10
78.2
20
96.39
10
78.1392124948
20
96.3736341332
10
78.089316882
20
96.330150226
10
78.0656234885
20
96.2728911918
72
4
94
3
73
0
74
0
95
8
96
4
40
0.0
40
0.0
40
0.0
40
0.0
40
1.0
40
1.0
40
1.0
40
1.0
10
78.0656234885
20
96.2728911918
10
78.041930095
20
96.2156321576
10
78.0472682664
20
96.1514355813
10
78.08
20
96.1
72
4
94
2
73
0
74
0
95
6
96
3
40
0.0
40
0.0
40
0.0
40
1.0
40
1.0
40
1.0
10
78.08
20
96.1
10
78.35
20
95.68
10
78.86
20
95.61
72
4
94
2
73
0
74
0
95
6
96
3
40
0.0
40
0.0
40
0.0
40
1.0
40
1.0
40
1.0
10
78.86
20
95.61
10
79.12
20
95.58
10
79.44
20
95.82
72
4
94
2
73
0
74
0
95
6
96
3
40
0.0
40
0.0
40
0.0
40
1.0
40
1.0
40
1.0
10
79.44
20
95.82
10
80.08
20
96.28
10
79.3
20
96.38
72
4
94
2
73
0
74
0
95
6
96
3
40
0.0
40
0.0
40
0.0
40
1.0
40
1.0
40
1.0
10
79.3
20
96.38
10
78.53
20
96.48
10
78.2
20
96.39
97
0
75
0
76
1
98
0
0
HATCH
5
59d
100
AcDbEntity
8
Layer 1
6
Solid
370
0
62
0
100
AcDbHatch
10
0
20
0
30
0
210
0
220
0
230
1
2
FILL_1437
70
1
71
0
91
1
92
0
93
7
72
4
94
2
73
0
74
0
95
6
96
3
40
0.0
40
0.0
40
0.0
40
1.0
40
1.0
40
1.0
10
78.2
20
96.39
10
78.53
20
96.48
10
79.3
20
96.38
72
4
94
2
73
0
74
0
95
6
96
3
40
0.0
40
0.0
40
0.0
40
1.0
40
1.0
40
1.0
10
79.3
20
96.38
10
80.08
20
96.28
10
79.44
20
95.82
72
4
94
2
73
0
74
0
95
6
96
3
40
0.0
40
0.0
40
0.0
40
1.0
40
1.0
40
1.0
10
79.44
20
95.82
10
79.12
20
95.58
10
78.86
20
95.61
72
4
94
2
73
0
74
0
95
6
96
3
40
0.0
40
0.0
40
0.0
40
1.0
40
1.0
40
1.0
10
78.86
20
95.61
10
78.35
20
95.68
10
78.08
20
96.1
72
4
94
3
73
0
74
0
95
8
96
4
40
0.0
40
0.0
40
0.0
40
0.0
40
1.0
40
1.0
40
1.0
40
1.0
10
78.08
20
96.1
10
78.0472682664
20
96.1514355813
10
78.041930095
20
96.2156321576
10
78.0656234885
20
96.2728911918
72
4
94
3
73
0
74
0
95
8
96
4
40
0.0
40
0.0
40
0.0
40
0.0
40
1.0
40
1.0
40
1.0
40
1.0
10
78.0656234885
20
96.2728911918
10
78.089316882
20
96.330150226
10
78.1392124948
20
96.3736341332
10
78.2
20
96.39
72
1
10
78.2
20
96.39
11
78.2
21
96.39
97
0
75
0
76
1
98
0
0
HATCH
5
663
100
AcDbEntity
8
Layer 1
6
Solid
370
0
62
160
100
AcDbHatch
10
0
20
0
30
0
210
0
220
0
230
1
2
FILL_1635
70
1
71
0
91
1
92
0
93
98
72
1
10
93.0689565849
20
49.6363530003
11
92.4731760496
21
46.3419821071
72
4
94
2
73
0
74
0
95
6
96
3
40
0.0
40
0.0
40
0.0
40
1.0
40
1.0
40
1.0
10
92.4731760496
20
46.3419821071
10
92.363907431
20
45.7829296791
10
91.7949768894
20
45.7823953094
72
1
10
91.7949768894
20
45.7823953094
11
88.0320503247
21
45.7788609698
72
4
94
2
73
0
74
0
95
6
96
3
40
0.0
40
0.0
40
0.0
40
1.0
40
1.0
40
1.0
10
88.0320503247
20
45.7788609698
10
87.5629321588
20
45.7784203492
10
87.4726697749
20
46.2374729034
72
1
10
87.4726697749
20
46.2374729034
11
86.8505143287
21
49.7702497598
72
4
94
2
73
0
74
0
95
6
96
3
40
0.0
40
0.0
40
0.0
40
1.0
40
1.0
40
1.0
10
86.8505143287
20
49.7702497598
10
86.7602144452
20
50.2692272642
10
86.2610681925
20
50.3585896571
72
1
10
86.2610681925
20
50.3585896571
11
83.0066222495
21
50.954407692
72
4
94
2
73
0
74
0
95
6
96
3
40
0.0
40
0.0
40
0.0
40
1.0
40
1.0
40
1.0
10
83.0066222495
20
50.954407692
10
82.6472414475
20
51.0139576208
10
82.3979730056
20
50.7342485962
72
1
10
82.3979730056
20
50.7342485962
11
80.1945194781
21
48.1769799234
72
4
94
2
73
0
74
0
95
6
96
3
40
0.0
40
0.0
40
0.0
40
1.0
40
1.0
40
1.0
10
80.1945194781
20
48.1769799234
10
79.8655136344
20
47.7774210486
10
79.4161141961
20
48.0365113547
72
1
10
79.4161141961
20
48.0365113547
11
76.1305058027
21
49.9298621493
72
1
10
76.1305058027
20
49.9298621493
11
76.1305058027
21
49.9298621493
72
4
94
3
73
0
74
0
95
8
96
4
40
0.0
40
0.0
40
0.0
40
0.0
40
1.0
40
1.0
40
1.0
40
1.0
10
76.1305058027
20
49.9298621493
10
75.8995567087
20
50.0623693955
10
75.798236692
20
50.3443864721
10
75.8903279822
20
50.5983800689
72
1
10
75.8903279822
20
50.5983800689
11
77.0252265951
21
53.7535198811
72
4
94
2
73
0
74
0
95
6
96
3
40
0.0
40
0.0
40
0.0
40
1.0
40
1.0
40
1.0
10
77.0252265951
20
53.7535198811
10
77.1646076747
20
54.1329381575
10
76.8948236382
20
54.4421033998
72
1
10
76.8948236382
20
54.4421033998
11
74.8563730712
21
56.865631649
72
4
94
2
73
0
74
0
95
6
96
3
40
0.0
40
0.0
40
0.0
40
1.0
40
1.0
40
1.0
10
74.8563730712
20
56.865631649
10
74.4766641727
20
57.3144310933
10
73.9178929919
20
57.1242625847
72
1
10
73.9178929919
20
57.1242625847
11
70.5253878311
21
55.9333078455
72
4
94
2
73
0
74
0
95
6
96
3
40
0.0
40
0.0
40
0.0
40
1.0
40
1.0
40
1.0
10
70.5253878311
20
55.9333078455
10
70.0963352391
20
55.7831861609
10
69.8763823912
20
56.1722481783
72
1
10
69.8763823912
20
56.1722481783
11
67.9468629462
21
59.5141534081
72
4
94
2
73
0
74
0
95
6
96
3
40
0.0
40
0.0
40
0.0
40
1.0
40
1.0
40
1.0
10
67.9468629462
20
59.5141534081
10
67.6869382735
20
59.9530841138
10
68.0759065418
20
60.2728493374
72
1
10
68.0759065418
20
60.2728493374
11
70.6290783805
21
62.431196629
72
4
94
2
73
0
74
0
95
6
96
3
40
0.0
40
0.0
40
0.0
40
1.0
40
1.0
40
1.0
10
70.6290783805
20
62.431196629
10
70.9183092724
20
62.671018203
10
70.8580656005
20
63.0502489813
72
1
10
70.8580656005
20
63.0502489813
11
70.3262569123
21
66.0341421454
72
4
94
2
73
0
74
0
95
6
96
3
40
0.0
40
0.0
40
0.0
40
1.0
40
1.0
40
1.0
10
70.3262569123
20
66.0341421454
10
70.1958352055
20
66.7426881393
10
69.4970267017
20
66.8717879843
72
1
10
69.4970267017
20
66.8717879843
11
66.1427496332
21
67.4874747453
72
4
94
2
73
0
74
0
95
6
96
3
40
0.0
40
0.0
40
0.0
40
1.0
40
1.0
40
1.0
10
66.1427496332
20
67.4874747453
10
65.6336221429
20
67.5768277632
10
65.6331440226
20
68.0858708794
72
1
10
65.6331440226
20
68.0858708794
11
65.629609683
21
71.8487974441
72
4
94
2
73
0
74
0
95
6
96
3
40
0.0
40
0.0
40
0.0
40
1.0
40
1.0
40
1.0
10
65.629609683
20
71.8487974441
10
65.6290659385
20
72.4277092233
10
66.2078839686
20
72.5280653436
72
1
10
66.2078839686
20
72.5280653436
11
69.2915707586
21
73.0799302561
72
4
94
3
73
0
74
0
95
8
96
4
40
0.0
40
0.0
40
0.0
40
0.0
40
1.0
40
1.0
40
1.0
40
1.0
10
69.2915707586
20
73.0799302561
10
69.6004096716
20
73.1358207874
10
69.8550384143
20
73.349051368
10
69.9597886812
20
73.6395076788
72
1
10
69.9597886812
20
73.6395076788
11
70.9652593274
21
76.4451823022
72
4
94
2
73
0
74
0
95
6
96
3
40
0.0
40
0.0
40
0.0
40
1.0
40
1.0
40
1.0
10
70.9652593274
20
76.4451823022
10
71.1743121969
20
77.034272192
10
70.7048190348
20
77.4330810743
72
1
10
70.7048190348
20
77.4330810743
11
68.0876160621
21
79.6863845402
72
1
10
68.0876160621
20
79.6863845402
11
68.0876160621
21
79.6863845402
72
4
94
3
73
0
74
0
95
8
96
4
40
0.0
40
0.0
40
0.0
40
0.0
40
1.0
40
1.0
40
1.0
40
1.0
10
68.0876160621
20
79.6863845402
10
67.8266379704
20
79.912136662
10
67.7634835243
20
80.2930438565
10
67.937044382
20
80.5945365357
72
1
10
67.937044382
20
80.5945365357
11
69.7407046621
21
83.7303419914
72
1
10
69.7407046621
20
83.7303419914
11
69.7407046621
21
83.7303419914
72
4
94
3
73
0
74
0
95
8
96
4
40
0.0
40
0.0
40
0.0
40
0.0
40
1.0
40
1.0
40
1.0
40
1.0
10
69.7407046621
20
83.7303419914
10
69.9193306471
20
84.0421749034
10
70.2938604457
20
84.1814457839
10
70.6287254341
20
84.0605571979
72
1
10
70.6287254341
20
84.0605571979
11
74.0135087097
21
82.8460243073
72
4
94
2
73
0
74
0
95
6
96
3
40
0.0
40
0.0
40
0.0
40
1.0
40
1.0
40
1.0
10
74.0135087097
20
82.8460243073
10
74.4029082237
20
82.7066526026
10
74.672111016
20
83.0163240898
72
1
10
74.672111016
20
83.0163240898
11
76.7459397038
21
85.4337335628
72
4
94
2
73
0
74
0
95
6
96
3
40
0.0
40
0.0
40
0.0
40
1.0
40
1.0
40
1.0
10
76.7459397038
20
85.4337335628
10
77.0749642972
20
85.8133299624
10
76.9048426379
20
86.2822887549
72
1
10
76.9048426379
20
86.2822887549
11
75.9140563947
21
89.0960696346
72
4
94
3
73
0
74
0
95
8
96
4
40
0.0
40
0.0
40
0.0
40
0.0
40
1.0
40
1.0
40
1.0
40
1.0
10
75.9140563947
20
89.0960696346
10
75.7514771176
20
89.564961517
10
75.9479457861
20
90.0847770386
10
76.3820120723
20
90.3341837141
72
1
10
76.3820120723
20
90.3341837141
11
79.1752398577
21
91.9537691745
72
4
94
3
73
0
74
0
95
8
96
4
40
0.0
40
0.0
40
0.0
40
0.0
40
1.0
40
1.0
40
1.0
40
1.0
10
79.1752398577
20
91.9537691745
10
79.5269642346
20
92.1560175962
10
79.9693117365
20
92.0806142131
10
80.2234385511
20
91.7750912634
72
1
10
80.2234385511
20
91.7750912634
11
82.2219172932
21
89.4014317024
72
4
94
2
73
0
74
0
95
6
96
3
40
0.0
40
0.0
40
0.0
40
1.0
40
1.0
40
1.0
10
82.2219172932
20
89.4014317024
10
82.5116919296
20
89.0623414972
10
82.940810146
20
89.1425945188
72
1
10
82.940810146
20
89.1425945188
11
86.1342717994
21
89.7145250304
72
1
10
86.1342717994
20
89.7145250304
11
86.1342717994
21
89.7145250304
72
4
94
3
73
0
74
0
95
8
96
4
40
0.0
40
0.0
40
0.0
40
0.0
40
1.0
40
1.0
40
1.0
40
1.0
10
86.1342717994
20
89.7145250304
10
86.4398624853
20
89.768748813
10
86.6789339258
20
90.0082697728
10
86.7325835594
20
90.3139617791
72
1
10
86.7325835594
20
90.3139617791
11
87.3681202967
21
93.7880324482
72
4
94
2
73
0
74
0
95
6
96
3
40
0.0
40
0.0
40
0.0
40
1.0
40
1.0
40
1.0
10
87.3681202967
20
93.7880324482
10
87.4674170526
20
94.3370942637
10
88.0263663566
20
94.3376192585
72
1
10
88.0263663566
20
94.3376192585
11
91.6994617832
21
94.3410692239
72
4
94
2
73
0
74
0
95
6
96
3
40
0.0
40
0.0
40
0.0
40
1.0
40
1.0
40
1.0
10
91.6994617832
20
94.3410692239
10
92.2584110873
20
94.3415942187
10
92.3587390828
20
93.7927199013
72
1
10
92.3587390828
20
93.7927199013
11
92.9307352188
21
90.5293895848
72
4
94
2
73
0
74
0
95
6
96
3
40
0.0
40
0.0
40
0.0
40
1.0
40
1.0
40
1.0
10
92.9307352188
20
90.5293895848
10
93.0009320035
20
90.1801118941
10
93.3304253422
20
90.0606464151
72
1
10
93.3304253422
20
90.0606464151
11
96.1760436657
21
89.0352507934
72
4
94
2
73
0
74
0
95
6
96
3
40
0.0
40
0.0
40
0.0
40
1.0
40
1.0
40
1.0
10
96.1760436657
20
89.0352507934
10
96.775114793
20
88.8262072988
10
97.1938767756
20
89.3057004483
72
1
10
97.1938767756
20
89.3057004483
11
99.2577336006
21
91.7131193088
72
4
94
2
73
0
74
0
95
6
96
3
40
0.0
40
0.0
40
0.0
40
1.0
40
1.0
40
1.0
10
99.2577336006
20
91.7131193088
10
100.184976205
20
92.7919648329
10
101.0544032382
20
91.664900604
72
4
94
2
73
0
74
0
95
6
96
3
40
0.0
40
0.0
40
0.0
40
1.0
40
1.0
40
1.0
10
101.0544032382
20
91.664900604
10
101.7739429595
20
90.7173580279
10
102.52477638
20
88.3325453661
72
4
94
2
73
0
74
0
95
6
96
3
40
0.0
40
0.0
40
0.0
40
1.0
40
1.0
40
1.0
10
102.52477638
20
88.3325453661
10
102.9652539451
20
86.9455658394
10
101.8482365782
20
86.0062795182
72
1
10
101.8482365782
20
86.0062795182
11
96.3828402203
21
81.3997915488
72
1
10
96.3828402203
20
81.3997915488
11
96.3828402203
21
81.3997915488
72
4
94
3
73
0
74
0
95
8
96
4
40
0.0
40
0.0
40
0.0
40
0.0
40
1.0
40
1.0
40
1.0
40
1.0
10
96.3828402203
20
81.3997915488
10
96.2385853576
20
81.2793494
10
96.036342571
20
81.2593298752
10
95.8738439786
20
81.3494072407
72
4
94
2
73
0
74
0
95
6
96
3
40
0.0
40
0.0
40
0.0
40
1.0
40
1.0
40
1.0
10
95.8738439786
20
81.3494072407
10
91.4698682318
20
83.7407699244
10
86.3409652301
20
82.188859399
72
4
94
2
73
0
74
0
95
6
96
3
40
0.0
40
0.0
40
0.0
40
1.0
40
1.0
40
1.0
10
86.3409652301
20
82.188859399
10
80.1343885676
20
80.3165367814
10
77.9740849581
20
74.3257598834
72
4
94
3
73
0
74
0
95
8
96
4
40
0.0
40
0.0
40
0.0
40
0.0
40
1.0
40
1.0
40
1.0
40
1.0
10
77.9740849581
20
74.3257598834
10
74.9576073952
20
65.9786046764
10
81.0841590714
20
57.4104684193
10
89.8276856851
20
57.4586057874
72
4
94
2
73
0
74
0
95
6
96
3
40
0.0
40
0.0
40
0.0
40
1.0
40
1.0
40
1.0
10
89.8276856851
20
57.4586057874
10
100.2181164982
20
57.5082900149
10
102.3150170924
20
67.2419747531
72
4
94
2
73
0
74
0
95
6
96
3
40
0.0
40
0.0
40
0.0
40
1.0
40
1.0
40
1.0
10
102.3150170924
20
67.2419747531
10
102.4243232106
20
67.7611022308
10
102.9232257158
20
67.9312520148
72
1
10
102.9232257158
20
67.9312520148
11
111.4044839302
21
70.9136294816
72
4
94
2
73
0
74
0
95
6
96
3
40
0.0
40
0.0
40
0.0
40
1.0
40
1.0
40
1.0
10
111.4044839302
20
70.9136294816
10
112.0031613115
20
71.123797965
10
112.2432641327
20
70.5351299459
72
1
10
112.2432641327
20
70.5351299459
11
112.9135914092
21
68.8489289149
72
4
94
3
73
0
74
0
95
8
96
4
40
0.0
40
0.0
40
0.0
40
0.0
40
1.0
40
1.0
40
1.0
40
1.0
10
112.9135914092
20
68.8489289149
10
112.9818243676
20
68.6761980971
10
112.9768984479
20
68.4831032498
10
112.8999386919
20
68.3137457383
72
4
94
3
73
0
74
0
95
8
96
4
40
0.0
40
0.0
40
0.0
40
0.0
40
1.0
40
1.0
40
1.0
40
1.0
10
112.8999386919
20
68.3137457383
10
112.8229789359
20
68.1443882268
10
112.6805582486
20
68.0132323751
10
112.5052044103
20
67.9502331623
72
1
10
112.5052044103
20
67.9502331623
11
110.1903166609
21
67.1395779407
72
4
94
3
73
0
74
0
95
8
96
4
40
0.0
40
0.0
40
0.0
40
0.0
40
1.0
40
1.0
40
1.0
40
1.0
10
110.1903166609
20
67.1395779407
10
109.8205088935
20
67.0097552014
10
109.5498882572
20
66.692793661
10
109.4824269105
20
66.3104696039
72
1
10
109.4824269105
20
66.3104696039
11
108.9263557026
21
63.2457046745
72
4
94
2
73
0
74
0
95
6
96
3
40
0.0
40
0.0
40
0.0
40
1.0
40
1.0
40
1.0
10
108.9263557026
20
63.2457046745
10
108.8667776491
20
62.9162675851
10
109.1265054488
20
62.6869428685
72
1
10
109.1265054488
20
62.6869428685
11
111.753699034
21
60.4236675399
72
4
94
2
73
0
74
0
95
6
96
3
40
0.0
40
0.0
40
0.0
40
1.0
40
1.0
40
1.0
10
111.753699034
20
60.4236675399
10
112.1632578962
20
60.0747085961
10
111.8941957274
20
59.6153185453
72
1
10
111.8941957274
20
59.6153185453
11
109.9908824451
21
56.3097383018
72
4
94
2
73
0
74
0
95
6
96
3
40
0.0
40
0.0
40
0.0
40
1.0
40
1.0
40
1.0
10
109.9908824451
20
56.3097383018
10
109.7716608398
20
55.9202637885
10
109.3523082382
20
56.0695886061
72
1
10
109.3523082382
20
56.0695886061
11
106.2670558389
21
57.1845903682
72
4
94
2
73
0
74
0
95
6
96
3
40
0.0
40
0.0
40
0.0
40
1.0
40
1.0
40
1.0
10
106.2670558389
20
57.1845903682
10
105.8277313872
20
57.3438776734
10
105.4686880818
20
57.0441030497
72
1
10
105.4686880818
20
57.0441030497
11
103.0750847955
21
55.0256430826
72
4
94
2
73
0
74
0
95
6
96
3
40
0.0
40
0.0
40
0.0
40
1.0
40
1.0
40
1.0
10
103.0750847955
20
55.0256430826
10
102.6163134885
20
54.6359435716
10
102.8164726096
20
54.0672005281
72
1
10
102.8164726096
20
54.0672005281
11
103.9573805373
21
50.8243670564
72
4
94
2
73
0
74
0
95
6
96
3
40
0.0
40
0.0
40
0.0
40
1.0
40
1.0
40
1.0
10
103.9573805373
20
50.8243670564
10
104.1575490333
20
50.2456427753
10
103.6288246892
20
49.9457087781
72
1
10
103.6288246892
20
49.9457087781
11
100.4764692242
21
48.1161798321
72
1
10
100.4764692242
20
48.1161798321
11
100.4764692242
21
48.1161798321
72
4
94
3
73
0
74
0
95
8
96
4
40
0.0
40
0.0
40
0.0
40
0.0
40
1.0
40
1.0
40
1.0
40
1.0
10
100.4764692242
20
48.1161798321
10
100.2155760869
20
47.9709183572
10
99.8894354468
20
48.029140277
10
99.6978014448
20
48.2551859154
72
1
10
99.6978014448
20
48.2551859154
11
97.5694166158
21
50.7884234038
72
4
94
2
73
0
74
0
95
6
96
3
40
0.0
40
0.0
40
0.0
40
1.0
40
1.0
40
1.0
10
97.5694166158
20
50.7884234038
10
97.3196138042
20
51.0776449207
10
96.9503736384
20
51.0074293862
72
1
10
96.9503736384
20
51.0074293862
11
93.8966211862
21
50.465573836
72
4
94
2
73
0
74
0
95
6
96
3
40
0.0
40
0.0
40
0.0
40
1.0
40
1.0
40
1.0
10
93.8966211862
20
50.465573836
10
93.198047055
20
50.3451427417
10
93.0689565849
20
49.6363530003
97
0
75
0
76
1
98
0
0
HATCH
5
727
100
AcDbEntity
8
Layer 1
6
Solid
370
0
62
160
100
AcDbHatch
10
0
20
0
30
0
210
0
220
0
230
1
2
FILL_1831
70
1
71
0
91
1
92
0
93
97
72
1
10
202.32
20
50.44
11
199.26
21
50.98
72
4
94
2
73
0
74
0
95
6
96
3
40
0.0
40
0.0
40
0.0
40
1.0
40
1.0
40
1.0
10
199.26
20
50.98
10
198.89
20
51.05
10
198.64
20
50.76
72
1
10
198.64
20
50.76
11
196.51
21
48.22
72
1
10
196.51
20
48.22
11
196.51
21
48.22
72
4
94
3
73
0
74
0
95
8
96
4
40
0.0
40
0.0
40
0.0
40
0.0
40
1.0
40
1.0
40
1.0
40
1.0
10
196.51
20
48.22
10
196.3182186525
20
47.9933493166
10
195.9915200193
20
47.9347111004
10
195.73
20
48.08
72
1
10
195.73
20
48.08
11
192.57
21
49.91
72
4
94
2
73
0
74
0
95
6
96
3
40
0.0
40
0.0
40
0.0
40
1.0
40
1.0
40
1.0
10
192.57
20
49.91
10
192.04
20
50.21
10
192.24
20
50.79
72
1
10
192.24
20
50.79
11
193.38
21
54.04
72
4
94
2
73
0
74
0
95
6
96
3
40
0.0
40
0.0
40
0.0
40
1.0
40
1.0
40
1.0
10
193.38
20
54.04
10
193.58
20
54.61
10
193.12
20
55.0
72
1
10
193.12
20
55.0
11
190.72
21
57.02
72
4
94
2
73
0
74
0
95
6
96
3
40
0.0
40
0.0
40
0.0
40
1.0
40
1.0
40
1.0
10
190.72
20
57.02
10
190.36
20
57.32
10
189.92
20
57.16
72
1
10
189.92
20
57.16
11
186.83
21
56.04
72
4
94
2
73
0
74
0
95
6
96
3
40
0.0
40
0.0
40
0.0
40
1.0
40
1.0
40
1.0
10
186.83
20
56.04
10
186.41
20
55.89
10
186.19
20
56.28
72
1
10
186.19
20
56.28
11
184.28
21
59.59
72
4
94
2
73
0
74
0
95
6
96
3
40
0.0
40
0.0
40
0.0
40
1.0
40
1.0
40
1.0
10
184.28
20
59.59
10
184.01
20
60.05
10
184.42
20
60.4
72
1
10
184.42
20
60.4
11
187.05
21
62.67
72
4
94
2
73
0
74
0
95
6
96
3
40
0.0
40
0.0
40
0.0
40
1.0
40
1.0
40
1.0
10
187.05
20
62.67
10
187.31
20
62.9
10
187.25
20
63.23
72
1
10
187.25
20
63.23
11
186.69
21
66.3
72
4
94
3
73
0
74
0
95
8
96
4
40
0.0
40
0.0
40
0.0
40
0.0
40
1.0
40
1.0
40
1.0
40
1.0
10
186.69
20
66.3
10
186.6220521274
20
66.6829789181
10
186.3506247594
20
67.0002813342
10
185.98
20
67.13
72
1
10
185.98
20
67.13
11
183.66
21
67.94
72
1
10
183.66
20
67.94
11
183.66
21
67.94
72
4
94
3
73
0
74
0
95
8
96
4
40
0.0
40
0.0
40
0.0
40
0.0
40
1.0
40
1.0
40
1.0
40
1.0
10
183.66
20
67.94
10
183.4842574084
20
68.0029525701
10
183.3414457091
20
68.1342208283
10
183.264181986
20
68.3038241227
72
4
94
3
73
0
74
0
95
8
96
4
40
0.0
40
0.0
40
0.0
40
0.0
40
1.0
40
1.0
40
1.0
40
1.0
10
183.264181986
20
68.3038241227
10
183.186918263
20
68.4734274172
10
183.1818013824
20
68.6668804322
10
183.25
20
68.84
72
1
10
183.25
20
68.84
11
183.92
21
70.53
72
4
94
2
73
0
74
0
95
6
96
3
40
0.0
40
0.0
40
0.0
40
1.0
40
1.0
40
1.0
10
183.92
20
70.53
10
184.16
20
71.12
10
184.76
20
70.91
72
1
10
184.76
20
70.91
11
193.26
21
67.93
72
4
94
2
73
0
74
0
95
6
96
3
40
0.0
40
0.0
40
0.0
40
1.0
40
1.0
40
1.0
10
193.26
20
67.93
10
193.76
20
67.76
10
193.87
20
67.24
72
4
94
2
73
0
74
0
95
6
96
3
40
0.0
40
0.0
40
0.0
40
1.0
40
1.0
40
1.0
10
193.87
20
67.24
10
195.98
20
57.49
10
206.39
20
57.45
72
4
94
3
73
0
74
0
95
8
96
4
40
0.0
40
0.0
40
0.0
40
0.0
40
1.0
40
1.0
40
1.0
40
1.0
10
206.39
20
57.45
10
215.15
20
57.41
10
221.28
20
66.0
10
218.25
20
74.36
72
4
94
2
73
0
74
0
95
6
96
3
40
0.0
40
0.0
40
0.0
40
1.0
40
1.0
40
1.0
10
218.25
20
74.36
10
216.08
20
80.36
10
209.86
20
82.23
72
4
94
2
73
0
74
0
95
6
96
3
40
0.0
40
0.0
40
0.0
40
1.0
40
1.0
40
1.0
10
209.86
20
82.23
10
204.72
20
83.78
10
200.31
20
81.38
72
1
10
200.31
20
81.38
11
200.31
21
81.38
72
4
94
3
73
0
74
0
95
8
96
4
40
0.0
40
0.0
40
0.0
40
0.0
40
1.0
40
1.0
40
1.0
40
1.0
10
200.31
20
81.38
10
200.1472808557
20
81.2896004754
10
199.9446392393
20
81.3094673005
10
199.8
20
81.43
72
1
10
199.8
20
81.43
11
194.32
21
86.04
72
4
94
2
73
0
74
0
95
6
96
3
40
0.0
40
0.0
40
0.0
40
1.0
40
1.0
40
1.0
10
194.32
20
86.04
10
193.2
20
86.98
10
193.64
20
88.37
72
4
94
2
73
0
74
0
95
6
96
3
40
0.0
40
0.0
40
0.0
40
1.0
40
1.0
40
1.0
10
193.64
20
88.37
10
194.39
20
90.76
10
195.11
20
91.71
72
4
94
2
73
0
74
0
95
6
96
3
40
0.0
40
0.0
40
0.0
40
1.0
40
1.0
40
1.0
10
195.11
20
91.71
10
195.98
20
92.84
10
196.91
20
91.76
72
1
10
196.91
20
91.76
11
198.98
21
89.35
72
4
94
2
73
0
74
0
95
6
96
3
40
0.0
40
0.0
40
0.0
40
1.0
40
1.0
40
1.0
10
198.98
20
89.35
10
199.4
20
88.87
10
200.0
20
89.08
72
1
10
200.0
20
89.08
11
202.85
21
90.11
72
4
94
2
73
0
74
0
95
6
96
3
40
0.0
40
0.0
40
0.0
40
1.0
40
1.0
40
1.0
10
202.85
20
90.11
10
203.18
20
90.23
10
203.25
20
90.58
72
1
10
203.25
20
90.58
11
203.82
21
93.85
72
4
94
2
73
0
74
0
95
6
96
3
40
0.0
40
0.0
40
0.0
40
1.0
40
1.0
40
1.0
10
203.82
20
93.85
10
203.92
20
94.4
10
204.48
20
94.4
72
1
10
204.48
20
94.4
11
208.16
21
94.4
72
4
94
2
73
0
74
0
95
6
96
3
40
0.0
40
0.0
40
0.0
40
1.0
40
1.0
40
1.0
10
208.16
20
94.4
10
208.72
20
94.4
10
208.82
20
93.85
72
1
10
208.82
20
93.85
11
209.46
21
90.37
72
4
94
3
73
0
74
0
95
8
96
4
40
0.0
40
0.0
40
0.0
40
0.0
40
1.0
40
1.0
40
1.0
40
1.0
10
209.46
20
90.37
10
209.5140380967
20
90.0637841186
10
209.7537841186
20
89.8240380967
10
210.06
20
89.77
72
1
10
210.06
20
89.77
11
213.26
21
89.2
72
4
94
2
73
0
74
0
95
6
96
3
40
0.0
40
0.0
40
0.0
40
1.0
40
1.0
40
1.0
10
213.26
20
89.2
10
213.69
20
89.12
10
213.98
20
89.46
72
1
10
213.98
20
89.46
11
215.98
21
91.84
72
1
10
215.98
20
91.84
11
215.98
21
91.84
72
4
94
3
73
0
74
0
95
8
96
4
40
0.0
40
0.0
40
0.0
40
0.0
40
1.0
40
1.0
40
1.0
40
1.0
10
215.98
20
91.84
10
216.2343167874
20
92.1463361302
10
216.6774244539
20
92.2222974445
10
217.03
20
92.02
72
1
10
217.03
20
92.02
11
219.83
21
90.4
72
4
94
3
73
0
74
0
95
8
96
4
40
0.0
40
0.0
40
0.0
40
0.0
40
1.0
40
1.0
40
1.0
40
1.0
10
219.83
20
90.4
10
220.2651165432
20
90.1505331819
10
220.4624435095
20
89.6299258667
10
220.3
20
89.16
72
1
10
220.3
20
89.16
11
219.31
21
86.34
72
4
94
2
73
0
74
0
95
6
96
3
40
0.0
40
0.0
40
0.0
40
1.0
40
1.0
40
1.0
10
219.31
20
86.34
10
219.14
20
85.87
10
219.47
20
85.49
72
1
10
219.47
20
85.49
11
221.55
21
83.07
72
4
94
2
73
0
74
0
95
6
96
3
40
0.0
40
0.0
40
0.0
40
1.0
40
1.0
40
1.0
10
221.55
20
83.07
10
221.82
20
82.76
10
222.21
20
82.9
72
1
10
222.21
20
82.9
11
225.6
21
84.12
72
1
10
225.6
20
84.12
11
225.6
21
84.12
72
4
94
3
73
0
74
0
95
8
96
4
40
0.0
40
0.0
40
0.0
40
0.0
40
1.0
40
1.0
40
1.0
40
1.0
10
225.6
20
84.12
10
225.9353804032
20
84.2414308357
10
226.3107449569
20
84.1022507203
10
226.49
20
83.79
72
1
10
226.49
20
83.79
11
228.3
21
80.65
72
4
94
3
73
0
74
0
95
8
96
4
40
0.0
40
0.0
40
0.0
40
0.0
40
1.0
40
1.0
40
1.0
40
1.0
10
228.3
20
80.65
10
228.4741706686
20
80.3481041743
10
228.411256003
20
79.9664218692
10
228.15
20
79.74
72
1
10
228.15
20
79.74
11
225.53
21
77.48
72
4
94
2
73
0
74
0
95
6
96
3
40
0.0
40
0.0
40
0.0
40
1.0
40
1.0
40
1.0
10
225.53
20
77.48
10
225.06
20
77.08
10
225.27
20
76.49
72
1
10
225.27
20
76.49
11
226.28
21
73.68
72
4
94
3
73
0
74
0
95
8
96
4
40
0.0
40
0.0
40
0.0
40
0.0
40
1.0
40
1.0
40
1.0
40
1.0
10
226.28
20
73.68
10
226.3852204052
20
73.3890965268
10
226.64052822
20
73.1757049204
10
226.95
20
73.12
72
1
10
226.95
20
73.12
11
230.04
21
72.57
72
4
94
2
73
0
74
0
95
6
96
3
40
0.0
40
0.0
40
0.0
40
1.0
40
1.0
40
1.0
10
230.04
20
72.57
10
230.62
20
72.47
10
230.62
20
71.89
72
1
10
230.62
20
71.89
11
230.62
21
68.12
72
4
94
2
73
0
74
0
95
6
96
3
40
0.0
40
0.0
40
0.0
40
1.0
40
1.0
40
1.0
10
230.62
20
68.12
10
230.62
20
67.61
10
230.11
20
67.52
72
1
10
230.11
20
67.52
11
226.75
21
66.9
72
4
94
2
73
0
74
0
95
6
96
3
40
0.0
40
0.0
40
0.0
40
1.0
40
1.0
40
1.0
10
226.75
20
66.9
10
226.05
20
66.77
10
225.92
20
66.06
72
1
10
225.92
20
66.06
11
225.39
21
63.07
72
4
94
2
73
0
74
0
95
6
96
3
40
0.0
40
0.0
40
0.0
40
1.0
40
1.0
40
1.0
10
225.39
20
63.07
10
225.33
20
62.69
10
225.62
20
62.45
72
1
10
225.62
20
62.45
11
228.18
21
60.29
72
4
94
2
73
0
74
0
95
6
96
3
40
0.0
40
0.0
40
0.0
40
1.0
40
1.0
40
1.0
10
228.18
20
60.29
10
228.57
20
59.97
10
228.31
20
59.53
72
1
10
228.31
20
59.53
11
226.38
21
56.18
72
4
94
2
73
0
74
0
95
6
96
3
40
0.0
40
0.0
40
0.0
40
1.0
40
1.0
40
1.0
10
226.38
20
56.18
10
226.16
20
55.79
10
225.73
20
55.94
72
1
10
225.73
20
55.94
11
222.33
21
57.13
72
4
94
2
73
0
74
0
95
6
96
3
40
0.0
40
0.0
40
0.0
40
1.0
40
1.0
40
1.0
10
222.33
20
57.13
10
221.77
20
57.32
10
221.39
20
56.87
72
1
10
221.39
20
56.87
11
219.35
21
54.44
72
4
94
2
73
0
74
0
95
6
96
3
40
0.0
40
0.0
40
0.0
40
1.0
40
1.0
40
1.0
10
219.35
20
54.44
10
219.08
20
54.13
10
219.22
20
53.75
72
1
10
219.22
20
53.75
11
220.36
21
50.59
72
4
94
3
73
0
74
0
95
8
96
4
40
0.0
40
0.0
40
0.0
40
0.0
40
1.0
40
1.0
40
1.0
40
1.0
10
220.36
20
50.59
10
220.4525033317
20
50.3356158378
10
220.3512583293
20
50.0529735393
10
220.12
20
49.92
72
1
10
220.12
20
49.92
11
216.83
21
48.02
72
4
94
2
73
0
74
0
95
6
96
3
40
0.0
40
0.0
40
0.0
40
1.0
40
1.0
40
1.0
10
216.83
20
48.02
10
216.38
20
47.76
10
216.05
20
48.16
72
1
10
216.05
20
48.16
11
213.84
21
50.72
72
4
94
2
73
0
74
0
95
6
96
3
40
0.0
40
0.0
40
0.0
40
1.0
40
1.0
40
1.0
10
213.84
20
50.72
10
213.59
20
51.0
10
213.23
20
50.94
72
1
10
213.23
20
50.94
11
209.97
21
50.34
72
4
94
2
73
0
74
0
95
6
96
3
40
0.0
40
0.0
40
0.0
40
1.0
40
1.0
40
1.0
10
209.97
20
50.34
10
209.47
20
50.25
10
209.38
20
49.75
72
1
10
209.38
20
49.75
11
208.76
21
46.21
72
4
94
2
73
0
74
0
95
6
96
3
40
0.0
40
0.0
40
0.0
40
1.0
40
1.0
40
1.0
10
208.76
20
46.21
10
208.67
20
45.75
10
208.2
20
45.75
72
1
10
208.2
20
45.75
11
204.43
21
45.75
72
4
94
2
73
0
74
0
95
6
96
3
40
0.0
40
0.0
40
0.0
40
1.0
40
1.0
40
1.0
10
204.43
20
45.75
10
203.86
20
45.75
10
203.75
20
46.31
72
1
10
203.75
20
46.31
11
203.15
21
49.61
72
4
94
2
73
0
74
0
95
6
96
3
40
0.0
40
0.0
40
0.0
40
1.0
40
1.0
40
1.0
10
203.15
20
49.61
10
203.02
20
50.32
10
202.32
20
50.44
97
0
75
0
76
1
98
0
0
HATCH
5
739
100
AcDbEntity
8
Layer 1
6
Solid
370
0
62
160
100
AcDbHatch
10
0
20
0
30
0
210
0
220
0
230
1
2
FILL_1849
70
1
71
0
91
1
92
0
93
8
72
4
94
3
73
0
74
0
95
8
96
4
40
0.0
40
0.0
40
0.0
40
0.0
40
1.0
40
1.0
40
1.0
40
1.0
10
168.49
20
7.45
10
168.49
20
7.2180404051
10
168.3019595949
20
7.03
10
168.07
20
7.03
72
1
10
168.07
20
7.03
11
167.29
21
7.03
72
4
94
3
73
0
74
0
95
8
96
4
40
0.0
40
0.0
40
0.0
40
0.0
40
1.0
40
1.0
40
1.0
40
1.0
10
167.29
20
7.03
10
167.0580404051
20
7.03
10
166.87
20
7.2180404051
10
166.87
20
7.45
72
1
10
166.87
20
7.45
11
166.87
21
19.95
72
4
94
3
73
0
74
0
95
8
96
4
40
0.0
40
0.0
40
0.0
40
0.0
40
1.0
40
1.0
40
1.0
40
1.0
10
166.87
20
19.95
10
166.87
20
20.1819595949
10
167.0580404051
20
20.37
10
167.29
20
20.37
72
1
10
167.29
20
20.37
11
168.07
21
20.37
72
4
94
3
73
0
74
0
95
8
96
4
40
0.0
40
0.0
40
0.0
40
0.0
40
1.0
40
1.0
40
1.0
40
1.0
10
168.07
20
20.37
10
168.3019595949
20
20.37
10
168.49
20
20.1819595949
10
168.49
20
19.95
72
1
10
168.49
20
19.95
11
168.49
21
7.45
97
0
75
0
76
1
98
0
0
HATCH
5
765
100
AcDbEntity
8
Layer 1
6
Solid
370
0
62
160
100
AcDbHatch
10
0
20
0
30
0
210
0
220
0
230
1
2
FILL_1893
70
1
71
0
91
2
92
0
93
15
72
1
10
202.14
20
15.92
11
202.14
21
19.78
72
4
94
2
73
0
74
0
95
6
96
3
40
0.0
40
0.0
40
0.0
40
1.0
40
1.0
40
1.0
10
202.14
20
19.78
10
202.14
20
20.45
10
202.81
20
20.4
72
1
10
202.81
20
20.4
11
203.19
21
20.37
72
1
10
203.19
20
20.37
11
203.19
21
20.37
72
4
94
3
73
0
74
0
95
8
96
4
40
0.0
40
0.0
40
0.0
40
0.0
40
1.0
40
1.0
40
1.0
40
1.0
10
203.19
20
20.37
10
203.5000040856
20
20.3474542483
10
203.74
20
20.0856405236
10
203.74
20
19.77
72
1
10
203.74
20
19.77
11
203.74
21
7.61
72
4
94
2
73
0
74
0
95
6
96
3
40
0.0
40
0.0
40
0.0
40
1.0
40
1.0
40
1.0
10
203.74
20
7.61
10
203.74
20
7.05
10
203.18
20
7.01
72
4
94
2
73
0
74
0
95
6
96
3
40
0.0
40
0.0
40
0.0
40
1.0
40
1.0
40
1.0
10
203.18
20
7.01
10
202.9
20
6.98
10
202.45
20
7.08
72
4
94
2
73
0
74
0
95
6
96
3
40
0.0
40
0.0
40
0.0
40
1.0
40
1.0
40
1.0
10
202.45
20
7.08
10
202.02
20
7.18
10
202.04
20
7.63
72
4
94
2
73
0
74
0
95
6
96
3
40
0.0
40
0.0
40
0.0
40
1.0
40
1.0
40
1.0
10
202.04
20
7.63
10
202.05
20
7.8
10
202.11
20
7.97
72
4
94
2
73
0
74
0
95
6
96
3
40
0.0
40
0.0
40
0.0
40
1.0
40
1.0
40
1.0
10
202.11
20
7.97
10
202.31
20
8.54
10
201.8
20
8.21
72
4
94
2
73
0
74
0
95
6
96
3
40
0.0
40
0.0
40
0.0
40
1.0
40
1.0
40
1.0
10
201.8
20
8.21
10
201.59
20
8.07
10
200.85
20
7.49
72
4
94
3
73
0
74
0
95
8
96
4
40
0.0
40
0.0
40
0.0
40
0.0
40
1.0
40
1.0
40
1.0
40
1.0
10
200.85
20
7.49
10
199.62
20
6.5
10
197.06
20
6.81
10
196.21
20
7.41
72
4
94
3
73
0
74
0
95
8
96
4
40
0.0
40
0.0
40
0.0
40
0.0
40
1.0
40
1.0
40
1.0
40
1.0
10
196.21
20
7.41
10
190.61
20
11.41
10
195.39
20
20.26
10
201.78
20
15.73
72
4
94
2
73
0
74
0
95
6
96
3
40
0.0
40
0.0
40
0.0
40
1.0
40
1.0
40
1.0
10
201.78
20
15.73
10
202.14
20
15.48
10
202.14
20
15.92
97
0
92
0
93
6
72
1
10
198.9502556505
20
8.2544053532
11
198.9502556505
21
8.2544053532
72
4
94
3
73
0
74
0
95
8
96
4
40
0.0
40
0.0
40
0.0
40
0.0
40
1.0
40
1.0
40
1.0
40
1.0
10
198.9502556505
20
8.2544053532
10
200.8092332408
20
8.3453245256
10
202.2355291297
20
10.0691260067
10
202.1359766828
20
12.1046237242
72
4
94
3
73
0
74
0
95
8
96
4
40
0.0
40
0.0
40
0.0
40
0.0
40
1.0
40
1.0
40
1.0
40
1.0
10
202.1359766828
20
12.1046237242
10
202.036424236
20
14.1401214417
10
200.4487219397
20
15.7165138191
10
198.5897443495
20
15.6255946468
72
4
94
3
73
0
74
0
95
8
96
4
40
0.0
40
0.0
40
0.0
40
0.0
40
1.0
40
1.0
40
1.0
40
1.0
10
198.5897443495
20
15.6255946468
10
196.7307667592
20
15.5346754744
10
195.3044708703
20
13.8108739933
10
195.4040233172
20
11.7753762758
72
4
94
3
73
0
74
0
95
8
96
4
40
0.0
40
0.0
40
0.0
40
0.0
40
1.0
40
1.0
40
1.0
40
1.0
10
195.4040233172
20
11.7753762758
10
195.503575764
20
9.7398785583
10
197.0912780603
20
8.1634861809
10
198.9502556505
20
8.2544053532
72
1
10
198.9502556505
20
8.2544053532
11
198.9502556505
21
8.2544053532
97
0
75
0
76
1
98
0
0
HATCH
5
789
100
AcDbEntity
8
Layer 1
6
Solid
370
0
62
160
100
AcDbHatch
10
0
20
0
30
0
210
0
220
0
230
1
2
FILL_1929
70
1
71
0
91
1
92
0
93
17
72
4
94
2
73
0
74
0
95
6
96
3
40
0.0
40
0.0
40
0.0
40
1.0
40
1.0
40
1.0
10
145.35
20
9.03
10
144.66
20
8.48
10
145.54
20
8.48
72
1
10
145.54
20
8.48
11
150.45
21
8.48
72
4
94
2
73
0
74
0
95
6
96
3
40
0.0
40
0.0
40
0.0
40
1.0
40
1.0
40
1.0
10
150.45
20
8.48
10
150.87
20
8.48
10
150.87
20
8.06
72
1
10
150.87
20
8.06
11
150.87
21
7.52
72
4
94
2
73
0
74
0
95
6
96
3
40
0.0
40
0.0
40
0.0
40
1.0
40
1.0
40
1.0
10
150.87
20
7.52
10
150.87
20
7.12
10
150.47
20
7.12
72
1
10
150.47
20
7.12
11
143.71
21
7.12
72
4
94
2
73
0
74
0
95
6
96
3
40
0.0
40
0.0
40
0.0
40
1.0
40
1.0
40
1.0
10
143.71
20
7.12
10
140.7
20
7.12
10
143.05
20
9.0
72
4
94
3
73
0
74
0
95
8
96
4
40
0.0
40
0.0
40
0.0
40
0.0
40
1.0
40
1.0
40
1.0
40
1.0
10
143.05
20
9.0
10
145.54
20
10.98
10
148.77
20
13.41
10
148.86
20
16.54
72
1
10
148.86
20
16.54
11
148.86
21
16.54
72
4
94
3
73
0
74
0
95
8
96
4
40
0.0
40
0.0
40
0.0
40
0.0
40
1.0
40
1.0
40
1.0
40
1.0
10
148.86
20
16.54
10
148.8802468887
20
17.1853695778
10
148.6221830968
20
17.8083209782
10
148.151483083
20
18.2503197716
72
4
94
3
73
0
74
0
95
8
96
4
40
0.0
40
0.0
40
0.0
40
0.0
40
1.0
40
1.0
40
1.0
40
1.0
10
148.151483083
20
18.2503197716
10
147.6807830693
20
18.6923185651
10
147.0428387167
20
18.9107406661
10
146.4
20
18.85
72
4
94
2
73
0
74
0
95
6
96
3
40
0.0
40
0.0
40
0.0
40
1.0
40
1.0
40
1.0
10
146.4
20
18.85
10
144.18
20
18.64
10
143.9
20
16.75
72
4
94
2
73
0
74
0
95
6
96
3
40
0.0
40
0.0
40
0.0
40
1.0
40
1.0
40
1.0
10
143.9
20
16.75
10
143.8
20
16.05
10
143.09
20
16.05
72
1
10
143.09
20
16.05
11
142.73
21
16.05
72
4
94
2
73
0
74
0
95
6
96
3
40
0.0
40
0.0
40
0.0
40
1.0
40
1.0
40
1.0
10
142.73
20
16.05
10
142.09
20
16.05
10
142.21
20
16.67
72
4
94
3
73
0
74
0
95
8
96
4
40
0.0
40
0.0
40
0.0
40
0.0
40
1.0
40
1.0
40
1.0
40
1.0
10
142.21
20
16.67
10
143.16
20
21.89
10
151.45
20
21.45
10
150.3
20
15.4
72
4
94
3
73
0
74
0
95
8
96
4
40
0.0
40
0.0
40
0.0
40
0.0
40
1.0
40
1.0
40
1.0
40
1.0
10
150.3
20
15.4
10
149.82
20
12.86
10
147.37
20
10.65
10
145.35
20
9.03
97
0
75
0
76
1
98
0
0
HATCH
5
7a7
100
AcDbEntity
8
Layer 1
6
Solid
370
0
62
160
100
AcDbHatch
10
0
20
0
30
0
210
0
220
0
230
1
2
FILL_1959
70
1
71
0
91
1
92
0
93
14
72
4
94
3
73
0
74
0
95
8
96
4
40
0.0
40
0.0
40
0.0
40
0.0
40
1.0
40
1.0
40
1.0
40
1.0
10
154.1168111186
20
13.3346432164
10
154.070693477
20
8.4666618332
10
159.1068929087
20
6.5629096414
10
162.2503194902
20
10.1429973198
72
4
94
2
73
0
74
0
95
6
96
3
40
0.0
40
0.0
40
0.0
40
1.0
40
1.0
40
1.0
10
162.2503194902
20
10.1429973198
10
162.76
20
10.72
10
163.53
20
10.66
72
1
10
163.53
20
10.66
11
163.84
21
10.64
72
4
94
3
73
0
74
0
95
8
96
4
40
0.0
40
0.0
40
0.0
40
0.0
40
1.0
40
1.0
40
1.0
40
1.0
10
163.84
20
10.64
10
164.0232086278
20
10.6263568043
10
164.1840394293
20
10.5125738783
10
164.2575206689
20
10.3446167591
72
4
94
3
73
0
74
0
95
8
96
4
40
0.0
40
0.0
40
0.0
40
0.0
40
1.0
40
1.0
40
1.0
40
1.0
10
164.2575206689
20
10.3446167591
10
164.3310019085
20
10.17665964
10
164.3049926493
20
9.9822790407
10
164.19
20
9.84
72
4
94
2
73
0
74
0
95
6
96
3
40
0.0
40
0.0
40
0.0
40
1.0
40
1.0
40
1.0
10
164.19
20
9.84
10
160.14
20
4.89
10
155.133189853
20
8.0084023801
72
4
94
2
73
0
74
0
95
6
96
3
40
0.0
40
0.0
40
0.0
40
1.0
40
1.0
40
1.0
10
155.133189853
20
8.0084023801
10
152.3426285704
20
9.7442371809
10
152.3767990535
20
13.3511275138
72
4
94
2
73
0
74
0
95
6
96
3
40
0.0
40
0.0
40
0.0
40
1.0
40
1.0
40
1.0
10
152.3767990535
20
13.3511275138
10
152.4109695366
20
16.9580178467
10
155.2339164514
20
18.6406721321
72
4
94
2
73
0
74
0
95
6
96
3
40
0.0
40
0.0
40
0.0
40
1.0
40
1.0
40
1.0
10
155.2339164514
20
18.6406721321
10
160.2989080705
20
21.6636576017
10
164.254400257
20
16.637816223
72
4
94
3
73
0
74
0
95
8
96
4
40
0.0
40
0.0
40
0.0
40
0.0
40
1.0
40
1.0
40
1.0
40
1.0
10
164.254400257
20
16.637816223
10
164.3666766999
20
16.4933841103
10
164.3889986267
20
16.2985456374
10
164.3123485213
20
16.1320108128
72
4
94
3
73
0
74
0
95
8
96
4
40
0.0
40
0.0
40
0.0
40
0.0
40
1.0
40
1.0
40
1.0
40
1.0
10
164.3123485213
20
16.1320108128
10
164.2356984159
20
15.9654759883
10
164.0727407911
20
15.8547605264
10
163.8893065674
20
15.8445907836
72
1
10
163.8893065674
20
15.8445907836
11
163.5789832949
21
15.8304675206
72
4
94
2
73
0
74
0
95
6
96
3
40
0.0
40
0.0
40
0.0
40
1.0
40
1.0
40
1.0
10
163.5789832949
20
15.8304675206
10
162.80798476
20
15.7850664297
10
162.309327413
20
16.3716217685
72
4
94
3
73
0
74
0
95
8
96
4
40
0.0
40
0.0
40
0.0
40
0.0
40
1.0
40
1.0
40
1.0
40
1.0
10
162.309327413
20
16.3716217685
10
159.2342920682
20
20.0106210933
10
154.1629287602
20
18.2026245996
10
154.1168111186
20
13.3346432164
97
0
75
0
76
1
98
0
0
HATCH
5
7e1
100
AcDbEntity
8
Layer 1
6
Solid
370
0
62
160
100
AcDbHatch
10
0
20
0
30
0
210
0
220
0
230
1
2
FILL_2017
70
1
71
0
91
1
92
0
93
28
72
4
94
2
73
0
74
0
95
6
96
3
40
0.0
40
0.0
40
0.0
40
1.0
40
1.0
40
1.0
10
100.746008955
20
9.3759753601
10
100.83176809
20
9.3757649565
10
100.8719183771
20
9.4648647704
72
4
94
2
73
0
74
0
95
6
96
3
40
0.0
40
0.0
40
0.0
40
1.0
40
1.0
40
1.0
10
100.8719183771
20
9.4648647704
10
102.94
20
14.06
10
105.02
20
18.65
72
4
94
2
73
0
74
0
95
6
96
3
40
0.0
40
0.0
40
0.0
40
1.0
40
1.0
40
1.0
10
105.02
20
18.65
10
105.38
20
19.45
10
105.81
20
19.53
72
4
94
2
73
0
74
0
95
6
96
3
40
0.0
40
0.0
40
0.0
40
1.0
40
1.0
40
1.0
10
105.81
20
19.53
10
106.19
20
19.59
10
106.61
20
19.55
72
4
94
2
73
0
74
0
95
6
96
3
40
0.0
40
0.0
40
0.0
40
1.0
40
1.0
40
1.0
10
106.61
20
19.55
10
107.13
20
19.49
10
107.13
20
18.96
72
1
10
107.13
20
18.96
11
107.13
21
7.59
72
4
94
2
73
0
74
0
95
6
96
3
40
0.0
40
0.0
40
0.0
40
1.0
40
1.0
40
1.0
10
107.13
20
7.59
10
107.13
20
7.01
10
106.55
20
7.01
72
1
10
106.55
20
7.01
11
106.02
21
7.01
72
4
94
2
73
0
74
0
95
6
96
3
40
0.0
40
0.0
40
0.0
40
1.0
40
1.0
40
1.0
10
106.02
20
7.01
10
105.49
20
7.01
10
105.49
20
7.54
72
1
10
105.49
20
7.54
11
105.49
21
15.11
72
4
94
2
73
0
74
0
95
6
96
3
40
0.0
40
0.0
40
0.0
40
1.0
40
1.0
40
1.0
10
105.49
20
15.11
10
105.49
20
16.41
10
104.97
20
15.22
72
4
94
2
73
0
74
0
95
6
96
3
40
0.0
40
0.0
40
0.0
40
1.0
40
1.0
40
1.0
10
104.97
20
15.22
10
103.04
20
10.77
10
101.56
20
7.52
72
4
94
2
73
0
74
0
95
6
96
3
40
0.0
40
0.0
40
0.0
40
1.0
40
1.0
40
1.0
10
101.56
20
7.52
10
101.44
20
7.25
10
101.2561043309
20
7.1486067615
72
4
94
2
73
0
74
0
95
6
96
3
40
0.0
40
0.0
40
0.0
40
1.0
40
1.0
40
1.0
10
101.2561043309
20
7.1486067615
10
101.0314026265
20
7.0234692411
10
100.7402390091
20
7.0241835893
72
4
94
2
73
0
74
0
95
6
96
3
40
0.0
40
0.0
40
0.0
40
1.0
40
1.0
40
1.0
10
100.7402390091
20
7.0241835893
10
100.4490753916
20
7.0248979376
10
100.2249904198
20
7.1511365227
72
4
94
2
73
0
74
0
95
6
96
3
40
0.0
40
0.0
40
0.0
40
1.0
40
1.0
40
1.0
10
100.2249904198
20
7.1511365227
10
100.041594483
20
7.2534308838
10
99.9229207694
20
7.524016452
72
4
94
2
73
0
74
0
95
6
96
3
40
0.0
40
0.0
40
0.0
40
1.0
40
1.0
40
1.0
10
99.9229207694
20
7.524016452
10
98.4588857564
20
10.7812394226
10
96.5507443464
20
15.2406560167
72
4
94
2
73
0
74
0
95
6
96
3
40
0.0
40
0.0
40
0.0
40
1.0
40
1.0
40
1.0
10
96.5507443464
20
15.2406560167
10
96.0365897241
20
16.4331932381
10
96.0302108561
20
15.1332088881
72
1
10
96.0302108561
20
15.1332088881
11
95.9930662173
21
7.5633000197
72
4
94
2
73
0
74
0
95
6
96
3
40
0.0
40
0.0
40
0.0
40
1.0
40
1.0
40
1.0
10
95.9930662173
20
7.5633000197
10
95.9904656019
20
7.0333064001
10
95.4604719823
20
7.0359070156
72
1
10
95.4604719823
20
7.0359070156
11
94.9304783627
21
7.038507631
72
4
94
2
73
0
74
0
95
6
96
3
40
0.0
40
0.0
40
0.0
40
1.0
40
1.0
40
1.0
10
94.9304783627
20
7.038507631
10
94.350485345
20
7.0413535874
10
94.3533313015
20
7.6213466051
72
1
10
94.3533313015
20
7.6213466051
11
94.4091218621
21
18.9912097271
72
4
94
2
73
0
74
0
95
6
96
3
40
0.0
40
0.0
40
0.0
40
1.0
40
1.0
40
1.0
10
94.4091218621
20
18.9912097271
10
94.4117224775
20
19.5212033467
10
94.9320106267
20
19.5786510772
72
4
94
2
73
0
74
0
95
6
96
3
40
0.0
40
0.0
40
0.0
40
1.0
40
1.0
40
1.0
10
94.9320106267
20
19.5786510772
10
95.3522018434
20
19.6165897306
10
95.7319028595
20
19.5547258607
72
4
94
2
73
0
74
0
95
6
96
3
40
0.0
40
0.0
40
0.0
40
1.0
40
1.0
40
1.0
10
95.7319028595
20
19.5547258607
10
96.1615051372
20
19.4726168906
10
96.5175753461
20
18.6708600657
72
4
94
2
73
0
74
0
95
6
96
3
40
0.0
40
0.0
40
0.0
40
1.0
40
1.0
40
1.0
10
96.5175753461
20
18.6708600657
10
98.5750279953
20
14.0707091337
10
100.6205372132
20
9.4654815154
72
4
94
2
73
0
74
0
95
6
96
3
40
0.0
40
0.0
40
0.0
40
1.0
40
1.0
40
1.0
10
100.6205372132
20
9.4654815154
10
100.6602498201
20
9.3761857638
10
100.746008955
20
9.3759753601
97
0
75
0
76
1
98
0
0
HATCH
5
7f7
100
AcDbEntity
8
Layer 1
6
Solid
370
0
62
160
100
AcDbHatch
10
0
20
0
30
0
210
0
220
0
230
1
2
FILL_2039
70
1
71
0
91
2
92
0
93
4
72
4
94
3
73
0
74
0
95
8
96
4
40
0.0
40
0.0
40
0.0
40
0.0
40
1.0
40
1.0
40
1.0
40
1.0
10
119.34
20
11.95
10
119.34
20
9.1388706234
10
117.0611293766
20
6.86
10
114.25
20
6.86
72
4
94
3
73
0
74
0
95
8
96
4
40
0.0
40
0.0
40
0.0
40
0.0
40
1.0
40
1.0
40
1.0
40
1.0
10
114.25
20
6.86
10
111.4388706234
20
6.86
10
109.16
20
9.1388706234
10
109.16
20
11.95
72
4
94
3
73
0
74
0
95
8
96
4
40
0.0
40
0.0
40
0.0
40
0.0
40
1.0
40
1.0
40
1.0
40
1.0
10
109.16
20
11.95
10
109.16
20
14.7611293766
10
111.4388706234
20
17.04
10
114.25
20
17.04
72
4
94
3
73
0
74
0
95
8
96
4
40
0.0
40
0.0
40
0.0
40
0.0
40
1.0
40
1.0
40
1.0
40
1.0
10
114.25
20
17.04
10
117.0611293766
20
17.04
10
119.34
20
14.7611293766
10
119.34
20
11.95
97
0
92
0
93
6
72
1
10
114.2565100748
20
8.1900056811
11
114.2565100748
21
8.1900056811
72
4
94
3
73
0
74
0
95
8
96
4
40
0.0
40
0.0
40
0.0
40
0.0
40
1.0
40
1.0
40
1.0
40
1.0
10
114.2565100748
20
8.1900056811
10
116.1121840079
20
8.1932444464
10
117.6135902975
20
9.865845324
10
117.6099948824
20
11.9258643033
72
4
94
3
73
0
74
0
95
8
96
4
40
0.0
40
0.0
40
0.0
40
0.0
40
1.0
40
1.0
40
1.0
40
1.0
10
117.6099948824
20
11.9258643033
10
117.6063994674
20
13.9858832826
10
116.0991638583
20
15.6532330842
10
114.2434899252
20
15.6499943189
72
4
94
3
73
0
74
0
95
8
96
4
40
0.0
40
0.0
40
0.0
40
0.0
40
1.0
40
1.0
40
1.0
40
1.0
10
114.2434899252
20
15.6499943189
10
112.3878159921
20
15.6467555536
10
110.8864097025
20
13.974154676
10
110.8900051176
20
11.9141356967
72
4
94
3
73
0
74
0
95
8
96
4
40
0.0
40
0.0
40
0.0
40
0.0
40
1.0
40
1.0
40
1.0
40
1.0
10
110.8900051176
20
11.9141356967
10
110.8936005326
20
9.8541167174
10
112.4008361417
20
8.1867669158
10
114.2565100748
20
8.1900056811
72
1
10
114.2565100748
20
8.1900056811
11
114.2565100748
21
8.1900056811
97
0
75
0
76
1
98
0
0
HATCH
5
821
100
AcDbEntity
8
Layer 1
6
Solid
370
0
62
160
100
AcDbHatch
10
0
20
0
30
0
210
0
220
0
230
1
2
FILL_2081
70
1
71
0
91
1
92
0
93
20
72
4
94
2
73
0
74
0
95
6
96
3
40
0.0
40
0.0
40
0.0
40
1.0
40
1.0
40
1.0
10
125.0700731829
20
8.8660579654
10
125.1308126262
20
8.8661229196
10
125.185092393
20
8.8997854502
72
4
94
2
73
0
74
0
95
6
96
3
40
0.0
40
0.0
40
0.0
40
1.0
40
1.0
40
1.0
10
125.185092393
20
8.8997854502
10
125.22
20
8.92
10
125.24
20
8.99
72
4
94
2
73
0
74
0
95
6
96
3
40
0.0
40
0.0
40
0.0
40
1.0
40
1.0
40
1.0
10
125.24
20
8.99
10
126.67
20
12.86
10
127.93
20
16.37
72
1
10
127.93
20
16.37
11
127.93
21
16.37
72
4
94
3
73
0
74
0
95
8
96
4
40
0.0
40
0.0
40
0.0
40
0.0
40
1.0
40
1.0
40
1.0
40
1.0
10
127.93
20
16.37
10
128.0962019873
20
16.8298254982
10
128.6001745018
20
17.0706619211
10
129.06
20
16.91
72
1
10
129.06
20
16.91
11
129.43
21
16.78
72
4
94
2
73
0
74
0
95
6
96
3
40
0.0
40
0.0
40
0.0
40
1.0
40
1.0
40
1.0
10
129.43
20
16.78
10
129.8
20
16.65
10
129.66
20
16.28
72
1
10
129.66
20
16.28
11
126.25
21
7.58
72
4
94
2
73
0
74
0
95
6
96
3
40
0.0
40
0.0
40
0.0
40
1.0
40
1.0
40
1.0
10
126.25
20
7.58
10
126.07
20
7.12
10
125.5875419134
20
7.0081698138
72
4
94
2
73
0
74
0
95
6
96
3
40
0.0
40
0.0
40
0.0
40
1.0
40
1.0
40
1.0
10
125.5875419134
20
7.0081698138
10
125.4411662458
20
6.9750460565
10
125.0720958351
20
6.9746513761
72
4
94
2
73
0
74
0
95
6
96
3
40
0.0
40
0.0
40
0.0
40
1.0
40
1.0
40
1.0
10
125.0720958351
20
6.9746513761
10
124.7030254243
20
6.9742566957
10
124.5565792472
20
7.0070673122
72
4
94
2
73
0
74
0
95
6
96
3
40
0.0
40
0.0
40
0.0
40
1.0
40
1.0
40
1.0
10
124.5565792472
20
7.0070673122
10
124.073883084
20
7.1178653717
10
123.8928996576
20
7.5774793394
72
1
10
123.8928996576
20
7.5774793394
11
120.4643000846
21
16.2701662064
72
4
94
2
73
0
74
0
95
6
96
3
40
0.0
40
0.0
40
0.0
40
1.0
40
1.0
40
1.0
10
120.4643000846
20
16.2701662064
10
120.3235090567
20
16.6398659312
10
120.6932301693
20
16.7706569819
72
1
10
120.6932301693
20
16.7706569819
11
121.0629512818
21
16.9014480325
72
1
10
121.0629512818
20
16.9014480325
11
121.0629512818
21
16.9014480325
72
4
94
3
73
0
74
0
95
8
96
4
40
0.0
40
0.0
40
0.0
40
0.0
40
1.0
40
1.0
40
1.0
40
1.0
10
121.0629512818
20
16.9014480325
10
121.5224321081
20
17.063093051
10
122.0269185656
20
16.8233350645
10
122.1941036377
20
16.3638660873
72
4
94
2
73
0
74
0
95
6
96
3
40
0.0
40
0.0
40
0.0
40
1.0
40
1.0
40
1.0
10
122.1941036377
20
16.3638660873
10
123.4616078681
20
12.8565689761
10
124.89988167
20
8.9896362807
72
4
94
2
73
0
74
0
95
6
96
3
40
0.0
40
0.0
40
0.0
40
1.0
40
1.0
40
1.0
10
124.89988167
20
8.9896362807
10
124.9200313387
20
8.9196792164
10
124.9549821003
20
8.8995393725
72
4
94
2
73
0
74
0
95
6
96
3
40
0.0
40
0.0
40
0.0
40
1.0
40
1.0
40
1.0
10
124.9549821003
20
8.8995393725
10
125.0093337396
20
8.8659930112
10
125.0700731829
20
8.8660579654
97
0
75
0
76
1
98
0
0
HATCH
5
84d
100
AcDbEntity
8
Layer 1
6
Solid
370
0
62
160
100
AcDbHatch
10
0
20
0
30
0
210
0
220
0
230
1
2
FILL_2125
70
1
71
0
91
2
92
0
93
13
72
4
94
3
73
0
74
0
95
8
96
4
40
0.0
40
0.0
40
0.0
40
0.0
40
1.0
40
1.0
40
1.0
40
1.0
10
132.68
20
10.76
10
133.05
20
8.47
10
135.14
20
7.74
10
137.04
20
8.47
72
4
94
2
73
0
74
0
95
6
96
3
40
0.0
40
0.0
40
0.0
40
1.0
40
1.0
40
1.0
10
137.04
20
8.47
10
137.51
20
8.65
10
137.82
20
9.05
72
4
94
2
73
0
74
0
95
6
96
3
40
0.0
40
0.0
40
0.0
40
1.0
40
1.0
40
1.0
10
137.82
20
9.05
10
138.56
20
9.98
10
139.74
20
10.03
72
4
94
3
73
0
74
0
95
8
96
4
40
0.0
40
0.0
40
0.0
40
0.0
40
1.0
40
1.0
40
1.0
40
1.0
10
139.74
20
10.03
10
139.8887981753
20
10.0361149935
10
140.0294434276
20
9.9618054331
10
140.108123801
20
9.8355027284
72
4
94
3
73
0
74
0
95
8
96
4
40
0.0
40
0.0
40
0.0
40
0.0
40
1.0
40
1.0
40
1.0
40
1.0
10
140.108123801
20
9.8355027284
10
140.1868041744
20
9.7092000237
10
140.1913415909
20
9.5504531948
10
140.12
20
9.42
72
4
94
2
73
0
74
0
95
6
96
3
40
0.0
40
0.0
40
0.0
40
1.0
40
1.0
40
1.0
10
140.12
20
9.42
10
138.51
20
6.44
10
135.18
20
6.9
72
4
94
2
73
0
74
0
95
6
96
3
40
0.0
40
0.0
40
0.0
40
1.0
40
1.0
40
1.0
10
135.18
20
6.9
10
131.1
20
7.47
10
130.93
20
11.8
72
4
94
2
73
0
74
0
95
6
96
3
40
0.0
40
0.0
40
0.0
40
1.0
40
1.0
40
1.0
10
130.93
20
11.8
10
130.72
20
16.84
10
136.06
20
16.99
72
4
94
2
73
0
74
0
95
6
96
3
40
0.0
40
0.0
40
0.0
40
1.0
40
1.0
40
1.0
10
136.06
20
16.99
10
138.78
20
17.07
10
140.0
20
14.42
72
1
10
140.0
20
14.42
11
140.34
21
13.66
72
4
94
2
73
0
74
0
95
6
96
3
40
0.0
40
0.0
40
0.0
40
1.0
40
1.0
40
1.0
10
140.34
20
13.66
10
141.4
20
11.36
10
138.86
20
11.36
72
1
10
138.86
20
11.36
11
133.19
21
11.36
72
4
94
2
73
0
74
0
95
6
96
3
40
0.0
40
0.0
40
0.0
40
1.0
40
1.0
40
1.0
10
133.19
20
11.36
10
132.59
20
11.36
10
132.68
20
10.76
97
0
92
0
93
8
72
1
10
132.8
20
12.63
11
138.68
21
12.63
72
4
94
3
73
0
74
0
95
8
96
4
40
0.0
40
0.0
40
0.0
40
0.0
40
1.0
40
1.0
40
1.0
40
1.0
10
138.68
20
12.63
10
138.7517970175
20
12.63
10
138.81
20
12.6882029825
10
138.81
20
12.76
72
1
10
138.81
20
12.76
11
138.81
21
12.82
72
4
94
3
73
0
74
0
95
8
96
4
40
0.0
40
0.0
40
0.0
40
0.0
40
1.0
40
1.0
40
1.0
40
1.0
10
138.81
20
12.82
10
138.81
20
14.371920147
10
137.489240012
20
15.63
10
135.86
20
15.63
72
1
10
135.86
20
15.63
11
135.62
21
15.63
72
4
94
3
73
0
74
0
95
8
96
4
40
0.0
40
0.0
40
0.0
40
0.0
40
1.0
40
1.0
40
1.0
40
1.0
10
135.62
20
15.63
10
133.990759988
20
15.63
10
132.67
20
14.371920147
10
132.67
20
12.82
72
1
10
132.67
20
12.82
11
132.67
21
12.76
72
4
94
3
73
0
74
0
95
8
96
4
40
0.0
40
0.0
40
0.0
40
0.0
40
1.0
40
1.0
40
1.0
40
1.0
10
132.67
20
12.76
10
132.67
20
12.6882029825
10
132.7282029825
20
12.63
10
132.8
20
12.63
97
0
75
0
76
1
98
0
0
HATCH
5
85f
100
AcDbEntity
8
Layer 1
6
Solid
370
0
62
160
100
AcDbHatch
10
0
20
0
30
0
210
0
220
0
230
1
2
FILL_2143
70
1
71
0
91
2
92
0
93
4
72
4
94
3
73
0
74
0
95
8
96
4
40
0.0
40
0.0
40
0.0
40
0.0
40
1.0
40
1.0
40
1.0
40
1.0
10
180.79
20
11.93
10
180.79
20
9.1243934709
10
178.5156065291
20
6.85
10
175.71
20
6.85
72
4
94
3
73
0
74
0
95
8
96
4
40
0.0
40
0.0
40
0.0
40
0.0
40
1.0
40
1.0
40
1.0
40
1.0
10
175.71
20
6.85
10
172.9043934709
20
6.85
10
170.63
20
9.1243934709
10
170.63
20
11.93
72
4
94
3
73
0
74
0
95
8
96
4
40
0.0
40
0.0
40
0.0
40
0.0
40
1.0
40
1.0
40
1.0
40
1.0
10
170.63
20
11.93
10
170.63
20
14.7356065291
10
172.9043934709
20
17.01
10
175.71
20
17.01
72
4
94
3
73
0
74
0
95
8
96
4
40
0.0
40
0.0
40
0.0
40
0.0
40
1.0
40
1.0
40
1.0
40
1.0
10
175.71
20
17.01
10
178.5156065291
20
17.01
10
180.79
20
14.7356065291
10
180.79
20
11.93
97
0
92
0
93
4
72
4
94
3
73
0
74
0
95
8
96
4
40
0.0
40
0.0
40
0.0
40
0.0
40
1.0
40
1.0
40
1.0
40
1.0
10
175.5888679755
20
8.2011134431
10
177.4550331942
20
8.1555053475
10
179.0086602081
20
9.7880120586
10
179.0589910355
20
11.8474192378
72
4
94
3
73
0
74
0
95
8
96
4
40
0.0
40
0.0
40
0.0
40
0.0
40
1.0
40
1.0
40
1.0
40
1.0
10
179.0589910355
20
11.8474192378
10
179.1093218628
20
13.9068264171
10
177.6372972432
20
15.6132784613
10
175.7711320245
20
15.6588865569
72
4
94
3
73
0
74
0
95
8
96
4
40
0.0
40
0.0
40
0.0
40
0.0
40
1.0
40
1.0
40
1.0
40
1.0
10
175.7711320245
20
15.6588865569
10
173.9049668058
20
15.7044946525
10
172.3513397919
20
14.0719879414
10
172.3010089645
20
12.0125807622
72
4
94
3
73
0
74
0
95
8
96
4
40
0.0
40
0.0
40
0.0
40
0.0
40
1.0
40
1.0
40
1.0
40
1.0
10
172.3010089645
20
12.0125807622
10
172.2506781372
20
9.9531735829
10
173.7227027568
20
8.2467215387
10
175.5888679755
20
8.2011134431
97
0
75
0
76
1
98
0
0
HATCH
5
88b
100
AcDbEntity
8
Layer 1
6
Solid
370
0
62
160
100
AcDbHatch
10
0
20
0
30
0
210
0
220
0
230
1
2
FILL_2187
70
1
71
0
91
1
92
0
93
21
72
1
10
189.02
20
7.76
11
188.72
21
7.39
72
4
94
3
73
0
74
0
95
8
96
4
40
0.0
40
0.0
40
0.0
40
0.0
40
1.0
40
1.0
40
1.0
40
1.0
10
188.72
20
7.39
10
188.6156092505
20
7.2725604068
10
188.4835372806
20
7.1891465311
10
188.34
20
7.15
72
4
94
3
73
0
74
0
95
8
96
4
40
0.0
40
0.0
40
0.0
40
0.0
40
1.0
40
1.0
40
1.0
40
1.0
10
188.34
20
7.15
10
184.67
20
6.08
10
182.54
20
8.4
10
182.75
20
12.0
72
4
94
2
73
0
74
0
95
6
96
3
40
0.0
40
0.0
40
0.0
40
1.0
40
1.0
40
1.0
10
182.75
20
12.0
10
182.79
20
12.72
10
182.73
20
16.46
72
1
10
182.73
20
16.46
11
182.73
21
16.46
72
4
94
3
73
0
74
0
95
8
96
4
40
0.0
40
0.0
40
0.0
40
0.0
40
1.0
40
1.0
40
1.0
40
1.0
10
182.73
20
16.46
10
182.7273699257
20
16.5704631187
10
182.7704596602
20
16.6773163929
10
182.84951516
20
16.7563718927
72
4
94
3
73
0
74
0
95
8
96
4
40
0.0
40
0.0
40
0.0
40
0.0
40
1.0
40
1.0
40
1.0
40
1.0
10
182.84951516
20
16.7563718927
10
182.9285706598
20
16.8354273925
10
183.0369068071
20
16.88
10
183.15
20
16.88
72
1
10
183.15
20
16.88
11
183.97
21
16.88
72
4
94
3
73
0
74
0
95
8
96
4
40
0.0
40
0.0
40
0.0
40
0.0
40
1.0
40
1.0
40
1.0
40
1.0
10
183.97
20
16.88
10
184.1798682049
20
16.88
10
184.35
20
16.7143453574
10
184.35
20
16.51
72
1
10
184.35
20
16.51
11
184.4
21
10.99
72
4
94
2
73
0
74
0
95
6
96
3
40
0.0
40
0.0
40
0.0
40
1.0
40
1.0
40
1.0
10
184.4
20
10.99
10
184.43
20
8.35
10
187.12
20
8.29
72
4
94
2
73
0
74
0
95
6
96
3
40
0.0
40
0.0
40
0.0
40
1.0
40
1.0
40
1.0
10
187.12
20
8.29
10
187.15
20
8.29
10
187.22
20
8.3
72
4
94
2
73
0
74
0
95
6
96
3
40
0.0
40
0.0
40
0.0
40
1.0
40
1.0
40
1.0
10
187.22
20
8.3
10
189.84
20
8.37
10
189.91
20
10.89
72
1
10
189.91
20
10.89
11
190.05
21
16.26
72
4
94
2
73
0
74
0
95
6
96
3
40
0.0
40
0.0
40
0.0
40
1.0
40
1.0
40
1.0
10
190.05
20
16.26
10
190.07
20
16.94
10
190.76
20
16.94
72
1
10
190.76
20
16.94
11
191.14
21
16.94
72
4
94
2
73
0
74
0
95
6
96
3
40
0.0
40
0.0
40
0.0
40
1.0
40
1.0
40
1.0
10
191.14
20
16.94
10
191.62
20
16.94
10
191.62
20
16.46
72
1
10
191.62
20
16.46
11
191.62
21
7.57
72
4
94
2
73
0
74
0
95
6
96
3
40
0.0
40
0.0
40
0.0
40
1.0
40
1.0
40
1.0
10
191.62
20
7.57
10
191.62
20
7.1
10
191.16
20
7.01
72
4
94
2
73
0
74
0
95
6
96
3
40
0.0
40
0.0
40
0.0
40
1.0
40
1.0
40
1.0
10
191.16
20
7.01
10
190.23
20
6.84
10
189.84
20
7.65
72
4
94
2
73
0
74
0
95
6
96
3
40
0.0
40
0.0
40
0.0
40
1.0
40
1.0
40
1.0
10
189.84
20
7.65
10
189.51
20
8.33
10
189.02
20
7.76
97
0
75
0
76
1
98
0
0
HATCH
5
899
100
AcDbEntity
8
Layer 1
6
Solid
370
0
62
0
100
AcDbHatch
10
0
20
0
30
0
210
0
220
0
230
1
2
FILL_2201
70
1
71
0
91
1
92
0
93
6
72
1
10
114.2565100748
20
8.1900056811
11
114.2565100748
21
8.1900056811
72
4
94
3
73
0
74
0
95
8
96
4
40
0.0
40
0.0
40
0.0
40
0.0
40
1.0
40
1.0
40
1.0
40
1.0
10
114.2565100748
20
8.1900056811
10
112.4008361417
20
8.1867669158
10
110.8936005326
20
9.8541167174
10
110.8900051176
20
11.9141356967
72
4
94
3
73
0
74
0
95
8
96
4
40
0.0
40
0.0
40
0.0
40
0.0
40
1.0
40
1.0
40
1.0
40
1.0
10
110.8900051176
20
11.9141356967
10
110.8864097025
20
13.974154676
10
112.3878159921
20
15.6467555536
10
114.2434899252
20
15.6499943189
72
4
94
3
73
0
74
0
95
8
96
4
40
0.0
40
0.0
40
0.0
40
0.0
40
1.0
40
1.0
40
1.0
40
1.0
10
114.2434899252
20
15.6499943189
10
116.0991638583
20
15.6532330842
10
117.6063994674
20
13.9858832826
10
117.6099948824
20
11.9258643033
72
4
94
3
73
0
74
0
95
8
96
4
40
0.0
40
0.0
40
0.0
40
0.0
40
1.0
40
1.0
40
1.0
40
1.0
10
117.6099948824
20
11.9258643033
10
117.6135902975
20
9.865845324
10
116.1121840079
20
8.1932444464
10
114.2565100748
20
8.1900056811
72
1
10
114.2565100748
20
8.1900056811
11
114.2565100748
21
8.1900056811
97
0
75
0
76
1
98
0
0
HATCH
5
8ab
100
AcDbEntity
8
Layer 1
6
Solid
370
0
62
0
100
AcDbHatch
10
0
20
0
30
0
210
0
220
0
230
1
2
FILL_2219
70
1
71
0
91
1
92
0
93
8
72
4
94
3
73
0
74
0
95
8
96
4
40
0.0
40
0.0
40
0.0
40
0.0
40
1.0
40
1.0
40
1.0
40
1.0
10
132.8
20
12.63
10
132.7282029825
20
12.63
10
132.67
20
12.6882029825
10
132.67
20
12.76
72
1
10
132.67
20
12.76
11
132.67
21
12.82
72
4
94
3
73
0
74
0
95
8
96
4
40
0.0
40
0.0
40
0.0
40
0.0
40
1.0
40
1.0
40
1.0
40
1.0
10
132.67
20
12.82
10
132.67
20
14.371920147
10
133.990759988
20
15.63
10
135.62
20
15.63
72
1
10
135.62
20
15.63
11
135.86
21
15.63
72
4
94
3
73
0
74
0
95
8
96
4
40
0.0
40
0.0
40
0.0
40
0.0
40
1.0
40
1.0
40
1.0
40
1.0
10
135.86
20
15.63
10
137.489240012
20
15.63
10
138.81
20
14.371920147
10
138.81
20
12.82
72
1
10
138.81
20
12.82
11
138.81
21
12.76
72
4
94
3
73
0
74
0
95
8
96
4
40
0.0
40
0.0
40
0.0
40
0.0
40
1.0
40
1.0
40
1.0
40
1.0
10
138.81
20
12.76
10
138.81
20
12.6882029825
10
138.7517970175
20
12.63
10
138.68
20
12.63
72
1
10
138.68
20
12.63
11
132.8
21
12.63
97
0
75
0
76
1
98
0
0
HATCH
5
8b5
100
AcDbEntity
8
Layer 1
6
Solid
370
0
62
0
100
AcDbHatch
10
0
20
0
30
0
210
0
220
0
230
1
2
FILL_2229
70
1
71
0
91
1
92
0
93
4
72
4
94
3
73
0
74
0
95
8
96
4
40
0.0
40
0.0
40
0.0
40
0.0
40
1.0
40
1.0
40
1.0
40
1.0
10
175.5888679755
20
8.2011134431
10
173.7227027568
20
8.2467215387
10
172.2506781372
20
9.9531735829
10
172.3010089645
20
12.0125807622
72
4
94
3
73
0
74
0
95
8
96
4
40
0.0
40
0.0
40
0.0
40
0.0
40
1.0
40
1.0
40
1.0
40
1.0
10
172.3010089645
20
12.0125807622
10
172.3513397919
20
14.0719879414
10
173.9049668058
20
15.7044946525
10
175.7711320245
20
15.6588865569
72
4
94
3
73
0
74
0
95
8
96
4
40
0.0
40
0.0
40
0.0
40
0.0
40
1.0
40
1.0
40
1.0
40
1.0
10
175.7711320245
20
15.6588865569
10
177.6372972432
20
15.6132784613
10
179.1093218628
20
13.9068264171
10
179.0589910355
20
11.8474192378
72
4
94
3
73
0
74
0
95
8
96
4
40
0.0
40
0.0
40
0.0
40
0.0
40
1.0
40
1.0
40
1.0
40
1.0
10
179.0589910355
20
11.8474192378
10
179.0086602081
20
9.7880120586
10
177.4550331942
20
8.1555053475
10
175.5888679755
20
8.2011134431
97
0
75
0
76
1
98
0
0
HATCH
5
8c3
100
AcDbEntity
8
Layer 1
6
Solid
370
0
62
0
100
AcDbHatch
10
0
20
0
30
0
210
0
220
0
230
1
2
FILL_2243
70
1
71
0
91
1
92
0
93
6
72
1
10
198.9502556505
20
8.2544053532
11
198.9502556505
21
8.2544053532
72
4
94
3
73
0
74
0
95
8
96
4
40
0.0
40
0.0
40
0.0
40
0.0
40
1.0
40
1.0
40
1.0
40
1.0
10
198.9502556505
20
8.2544053532
10
197.0912780603
20
8.1634861809
10
195.503575764
20
9.7398785583
10
195.4040233172
20
11.7753762758
72
4
94
3
73
0
74
0
95
8
96
4
40
0.0
40
0.0
40
0.0
40
0.0
40
1.0
40
1.0
40
1.0
40
1.0
10
195.4040233172
20
11.7753762758
10
195.3044708703
20
13.8108739933
10
196.7307667592
20
15.5346754744
10
198.5897443495
20
15.6255946468
72
4
94
3
73
0
74
0
95
8
96
4
40
0.0
40
0.0
40
0.0
40
0.0
40
1.0
40
1.0
40
1.0
40
1.0
10
198.5897443495
20
15.6255946468
10
200.4487219397
20
15.7165138191
10
202.036424236
20
14.1401214417
10
202.1359766828
20
12.1046237242
72
4
94
3
73
0
74
0
95
8
96
4
40
0.0
40
0.0
40
0.0
40
0.0
40
1.0
40
1.0
40
1.0
40
1.0
10
202.1359766828
20
12.1046237242
10
202.2355291297
20
10.0691260067
10
200.8092332408
20
8.3453245256
10
198.9502556505
20
8.2544053532
72
1
10
198.9502556505
20
8.2544053532
11
198.9502556505
21
8.2544053532
97
0
75
0
76
1
98
0
0
ENDSEC
0
SECTION
2
OBJECTS
0
DICTIONARY
5
17
330
0
100
AcDbDictionary
281
1
3
ACAD_GROUP
350
18
0
DICTIONARY
5
18
330
17
100
AcDbDictionary
281
1
0
ENDSEC
0
EOF
