999
Output
0
SECTION
2
HEADER
9
$ACADVER
1
AC1021
9
$HANDSEED
5
8b7
9
$INSUNITS
70
0
0
ENDSEC
0
SECTION
2
CLASSES
0
ENDSEC
0
SECTION
2
TABLES
0
TABLE
2
VPORT
5
2
100
AcDbSymbolTable
70
1
0
VPORT
5
1
100
AcDbSymbolTableRecord
100
AcDbViewportTableRecord
2
*ACTIVE
10
0
20
0
11
1
21
1
12
500.0
22
500.0
40
1000.0
70
0
0
ENDTAB
0
TABLE
2
LTYPE
5
3
100
AcDbSymbolTable
70
3
0
LTYPE
5
b
100
AcDbSymbolTableRecord
100
AcDbLinetypeTableRecord
2
Solid
70
0
72
65
73
0
3

0
LTYPE
5
c
100
AcDbSymbolTableRecord
100
AcDbLinetypeTableRecord
2
ByBlock
70
0
72
65
73
0
3

0
LTYPE
5
d
100
AcDbSymbolTableRecord
100
AcDbLinetypeTableRecord
2
ByLayer
70
0
72
65
73
0
3

0
ENDTAB
0
TABLE
2
LAYER
5
4
100
AcDbSymbolTable
70
2
0
LAYER
5
e
100
AcDbSymbolTableRecord
100
AcDbLayerTableRecord
2
0
6
Solid
370
35
62
0
70
0
390
0
0
LAYER
5
19
100
AcDbSymbolTableRecord
100
AcDbLayerTableRecord
2
Layer 1
6
Solid
370
0
62
0
70
0
390
0
0
ENDTAB
0
TABLE
2
STYLE
5
5
100
AcDbSymbolTable
70
0
0
ENDTAB
0
TABLE
2
VIEW
5
6
100
AcDbSymbolTable
70
0
0
ENDTAB
0
TABLE
2
UCS
5
7
100
AcDbSymbolTable
70
0
0
ENDTAB
0
TABLE
2
APPID
5
8
100
AcDbSymbolTable
70
1
0
APPID
5
10
100
AcDbSymbolTableRecord
100
AcDbRegAppTableRecord
2
ACAD
70
0
0
ENDTAB
0
TABLE
2
DIMSTYLE
5
9
100
AcDbSymbolTable
70
0
100
AcDbDimStyleTable
71
1
0
ENDTAB
0
TABLE
2
BLOCK_RECORD
5
a
100
AcDbSymbolTable
70
2
0
BLOCK_RECORD
5
13
100
AcDbSymbolTableRecord
100
AcDbBlockTableRecord
2
*Model_Space
70
0
280
1
281
0
0
BLOCK_RECORD
5
16
100
AcDbSymbolTableRecord
100
AcDbBlockTableRecord
2
*Paper_Space
70
0
280
1
281
0
0
ENDTAB
0
ENDSEC
0
SECTION
2
BLOCKS
0
BLOCK
5
11
100
AcDbEntity
8
0
100
AcDbBlockBegin
2
*Model_Space
70
0
10
0
20
0
30
0
3
*Model_Space
1

0
ENDBLK
5
12
100
AcDbEntity
8
0
100
AcDbBlockEnd
0
BLOCK
5
14
100
AcDbEntity
8
0
100
AcDbBlockBegin
2
*Paper_Space
70
0
10
0
20
0
30
0
3
*Paper_Space
1

0
ENDBLK
5
15
100
AcDbEntity
8
0
100
AcDbBlockEnd
0
ENDSEC
0
SECTION
2
ENTITIES
0
HATCH
5
417
100
AcDbEntity
8
Layer 1
6
Solid
370
0
62
0
100
AcDbHatch
10
0
20
0
30
0
210
0
220
0
230
1
2
FILL_1047
70
1
71
0
91
15
92
0
93
4
72
1
10
300.0
20
192.0
11
300.0
21
0.0
72
1
10
300.0
20
0.0
11
0.0
21
0.0
72
1
10
0.0
20
0.0
11
0.0
21
192.0
72
1
10
0.0
20
192.0
11
300.0
21
192.0
97
0
92
0
93
25
72
4
94
2
73
0
74
0
95
6
96
3
40
0.0
40
0.0
40
0.0
40
1.0
40
1.0
40
1.0
10
123.46
20
172.38
10
104.84
20
175.96
10
89.38
20
166.85
72
4
94
2
73
0
74
0
95
6
96
3
40
0.0
40
0.0
40
0.0
40
1.0
40
1.0
40
1.0
10
89.38
20
166.85
10
68.21
20
154.37
10
64.67
20
128.71
72
1
10
64.67
20
128.71
11
64.67
21
128.71
72
4
94
3
73
0
74
0
95
8
96
4
40
0.0
40
0.0
40
0.0
40
0.0
40
1.0
40
1.0
40
1.0
40
1.0
10
64.67
20
128.71
10
64.6257170588
20
128.4063455462
10
64.4456976471
20
128.1381533614
10
64.18
20
127.98
72
4
94
2
73
0
74
0
95
6
96
3
40
0.0
40
0.0
40
0.0
40
1.0
40
1.0
40
1.0
10
64.18
20
127.98
10
51.86
20
120.65
10
46.16
20
108.62
72
4
94
3
73
0
74
0
95
8
96
4
40
0.0
40
0.0
40
0.0
40
0.0
40
1.0
40
1.0
40
1.0
40
1.0
10
46.16
20
108.62
10
46.0236533097
20
108.328713889
10
45.7422739952
20
108.1309878842
10
45.42
20
108.1
72
1
10
45.42
20
108.1
11
7.8
21
104.71
72
4
94
2
73
0
74
0
95
6
96
3
40
0.0
40
0.0
40
0.0
40
1.0
40
1.0
40
1.0
10
7.8
20
104.71
10
7.78
20
104.71
10
7.76
20
104.69
72
1
10
7.76
20
104.69
11
7.58
21
104.47
72
1
10
7.58
20
104.47
11
7.58
21
104.47
72
4
94
3
73
0
74
0
95
8
96
4
40
0.0
40
0.0
40
0.0
40
0.0
40
1.0
40
1.0
40
1.0
40
1.0
10
7.58
20
104.47
10
7.5476669403
20
104.432278097
10
7.5407208393
20
104.3791880952
10
7.5622133117
20
104.3340539032
72
4
94
3
73
0
74
0
95
8
96
4
40
0.0
40
0.0
40
0.0
40
0.0
40
1.0
40
1.0
40
1.0
40
1.0
10
7.5622133117
20
104.3340539032
10
7.5837057842
20
104.2889197111
10
7.6297041293
20
104.26
10
7.68
20
104.26
72
1
10
7.68
20
104.26
11
288.14
21
105.33
72
4
94
2
73
0
74
0
95
6
96
3
40
0.0
40
0.0
40
0.0
40
1.0
40
1.0
40
1.0
10
288.14
20
105.33
10
288.18
20
105.33
10
288.18
20
105.36
72
4
94
2
73
0
74
0
95
6
96
3
40
0.0
40
0.0
40
0.0
40
1.0
40
1.0
40
1.0
10
288.18
20
105.36
10
288.18
20
105.38
10
288.17
20
105.4
72
4
94
2
73
0
74
0
95
6
96
3
40
0.0
40
0.0
40
0.0
40
1.0
40
1.0
40
1.0
10
288.17
20
105.4
10
288.17
20
105.5
10
288.1
20
105.5
72
1
10
288.1
20
105.5
11
251.16
21
108.35
72
4
94
2
73
0
74
0
95
6
96
3
40
0.0
40
0.0
40
0.0
40
1.0
40
1.0
40
1.0
10
251.16
20
108.35
10
250.69
20
108.39
10
250.6
20
108.8
72
4
94
2
73
0
74
0
95
6
96
3
40
0.0
40
0.0
40
0.0
40
1.0
40
1.0
40
1.0
10
250.6
20
108.8
10
247.02
20
125.09
10
236.84
20
135.04
72
4
94
2
73
0
74
0
95
6
96
3
40
0.0
40
0.0
40
0.0
40
1.0
40
1.0
40
1.0
10
236.84
20
135.04
10
224.07
20
147.54
10
204.11
20
151.83
72
4
94
2
73
0
74
0
95
6
96
3
40
0.0
40
0.0
40
0.0
40
1.0
40
1.0
40
1.0
10
204.11
20
151.83
10
203.63
20
151.93
10
203.47
20
152.38
72
4
94
2
73
0
74
0
95
6
96
3
40
0.0
40
0.0
40
0.0
40
1.0
40
1.0
40
1.0
10
203.47
20
152.38
10
199.7
20
162.52
10
193.13
20
169.61
72
4
94
3
73
0
74
0
95
8
96
4
40
0.0
40
0.0
40
0.0
40
0.0
40
1.0
40
1.0
40
1.0
40
1.0
10
193.13
20
169.61
10
181.23
20
182.45
10
164.14
20
188.04
10
147.08
20
184.41
72
4
94
2
73
0
74
0
95
6
96
3
40
0.0
40
0.0
40
0.0
40
1.0
40
1.0
40
1.0
10
147.08
20
184.41
10
134.66
20
181.77
10
124.27
20
172.6
72
4
94
2
73
0
74
0
95
6
96
3
40
0.0
40
0.0
40
0.0
40
1.0
40
1.0
40
1.0
10
124.27
20
172.6
10
123.92
20
172.29
10
123.46
20
172.38
97
0
92
0
93
143
72
1
10
81.37
20
96.34
11
101.01
21
95.1
72
4
94
2
73
0
74
0
95
6
96
3
40
0.0
40
0.0
40
0.0
40
1.0
40
1.0
40
1.0
10
101.01
20
95.1
10
101.4
20
95.08
10
101.51
20
94.7
72
1
10
101.51
20
94.7
11
103.76
21
86.32
72
1
10
103.76
20
86.32
11
103.76
21
86.32
72
4
94
3
73
0
74
0
95
8
96
4
40
0.0
40
0.0
40
0.0
40
0.0
40
1.0
40
1.0
40
1.0
40
1.0
10
103.76
20
86.32
10
103.851555224
20
85.9904011934
10
103.7424583089
20
85.6358362193
10
103.48
20
85.41
72
1
10
103.48
20
85.41
11
96.49
21
79.38
72
1
10
96.49
20
79.38
11
96.49
21
79.38
72
4
94
3
73
0
74
0
95
8
96
4
40
0.0
40
0.0
40
0.0
40
0.0
40
1.0
40
1.0
40
1.0
40
1.0
10
96.49
20
79.38
10
96.1945456053
20
79.1250981693
10
96.1230304035
20
78.6960069587
10
96.32
20
78.36
72
1
10
96.32
20
78.36
11
101.0
21
70.25
72
4
94
3
73
0
74
0
95
8
96
4
40
0.0
40
0.0
40
0.0
40
0.0
40
1.0
40
1.0
40
1.0
40
1.0
10
101.0
20
70.25
10
101.3242463703
20
69.6883589657
10
102.0062479418
20
69.4399756773
10
102.62
20
69.66
72
1
10
102.62
20
69.66
11
110.88
21
72.63
72
4
94
2
73
0
74
0
95
6
96
3
40
0.0
40
0.0
40
0.0
40
1.0
40
1.0
40
1.0
10
110.88
20
72.63
10
111.44
20
72.83
10
111.86
20
72.41
72
1
10
111.86
20
72.41
11
118.12
21
66.15
72
4
94
2
73
0
74
0
95
6
96
3
40
0.0
40
0.0
40
0.0
40
1.0
40
1.0
40
1.0
10
118.12
20
66.15
10
118.34
20
65.93
10
118.23
20
65.64
72
1
10
118.23
20
65.64
11
115.12
21
56.75
72
1
10
115.12
20
56.75
11
115.12
21
56.75
72
4
94
3
73
0
74
0
95
8
96
4
40
0.0
40
0.0
40
0.0
40
0.0
40
1.0
40
1.0
40
1.0
40
1.0
10
115.12
20
56.75
10
114.9864872077
20
56.3610714311
10
115.1459008552
20
55.9331716405
10
115.5
20
55.73
72
1
10
115.5
20
55.73
11
123.72
21
50.98
72
1
10
123.72
20
50.98
11
123.72
21
50.98
72
4
94
3
73
0
74
0
95
8
96
4
40
0.0
40
0.0
40
0.0
40
0.0
40
1.0
40
1.0
40
1.0
40
1.0
10
123.72
20
50.98
10
124.2053184903
20
50.7026751484
10
124.8175663345
20
50.8124575205
10
125.17
20
51.24
72
1
10
125.17
20
51.24
11
131.07
21
58.27
72
4
94
3
73
0
74
0
95
8
96
4
40
0.0
40
0.0
40
0.0
40
0.0
40
1.0
40
1.0
40
1.0
40
1.0
10
131.07
20
58.27
10
131.2096433338
20
58.4400005802
10
131.4374992747
20
58.5107144929
10
131.65
20
58.45
72
1
10
131.65
20
58.45
11
140.44
21
56.03
72
4
94
2
73
0
74
0
95
6
96
3
40
0.0
40
0.0
40
0.0
40
1.0
40
1.0
40
1.0
10
140.44
20
56.03
10
140.78
20
55.94
10
140.84
20
55.59
72
1
10
140.84
20
55.59
11
142.51
21
46.49
72
4
94
3
73
0
74
0
95
8
96
4
40
0.0
40
0.0
40
0.0
40
0.0
40
1.0
40
1.0
40
1.0
40
1.0
10
142.51
20
46.49
10
142.5966385898
20
46.0163757088
10
143.0148238969
20
45.674224094
10
143.5
20
45.68
72
1
10
143.5
20
45.68
11
152.72
21
45.82
72
4
94
3
73
0
74
0
95
8
96
4
40
0.0
40
0.0
40
0.0
40
0.0
40
1.0
40
1.0
40
1.0
40
1.0
10
152.72
20
45.82
10
153.3630409802
20
45.825793162
10
153.9099299223
20
46.2885453438
10
154.02
20
46.92
72
1
10
154.02
20
46.92
11
155.54
21
55.57
72
4
94
2
73
0
74
0
95
6
96
3
40
0.0
40
0.0
40
0.0
40
1.0
40
1.0
40
1.0
10
155.54
20
55.57
10
155.62
20
56.06
10
156.1
20
56.18
72
1
10
156.1
20
56.18
11
164.65
21
58.49
72
4
94
2
73
0
74
0
95
6
96
3
40
0.0
40
0.0
40
0.0
40
1.0
40
1.0
40
1.0
10
164.65
20
58.49
10
165.11
20
58.61
10
165.42
20
58.25
72
1
10
165.42
20
58.25
11
171.22
21
51.52
72
4
94
2
73
0
74
0
95
6
96
3
40
0.0
40
0.0
40
0.0
40
1.0
40
1.0
40
1.0
10
171.22
20
51.52
10
171.91
20
50.73
10
172.81
20
51.25
72
1
10
172.81
20
51.25
11
180.79
21
55.86
72
1
10
180.79
20
55.86
11
180.79
21
55.86
72
4
94
3
73
0
74
0
95
8
96
4
40
0.0
40
0.0
40
0.0
40
0.0
40
1.0
40
1.0
40
1.0
40
1.0
10
180.79
20
55.86
10
181.2132813973
20
56.1035317628
10
181.4023545085
20
56.6161299756
10
181.24
20
57.08
72
1
10
181.24
20
57.08
11
178.18
21
65.58
72
4
94
2
73
0
74
0
95
6
96
3
40
0.0
40
0.0
40
0.0
40
1.0
40
1.0
40
1.0
10
178.18
20
65.58
10
177.97
20
66.17
10
178.41
20
66.61
72
1
10
178.41
20
66.61
11
184.69
21
72.89
72
4
94
3
73
0
74
0
95
8
96
4
40
0.0
40
0.0
40
0.0
40
0.0
40
1.0
40
1.0
40
1.0
40
1.0
10
184.69
20
72.89
10
184.8069563871
20
73.0008007878
10
184.9722656163
20
73.0392447946
10
185.12
20
72.99
72
1
10
185.12
20
72.99
11
193.48
21
70.06
72
1
10
193.48
20
70.06
11
193.48
21
70.06
72
4
94
3
73
0
74
0
95
8
96
4
40
0.0
40
0.0
40
0.0
40
0.0
40
1.0
40
1.0
40
1.0
40
1.0
10
193.48
20
70.06
10
194.1828215176
20
69.8160454236
10
194.9582596932
20
70.1010713476
10
195.33
20
70.74
72
1
10
195.33
20
70.74
11
199.97
21
78.77
72
4
94
2
73
0
74
0
95
6
96
3
40
0.0
40
0.0
40
0.0
40
1.0
40
1.0
40
1.0
10
199.97
20
78.77
10
200.28
20
79.32
10
199.8
20
79.72
72
1
10
199.8
20
79.72
11
193.06
21
85.37
72
4
94
2
73
0
74
0
95
6
96
3
40
0.0
40
0.0
40
0.0
40
1.0
40
1.0
40
1.0
10
193.06
20
85.37
10
192.2
20
86.09
10
192.5
20
87.18
72
1
10
192.5
20
87.18
11
194.7
21
95.15
72
4
94
2
73
0
74
0
95
6
96
3
40
0.0
40
0.0
40
0.0
40
1.0
40
1.0
40
1.0
10
194.7
20
95.15
10
194.79
20
95.49
10
195.15
20
95.52
72
1
10
195.15
20
95.52
11
219.0
21
97.34
72
4
94
3
73
0
74
0
95
8
96
4
40
0.0
40
0.0
40
0.0
40
0.0
40
1.0
40
1.0
40
1.0
40
1.0
10
219.0
20
97.34
10
219.1417231075
20
97.3527187404
10
219.2774256347
20
97.2814607456
10
219.3481276177
20
97.1571966542
72
4
94
3
73
0
74
0
95
8
96
4
40
0.0
40
0.0
40
0.0
40
0.0
40
1.0
40
1.0
40
1.0
40
1.0
10
219.3481276177
20
97.1571966542
10
219.4188296007
20
97.0329325629
10
219.4117633313
20
96.8781025896
10
219.33
20
96.76
72
4
94
2
73
0
74
0
95
6
96
3
40
0.0
40
0.0
40
0.0
40
1.0
40
1.0
40
1.0
10
219.33
20
96.76
10
218.22
20
95.19
10
217.04
20
95.94
72
4
94
2
73
0
74
0
95
6
96
3
40
0.0
40
0.0
40
0.0
40
1.0
40
1.0
40
1.0
10
217.04
20
95.94
10
216.14
20
96.52
10
215.6
20
95.59
72
1
10
215.6
20
95.59
11
215.22
21
94.93
72
4
94
2
73
0
74
0
95
6
96
3
40
0.0
40
0.0
40
0.0
40
1.0
40
1.0
40
1.0
10
215.22
20
94.93
10
214.71
20
94.04
10
215.59
20
93.53
72
1
10
215.59
20
93.53
11
219.35
21
91.36
72
4
94
2
73
0
74
0
95
6
96
3
40
0.0
40
0.0
40
0.0
40
1.0
40
1.0
40
1.0
10
219.35
20
91.36
10
219.8
20
91.1
10
220.04
20
91.57
72
4
94
2
73
0
74
0
95
6
96
3
40
0.0
40
0.0
40
0.0
40
1.0
40
1.0
40
1.0
10
220.04
20
91.57
10
221.99
20
95.35
10
225.64
20
95.34
72
4
94
3
73
0
74
0
95
8
96
4
40
0.0
40
0.0
40
0.0
40
0.0
40
1.0
40
1.0
40
1.0
40
1.0
10
225.64
20
95.34
10
232.12
20
95.32
10
234.42
20
87.02
10
228.92
20
83.74
72
4
94
2
73
0
74
0
95
6
96
3
40
0.0
40
0.0
40
0.0
40
1.0
40
1.0
40
1.0
10
228.92
20
83.74
10
228.52
20
83.51
10
228.67
20
83.07
72
1
10
228.67
20
83.07
11
230.19
21
78.84
72
4
94
2
73
0
74
0
95
6
96
3
40
0.0
40
0.0
40
0.0
40
1.0
40
1.0
40
1.0
10
230.19
20
78.84
10
230.44
20
78.16
10
231.12
20
78.41
72
1
10
231.12
20
78.41
11
232.29
21
78.83
72
4
94
2
73
0
74
0
95
6
96
3
40
0.0
40
0.0
40
0.0
40
1.0
40
1.0
40
1.0
10
232.29
20
78.83
10
233.09
20
79.12
10
232.65
20
79.85
72
4
94
2
73
0
74
0
95
6
96
3
40
0.0
40
0.0
40
0.0
40
1.0
40
1.0
40
1.0
10
232.65
20
79.85
10
231.71
20
81.37
10
232.98
20
82.4
72
4
94
2
73
0
74
0
95
6
96
3
40
0.0
40
0.0
40
0.0
40
1.0
40
1.0
40
1.0
10
232.98
20
82.4
10
233.34
20
82.69
10
233.78
20
82.57
72
1
10
233.78
20
82.57
11
235.12
21
82.2
72
4
94
2
73
0
74
0
95
6
96
3
40
0.0
40
0.0
40
0.0
40
1.0
40
1.0
40
1.0
10
235.12
20
82.2
10
235.58
20
82.07
10
235.83
20
82.49
72
1
10
235.83
20
82.49
11
236.54
21
83.73
72
4
94
2
73
0
74
0
95
6
96
3
40
0.0
40
0.0
40
0.0
40
1.0
40
1.0
40
1.0
10
236.54
20
83.73
10
236.84
20
84.24
10
236.32
20
84.53
72
4
94
2
73
0
74
0
95
6
96
3
40
0.0
40
0.0
40
0.0
40
1.0
40
1.0
40
1.0
10
236.32
20
84.53
10
234.71
20
85.46
10
235.57
20
87.26
72
1
10
235.57
20
87.26
11
235.57
21
87.26
72
4
94
3
73
0
74
0
95
8
96
4
40
0.0
40
0.0
40
0.0
40
0.0
40
1.0
40
1.0
40
1.0
40
1.0
10
235.57
20
87.26
10
235.7093445312
20
87.5447475203
10
236.0049601903
20
87.7181753736
10
236.32
20
87.7
72
1
10
236.32
20
87.7
11
236.98
21
87.66
72
1
10
236.98
20
87.66
11
236.98
21
87.66
72
4
94
3
73
0
74
0
95
8
96
4
40
0.0
40
0.0
40
0.0
40
0.0
40
1.0
40
1.0
40
1.0
40
1.0
10
236.98
20
87.66
10
237.3168906419
20
87.6367661626
10
237.6228731099
20
87.8547262768
10
237.71
20
88.18
72
4
94
2
73
0
74
0
95
6
96
3
40
0.0
40
0.0
40
0.0
40
1.0
40
1.0
40
1.0
10
237.71
20
88.18
10
237.93
20
89.01
10
237.73
20
89.89
72
4
94
2
73
0
74
0
95
6
96
3
40
0.0
40
0.0
40
0.0
40
1.0
40
1.0
40
1.0
10
237.73
20
89.89
10
237.6
20
90.53
10
236.94
20
90.57
72
1
10
236.94
20
90.57
11
236.39
21
90.6
72
4
94
2
73
0
74
0
95
6
96
3
40
0.0
40
0.0
40
0.0
40
1.0
40
1.0
40
1.0
10
236.39
20
90.6
10
235.85
20
90.64
10
235.57
20
91.11
72
4
94
2
73
0
74
0
95
6
96
3
40
0.0
40
0.0
40
0.0
40
1.0
40
1.0
40
1.0
10
235.57
20
91.11
10
234.62
20
92.72
10
236.26
20
93.57
72
4
94
2
73
0
74
0
95
6
96
3
40
0.0
40
0.0
40
0.0
40
1.0
40
1.0
40
1.0
10
236.26
20
93.57
10
236.68
20
93.79
10
236.52
20
94.24
72
1
10
236.52
20
94.24
11
236.04
21
95.59
72
4
94
2
73
0
74
0
95
6
96
3
40
0.0
40
0.0
40
0.0
40
1.0
40
1.0
40
1.0
10
236.04
20
95.59
10
235.79
20
96.28
10
235.11
20
96.03
72
1
10
235.11
20
96.03
11
234.23
21
95.72
72
1
10
234.23
20
95.72
11
234.23
21
95.72
72
4
94
3
73
0
74
0
95
8
96
4
40
0.0
40
0.0
40
0.0
40
0.0
40
1.0
40
1.0
40
1.0
40
1.0
10
234.23
20
95.72
10
233.6672925351
20
95.5148462368
10
233.0382460212
20
95.7217694321
10
232.71
20
96.22
72
4
94
2
73
0
74
0
95
6
96
3
40
0.0
40
0.0
40
0.0
40
1.0
40
1.0
40
1.0
10
232.71
20
96.22
10
232.24
20
96.91
10
232.28
20
97.47
72
4
94
2
73
0
74
0
95
6
96
3
40
0.0
40
0.0
40
0.0
40
1.0
40
1.0
40
1.0
10
232.28
20
97.47
10
232.34
20
98.33
10
233.2
20
98.4
72
1
10
233.2
20
98.4
11
286.23
21
102.47
72
4
94
2
73
0
74
0
95
6
96
3
40
0.0
40
0.0
40
0.0
40
1.0
40
1.0
40
1.0
10
286.23
20
102.47
10
287.11
20
102.53
10
286.23
20
102.62
72
4
94
2
73
0
74
0
95
6
96
3
40
0.0
40
0.0
40
0.0
40
1.0
40
1.0
40
1.0
10
286.23
20
102.62
10
284.3
20
102.8
10
280.02
20
102.79
72
4
94
2
73
0
74
0
95
6
96
3
40
0.0
40
0.0
40
0.0
40
1.0
40
1.0
40
1.0
10
280.02
20
102.79
10
237.3
20
102.68
10
178.51
20
102.78
72
4
94
2
73
0
74
0
95
6
96
3
40
0.0
40
0.0
40
0.0
40
1.0
40
1.0
40
1.0
10
178.51
20
102.78
10
177.97
20
102.78
10
177.94
20
102.24
72
4
94
2
73
0
74
0
95
6
96
3
40
0.0
40
0.0
40
0.0
40
1.0
40
1.0
40
1.0
10
177.94
20
102.24
10
177.44
20
90.87
10
170.81
20
83.4
72
4
94
2
73
0
74
0
95
6
96
3
40
0.0
40
0.0
40
0.0
40
1.0
40
1.0
40
1.0
10
170.81
20
83.4
10
160.81
20
72.15
10
146.35
20
72.92
72
4
94
2
73
0
74
0
95
6
96
3
40
0.0
40
0.0
40
0.0
40
1.0
40
1.0
40
1.0
10
146.35
20
72.92
10
136.06
20
73.47
10
128.24
20
80.33
72
4
94
2
73
0
74
0
95
6
96
3
40
0.0
40
0.0
40
0.0
40
1.0
40
1.0
40
1.0
10
128.24
20
80.33
10
118.82
20
88.59
10
118.05
20
102.28
72
4
94
2
73
0
74
0
95
6
96
3
40
0.0
40
0.0
40
0.0
40
1.0
40
1.0
40
1.0
10
118.05
20
102.28
10
118.02
20
102.8
10
117.5
20
102.79
72
1
10
117.5
20
102.79
11
7.72
21
101.18
72
4
94
2
73
0
74
0
95
6
96
3
40
0.0
40
0.0
40
0.0
40
1.0
40
1.0
40
1.0
10
7.72
20
101.18
10
7.57
20
101.18
10
7.6
20
101.0
72
4
94
2
73
0
74
0
95
6
96
3
40
0.0
40
0.0
40
0.0
40
1.0
40
1.0
40
1.0
10
7.6
20
101.0
10
7.62
20
100.75
10
7.79
20
100.74
72
1
10
7.79
20
100.74
11
64.01
21
97.19
72
1
10
64.01
20
97.19
11
64.01
21
97.19
72
4
94
3
73
0
74
0
95
8
96
4
40
0.0
40
0.0
40
0.0
40
0.0
40
1.0
40
1.0
40
1.0
40
1.0
10
64.01
20
97.19
10
64.1857474237
20
97.179015786
10
64.3400500317
20
97.0684192353
10
64.4063278897
20
96.9059315835
72
4
94
3
73
0
74
0
95
8
96
4
40
0.0
40
0.0
40
0.0
40
0.0
40
1.0
40
1.0
40
1.0
40
1.0
10
64.4063278897
20
96.9059315835
10
64.4726057477
20
96.7434439316
10
64.4389956514
20
96.5581491631
10
64.32
20
96.43
72
4
94
2
73
0
74
0
95
6
96
3
40
0.0
40
0.0
40
0.0
40
1.0
40
1.0
40
1.0
10
64.32
20
96.43
10
63.15
20
95.15
10
62.17
20
95.93
72
1
10
62.17
20
95.93
11
62.17
21
95.93
72
4
94
3
73
0
74
0
95
8
96
4
40
0.0
40
0.0
40
0.0
40
0.0
40
1.0
40
1.0
40
1.0
40
1.0
10
62.17
20
95.93
10
61.8972375612
20
96.1493958747
10
61.5105512935
20
96.16160702
10
61.22
20
95.96
72
4
94
2
73
0
74
0
95
6
96
3
40
0.0
40
0.0
40
0.0
40
1.0
40
1.0
40
1.0
10
61.22
20
95.96
10
60.44
20
95.41
10
60.17
20
94.73
72
4
94
2
73
0
74
0
95
6
96
3
40
0.0
40
0.0
40
0.0
40
1.0
40
1.0
40
1.0
10
60.17
20
94.73
10
59.93
20
94.11
10
60.4
20
93.64
72
1
10
60.4
20
93.64
11
61.48
21
92.55
72
4
94
2
73
0
74
0
95
6
96
3
40
0.0
40
0.0
40
0.0
40
1.0
40
1.0
40
1.0
10
61.48
20
92.55
10
61.73
20
92.31
10
61.58
20
91.99
72
4
94
2
73
0
74
0
95
6
96
3
40
0.0
40
0.0
40
0.0
40
1.0
40
1.0
40
1.0
10
61.58
20
91.99
10
60.89
20
90.47
10
59.73
20
90.5
72
4
94
2
73
0
74
0
95
6
96
3
40
0.0
40
0.0
40
0.0
40
1.0
40
1.0
40
1.0
10
59.73
20
90.5
10
59.17
20
90.52
10
58.99
20
89.99
72
4
94
2
73
0
74
0
95
6
96
3
40
0.0
40
0.0
40
0.0
40
1.0
40
1.0
40
1.0
10
58.99
20
89.99
10
58.72
20
89.21
10
58.91
20
88.28
72
4
94
3
73
0
74
0
95
8
96
4
40
0.0
40
0.0
40
0.0
40
0.0
40
1.0
40
1.0
40
1.0
40
1.0
10
58.91
20
88.28
10
58.9751142028
20
87.9662679317
10
59.2403484588
20
87.7336778919
10
59.56
20
87.71
72
1
10
59.56
20
87.71
11
60.35
21
87.66
72
4
94
2
73
0
74
0
95
6
96
3
40
0.0
40
0.0
40
0.0
40
1.0
40
1.0
40
1.0
10
60.35
20
87.66
10
60.9
20
87.63
10
61.15
20
87.14
72
4
94
2
73
0
74
0
95
6
96
3
40
0.0
40
0.0
40
0.0
40
1.0
40
1.0
40
1.0
10
61.15
20
87.14
10
62.03
20
85.43
10
60.62
20
84.77
72
4
94
2
73
0
74
0
95
6
96
3
40
0.0
40
0.0
40
0.0
40
1.0
40
1.0
40
1.0
10
60.62
20
84.77
10
60.12
20
84.55
10
60.14
20
84.0
72
4
94
2
73
0
74
0
95
6
96
3
40
0.0
40
0.0
40
0.0
40
1.0
40
1.0
40
1.0
10
60.14
20
84.0
10
60.15
20
83.47
10
60.8
20
82.56
72
4
94
2
73
0
74
0
95
6
96
3
40
0.0
40
0.0
40
0.0
40
1.0
40
1.0
40
1.0
10
60.8
20
82.56
10
61.12
20
82.12
10
61.65
20
82.25
72
4
94
2
73
0
74
0
95
6
96
3
40
0.0
40
0.0
40
0.0
40
1.0
40
1.0
40
1.0
10
61.65
20
82.25
10
61.94
20
82.31
10
62.2
20
82.42
72
4
94
2
73
0
74
0
95
6
96
3
40
0.0
40
0.0
40
0.0
40
1.0
40
1.0
40
1.0
10
62.2
20
82.42
10
62.91
20
82.69
10
63.33
20
82.58
72
4
94
2
73
0
74
0
95
6
96
3
40
0.0
40
0.0
40
0.0
40
1.0
40
1.0
40
1.0
10
63.33
20
82.58
10
63.84
20
82.44
10
64.17
20
82.03
72
4
94
2
73
0
74
0
95
6
96
3
40
0.0
40
0.0
40
0.0
40
1.0
40
1.0
40
1.0
10
64.17
20
82.03
10
64.49
20
81.64
10
64.4
20
81.14
72
1
10
64.4
20
81.14
11
64.14
21
79.65
72
4
94
2
73
0
74
0
95
6
96
3
40
0.0
40
0.0
40
0.0
40
1.0
40
1.0
40
1.0
10
64.14
20
79.65
10
64.06
20
79.17
10
64.46
20
78.91
72
4
94
2
73
0
74
0
95
6
96
3
40
0.0
40
0.0
40
0.0
40
1.0
40
1.0
40
1.0
10
64.46
20
78.91
10
64.82
20
78.69
10
65.19
20
78.62
72
4
94
2
73
0
74
0
95
6
96
3
40
0.0
40
0.0
40
0.0
40
1.0
40
1.0
40
1.0
10
65.19
20
78.62
10
65.69
20
78.53
10
65.94
20
78.97
72
1
10
65.94
20
78.97
11
68.14
21
82.78
72
1
10
68.14
20
82.78
11
68.14
21
82.78
72
4
94
3
73
0
74
0
95
8
96
4
40
0.0
40
0.0
40
0.0
40
0.0
40
1.0
40
1.0
40
1.0
40
1.0
10
68.14
20
82.78
10
68.3116133422
20
83.0789393704
10
68.2134034561
20
83.4583866578
10
67.92
20
83.63
72
4
94
2
73
0
74
0
95
6
96
3
40
0.0
40
0.0
40
0.0
40
1.0
40
1.0
40
1.0
10
67.92
20
83.63
10
65.45
20
85.09
10
64.84
20
87.78
72
4
94
3
73
0
74
0
95
8
96
4
40
0.0
40
0.0
40
0.0
40
0.0
40
1.0
40
1.0
40
1.0
40
1.0
10
64.84
20
87.78
10
63.23
20
94.94
10
73.21
20
98.39
10
76.52
20
92.01
72
4
94
2
73
0
74
0
95
6
96
3
40
0.0
40
0.0
40
0.0
40
1.0
40
1.0
40
1.0
10
76.52
20
92.01
10
76.77
20
91.53
10
77.24
20
91.8
72
1
10
77.24
20
91.8
11
81.48
21
94.25
72
4
94
2
73
0
74
0
95
6
96
3
40
0.0
40
0.0
40
0.0
40
1.0
40
1.0
40
1.0
10
81.48
20
94.25
10
81.89
20
94.49
10
81.62
20
94.88
72
1
10
81.62
20
94.88
11
81.03
21
95.74
72
4
94
2
73
0
74
0
95
6
96
3
40
0.0
40
0.0
40
0.0
40
1.0
40
1.0
40
1.0
10
81.03
20
95.74
10
80.58
20
96.39
10
81.37
20
96.34
97
0
92
0
93
96
72
4
94
2
73
0
74
0
95
6
96
3
40
0.0
40
0.0
40
0.0
40
1.0
40
1.0
40
1.0
10
93.1007323064
20
49.7971319552
10
93.2002593572
20
50.3270612299
10
93.7200324464
20
50.4174704322
72
1
10
93.7200324464
20
50.4174704322
11
96.9885937707
21
51.0000395935
72
4
94
2
73
0
74
0
95
6
96
3
40
0.0
40
0.0
40
0.0
40
1.0
40
1.0
40
1.0
10
96.9885937707
20
51.0000395935
10
97.348438611
20
51.0603235599
10
97.5786060435
20
50.7805977573
72
1
10
97.5786060435
20
50.7805977573
11
99.7101205706
21
48.2331245189
72
4
94
2
73
0
74
0
95
6
96
3
40
0.0
40
0.0
40
0.0
40
1.0
40
1.0
40
1.0
10
99.7101205706
20
48.2331245189
10
100.0403509699
20
47.8435145113
10
100.490002107
20
48.1038155533
72
1
10
100.490002107
20
48.1038155533
11
103.6375600669
21
49.9259228474
72
4
94
2
73
0
74
0
95
6
96
3
40
0.0
40
0.0
40
0.0
40
1.0
40
1.0
40
1.0
10
103.6375600669
20
49.9259228474
10
104.1671543942
20
50.2262792214
10
103.966727008
20
50.8059427137
72
1
10
103.966727008
20
50.8059427137
11
102.8343516323
21
54.0340551429
72
4
94
2
73
0
74
0
95
6
96
3
40
0.0
40
0.0
40
0.0
40
1.0
40
1.0
40
1.0
10
102.8343516323
20
54.0340551429
10
102.6139049538
20
54.6436931447
10
103.1134159138
20
55.0539923394
72
1
10
103.1134159138
20
55.0539923394
11
105.521022064
21
57.0754216932
72
1
10
105.521022064
20
57.0754216932
11
105.521022064
21
57.0754216932
72
4
94
3
73
0
74
0
95
8
96
4
40
0.0
40
0.0
40
0.0
40
0.0
40
1.0
40
1.0
40
1.0
40
1.0
10
105.521022064
20
57.0754216932
10
105.7127926228
20
57.2365353307
10
105.9792156371
20
57.2824375979
10
106.2207175732
20
57.1959728786
72
1
10
106.2207175732
20
57.1959728786
11
109.2607443338
21
56.1088361464
72
4
94
2
73
0
74
0
95
6
96
3
40
0.0
40
0.0
40
0.0
40
1.0
40
1.0
40
1.0
10
109.2607443338
20
56.1088361464
10
109.7907489718
20
55.9193353249
10
110.0702570586
20
56.4094269836
72
1
10
110.0702570586
20
56.4094269836
11
111.8771002187
21
59.5500275057
72
4
94
2
73
0
74
0
95
6
96
3
40
0.0
40
0.0
40
0.0
40
1.0
40
1.0
40
1.0
10
111.8771002187
20
59.5500275057
10
112.1865744413
20
60.0701355423
10
111.7263735553
20
60.4696337776
72
1
10
111.7263735553
20
60.4696337776
11
109.1752828847
21
62.6568602388
72
4
94
2
73
0
74
0
95
6
96
3
40
0.0
40
0.0
40
0.0
40
1.0
40
1.0
40
1.0
10
109.1752828847
20
62.6568602388
10
108.8851580595
20
62.9065445424
10
108.9548110851
20
63.2964894974
72
1
10
108.9548110851
20
63.2964894974
11
109.4921834714
21
66.2460819347
72
4
94
2
73
0
74
0
95
6
96
3
40
0.0
40
0.0
40
0.0
40
1.0
40
1.0
40
1.0
10
109.4921834714
20
66.2460819347
10
109.6115790882
20
66.9259842412
10
110.2711941444
20
67.1564698737
72
1
10
110.2711941444
20
67.1564698737
11
112.5398710593
21
67.9481404645
72
1
10
112.5398710593
20
67.9481404645
11
112.5398710593
21
67.9481404645
72
4
94
3
73
0
74
0
95
8
96
4
40
0.0
40
0.0
40
0.0
40
0.0
40
1.0
40
1.0
40
1.0
40
1.0
10
112.5398710593
20
67.9481404645
10
112.6989079391
20
68.003952946
10
112.8292596604
20
68.120656648
10
112.9022503324
20
68.2725780883
72
4
94
3
73
0
74
0
95
8
96
4
40
0.0
40
0.0
40
0.0
40
0.0
40
1.0
40
1.0
40
1.0
40
1.0
10
112.9022503324
20
68.2725780883
10
112.9752410044
20
68.4244995286
10
112.9848916114
20
68.5991940938
10
112.9290791299
20
68.7582309736
72
1
10
112.9290791299
20
68.7582309736
11
112.3478581321
21
70.4172615129
72
4
94
2
73
0
74
0
95
6
96
3
40
0.0
40
0.0
40
0.0
40
1.0
40
1.0
40
1.0
10
112.3478581321
20
70.4172615129
10
112.0873226269
20
71.1468310474
10
111.347747633
20
70.8962842541
72
1
10
111.347747633
20
70.8962842541
11
102.9526659485
21
67.9401100999
72
4
94
2
73
0
74
0
95
6
96
3
40
0.0
40
0.0
40
0.0
40
1.0
40
1.0
40
1.0
10
102.9526659485
20
67.9401100999
10
102.4529540201
20
67.76974096
10
102.3334244243
20
67.2497920235
72
4
94
2
73
0
74
0
95
6
96
3
40
0.0
40
0.0
40
0.0
40
1.0
40
1.0
40
1.0
10
102.3334244243
20
67.2497920235
10
100.2121760359
20
57.5408382902
10
89.9152532092
20
57.4422396233
72
4
94
3
73
0
74
0
95
8
96
4
40
0.0
40
0.0
40
0.0
40
0.0
40
1.0
40
1.0
40
1.0
40
1.0
10
89.9152532092
20
57.4422396233
10
81.2778298483
20
57.3650251595
10
75.0625722868
20
65.7973653649
10
77.8249237026
20
73.9673038284
72
4
94
3
73
0
74
0
95
8
96
4
40
0.0
40
0.0
40
0.0
40
0.0
40
1.0
40
1.0
40
1.0
40
1.0
10
77.8249237026
20
73.9673038284
10
80.3479395952
20
81.4272482443
10
88.7025723845
20
84.933228613
10
95.7434430781
20
81.450140806
72
4
94
2
73
0
74
0
95
6
96
3
40
0.0
40
0.0
40
0.0
40
1.0
40
1.0
40
1.0
10
95.7434430781
20
81.450140806
10
96.1734936073
20
81.2405620764
10
96.533137479
20
81.5407760977
72
1
10
96.533137479
20
81.5407760977
11
101.8278749418
21
85.983920167
72
4
94
2
73
0
74
0
95
6
96
3
40
0.0
40
0.0
40
0.0
40
1.0
40
1.0
40
1.0
10
101.8278749418
20
85.983920167
10
102.9867246263
20
86.9546088198
10
102.535641589
20
88.403809419
72
4
94
2
73
0
74
0
95
6
96
3
40
0.0
40
0.0
40
0.0
40
1.0
40
1.0
40
1.0
10
102.535641589
20
88.403809419
10
101.8239476832
20
90.6725533233
10
101.2934908662
20
91.4018967683
72
4
94
2
73
0
74
0
95
6
96
3
40
0.0
40
0.0
40
0.0
40
1.0
40
1.0
40
1.0
10
101.2934908662
20
91.4018967683
10
100.2025608543
20
92.8905497942
10
99.2837417089
20
91.8000970824
72
1
10
99.2837417089
20
91.8000970824
11
97.3262807433
21
89.449140719
72
4
94
2
73
0
74
0
95
6
96
3
40
0.0
40
0.0
40
0.0
40
1.0
40
1.0
40
1.0
10
97.3262807433
20
89.449140719
10
97.0466386775
20
89.1190024303
10
96.6166970063
20
89.1986190467
72
1
10
96.6166970063
20
89.1986190467
11
93.597116596
21
89.7459299028
72
4
94
2
73
0
74
0
95
6
96
3
40
0.0
40
0.0
40
0.0
40
1.0
40
1.0
40
1.0
10
93.597116596
20
89.7459299028
10
93.0671956949
20
89.8354598681
10
92.9767697453
20
90.3752271284
72
1
10
92.9767697453
20
90.3752271284
11
92.3640502271
21
93.8337079585
72
4
94
2
73
0
74
0
95
6
96
3
40
0.0
40
0.0
40
0.0
40
1.0
40
1.0
40
1.0
10
92.3640502271
20
93.8337079585
10
92.2636355656
20
94.3634697596
10
91.7337900277
20
94.3630259543
72
1
10
91.7337900277
20
94.3630259543
11
88.0248628885
21
94.3699164025
72
1
10
88.0248628885
20
94.3699164025
11
88.0248628885
21
94.3699164025
72
4
94
3
73
0
74
0
95
8
96
4
40
0.0
40
0.0
40
0.0
40
0.0
40
1.0
40
1.0
40
1.0
40
1.0
10
88.0248628885
20
94.3699164025
10
87.7062175042
20
94.369649501
10
87.4331779779
20
94.1424298488
10
87.3755045022
20
93.8295294893
72
1
10
87.3755045022
20
93.8295294893
11
86.7485519086
21
90.4099986647
72
4
94
2
73
0
74
0
95
6
96
3
40
0.0
40
0.0
40
0.0
40
1.0
40
1.0
40
1.0
10
86.7485519086
20
90.4099986647
10
86.6390780142
20
89.8200785025
10
86.0393449875
20
89.7096081395
72
1
10
86.0393449875
20
89.7096081395
11
82.9207148264
21
89.1571558404
72
4
94
2
73
0
74
0
95
6
96
3
40
0.0
40
0.0
40
0.0
40
1.0
40
1.0
40
1.0
10
82.9207148264
20
89.1571558404
10
82.5008958461
20
89.0868245463
10
82.2207094907
20
89.4064968229
72
1
10
82.2207094907
20
89.4064968229
11
80.1292251745
21
91.9040181279
72
1
10
80.1292251745
20
91.9040181279
11
80.1292251745
21
91.9040181279
72
4
94
3
73
0
74
0
95
8
96
4
40
0.0
40
0.0
40
0.0
40
0.0
40
1.0
40
1.0
40
1.0
40
1.0
10
80.1292251745
20
91.9040181279
10
79.9330549797
20
92.1401734576
10
79.5943496669
20
92.199154538
10
79.3293410932
20
92.0433074317
72
1
10
79.3293410932
20
92.0433074317
11
76.1218257406
21
90.1911586387
72
4
94
2
73
0
74
0
95
6
96
3
40
0.0
40
0.0
40
0.0
40
1.0
40
1.0
40
1.0
10
76.1218257406
20
90.1911586387
10
75.642200094
20
89.9108383044
10
75.8225830669
20
89.3911405784
72
1
10
75.8225830669
20
89.3911405784
11
76.9048474092
21
86.3129425652
72
4
94
2
73
0
74
0
95
6
96
3
40
0.0
40
0.0
40
0.0
40
1.0
40
1.0
40
1.0
10
76.9048474092
20
86.3129425652
10
77.0751998016
20
85.833224808
10
76.7456225499
20
85.4430621371
72
1
10
76.7456225499
20
85.4430621371
11
74.7381510351
21
83.1220551622
72
4
94
2
73
0
74
0
95
6
96
3
40
0.0
40
0.0
40
0.0
40
1.0
40
1.0
40
1.0
10
74.7381510351
20
83.1220551622
10
74.3885879858
20
82.7218786583
10
73.898580064
20
82.9014158889
72
1
10
73.898580064
20
82.9014158889
11
70.6085507997
21
84.0783170496
72
4
94
2
73
0
74
0
95
6
96
3
40
0.0
40
0.0
40
0.0
40
1.0
40
1.0
40
1.0
10
70.6085507997
20
84.0783170496
10
70.0385494456
20
84.2777814619
10
69.7490693942
20
83.7576901728
72
1
10
69.7490693942
20
83.7576901728
11
67.912268472
21
80.577076187
72
4
94
2
73
0
74
0
95
6
96
3
40
0.0
40
0.0
40
0.0
40
1.0
40
1.0
40
1.0
10
67.912268472
20
80.577076187
10
67.6227632996
20
80.0869761547
10
68.062953267
20
79.7074553433
72
1
10
68.062953267
20
79.7074553433
11
70.7541119942
21
77.3903840006
72
4
94
2
73
0
74
0
95
6
96
3
40
0.0
40
0.0
40
0.0
40
1.0
40
1.0
40
1.0
10
70.7541119942
20
77.3903840006
10
71.1642855837
20
77.040829325
10
70.9747596411
20
76.5408159439
72
1
10
70.9747596411
20
76.5408159439
11
69.91755555
21
73.5707939037
72
4
94
3
73
0
74
0
95
8
96
4
40
0.0
40
0.0
40
0.0
40
0.0
40
1.0
40
1.0
40
1.0
40
1.0
10
69.91755555
20
73.5707939037
10
69.8312830388
20
73.3298288181
10
69.6213109375
20
73.1539166776
10
69.3681010303
20
73.1104674124
72
1
10
69.3681010303
20
73.1104674124
11
66.6392985927
21
72.6283212864
72
4
94
2
73
0
74
0
95
6
96
3
40
0.0
40
0.0
40
0.0
40
1.0
40
1.0
40
1.0
10
66.6392985927
20
72.6283212864
10
65.5997524144
20
72.4475028819
10
65.6006400251
20
71.3878118061
72
1
10
65.6006400251
20
71.3878118061
11
65.5930294399
21
68.5386340303
72
4
94
2
73
0
74
0
95
6
96
3
40
0.0
40
0.0
40
0.0
40
1.0
40
1.0
40
1.0
10
65.5930294399
20
68.5386340303
10
65.5938333138
20
67.5789138107
10
66.5437071741
20
67.3997617697
72
1
10
66.5437071741
20
67.3997617697
11
69.3333211204
21
66.8922466613
72
4
94
2
73
0
74
0
95
6
96
3
40
0.0
40
0.0
40
0.0
40
1.0
40
1.0
40
1.0
10
69.3333211204
20
66.8922466613
10
69.8332507646
20
66.802691575
10
70.0036031571
20
66.3229738178
72
1
10
70.0036031571
20
66.3229738178
11
71.0157120527
21
63.4546559868
72
4
94
2
73
0
74
0
95
6
96
3
40
0.0
40
0.0
40
0.0
40
1.0
40
1.0
40
1.0
10
71.0157120527
20
63.4546559868
10
71.1961117729
20
62.9149640896
10
70.7665469175
20
62.5447118531
72
1
10
70.7665469175
20
62.5447118531
11
68.1091811005
21
60.3231314448
72
4
94
2
73
0
74
0
95
6
96
3
40
0.0
40
0.0
40
0.0
40
1.0
40
1.0
40
1.0
10
68.1091811005
20
60.3231314448
10
67.6696191596
20
59.9528708347
10
67.9599533269
20
59.4532593905
72
1
10
67.9599533269
20
59.4532593905
11
69.8621545375
21
56.1658092214
72
4
94
2
73
0
74
0
95
6
96
3
40
0.0
40
0.0
40
0.0
40
1.0
40
1.0
40
1.0
10
69.8621545375
20
56.1658092214
10
70.0824086212
20
55.7861041889
10
70.502160612
20
55.936412168
72
1
10
70.502160612
20
55.936412168
11
73.9001816283
21
57.1189153245
72
4
94
2
73
0
74
0
95
6
96
3
40
0.0
40
0.0
40
0.0
40
1.0
40
1.0
40
1.0
10
73.9001816283
20
57.1189153245
10
74.469848035
20
57.319334337
10
74.8601195638
20
56.8597949722
72
1
10
74.8601195638
20
56.8597949722
11
76.9015682098
21
54.4222143125
72
4
94
2
73
0
74
0
95
6
96
3
40
0.0
40
0.0
40
0.0
40
1.0
40
1.0
40
1.0
10
76.9015682098
20
54.4222143125
10
77.1517465609
20
54.122511086
10
77.0220859006
20
53.7625071457
72
1
10
77.0220859006
20
53.7625071457
11
75.8751090072
21
50.5524796874
72
4
94
3
73
0
74
0
95
8
96
4
40
0.0
40
0.0
40
0.0
40
0.0
40
1.0
40
1.0
40
1.0
40
1.0
10
75.8751090072
20
50.5524796874
10
75.7889293283
20
50.3220803973
10
75.8824019776
20
50.0635848755
10
76.0955556857
20
49.9428416856
72
1
10
76.0955556857
20
49.9428416856
11
79.4261929453
21
48.0261896837
72
4
94
2
73
0
74
0
95
6
96
3
40
0.0
40
0.0
40
0.0
40
1.0
40
1.0
40
1.0
10
79.4261929453
20
48.0261896837
10
79.8562769691
20
47.7766226117
10
80.1858709682
20
48.1467911113
72
1
10
80.1858709682
20
48.1467911113
11
82.4030635652
21
50.7278981598
72
4
94
2
73
0
74
0
95
6
96
3
40
0.0
40
0.0
40
0.0
40
1.0
40
1.0
40
1.0
10
82.4030635652
20
50.7278981598
10
82.6427591569
20
51.0080175257
10
83.0027128551
20
50.938339379
72
1
10
83.0027128551
20
50.938339379
11
86.28225936
21
50.3412608106
72
1
10
86.28225936
20
50.3412608106
11
86.28225936
21
50.3412608106
72
4
94
3
73
0
74
0
95
8
96
4
40
0.0
40
0.0
40
0.0
40
0.0
40
1.0
40
1.0
40
1.0
40
1.0
10
86.28225936
20
50.3412608106
10
86.576093623
20
50.2875456354
10
86.8043672712
20
50.0556560325
10
86.8525789142
20
49.7619071447
72
1
10
86.8525789142
20
49.7619071447
11
87.4853679668
21
46.2134692914
72
4
94
2
73
0
74
0
95
6
96
3
40
0.0
40
0.0
40
0.0
40
1.0
40
1.0
40
1.0
10
87.4853679668
20
46.2134692914
10
87.5657130939
20
45.7736645135
10
88.0155819469
20
45.7740413294
72
1
10
88.0155819469
20
45.7740413294
11
91.794497059
21
45.7572124114
72
4
94
2
73
0
74
0
95
6
96
3
40
0.0
40
0.0
40
0.0
40
1.0
40
1.0
40
1.0
10
91.794497059
20
45.7572124114
10
92.3643309394
20
45.7576897115
10
92.4638328693
20
46.3176102431
72
1
10
92.4638328693
20
46.3176102431
11
93.1007323064
21
49.7971319552
97
0
92
0
93
96
72
1
10
203.13
20
49.79
11
203.77
21
46.31
72
4
94
2
73
0
74
0
95
6
96
3
40
0.0
40
0.0
40
0.0
40
1.0
40
1.0
40
1.0
10
203.77
20
46.31
10
203.87
20
45.75
10
204.44
20
45.75
72
1
10
204.44
20
45.75
11
208.22
21
45.77
72
4
94
2
73
0
74
0
95
6
96
3
40
0.0
40
0.0
40
0.0
40
1.0
40
1.0
40
1.0
10
208.22
20
45.77
10
208.67
20
45.77
10
208.75
20
46.21
72
1
10
208.75
20
46.21
11
209.38
21
49.76
72
1
10
209.38
20
49.76
11
209.38
21
49.76
72
4
94
3
73
0
74
0
95
8
96
4
40
0.0
40
0.0
40
0.0
40
0.0
40
1.0
40
1.0
40
1.0
40
1.0
10
209.38
20
49.76
10
209.4279795446
20
50.0538747105
10
209.6561252895
20
50.2860230123
10
209.95
20
50.34
72
1
10
209.95
20
50.34
11
213.23
21
50.94
72
4
94
2
73
0
74
0
95
6
96
3
40
0.0
40
0.0
40
0.0
40
1.0
40
1.0
40
1.0
10
213.23
20
50.94
10
213.59
20
51.01
10
213.83
20
50.73
72
1
10
213.83
20
50.73
11
216.05
21
48.15
72
4
94
2
73
0
74
0
95
6
96
3
40
0.0
40
0.0
40
0.0
40
1.0
40
1.0
40
1.0
10
216.05
20
48.15
10
216.38
20
47.78
10
216.81
20
48.03
72
1
10
216.81
20
48.03
11
220.14
21
49.95
72
1
10
220.14
20
49.95
11
220.14
21
49.95
72
4
94
3
73
0
74
0
95
8
96
4
40
0.0
40
0.0
40
0.0
40
0.0
40
1.0
40
1.0
40
1.0
40
1.0
10
220.14
20
49.95
10
220.3531145323
20
50.0709568967
10
220.4463977833
20
50.3296059111
10
220.36
20
50.56
72
1
10
220.36
20
50.56
11
219.21
21
53.77
72
4
94
2
73
0
74
0
95
6
96
3
40
0.0
40
0.0
40
0.0
40
1.0
40
1.0
40
1.0
10
219.21
20
53.77
10
219.08
20
54.13
10
219.33
20
54.43
72
1
10
219.33
20
54.43
11
221.37
21
56.87
72
4
94
2
73
0
74
0
95
6
96
3
40
0.0
40
0.0
40
0.0
40
1.0
40
1.0
40
1.0
10
221.37
20
56.87
10
221.76
20
57.33
10
222.33
20
57.13
72
1
10
222.33
20
57.13
11
225.73
21
55.95
72
4
94
2
73
0
74
0
95
6
96
3
40
0.0
40
0.0
40
0.0
40
1.0
40
1.0
40
1.0
10
225.73
20
55.95
10
226.15
20
55.8
10
226.37
20
56.18
72
1
10
226.37
20
56.18
11
228.27
21
59.47
72
4
94
2
73
0
74
0
95
6
96
3
40
0.0
40
0.0
40
0.0
40
1.0
40
1.0
40
1.0
10
228.27
20
59.47
10
228.56
20
59.97
10
228.12
20
60.34
72
1
10
228.12
20
60.34
11
225.46
21
62.56
72
4
94
2
73
0
74
0
95
6
96
3
40
0.0
40
0.0
40
0.0
40
1.0
40
1.0
40
1.0
10
225.46
20
62.56
10
225.03
20
62.93
10
225.21
20
63.47
72
1
10
225.21
20
63.47
11
226.22
21
66.34
72
4
94
2
73
0
74
0
95
6
96
3
40
0.0
40
0.0
40
0.0
40
1.0
40
1.0
40
1.0
10
226.22
20
66.34
10
226.39
20
66.82
10
226.89
20
66.91
72
1
10
226.89
20
66.91
11
229.68
21
67.42
72
4
94
2
73
0
74
0
95
6
96
3
40
0.0
40
0.0
40
0.0
40
1.0
40
1.0
40
1.0
10
229.68
20
67.42
10
230.63
20
67.6
10
230.63
20
68.56
72
1
10
230.63
20
68.56
11
230.62
21
71.41
72
4
94
2
73
0
74
0
95
6
96
3
40
0.0
40
0.0
40
0.0
40
1.0
40
1.0
40
1.0
10
230.62
20
71.41
10
230.62
20
72.47
10
229.58
20
72.65
72
1
10
229.58
20
72.65
11
226.85
21
73.13
72
1
10
226.85
20
73.13
11
226.85
21
73.13
72
4
94
3
73
0
74
0
95
8
96
4
40
0.0
40
0.0
40
0.0
40
0.0
40
1.0
40
1.0
40
1.0
40
1.0
10
226.85
20
73.13
10
226.5966800499
20
73.1732497476
10
226.3864994952
20
73.3490371206
10
226.3
20
73.59
72
1
10
226.3
20
73.59
11
225.24
21
76.56
72
4
94
2
73
0
74
0
95
6
96
3
40
0.0
40
0.0
40
0.0
40
1.0
40
1.0
40
1.0
10
225.24
20
76.56
10
225.05
20
77.06
10
225.46
20
77.41
72
1
10
225.46
20
77.41
11
228.15
21
79.73
72
4
94
2
73
0
74
0
95
6
96
3
40
0.0
40
0.0
40
0.0
40
1.0
40
1.0
40
1.0
10
228.15
20
79.73
10
228.59
20
80.11
10
228.3
20
80.6
72
1
10
228.3
20
80.6
11
226.46
21
83.78
72
4
94
2
73
0
74
0
95
6
96
3
40
0.0
40
0.0
40
0.0
40
1.0
40
1.0
40
1.0
10
226.46
20
83.78
10
226.17
20
84.3
10
225.6
20
84.1
72
1
10
225.6
20
84.1
11
222.31
21
82.92
72
4
94
2
73
0
74
0
95
6
96
3
40
0.0
40
0.0
40
0.0
40
1.0
40
1.0
40
1.0
10
222.31
20
82.92
10
221.82
20
82.74
10
221.47
20
83.14
72
1
10
221.47
20
83.14
11
219.46
21
85.46
72
4
94
2
73
0
74
0
95
6
96
3
40
0.0
40
0.0
40
0.0
40
1.0
40
1.0
40
1.0
10
219.46
20
85.46
10
219.13
20
85.85
10
219.3
20
86.33
72
1
10
219.3
20
86.33
11
220.38
21
89.41
72
4
94
2
73
0
74
0
95
6
96
3
40
0.0
40
0.0
40
0.0
40
1.0
40
1.0
40
1.0
10
220.38
20
89.41
10
220.56
20
89.93
10
220.08
20
90.21
72
1
10
220.08
20
90.21
11
216.87
21
92.06
72
1
10
216.87
20
92.06
11
216.87
21
92.06
72
4
94
3
73
0
74
0
95
8
96
4
40
0.0
40
0.0
40
0.0
40
0.0
40
1.0
40
1.0
40
1.0
40
1.0
10
216.87
20
92.06
10
216.6047837788
20
92.2156703907
10
216.2660293809
20
92.1563883711
10
216.07
20
91.92
72
1
10
216.07
20
91.92
11
213.98
21
89.42
72
4
94
2
73
0
74
0
95
6
96
3
40
0.0
40
0.0
40
0.0
40
1.0
40
1.0
40
1.0
10
213.98
20
89.42
10
213.7
20
89.1
10
213.28
20
89.17
72
1
10
213.28
20
89.17
11
210.16
21
89.72
72
4
94
2
73
0
74
0
95
6
96
3
40
0.0
40
0.0
40
0.0
40
1.0
40
1.0
40
1.0
10
210.16
20
89.72
10
209.56
20
89.83
10
209.45
20
90.42
72
1
10
209.45
20
90.42
11
208.82
21
93.84
72
1
10
208.82
20
93.84
11
208.82
21
93.84
72
4
94
3
73
0
74
0
95
8
96
4
40
0.0
40
0.0
40
0.0
40
0.0
40
1.0
40
1.0
40
1.0
40
1.0
10
208.82
20
93.84
10
208.762047586
20
94.1529430354
10
208.4887382768
20
94.38
10
208.17
20
94.38
72
1
10
208.17
20
94.38
11
204.46
21
94.37
72
4
94
2
73
0
74
0
95
6
96
3
40
0.0
40
0.0
40
0.0
40
1.0
40
1.0
40
1.0
10
204.46
20
94.37
10
203.93
20
94.37
10
203.83
20
93.84
72
1
10
203.83
20
93.84
11
203.22
21
90.38
72
4
94
2
73
0
74
0
95
6
96
3
40
0.0
40
0.0
40
0.0
40
1.0
40
1.0
40
1.0
10
203.22
20
90.38
10
203.13
20
89.84
10
202.6
20
89.75
72
1
10
202.6
20
89.75
11
199.58
21
89.2
72
4
94
2
73
0
74
0
95
6
96
3
40
0.0
40
0.0
40
0.0
40
1.0
40
1.0
40
1.0
10
199.58
20
89.2
10
199.15
20
89.12
10
198.87
20
89.45
72
1
10
198.87
20
89.45
11
196.91
21
91.8
72
4
94
2
73
0
74
0
95
6
96
3
40
0.0
40
0.0
40
0.0
40
1.0
40
1.0
40
1.0
10
196.91
20
91.8
10
195.99
20
92.89
10
194.9
20
91.4
72
4
94
2
73
0
74
0
95
6
96
3
40
0.0
40
0.0
40
0.0
40
1.0
40
1.0
40
1.0
10
194.9
20
91.4
10
194.37
20
90.67
10
193.66
20
88.4
72
4
94
2
73
0
74
0
95
6
96
3
40
0.0
40
0.0
40
0.0
40
1.0
40
1.0
40
1.0
10
193.66
20
88.4
10
193.21
20
86.95
10
194.37
20
85.98
72
1
10
194.37
20
85.98
11
199.67
21
81.54
72
4
94
2
73
0
74
0
95
6
96
3
40
0.0
40
0.0
40
0.0
40
1.0
40
1.0
40
1.0
10
199.67
20
81.54
10
200.03
20
81.24
10
200.46
20
81.45
72
4
94
3
73
0
74
0
95
8
96
4
40
0.0
40
0.0
40
0.0
40
0.0
40
1.0
40
1.0
40
1.0
40
1.0
10
200.46
20
81.45
10
207.5
20
84.94
10
215.86
20
81.44
10
218.39
20
73.98
72
4
94
3
73
0
74
0
95
8
96
4
40
0.0
40
0.0
40
0.0
40
0.0
40
1.0
40
1.0
40
1.0
40
1.0
10
218.39
20
73.98
10
221.16
20
65.81
10
214.95
20
57.37
10
206.31
20
57.44
72
4
94
2
73
0
74
0
95
6
96
3
40
0.0
40
0.0
40
0.0
40
1.0
40
1.0
40
1.0
10
206.31
20
57.44
10
196.01
20
57.53
10
193.88
20
67.24
72
4
94
2
73
0
74
0
95
6
96
3
40
0.0
40
0.0
40
0.0
40
1.0
40
1.0
40
1.0
10
193.88
20
67.24
10
193.76
20
67.76
10
193.26
20
67.93
72
1
10
193.26
20
67.93
11
184.86
21
70.88
72
4
94
2
73
0
74
0
95
6
96
3
40
0.0
40
0.0
40
0.0
40
1.0
40
1.0
40
1.0
10
184.86
20
70.88
10
184.12
20
71.13
10
183.86
20
70.4
72
1
10
183.86
20
70.4
11
183.28
21
68.74
72
1
10
183.28
20
68.74
11
183.28
21
68.74
72
4
94
3
73
0
74
0
95
8
96
4
40
0.0
40
0.0
40
0.0
40
0.0
40
1.0
40
1.0
40
1.0
40
1.0
10
183.28
20
68.74
10
183.1640202025
20
68.4086291501
10
183.3386291501
20
68.0459797975
10
183.67
20
67.93
72
1
10
183.67
20
67.93
11
185.94
21
67.14
72
4
94
2
73
0
74
0
95
6
96
3
40
0.0
40
0.0
40
0.0
40
1.0
40
1.0
40
1.0
10
185.94
20
67.14
10
186.6
20
66.91
10
186.72
20
66.23
72
1
10
186.72
20
66.23
11
187.26
21
63.28
72
4
94
2
73
0
74
0
95
6
96
3
40
0.0
40
0.0
40
0.0
40
1.0
40
1.0
40
1.0
10
187.26
20
63.28
10
187.33
20
62.89
10
187.04
20
62.64
72
1
10
187.04
20
62.64
11
184.49
21
60.45
72
4
94
2
73
0
74
0
95
6
96
3
40
0.0
40
0.0
40
0.0
40
1.0
40
1.0
40
1.0
10
184.49
20
60.45
10
184.03
20
60.05
10
184.34
20
59.53
72
1
10
184.34
20
59.53
11
186.15
21
56.39
72
4
94
2
73
0
74
0
95
6
96
3
40
0.0
40
0.0
40
0.0
40
1.0
40
1.0
40
1.0
10
186.15
20
56.39
10
186.43
20
55.9
10
186.96
20
56.09
72
1
10
186.96
20
56.09
11
190.0
21
57.18
72
4
94
3
73
0
74
0
95
8
96
4
40
0.0
40
0.0
40
0.0
40
0.0
40
1.0
40
1.0
40
1.0
40
1.0
10
190.0
20
57.18
10
190.2414997249
20
57.266692209
10
190.5080386802
20
57.2209998166
10
190.7
20
57.06
72
1
10
190.7
20
57.06
11
193.11
21
55.04
72
4
94
2
73
0
74
0
95
6
96
3
40
0.0
40
0.0
40
0.0
40
1.0
40
1.0
40
1.0
10
193.11
20
55.04
10
193.61
20
54.63
10
193.39
20
54.02
72
1
10
193.39
20
54.02
11
192.26
21
50.79
72
4
94
2
73
0
74
0
95
6
96
3
40
0.0
40
0.0
40
0.0
40
1.0
40
1.0
40
1.0
10
192.26
20
50.79
10
192.06
20
50.21
10
192.59
20
49.91
72
1
10
192.59
20
49.91
11
195.74
21
48.09
72
4
94
2
73
0
74
0
95
6
96
3
40
0.0
40
0.0
40
0.0
40
1.0
40
1.0
40
1.0
10
195.74
20
48.09
10
196.19
20
47.83
10
196.52
20
48.22
72
1
10
196.52
20
48.22
11
198.65
21
50.77
72
4
94
2
73
0
74
0
95
6
96
3
40
0.0
40
0.0
40
0.0
40
1.0
40
1.0
40
1.0
10
198.65
20
50.77
10
198.88
20
51.05
10
199.24
20
50.99
72
1
10
199.24
20
50.99
11
202.51
21
50.41
72
4
94
2
73
0
74
0
95
6
96
3
40
0.0
40
0.0
40
0.0
40
1.0
40
1.0
40
1.0
10
202.51
20
50.41
10
203.03
20
50.32
10
203.13
20
49.79
97
0
92
0
93
8
72
4
94
3
73
0
74
0
95
8
96
4
40
0.0
40
0.0
40
0.0
40
0.0
40
1.0
40
1.0
40
1.0
40
1.0
10
168.5
20
19.98
10
168.5
20
20.2009138999
10
168.3209138999
20
20.38
10
168.1
20
20.38
72
1
10
168.1
20
20.38
11
167.28
21
20.38
72
4
94
3
73
0
74
0
95
8
96
4
40
0.0
40
0.0
40
0.0
40
0.0
40
1.0
40
1.0
40
1.0
40
1.0
10
167.28
20
20.38
10
167.0590861001
20
20.38
10
166.88
20
20.2009138999
10
166.88
20
19.98
72
1
10
166.88
20
19.98
11
166.88
21
7.44
72
4
94
3
73
0
74
0
95
8
96
4
40
0.0
40
0.0
40
0.0
40
0.0
40
1.0
40
1.0
40
1.0
40
1.0
10
166.88
20
7.44
10
166.88
20
7.2190861001
10
167.0590861001
20
7.04
10
167.28
20
7.04
72
1
10
167.28
20
7.04
11
168.1
21
7.04
72
4
94
3
73
0
74
0
95
8
96
4
40
0.0
40
0.0
40
0.0
40
0.0
40
1.0
40
1.0
40
1.0
40
1.0
10
168.1
20
7.04
10
168.3209138999
20
7.04
10
168.5
20
7.2190861001
10
168.5
20
7.44
72
1
10
168.5
20
7.44
11
168.5
21
19.98
97
0
92
0
93
13
72
4
94
2
73
0
74
0
95
6
96
3
40
0.0
40
0.0
40
0.0
40
1.0
40
1.0
40
1.0
10
202.09
20
7.99
10
202.07
20
7.9
10
202.07
20
7.71
72
4
94
2
73
0
74
0
95
6
96
3
40
0.0
40
0.0
40
0.0
40
1.0
40
1.0
40
1.0
10
202.07
20
7.71
10
202.06
20
7.26
10
202.5
20
7.12
72
4
94
2
73
0
74
0
95
6
96
3
40
0.0
40
0.0
40
0.0
40
1.0
40
1.0
40
1.0
10
202.5
20
7.12
10
202.94
20
6.99
10
203.21
20
7.01
72
4
94
2
73
0
74
0
95
6
96
3
40
0.0
40
0.0
40
0.0
40
1.0
40
1.0
40
1.0
10
203.21
20
7.01
10
203.77
20
7.05
10
203.77
20
7.61
72
1
10
203.77
20
7.61
11
203.72
21
19.65
72
4
94
2
73
0
74
0
95
6
96
3
40
0.0
40
0.0
40
0.0
40
1.0
40
1.0
40
1.0
10
203.72
20
19.65
10
203.72
20
20.37
10
203.0
20
20.37
72
1
10
203.0
20
20.37
11
202.71
21
20.37
72
4
94
2
73
0
74
0
95
6
96
3
40
0.0
40
0.0
40
0.0
40
1.0
40
1.0
40
1.0
10
202.71
20
20.37
10
202.14
20
20.36
10
202.14
20
19.79
72
1
10
202.14
20
19.79
11
202.15
21
15.99
72
4
94
2
73
0
74
0
95
6
96
3
40
0.0
40
0.0
40
0.0
40
1.0
40
1.0
40
1.0
10
202.15
20
15.99
10
202.15
20
15.46
10
201.73
20
15.76
72
4
94
3
73
0
74
0
95
8
96
4
40
0.0
40
0.0
40
0.0
40
0.0
40
1.0
40
1.0
40
1.0
40
1.0
10
201.73
20
15.76
10
194.87
20
20.6
10
190.57
20
10.14
10
196.6
20
7.24
72
4
94
2
73
0
74
0
95
6
96
3
40
0.0
40
0.0
40
0.0
40
1.0
40
1.0
40
1.0
10
196.6
20
7.24
10
199.1
20
6.04
10
201.76
20
8.13
72
4
94
2
73
0
74
0
95
6
96
3
40
0.0
40
0.0
40
0.0
40
1.0
40
1.0
40
1.0
10
201.76
20
8.13
10
202.15
20
8.43
10
202.09
20
7.99
97
0
92
0
93
21
72
4
94
3
73
0
74
0
95
8
96
4
40
0.0
40
0.0
40
0.0
40
0.0
40
1.0
40
1.0
40
1.0
40
1.0
10
145.29
20
8.97
10
147.88
20
11.08
10
150.32
20
13.31
10
150.45
20
16.61
72
4
94
2
73
0
74
0
95
6
96
3
40
0.0
40
0.0
40
0.0
40
1.0
40
1.0
40
1.0
10
150.45
20
16.61
10
150.51
20
18.14
10
149.4
20
19.16
72
4
94
3
73
0
74
0
95
8
96
4
40
0.0
40
0.0
40
0.0
40
0.0
40
1.0
40
1.0
40
1.0
40
1.0
10
149.4
20
19.16
10
146.99
20
21.37
10
142.8
20
20.17
10
142.22
20
16.66
72
4
94
3
73
0
74
0
95
8
96
4
40
0.0
40
0.0
40
0.0
40
0.0
40
1.0
40
1.0
40
1.0
40
1.0
10
142.22
20
16.66
10
142.1928123105
20
16.499345471
10
142.238545463
20
16.3349204537
10
142.3448107225
20
16.2112663336
72
4
94
3
73
0
74
0
95
8
96
4
40
0.0
40
0.0
40
0.0
40
0.0
40
1.0
40
1.0
40
1.0
40
1.0
10
142.3448107225
20
16.2112663336
10
142.451075982
20
16.0876122134
10
142.6068738628
20
16.0175283919
10
142.77
20
16.02
72
1
10
142.77
20
16.02
11
143.26
21
16.03
72
1
10
143.26
20
16.03
11
143.26
21
16.03
72
4
94
3
73
0
74
0
95
8
96
4
40
0.0
40
0.0
40
0.0
40
0.0
40
1.0
40
1.0
40
1.0
40
1.0
10
143.26
20
16.03
10
143.5911592444
20
16.0357096421
10
143.8657421471
20
16.2845503978
10
143.9
20
16.61
72
4
94
2
73
0
74
0
95
6
96
3
40
0.0
40
0.0
40
0.0
40
1.0
40
1.0
40
1.0
10
143.9
20
16.61
10
144.12
20
18.76
10
146.61
20
18.85
72
1
10
146.61
20
18.85
11
146.61
21
18.85
72
4
94
3
73
0
74
0
95
8
96
4
40
0.0
40
0.0
40
0.0
40
0.0
40
1.0
40
1.0
40
1.0
40
1.0
10
146.61
20
18.85
10
147.1802154532
20
18.8712173192
10
147.7355049131
20
18.6650484254
10
148.1537110371
20
18.276848122
72
4
94
3
73
0
74
0
95
8
96
4
40
0.0
40
0.0
40
0.0
40
0.0
40
1.0
40
1.0
40
1.0
40
1.0
10
148.1537110371
20
18.276848122
10
148.571917161
20
17.8886478187
10
148.8187826808
20
17.3502154532
10
148.84
20
16.78
72
4
94
3
73
0
74
0
95
8
96
4
40
0.0
40
0.0
40
0.0
40
0.0
40
1.0
40
1.0
40
1.0
40
1.0
10
148.84
20
16.78
10
148.97
20
13.65
10
145.63
20
10.99
10
143.25
20
9.18
72
4
94
2
73
0
74
0
95
6
96
3
40
0.0
40
0.0
40
0.0
40
1.0
40
1.0
40
1.0
10
143.25
20
9.18
10
140.41
20
7.02
10
143.98
20
7.07
72
1
10
143.98
20
7.07
11
150.32
21
7.17
72
4
94
2
73
0
74
0
95
6
96
3
40
0.0
40
0.0
40
0.0
40
1.0
40
1.0
40
1.0
10
150.32
20
7.17
10
150.9
20
7.17
10
150.89
20
7.76
72
1
10
150.89
20
7.76
11
150.89
21
8.08
72
4
94
3
73
0
74
0
95
8
96
4
40
0.0
40
0.0
40
0.0
40
0.0
40
1.0
40
1.0
40
1.0
40
1.0
10
150.89
20
8.08
10
150.8873478351
20
8.1966952555
10
150.8384472862
20
8.3075574088
10
150.7540559159
20
8.3881980515
72
4
94
3
73
0
74
0
95
8
96
4
40
0.0
40
0.0
40
0.0
40
0.0
40
1.0
40
1.0
40
1.0
40
1.0
10
150.7540559159
20
8.3881980515
10
150.6696645456
20
8.4688386943
10
150.5566952555
20
8.5126521649
10
150.44
20
8.51
72
1
10
150.44
20
8.51
11
145.49
21
8.44
72
4
94
2
73
0
74
0
95
6
96
3
40
0.0
40
0.0
40
0.0
40
1.0
40
1.0
40
1.0
10
145.49
20
8.44
10
144.64
20
8.43
10
145.29
20
8.97
97
0
92
0
93
16
72
4
94
2
73
0
74
0
95
6
96
3
40
0.0
40
0.0
40
0.0
40
1.0
40
1.0
40
1.0
10
152.3750775138
20
13.3461196818
10
152.3444992344
20
9.7201947554
10
155.2560284776
20
7.9315795257
72
4
94
2
73
0
74
0
95
6
96
3
40
0.0
40
0.0
40
0.0
40
1.0
40
1.0
40
1.0
10
155.2560284776
20
7.9315795257
10
160.09
20
4.96
10
164.27
20
9.88
72
1
10
164.27
20
9.88
11
164.27
21
9.88
72
4
94
3
73
0
74
0
95
8
96
4
40
0.0
40
0.0
40
0.0
40
0.0
40
1.0
40
1.0
40
1.0
40
1.0
10
164.27
20
9.88
10
164.3868599071
20
10.0166361991
10
164.4135437272
20
10.2087790346
10
164.3383379779
20
10.3720829474
72
4
94
3
73
0
74
0
95
8
96
4
40
0.0
40
0.0
40
0.0
40
0.0
40
1.0
40
1.0
40
1.0
40
1.0
10
164.3383379779
20
10.3720829474
10
164.2631322286
20
10.5353868602
10
164.0997844725
20
10.64
10
163.92
20
10.64
72
1
10
163.92
20
10.64
11
163.37
21
10.63
72
4
94
2
73
0
74
0
95
6
96
3
40
0.0
40
0.0
40
0.0
40
1.0
40
1.0
40
1.0
10
163.37
20
10.63
10
162.66
20
10.63
10
162.1936364509
20
10.0916289166
72
4
94
3
73
0
74
0
95
8
96
4
40
0.0
40
0.0
40
0.0
40
0.0
40
1.0
40
1.0
40
1.0
40
1.0
10
162.1936364509
20
10.0916289166
10
159.1264528158
20
6.5229227793
10
154.0724739937
20
8.5310627069
10
154.1129569069
20
13.3314637353
72
4
94
3
73
0
74
0
95
8
96
4
40
0.0
40
0.0
40
0.0
40
0.0
40
1.0
40
1.0
40
1.0
40
1.0
10
154.1129569069
20
13.3314637353
10
154.15343982
20
18.1318647637
10
159.2405676466
20
20.054482349
10
162.2471278405
20
16.4345548987
72
4
94
2
73
0
74
0
95
6
96
3
40
0.0
40
0.0
40
0.0
40
1.0
40
1.0
40
1.0
10
162.2471278405
20
16.4345548987
10
162.7043452846
20
15.8883950391
10
163.4142443021
20
15.8764206961
72
1
10
163.4142443021
20
15.8764206961
11
163.9639974235
21
15.8571462188
72
1
10
163.9639974235
20
15.8571462188
11
163.9639974235
21
15.8571462188
72
4
94
3
73
0
74
0
95
8
96
4
40
0.0
40
0.0
40
0.0
40
0.0
40
1.0
40
1.0
40
1.0
40
1.0
10
163.9639974235
20
15.8571462188
10
164.1437563255
20
15.8541141048
10
164.3088451779
20
15.9559574613
10
164.3867943957
20
16.1179697822
72
4
94
3
73
0
74
0
95
8
96
4
40
0.0
40
0.0
40
0.0
40
0.0
40
1.0
40
1.0
40
1.0
40
1.0
10
164.3867943957
20
16.1179697822
10
164.4647436135
20
16.2799821031
10
164.4413041297
20
16.4725476402
10
164.3267652501
20
16.6111352798
72
4
94
2
73
0
74
0
95
6
96
3
40
0.0
40
0.0
40
0.0
40
1.0
40
1.0
40
1.0
10
164.3267652501
20
16.6111352798
10
160.2303369042
20
21.6009323505
10
155.3469364152
20
18.7113017129
72
4
94
2
73
0
74
0
95
6
96
3
40
0.0
40
0.0
40
0.0
40
1.0
40
1.0
40
1.0
10
155.3469364152
20
18.7113017129
10
152.4056557932
20
16.9720446081
10
152.3750775138
20
13.3461196818
97
0
92
0
93
29
72
4
94
2
73
0
74
0
95
6
96
3
40
0.0
40
0.0
40
0.0
40
1.0
40
1.0
40
1.0
10
100.7468242595
20
7.005922654
10
101.0274338439
20
7.0054942955
10
101.2639023696
20
7.1480928046
72
4
94
2
73
0
74
0
95
6
96
3
40
0.0
40
0.0
40
0.0
40
1.0
40
1.0
40
1.0
10
101.2639023696
20
7.1480928046
10
101.45
20
7.26
10
101.57
20
7.54
72
4
94
2
73
0
74
0
95
6
96
3
40
0.0
40
0.0
40
0.0
40
1.0
40
1.0
40
1.0
10
101.57
20
7.54
10
104.38
20
13.82
10
104.87
20
14.98
72
4
94
2
73
0
74
0
95
6
96
3
40
0.0
40
0.0
40
0.0
40
1.0
40
1.0
40
1.0
10
104.87
20
14.98
10
105.47
20
16.45
10
105.48
20
14.86
72
1
10
105.48
20
14.86
11
105.51
21
7.55
72
4
94
2
73
0
74
0
95
6
96
3
40
0.0
40
0.0
40
0.0
40
1.0
40
1.0
40
1.0
10
105.51
20
7.55
10
105.51
20
7.01
10
106.05
20
7.02
72
1
10
106.05
20
7.02
11
106.58
21
7.02
72
4
94
2
73
0
74
0
95
6
96
3
40
0.0
40
0.0
40
0.0
40
1.0
40
1.0
40
1.0
10
106.58
20
7.02
10
107.16
20
7.02
10
107.15
20
7.59
72
1
10
107.15
20
7.59
11
107.11
21
18.95
72
4
94
2
73
0
74
0
95
6
96
3
40
0.0
40
0.0
40
0.0
40
1.0
40
1.0
40
1.0
10
107.11
20
18.95
10
107.11
20
19.51
10
106.54
20
19.51
72
1
10
106.54
20
19.51
11
105.88
21
19.51
72
4
94
3
73
0
74
0
95
8
96
4
40
0.0
40
0.0
40
0.0
40
0.0
40
1.0
40
1.0
40
1.0
40
1.0
10
105.88
20
19.51
10
105.5400569504
20
19.5039295884
10
105.2374786436
20
19.2995909916
10
105.11
20
18.99
72
4
94
2
73
0
74
0
95
6
96
3
40
0.0
40
0.0
40
0.0
40
1.0
40
1.0
40
1.0
10
105.11
20
18.99
10
103.62
20
15.38
10
100.9592524525
20
9.6786788623
72
4
94
2
73
0
74
0
95
6
96
3
40
0.0
40
0.0
40
0.0
40
1.0
40
1.0
40
1.0
10
100.9592524525
20
9.6786788623
10
100.9127426514
20
9.579021483
10
100.7507525454
20
9.5792687655
72
4
94
2
73
0
74
0
95
6
96
3
40
0.0
40
0.0
40
0.0
40
1.0
40
1.0
40
1.0
10
100.7507525454
20
9.5792687655
10
100.5887624394
20
9.579516048
10
100.5425571139
20
9.6793149596
72
4
94
2
73
0
74
0
95
6
96
3
40
0.0
40
0.0
40
0.0
40
1.0
40
1.0
40
1.0
10
100.5425571139
20
9.6793149596
10
97.8992283835
20
15.3887329203
10
96.420256837
20
19.0032651396
72
1
10
96.420256837
20
19.0032651396
11
96.420256837
21
19.0032651396
72
4
94
3
73
0
74
0
95
8
96
4
40
0.0
40
0.0
40
0.0
40
0.0
40
1.0
40
1.0
40
1.0
40
1.0
10
96.420256837
20
19.0032651396
10
96.2937239842
20
19.313243887
10
95.9917709435
20
19.518505318
10
95.6518480115
20
19.5256135643
72
1
10
95.6518480115
20
19.5256135643
11
94.9918510875
21
19.5276285771
72
4
94
2
73
0
74
0
95
6
96
3
40
0.0
40
0.0
40
0.0
40
1.0
40
1.0
40
1.0
10
94.9918510875
20
19.5276285771
10
94.421853744
20
19.5293688154
10
94.4201440362
20
18.9693714253
72
1
10
94.4201440362
20
18.9693714253
11
94.3454615785
21
7.6095464913
72
4
94
2
73
0
74
0
95
6
96
3
40
0.0
40
0.0
40
0.0
40
1.0
40
1.0
40
1.0
10
94.3454615785
20
7.6095464913
10
94.3337213868
20
7.0395796784
10
94.9137186837
20
7.0378089096
72
1
10
94.9137186837
20
7.0378089096
11
95.4437162136
21
7.0361907933
72
4
94
2
73
0
74
0
95
6
96
3
40
0.0
40
0.0
40
0.0
40
1.0
40
1.0
40
1.0
10
95.4437162136
20
7.0361907933
10
95.9836831664
20
7.024542193
10
95.9853318132
20
7.5645396763
72
1
10
95.9853318132
20
7.5645396763
11
96.0376494664
21
14.8744140161
72
4
94
2
73
0
74
0
95
6
96
3
40
0.0
40
0.0
40
0.0
40
1.0
40
1.0
40
1.0
10
96.0376494664
20
14.8744140161
10
96.0525037687
20
16.4643760753
10
96.6480129894
20
14.9925510965
72
4
94
2
73
0
74
0
95
6
96
3
40
0.0
40
0.0
40
0.0
40
1.0
40
1.0
40
1.0
10
96.6480129894
20
14.9925510965
10
97.1344691681
20
13.8310605085
10
99.9252829201
20
7.5425107073
72
4
94
2
73
0
74
0
95
6
96
3
40
0.0
40
0.0
40
0.0
40
1.0
40
1.0
40
1.0
10
99.9252829201
20
7.5425107073
10
100.0444275069
20
7.2621456463
10
100.2301826118
20
7.1496708072
72
4
94
2
73
0
74
0
95
6
96
3
40
0.0
40
0.0
40
0.0
40
1.0
40
1.0
40
1.0
10
100.2301826118
20
7.1496708072
10
100.4662146751
20
7.0063510125
10
100.7468242595
20
7.005922654
97
0
92
0
93
4
72
4
94
3
73
0
74
0
95
8
96
4
40
0.0
40
0.0
40
0.0
40
0.0
40
1.0
40
1.0
40
1.0
40
1.0
10
119.34
20
11.94
10
119.34
20
14.7511293766
10
117.0611293766
20
17.03
10
114.25
20
17.03
72
4
94
3
73
0
74
0
95
8
96
4
40
0.0
40
0.0
40
0.0
40
0.0
40
1.0
40
1.0
40
1.0
40
1.0
10
114.25
20
17.03
10
111.4388706234
20
17.03
10
109.16
20
14.7511293766
10
109.16
20
11.94
72
4
94
3
73
0
74
0
95
8
96
4
40
0.0
40
0.0
40
0.0
40
0.0
40
1.0
40
1.0
40
1.0
40
1.0
10
109.16
20
11.94
10
109.16
20
9.1288706234
10
111.4388706234
20
6.85
10
114.25
20
6.85
72
4
94
3
73
0
74
0
95
8
96
4
40
0.0
40
0.0
40
0.0
40
0.0
40
1.0
40
1.0
40
1.0
40
1.0
10
114.25
20
6.85
10
117.0611293766
20
6.85
10
119.34
20
9.1288706234
10
119.34
20
11.94
97
0
92
0
93
18
72
4
94
2
73
0
74
0
95
6
96
3
40
0.0
40
0.0
40
0.0
40
1.0
40
1.0
40
1.0
10
125.0629815116
20
6.9744403256
10
125.4109241691
20
6.9745258432
10
125.5640675695
20
7.0051992198
72
4
94
2
73
0
74
0
95
6
96
3
40
0.0
40
0.0
40
0.0
40
1.0
40
1.0
40
1.0
10
125.5640675695
20
7.0051992198
10
126.05
20
7.1
10
126.23
20
7.56
72
1
10
126.23
20
7.56
11
129.66
21
16.25
72
4
94
2
73
0
74
0
95
6
96
3
40
0.0
40
0.0
40
0.0
40
1.0
40
1.0
40
1.0
10
129.66
20
16.25
10
129.85
20
16.74
10
129.33
20
16.84
72
1
10
129.33
20
16.84
11
128.99
21
16.9
72
1
10
128.99
20
16.9
11
128.99
21
16.9
72
4
94
3
73
0
74
0
95
8
96
4
40
0.0
40
0.0
40
0.0
40
0.0
40
1.0
40
1.0
40
1.0
40
1.0
10
128.99
20
16.9
10
128.5007790038
20
16.986333117
10
128.0211551517
20
16.7019543728
10
127.86
20
16.23
72
4
94
2
73
0
74
0
95
6
96
3
40
0.0
40
0.0
40
0.0
40
1.0
40
1.0
40
1.0
10
127.86
20
16.23
10
126.63
20
12.62
10
125.2033536248
20
8.9912517737
72
4
94
2
73
0
74
0
95
6
96
3
40
0.0
40
0.0
40
0.0
40
1.0
40
1.0
40
1.0
10
125.2033536248
20
8.9912517737
10
125.1539234973
20
8.8654468971
10
125.0625167444
20
8.8654244311
72
4
94
2
73
0
74
0
95
6
96
3
40
0.0
40
0.0
40
0.0
40
1.0
40
1.0
40
1.0
10
125.0625167444
20
8.8654244311
10
124.9711099915
20
8.8654019651
10
124.9216180291
20
8.9911825285
72
4
94
2
73
0
74
0
95
6
96
3
40
0.0
40
0.0
40
0.0
40
1.0
40
1.0
40
1.0
10
124.9216180291
20
8.9911825285
10
123.4931880746
20
12.6192290325
10
122.2614136875
20
16.2286239761
72
1
10
122.2614136875
20
16.2286239761
11
122.2614136875
21
16.2286239761
72
4
94
3
73
0
74
0
95
8
96
4
40
0.0
40
0.0
40
0.0
40
0.0
40
1.0
40
1.0
40
1.0
40
1.0
10
122.2614136875
20
16.2286239761
10
122.1000265608
20
16.7004990743
10
121.6202629771
20
16.9846420197
10
121.131084478
20
16.8980684311
72
1
10
121.131084478
20
16.8980684311
11
120.7911140128
21
16.8379013075
72
4
94
2
73
0
74
0
95
6
96
3
40
0.0
40
0.0
40
0.0
40
1.0
40
1.0
40
1.0
10
120.7911140128
20
16.8379013075
10
120.2711632317
20
16.7376457078
10
120.4614040737
20
16.2477391636
72
1
10
120.4614040737
20
16.2477391636
11
123.8956753258
21
7.5594262683
72
4
94
2
73
0
74
0
95
6
96
3
40
0.0
40
0.0
40
0.0
40
1.0
40
1.0
40
1.0
10
123.8956753258
20
7.5594262683
10
124.0759014221
20
7.0995148049
10
124.5618803944
20
7.0049529016
72
4
94
2
73
0
74
0
95
6
96
3
40
0.0
40
0.0
40
0.0
40
1.0
40
1.0
40
1.0
10
124.5618803944
20
7.0049529016
10
124.7150388541
20
6.9743548081
10
125.0629815116
20
6.9744403256
97
0
92
0
93
13
72
1
10
133.18
20
11.35
11
139.06
21
11.37
72
4
94
2
73
0
74
0
95
6
96
3
40
0.0
40
0.0
40
0.0
40
1.0
40
1.0
40
1.0
10
139.06
20
11.37
10
141.34
20
11.38
10
140.4
20
13.45
72
1
10
140.4
20
13.45
11
139.9
21
14.56
72
4
94
2
73
0
74
0
95
6
96
3
40
0.0
40
0.0
40
0.0
40
1.0
40
1.0
40
1.0
10
139.9
20
14.56
10
138.82
20
16.93
10
136.42
20
16.97
72
4
94
2
73
0
74
0
95
6
96
3
40
0.0
40
0.0
40
0.0
40
1.0
40
1.0
40
1.0
10
136.42
20
16.97
10
130.87
20
17.07
10
130.93
20
12.01
72
4
94
2
73
0
74
0
95
6
96
3
40
0.0
40
0.0
40
0.0
40
1.0
40
1.0
40
1.0
10
130.93
20
12.01
10
130.97
20
8.5
10
133.48
20
7.41
72
4
94
2
73
0
74
0
95
6
96
3
40
0.0
40
0.0
40
0.0
40
1.0
40
1.0
40
1.0
10
133.48
20
7.41
10
137.62
20
5.6
10
140.15
20
9.29
72
4
94
3
73
0
74
0
95
8
96
4
40
0.0
40
0.0
40
0.0
40
0.0
40
1.0
40
1.0
40
1.0
40
1.0
10
140.15
20
9.29
10
140.2530156902
20
9.4417140165
10
140.2604134362
20
9.6387861124
10
140.1690732133
20
9.7981004546
72
4
94
3
73
0
74
0
95
8
96
4
40
0.0
40
0.0
40
0.0
40
0.0
40
1.0
40
1.0
40
1.0
40
1.0
10
140.1690732133
20
9.7981004546
10
140.0777329904
20
9.9574147969
10
139.9035552298
20
10.0512380753
10
139.72
20
10.04
72
4
94
2
73
0
74
0
95
6
96
3
40
0.0
40
0.0
40
0.0
40
1.0
40
1.0
40
1.0
10
139.72
20
10.04
10
138.53
20
9.96
10
137.6
20
8.87
72
4
94
2
73
0
74
0
95
6
96
3
40
0.0
40
0.0
40
0.0
40
1.0
40
1.0
40
1.0
10
137.6
20
8.87
10
137.29
20
8.51
10
136.82
20
8.4
72
4
94
2
73
0
74
0
95
6
96
3
40
0.0
40
0.0
40
0.0
40
1.0
40
1.0
40
1.0
10
136.82
20
8.4
10
133.4
20
7.61
10
132.66
20
10.7
72
4
94
2
73
0
74
0
95
6
96
3
40
0.0
40
0.0
40
0.0
40
1.0
40
1.0
40
1.0
10
132.66
20
10.7
10
132.51
20
11.35
10
133.18
20
11.35
97
0
92
0
93
4
72
4
94
3
73
0
74
0
95
8
96
4
40
0.0
40
0.0
40
0.0
40
0.0
40
1.0
40
1.0
40
1.0
40
1.0
10
180.79
20
11.93
10
180.79
20
14.7356065291
10
178.5156065291
20
17.01
10
175.71
20
17.01
72
4
94
3
73
0
74
0
95
8
96
4
40
0.0
40
0.0
40
0.0
40
0.0
40
1.0
40
1.0
40
1.0
40
1.0
10
175.71
20
17.01
10
172.9043934709
20
17.01
10
170.63
20
14.7356065291
10
170.63
20
11.93
72
4
94
3
73
0
74
0
95
8
96
4
40
0.0
40
0.0
40
0.0
40
0.0
40
1.0
40
1.0
40
1.0
40
1.0
10
170.63
20
11.93
10
170.63
20
9.1243934709
10
172.9043934709
20
6.85
10
175.71
20
6.85
72
4
94
3
73
0
74
0
95
8
96
4
40
0.0
40
0.0
40
0.0
40
0.0
40
1.0
40
1.0
40
1.0
40
1.0
10
175.71
20
6.85
10
178.5156065291
20
6.85
10
180.79
20
9.1243934709
10
180.79
20
11.93
97
0
92
0
93
20
72
4
94
2
73
0
74
0
95
6
96
3
40
0.0
40
0.0
40
0.0
40
1.0
40
1.0
40
1.0
10
189.87
20
7.6
10
190.19
20
6.83
10
191.18
20
7.02
72
4
94
2
73
0
74
0
95
6
96
3
40
0.0
40
0.0
40
0.0
40
1.0
40
1.0
40
1.0
10
191.18
20
7.02
10
191.64
20
7.11
10
191.64
20
7.57
72
1
10
191.64
20
7.57
11
191.6
21
16.47
72
4
94
2
73
0
74
0
95
6
96
3
40
0.0
40
0.0
40
0.0
40
1.0
40
1.0
40
1.0
10
191.6
20
16.47
10
191.6
20
16.97
10
191.12
20
16.97
72
1
10
191.12
20
16.97
11
190.74
21
16.97
72
1
10
190.74
20
16.97
11
190.74
21
16.97
72
4
94
3
73
0
74
0
95
8
96
4
40
0.0
40
0.0
40
0.0
40
0.0
40
1.0
40
1.0
40
1.0
40
1.0
10
190.74
20
16.97
10
190.3817889599
20
16.9644029525
10
190.091194095
20
16.6782110401
10
190.08
20
16.32
72
1
10
190.08
20
16.32
11
189.9
21
10.93
72
4
94
2
73
0
74
0
95
6
96
3
40
0.0
40
0.0
40
0.0
40
1.0
40
1.0
40
1.0
10
189.9
20
10.93
10
189.81
20
8.37
10
187.38
20
8.31
72
4
94
2
73
0
74
0
95
6
96
3
40
0.0
40
0.0
40
0.0
40
1.0
40
1.0
40
1.0
10
187.38
20
8.31
10
187.15
20
8.3
10
187.06
20
8.3
72
4
94
2
73
0
74
0
95
6
96
3
40
0.0
40
0.0
40
0.0
40
1.0
40
1.0
40
1.0
10
187.06
20
8.3
10
184.46
20
8.38
10
184.43
20
10.76
72
1
10
184.43
20
10.76
11
184.35
21
16.39
72
1
10
184.35
20
16.39
11
184.35
21
16.39
72
4
94
3
73
0
74
0
95
8
96
4
40
0.0
40
0.0
40
0.0
40
0.0
40
1.0
40
1.0
40
1.0
40
1.0
10
184.35
20
16.39
10
184.35
20
16.6716652224
10
184.1171880699
20
16.9
10
183.83
20
16.9
72
1
10
183.83
20
16.9
11
183.24
21
16.9
72
4
94
2
73
0
74
0
95
6
96
3
40
0.0
40
0.0
40
0.0
40
1.0
40
1.0
40
1.0
10
183.24
20
16.9
10
182.76
20
16.89
10
182.75
20
16.41
72
4
94
2
73
0
74
0
95
6
96
3
40
0.0
40
0.0
40
0.0
40
1.0
40
1.0
40
1.0
10
182.75
20
16.41
10
182.73
20
14.96
10
182.74
20
11.74
72
4
94
2
73
0
74
0
95
6
96
3
40
0.0
40
0.0
40
0.0
40
1.0
40
1.0
40
1.0
10
182.74
20
11.74
10
182.75
20
8.74
10
184.18
20
7.76
72
4
94
2
73
0
74
0
95
6
96
3
40
0.0
40
0.0
40
0.0
40
1.0
40
1.0
40
1.0
10
184.18
20
7.76
10
186.83
20
5.93
10
189.16
20
7.78
72
4
94
2
73
0
74
0
95
6
96
3
40
0.0
40
0.0
40
0.0
40
1.0
40
1.0
40
1.0
10
189.16
20
7.78
10
189.63
20
8.15
10
189.87
20
7.6
97
0
75
0
76
1
98
0
0
HATCH
5
449
100
AcDbEntity
8
Layer 1
6
Solid
370
0
62
7
100
AcDbHatch
10
0
20
0
30
0
210
0
220
0
230
1
2
FILL_1097
70
1
71
0
91
1
92
0
93
24
72
4
94
2
73
0
74
0
95
6
96
3
40
0.0
40
0.0
40
0.0
40
1.0
40
1.0
40
1.0
10
124.27
20
172.6
10
134.66
20
181.77
10
147.08
20
184.41
72
4
94
3
73
0
74
0
95
8
96
4
40
0.0
40
0.0
40
0.0
40
0.0
40
1.0
40
1.0
40
1.0
40
1.0
10
147.08
20
184.41
10
164.14
20
188.04
10
181.23
20
182.45
10
193.13
20
169.61
72
4
94
2
73
0
74
0
95
6
96
3
40
0.0
40
0.0
40
0.0
40
1.0
40
1.0
40
1.0
10
193.13
20
169.61
10
199.7
20
162.52
10
203.47
20
152.38
72
4
94
2
73
0
74
0
95
6
96
3
40
0.0
40
0.0
40
0.0
40
1.0
40
1.0
40
1.0
10
203.47
20
152.38
10
203.63
20
151.93
10
204.11
20
151.83
72
4
94
2
73
0
74
0
95
6
96
3
40
0.0
40
0.0
40
0.0
40
1.0
40
1.0
40
1.0
10
204.11
20
151.83
10
224.07
20
147.54
10
236.84
20
135.04
72
4
94
2
73
0
74
0
95
6
96
3
40
0.0
40
0.0
40
0.0
40
1.0
40
1.0
40
1.0
10
236.84
20
135.04
10
247.02
20
125.09
10
250.6
20
108.8
72
4
94
2
73
0
74
0
95
6
96
3
40
0.0
40
0.0
40
0.0
40
1.0
40
1.0
40
1.0
10
250.6
20
108.8
10
250.69
20
108.39
10
251.16
20
108.35
72
1
10
251.16
20
108.35
11
288.1
21
105.5
72
4
94
2
73
0
74
0
95
6
96
3
40
0.0
40
0.0
40
0.0
40
1.0
40
1.0
40
1.0
10
288.1
20
105.5
10
288.17
20
105.5
10
288.17
20
105.4
72
4
94
2
73
0
74
0
95
6
96
3
40
0.0
40
0.0
40
0.0
40
1.0
40
1.0
40
1.0
10
288.17
20
105.4
10
288.18
20
105.38
10
288.18
20
105.36
72
4
94
2
73
0
74
0
95
6
96
3
40
0.0
40
0.0
40
0.0
40
1.0
40
1.0
40
1.0
10
288.18
20
105.36
10
288.18
20
105.33
10
288.14
20
105.33
72
1
10
288.14
20
105.33
11
7.68
21
104.26
72
4
94
3
73
0
74
0
95
8
96
4
40
0.0
40
0.0
40
0.0
40
0.0
40
1.0
40
1.0
40
1.0
40
1.0
10
7.68
20
104.26
10
7.6297041293
20
104.26
10
7.5837057842
20
104.2889197111
10
7.5622133117
20
104.3340539032
72
4
94
3
73
0
74
0
95
8
96
4
40
0.0
40
0.0
40
0.0
40
0.0
40
1.0
40
1.0
40
1.0
40
1.0
10
7.5622133117
20
104.3340539032
10
7.5407208393
20
104.3791880952
10
7.5476669403
20
104.432278097
10
7.58
20
104.47
72
1
10
7.58
20
104.47
11
7.76
21
104.69
72
4
94
2
73
0
74
0
95
6
96
3
40
0.0
40
0.0
40
0.0
40
1.0
40
1.0
40
1.0
10
7.76
20
104.69
10
7.78
20
104.71
10
7.8
20
104.71
72
1
10
7.8
20
104.71
11
45.42
21
108.1
72
1
10
45.42
20
108.1
11
45.42
21
108.1
72
4
94
3
73
0
74
0
95
8
96
4
40
0.0
40
0.0
40
0.0
40
0.0
40
1.0
40
1.0
40
1.0
40
1.0
10
45.42
20
108.1
10
45.7422739952
20
108.1309878842
10
46.0236533097
20
108.328713889
10
46.16
20
108.62
72
4
94
2
73
0
74
0
95
6
96
3
40
0.0
40
0.0
40
0.0
40
1.0
40
1.0
40
1.0
10
46.16
20
108.62
10
51.86
20
120.65
10
64.18
20
127.98
72
4
94
3
73
0
74
0
95
8
96
4
40
0.0
40
0.0
40
0.0
40
0.0
40
1.0
40
1.0
40
1.0
40
1.0
10
64.18
20
127.98
10
64.4456976471
20
128.1381533614
10
64.6257170588
20
128.4063455462
10
64.67
20
128.71
72
4
94
2
73
0
74
0
95
6
96
3
40
0.0
40
0.0
40
0.0
40
1.0
40
1.0
40
1.0
10
64.67
20
128.71
10
68.21
20
154.37
10
89.38
20
166.85
72
4
94
2
73
0
74
0
95
6
96
3
40
0.0
40
0.0
40
0.0
40
1.0
40
1.0
40
1.0
10
89.38
20
166.85
10
104.84
20
175.96
10
123.46
20
172.38
72
4
94
2
73
0
74
0
95
6
96
3
40
0.0
40
0.0
40
0.0
40
1.0
40
1.0
40
1.0
10
123.46
20
172.38
10
123.92
20
172.29
10
124.27
20
172.6
97
0
75
0
76
1
98
0
0
HATCH
5
571
100
AcDbEntity
8
Layer 1
6
Solid
370
0
62
7
100
AcDbHatch
10
0
20
0
30
0
210
0
220
0
230
1
2
FILL_1393
70
1
71
0
91
2
92
0
93
143
72
1
10
81.03
20
95.74
11
81.62
21
94.88
72
4
94
2
73
0
74
0
95
6
96
3
40
0.0
40
0.0
40
0.0
40
1.0
40
1.0
40
1.0
10
81.62
20
94.88
10
81.89
20
94.49
10
81.48
20
94.25
72
1
10
81.48
20
94.25
11
77.24
21
91.8
72
4
94
2
73
0
74
0
95
6
96
3
40
0.0
40
0.0
40
0.0
40
1.0
40
1.0
40
1.0
10
77.24
20
91.8
10
76.77
20
91.53
10
76.52
20
92.01
72
4
94
3
73
0
74
0
95
8
96
4
40
0.0
40
0.0
40
0.0
40
0.0
40
1.0
40
1.0
40
1.0
40
1.0
10
76.52
20
92.01
10
73.21
20
98.39
10
63.23
20
94.94
10
64.84
20
87.78
72
4
94
2
73
0
74
0
95
6
96
3
40
0.0
40
0.0
40
0.0
40
1.0
40
1.0
40
1.0
10
64.84
20
87.78
10
65.45
20
85.09
10
67.92
20
83.63
72
1
10
67.92
20
83.63
11
67.92
21
83.63
72
4
94
3
73
0
74
0
95
8
96
4
40
0.0
40
0.0
40
0.0
40
0.0
40
1.0
40
1.0
40
1.0
40
1.0
10
67.92
20
83.63
10
68.2134034561
20
83.4583866578
10
68.3116133422
20
83.0789393704
10
68.14
20
82.78
72
1
10
68.14
20
82.78
11
65.94
21
78.97
72
4
94
2
73
0
74
0
95
6
96
3
40
0.0
40
0.0
40
0.0
40
1.0
40
1.0
40
1.0
10
65.94
20
78.97
10
65.69
20
78.53
10
65.19
20
78.62
72
4
94
2
73
0
74
0
95
6
96
3
40
0.0
40
0.0
40
0.0
40
1.0
40
1.0
40
1.0
10
65.19
20
78.62
10
64.82
20
78.69
10
64.46
20
78.91
72
4
94
2
73
0
74
0
95
6
96
3
40
0.0
40
0.0
40
0.0
40
1.0
40
1.0
40
1.0
10
64.46
20
78.91
10
64.06
20
79.17
10
64.14
20
79.65
72
1
10
64.14
20
79.65
11
64.4
21
81.14
72
4
94
2
73
0
74
0
95
6
96
3
40
0.0
40
0.0
40
0.0
40
1.0
40
1.0
40
1.0
10
64.4
20
81.14
10
64.49
20
81.64
10
64.17
20
82.03
72
4
94
2
73
0
74
0
95
6
96
3
40
0.0
40
0.0
40
0.0
40
1.0
40
1.0
40
1.0
10
64.17
20
82.03
10
63.84
20
82.44
10
63.33
20
82.58
72
4
94
2
73
0
74
0
95
6
96
3
40
0.0
40
0.0
40
0.0
40
1.0
40
1.0
40
1.0
10
63.33
20
82.58
10
62.91
20
82.69
10
62.2
20
82.42
72
4
94
2
73
0
74
0
95
6
96
3
40
0.0
40
0.0
40
0.0
40
1.0
40
1.0
40
1.0
10
62.2
20
82.42
10
61.94
20
82.31
10
61.65
20
82.25
72
4
94
2
73
0
74
0
95
6
96
3
40
0.0
40
0.0
40
0.0
40
1.0
40
1.0
40
1.0
10
61.65
20
82.25
10
61.12
20
82.12
10
60.8
20
82.56
72
4
94
2
73
0
74
0
95
6
96
3
40
0.0
40
0.0
40
0.0
40
1.0
40
1.0
40
1.0
10
60.8
20
82.56
10
60.15
20
83.47
10
60.14
20
84.0
72
4
94
2
73
0
74
0
95
6
96
3
40
0.0
40
0.0
40
0.0
40
1.0
40
1.0
40
1.0
10
60.14
20
84.0
10
60.12
20
84.55
10
60.62
20
84.77
72
4
94
2
73
0
74
0
95
6
96
3
40
0.0
40
0.0
40
0.0
40
1.0
40
1.0
40
1.0
10
60.62
20
84.77
10
62.03
20
85.43
10
61.15
20
87.14
72
4
94
2
73
0
74
0
95
6
96
3
40
0.0
40
0.0
40
0.0
40
1.0
40
1.0
40
1.0
10
61.15
20
87.14
10
60.9
20
87.63
10
60.35
20
87.66
72
1
10
60.35
20
87.66
11
59.56
21
87.71
72
4
94
3
73
0
74
0
95
8
96
4
40
0.0
40
0.0
40
0.0
40
0.0
40
1.0
40
1.0
40
1.0
40
1.0
10
59.56
20
87.71
10
59.2403484588
20
87.7336778919
10
58.9751142028
20
87.9662679317
10
58.91
20
88.28
72
4
94
2
73
0
74
0
95
6
96
3
40
0.0
40
0.0
40
0.0
40
1.0
40
1.0
40
1.0
10
58.91
20
88.28
10
58.72
20
89.21
10
58.99
20
89.99
72
4
94
2
73
0
74
0
95
6
96
3
40
0.0
40
0.0
40
0.0
40
1.0
40
1.0
40
1.0
10
58.99
20
89.99
10
59.17
20
90.52
10
59.73
20
90.5
72
4
94
2
73
0
74
0
95
6
96
3
40
0.0
40
0.0
40
0.0
40
1.0
40
1.0
40
1.0
10
59.73
20
90.5
10
60.89
20
90.47
10
61.58
20
91.99
72
4
94
2
73
0
74
0
95
6
96
3
40
0.0
40
0.0
40
0.0
40
1.0
40
1.0
40
1.0
10
61.58
20
91.99
10
61.73
20
92.31
10
61.48
20
92.55
72
1
10
61.48
20
92.55
11
60.4
21
93.64
72
4
94
2
73
0
74
0
95
6
96
3
40
0.0
40
0.0
40
0.0
40
1.0
40
1.0
40
1.0
10
60.4
20
93.64
10
59.93
20
94.11
10
60.17
20
94.73
72
4
94
2
73
0
74
0
95
6
96
3
40
0.0
40
0.0
40
0.0
40
1.0
40
1.0
40
1.0
10
60.17
20
94.73
10
60.44
20
95.41
10
61.22
20
95.96
72
1
10
61.22
20
95.96
11
61.22
21
95.96
72
4
94
3
73
0
74
0
95
8
96
4
40
0.0
40
0.0
40
0.0
40
0.0
40
1.0
40
1.0
40
1.0
40
1.0
10
61.22
20
95.96
10
61.5105512935
20
96.16160702
10
61.8972375612
20
96.1493958747
10
62.17
20
95.93
72
4
94
2
73
0
74
0
95
6
96
3
40
0.0
40
0.0
40
0.0
40
1.0
40
1.0
40
1.0
10
62.17
20
95.93
10
63.15
20
95.15
10
64.32
20
96.43
72
1
10
64.32
20
96.43
11
64.32
21
96.43
72
4
94
3
73
0
74
0
95
8
96
4
40
0.0
40
0.0
40
0.0
40
0.0
40
1.0
40
1.0
40
1.0
40
1.0
10
64.32
20
96.43
10
64.4389956514
20
96.5581491631
10
64.4726057477
20
96.7434439316
10
64.4063278897
20
96.9059315835
72
4
94
3
73
0
74
0
95
8
96
4
40
0.0
40
0.0
40
0.0
40
0.0
40
1.0
40
1.0
40
1.0
40
1.0
10
64.4063278897
20
96.9059315835
10
64.3400500317
20
97.0684192353
10
64.1857474237
20
97.179015786
10
64.01
20
97.19
72
1
10
64.01
20
97.19
11
7.79
21
100.74
72
4
94
2
73
0
74
0
95
6
96
3
40
0.0
40
0.0
40
0.0
40
1.0
40
1.0
40
1.0
10
7.79
20
100.74
10
7.62
20
100.75
10
7.6
20
101.0
72
4
94
2
73
0
74
0
95
6
96
3
40
0.0
40
0.0
40
0.0
40
1.0
40
1.0
40
1.0
10
7.6
20
101.0
10
7.57
20
101.18
10
7.72
20
101.18
72
1
10
7.72
20
101.18
11
117.5
21
102.79
72
4
94
2
73
0
74
0
95
6
96
3
40
0.0
40
0.0
40
0.0
40
1.0
40
1.0
40
1.0
10
117.5
20
102.79
10
118.02
20
102.8
10
118.05
20
102.28
72
4
94
2
73
0
74
0
95
6
96
3
40
0.0
40
0.0
40
0.0
40
1.0
40
1.0
40
1.0
10
118.05
20
102.28
10
118.82
20
88.59
10
128.24
20
80.33
72
4
94
2
73
0
74
0
95
6
96
3
40
0.0
40
0.0
40
0.0
40
1.0
40
1.0
40
1.0
10
128.24
20
80.33
10
136.06
20
73.47
10
146.35
20
72.92
72
4
94
2
73
0
74
0
95
6
96
3
40
0.0
40
0.0
40
0.0
40
1.0
40
1.0
40
1.0
10
146.35
20
72.92
10
160.81
20
72.15
10
170.81
20
83.4
72
4
94
2
73
0
74
0
95
6
96
3
40
0.0
40
0.0
40
0.0
40
1.0
40
1.0
40
1.0
10
170.81
20
83.4
10
177.44
20
90.87
10
177.94
20
102.24
72
4
94
2
73
0
74
0
95
6
96
3
40
0.0
40
0.0
40
0.0
40
1.0
40
1.0
40
1.0
10
177.94
20
102.24
10
177.97
20
102.78
10
178.51
20
102.78
72
4
94
2
73
0
74
0
95
6
96
3
40
0.0
40
0.0
40
0.0
40
1.0
40
1.0
40
1.0
10
178.51
20
102.78
10
237.3
20
102.68
10
280.02
20
102.79
72
4
94
2
73
0
74
0
95
6
96
3
40
0.0
40
0.0
40
0.0
40
1.0
40
1.0
40
1.0
10
280.02
20
102.79
10
284.3
20
102.8
10
286.23
20
102.62
72
4
94
2
73
0
74
0
95
6
96
3
40
0.0
40
0.0
40
0.0
40
1.0
40
1.0
40
1.0
10
286.23
20
102.62
10
287.11
20
102.53
10
286.23
20
102.47
72
1
10
286.23
20
102.47
11
233.2
21
98.4
72
4
94
2
73
0
74
0
95
6
96
3
40
0.0
40
0.0
40
0.0
40
1.0
40
1.0
40
1.0
10
233.2
20
98.4
10
232.34
20
98.33
10
232.28
20
97.47
72
4
94
2
73
0
74
0
95
6
96
3
40
0.0
40
0.0
40
0.0
40
1.0
40
1.0
40
1.0
10
232.28
20
97.47
10
232.24
20
96.91
10
232.71
20
96.22
72
4
94
3
73
0
74
0
95
8
96
4
40
0.0
40
0.0
40
0.0
40
0.0
40
1.0
40
1.0
40
1.0
40
1.0
10
232.71
20
96.22
10
233.0382460212
20
95.7217694321
10
233.6672925351
20
95.5148462368
10
234.23
20
95.72
72
1
10
234.23
20
95.72
11
235.11
21
96.03
72
4
94
2
73
0
74
0
95
6
96
3
40
0.0
40
0.0
40
0.0
40
1.0
40
1.0
40
1.0
10
235.11
20
96.03
10
235.79
20
96.28
10
236.04
20
95.59
72
1
10
236.04
20
95.59
11
236.52
21
94.24
72
4
94
2
73
0
74
0
95
6
96
3
40
0.0
40
0.0
40
0.0
40
1.0
40
1.0
40
1.0
10
236.52
20
94.24
10
236.68
20
93.79
10
236.26
20
93.57
72
4
94
2
73
0
74
0
95
6
96
3
40
0.0
40
0.0
40
0.0
40
1.0
40
1.0
40
1.0
10
236.26
20
93.57
10
234.62
20
92.72
10
235.57
20
91.11
72
4
94
2
73
0
74
0
95
6
96
3
40
0.0
40
0.0
40
0.0
40
1.0
40
1.0
40
1.0
10
235.57
20
91.11
10
235.85
20
90.64
10
236.39
20
90.6
72
1
10
236.39
20
90.6
11
236.94
21
90.57
72
4
94
2
73
0
74
0
95
6
96
3
40
0.0
40
0.0
40
0.0
40
1.0
40
1.0
40
1.0
10
236.94
20
90.57
10
237.6
20
90.53
10
237.73
20
89.89
72
4
94
2
73
0
74
0
95
6
96
3
40
0.0
40
0.0
40
0.0
40
1.0
40
1.0
40
1.0
10
237.73
20
89.89
10
237.93
20
89.01
10
237.71
20
88.18
72
1
10
237.71
20
88.18
11
237.71
21
88.18
72
4
94
3
73
0
74
0
95
8
96
4
40
0.0
40
0.0
40
0.0
40
0.0
40
1.0
40
1.0
40
1.0
40
1.0
10
237.71
20
88.18
10
237.6228731099
20
87.8547262768
10
237.3168906419
20
87.6367661626
10
236.98
20
87.66
72
1
10
236.98
20
87.66
11
236.32
21
87.7
72
1
10
236.32
20
87.7
11
236.32
21
87.7
72
4
94
3
73
0
74
0
95
8
96
4
40
0.0
40
0.0
40
0.0
40
0.0
40
1.0
40
1.0
40
1.0
40
1.0
10
236.32
20
87.7
10
236.0049601903
20
87.7181753736
10
235.7093445312
20
87.5447475203
10
235.57
20
87.26
72
4
94
2
73
0
74
0
95
6
96
3
40
0.0
40
0.0
40
0.0
40
1.0
40
1.0
40
1.0
10
235.57
20
87.26
10
234.71
20
85.46
10
236.32
20
84.53
72
4
94
2
73
0
74
0
95
6
96
3
40
0.0
40
0.0
40
0.0
40
1.0
40
1.0
40
1.0
10
236.32
20
84.53
10
236.84
20
84.24
10
236.54
20
83.73
72
1
10
236.54
20
83.73
11
235.83
21
82.49
72
4
94
2
73
0
74
0
95
6
96
3
40
0.0
40
0.0
40
0.0
40
1.0
40
1.0
40
1.0
10
235.83
20
82.49
10
235.58
20
82.07
10
235.12
20
82.2
72
1
10
235.12
20
82.2
11
233.78
21
82.57
72
4
94
2
73
0
74
0
95
6
96
3
40
0.0
40
0.0
40
0.0
40
1.0
40
1.0
40
1.0
10
233.78
20
82.57
10
233.34
20
82.69
10
232.98
20
82.4
72
4
94
2
73
0
74
0
95
6
96
3
40
0.0
40
0.0
40
0.0
40
1.0
40
1.0
40
1.0
10
232.98
20
82.4
10
231.71
20
81.37
10
232.65
20
79.85
72
4
94
2
73
0
74
0
95
6
96
3
40
0.0
40
0.0
40
0.0
40
1.0
40
1.0
40
1.0
10
232.65
20
79.85
10
233.09
20
79.12
10
232.29
20
78.83
72
1
10
232.29
20
78.83
11
231.12
21
78.41
72
4
94
2
73
0
74
0
95
6
96
3
40
0.0
40
0.0
40
0.0
40
1.0
40
1.0
40
1.0
10
231.12
20
78.41
10
230.44
20
78.16
10
230.19
20
78.84
72
1
10
230.19
20
78.84
11
228.67
21
83.07
72
4
94
2
73
0
74
0
95
6
96
3
40
0.0
40
0.0
40
0.0
40
1.0
40
1.0
40
1.0
10
228.67
20
83.07
10
228.52
20
83.51
10
228.92
20
83.74
72
4
94
3
73
0
74
0
95
8
96
4
40
0.0
40
0.0
40
0.0
40
0.0
40
1.0
40
1.0
40
1.0
40
1.0
10
228.92
20
83.74
10
234.42
20
87.02
10
232.12
20
95.32
10
225.64
20
95.34
72
4
94
2
73
0
74
0
95
6
96
3
40
0.0
40
0.0
40
0.0
40
1.0
40
1.0
40
1.0
10
225.64
20
95.34
10
221.99
20
95.35
10
220.04
20
91.57
72
4
94
2
73
0
74
0
95
6
96
3
40
0.0
40
0.0
40
0.0
40
1.0
40
1.0
40
1.0
10
220.04
20
91.57
10
219.8
20
91.1
10
219.35
20
91.36
72
1
10
219.35
20
91.36
11
215.59
21
93.53
72
4
94
2
73
0
74
0
95
6
96
3
40
0.0
40
0.0
40
0.0
40
1.0
40
1.0
40
1.0
10
215.59
20
93.53
10
214.71
20
94.04
10
215.22
20
94.93
72
1
10
215.22
20
94.93
11
215.6
21
95.59
72
4
94
2
73
0
74
0
95
6
96
3
40
0.0
40
0.0
40
0.0
40
1.0
40
1.0
40
1.0
10
215.6
20
95.59
10
216.14
20
96.52
10
217.04
20
95.94
72
4
94
2
73
0
74
0
95
6
96
3
40
0.0
40
0.0
40
0.0
40
1.0
40
1.0
40
1.0
10
217.04
20
95.94
10
218.22
20
95.19
10
219.33
20
96.76
72
1
10
219.33
20
96.76
11
219.33
21
96.76
72
4
94
3
73
0
74
0
95
8
96
4
40
0.0
40
0.0
40
0.0
40
0.0
40
1.0
40
1.0
40
1.0
40
1.0
10
219.33
20
96.76
10
219.4117633313
20
96.8781025896
10
219.4188296007
20
97.0329325629
10
219.3481276177
20
97.1571966542
72
4
94
3
73
0
74
0
95
8
96
4
40
0.0
40
0.0
40
0.0
40
0.0
40
1.0
40
1.0
40
1.0
40
1.0
10
219.3481276177
20
97.1571966542
10
219.2774256347
20
97.2814607456
10
219.1417231075
20
97.3527187404
10
219.0
20
97.34
72
1
10
219.0
20
97.34
11
195.15
21
95.52
72
4
94
2
73
0
74
0
95
6
96
3
40
0.0
40
0.0
40
0.0
40
1.0
40
1.0
40
1.0
10
195.15
20
95.52
10
194.79
20
95.49
10
194.7
20
95.15
72
1
10
194.7
20
95.15
11
192.5
21
87.18
72
4
94
2
73
0
74
0
95
6
96
3
40
0.0
40
0.0
40
0.0
40
1.0
40
1.0
40
1.0
10
192.5
20
87.18
10
192.2
20
86.09
10
193.06
20
85.37
72
1
10
193.06
20
85.37
11
199.8
21
79.72
72
4
94
2
73
0
74
0
95
6
96
3
40
0.0
40
0.0
40
0.0
40
1.0
40
1.0
40
1.0
10
199.8
20
79.72
10
200.28
20
79.32
10
199.97
20
78.77
72
1
10
199.97
20
78.77
11
195.33
21
70.74
72
1
10
195.33
20
70.74
11
195.33
21
70.74
72
4
94
3
73
0
74
0
95
8
96
4
40
0.0
40
0.0
40
0.0
40
0.0
40
1.0
40
1.0
40
1.0
40
1.0
10
195.33
20
70.74
10
194.9582596932
20
70.1010713476
10
194.1828215176
20
69.8160454236
10
193.48
20
70.06
72
1
10
193.48
20
70.06
11
185.12
21
72.99
72
1
10
185.12
20
72.99
11
185.12
21
72.99
72
4
94
3
73
0
74
0
95
8
96
4
40
0.0
40
0.0
40
0.0
40
0.0
40
1.0
40
1.0
40
1.0
40
1.0
10
185.12
20
72.99
10
184.9722656163
20
73.0392447946
10
184.8069563871
20
73.0008007878
10
184.69
20
72.89
72
1
10
184.69
20
72.89
11
178.41
21
66.61
72
4
94
2
73
0
74
0
95
6
96
3
40
0.0
40
0.0
40
0.0
40
1.0
40
1.0
40
1.0
10
178.41
20
66.61
10
177.97
20
66.17
10
178.18
20
65.58
72
1
10
178.18
20
65.58
11
181.24
21
57.08
72
4
94
3
73
0
74
0
95
8
96
4
40
0.0
40
0.0
40
0.0
40
0.0
40
1.0
40
1.0
40
1.0
40
1.0
10
181.24
20
57.08
10
181.4023545085
20
56.6161299756
10
181.2132813973
20
56.1035317628
10
180.79
20
55.86
72
1
10
180.79
20
55.86
11
172.81
21
51.25
72
4
94
2
73
0
74
0
95
6
96
3
40
0.0
40
0.0
40
0.0
40
1.0
40
1.0
40
1.0
10
172.81
20
51.25
10
171.91
20
50.73
10
171.22
20
51.52
72
1
10
171.22
20
51.52
11
165.42
21
58.25
72
4
94
2
73
0
74
0
95
6
96
3
40
0.0
40
0.0
40
0.0
40
1.0
40
1.0
40
1.0
10
165.42
20
58.25
10
165.11
20
58.61
10
164.65
20
58.49
72
1
10
164.65
20
58.49
11
156.1
21
56.18
72
4
94
2
73
0
74
0
95
6
96
3
40
0.0
40
0.0
40
0.0
40
1.0
40
1.0
40
1.0
10
156.1
20
56.18
10
155.62
20
56.06
10
155.54
20
55.57
72
1
10
155.54
20
55.57
11
154.02
21
46.92
72
1
10
154.02
20
46.92
11
154.02
21
46.92
72
4
94
3
73
0
74
0
95
8
96
4
40
0.0
40
0.0
40
0.0
40
0.0
40
1.0
40
1.0
40
1.0
40
1.0
10
154.02
20
46.92
10
153.9099299223
20
46.2885453438
10
153.3630409802
20
45.825793162
10
152.72
20
45.82
72
1
10
152.72
20
45.82
11
143.5
21
45.68
72
1
10
143.5
20
45.68
11
143.5
21
45.68
72
4
94
3
73
0
74
0
95
8
96
4
40
0.0
40
0.0
40
0.0
40
0.0
40
1.0
40
1.0
40
1.0
40
1.0
10
143.5
20
45.68
10
143.0148238969
20
45.674224094
10
142.5966385898
20
46.0163757088
10
142.51
20
46.49
72
1
10
142.51
20
46.49
11
140.84
21
55.59
72
4
94
2
73
0
74
0
95
6
96
3
40
0.0
40
0.0
40
0.0
40
1.0
40
1.0
40
1.0
10
140.84
20
55.59
10
140.78
20
55.94
10
140.44
20
56.03
72
1
10
140.44
20
56.03
11
131.65
21
58.45
72
4
94
3
73
0
74
0
95
8
96
4
40
0.0
40
0.0
40
0.0
40
0.0
40
1.0
40
1.0
40
1.0
40
1.0
10
131.65
20
58.45
10
131.4374992747
20
58.5107144929
10
131.2096433338
20
58.4400005802
10
131.07
20
58.27
72
1
10
131.07
20
58.27
11
125.17
21
51.24
72
4
94
3
73
0
74
0
95
8
96
4
40
0.0
40
0.0
40
0.0
40
0.0
40
1.0
40
1.0
40
1.0
40
1.0
10
125.17
20
51.24
10
124.8175663345
20
50.8124575205
10
124.2053184903
20
50.7026751484
10
123.72
20
50.98
72
1
10
123.72
20
50.98
11
115.5
21
55.73
72
1
10
115.5
20
55.73
11
115.5
21
55.73
72
4
94
3
73
0
74
0
95
8
96
4
40
0.0
40
0.0
40
0.0
40
0.0
40
1.0
40
1.0
40
1.0
40
1.0
10
115.5
20
55.73
10
115.1459008552
20
55.9331716405
10
114.9864872077
20
56.3610714311
10
115.12
20
56.75
72
1
10
115.12
20
56.75
11
118.23
21
65.64
72
4
94
2
73
0
74
0
95
6
96
3
40
0.0
40
0.0
40
0.0
40
1.0
40
1.0
40
1.0
10
118.23
20
65.64
10
118.34
20
65.93
10
118.12
20
66.15
72
1
10
118.12
20
66.15
11
111.86
21
72.41
72
4
94
2
73
0
74
0
95
6
96
3
40
0.0
40
0.0
40
0.0
40
1.0
40
1.0
40
1.0
10
111.86
20
72.41
10
111.44
20
72.83
10
110.88
20
72.63
72
1
10
110.88
20
72.63
11
102.62
21
69.66
72
4
94
3
73
0
74
0
95
8
96
4
40
0.0
40
0.0
40
0.0
40
0.0
40
1.0
40
1.0
40
1.0
40
1.0
10
102.62
20
69.66
10
102.0062479418
20
69.4399756773
10
101.3242463703
20
69.6883589657
10
101.0
20
70.25
72
1
10
101.0
20
70.25
11
96.32
21
78.36
72
4
94
3
73
0
74
0
95
8
96
4
40
0.0
40
0.0
40
0.0
40
0.0
40
1.0
40
1.0
40
1.0
40
1.0
10
96.32
20
78.36
10
96.1230304035
20
78.6960069587
10
96.1945456053
20
79.1250981693
10
96.49
20
79.38
72
1
10
96.49
20
79.38
11
103.48
21
85.41
72
1
10
103.48
20
85.41
11
103.48
21
85.41
72
4
94
3
73
0
74
0
95
8
96
4
40
0.0
40
0.0
40
0.0
40
0.0
40
1.0
40
1.0
40
1.0
40
1.0
10
103.48
20
85.41
10
103.7424583089
20
85.6358362193
10
103.851555224
20
85.9904011934
10
103.76
20
86.32
72
1
10
103.76
20
86.32
11
101.51
21
94.7
72
4
94
2
73
0
74
0
95
6
96
3
40
0.0
40
0.0
40
0.0
40
1.0
40
1.0
40
1.0
10
101.51
20
94.7
10
101.4
20
95.08
10
101.01
20
95.1
72
1
10
101.01
20
95.1
11
81.37
21
96.34
72
4
94
2
73
0
74
0
95
6
96
3
40
0.0
40
0.0
40
0.0
40
1.0
40
1.0
40
1.0
10
81.37
20
96.34
10
80.58
20
96.39
10
81.03
20
95.74
97
0
92
0
93
4
72
4
94
2
73
0
74
0
95
6
96
3
40
0.0
40
0.0
40
0.0
40
1.0
40
1.0
40
1.0
10
78.29
20
96.39
10
78.08
20
96.37
10
78.12
20
96.16
72
4
94
2
73
0
74
0
95
6
96
3
40
0.0
40
0.0
40
0.0
40
1.0
40
1.0
40
1.0
10
78.12
20
96.16
10
78.27
20
95.47
10
79.19
20
95.71
72
4
94
2
73
0
74
0
95
6
96
3
40
0.0
40
0.0
40
0.0
40
1.0
40
1.0
40
1.0
10
79.19
20
95.71
10
80.16
20
95.97
10
79.31
20
96.4
72
4
94
2
73
0
74
0
95
6
96
3
40
0.0
40
0.0
40
0.0
40
1.0
40
1.0
40
1.0
10
79.31
20
96.4
10
79.15
20
96.49
10
78.29
20
96.39
97
0
75
0
76
1
98
0
0
HATCH
5
57b
100
AcDbEntity
8
Layer 1
6
Solid
370
0
62
0
100
AcDbHatch
10
0
20
0
30
0
210
0
220
0
230
1
2
FILL_1403
70
1
71
0
91
1
92
0
93
4
72
4
94
2
73
0
74
0
95
6
96
3
40
0.0
40
0.0
40
0.0
40
1.0
40
1.0
40
1.0
10
78.29
20
96.39
10
79.15
20
96.49
10
79.31
20
96.4
72
4
94
2
73
0
74
0
95
6
96
3
40
0.0
40
0.0
40
0.0
40
1.0
40
1.0
40
1.0
10
79.31
20
96.4
10
80.16
20
95.97
10
79.19
20
95.71
72
4
94
2
73
0
74
0
95
6
96
3
40
0.0
40
0.0
40
0.0
40
1.0
40
1.0
40
1.0
10
79.19
20
95.71
10
78.27
20
95.47
10
78.12
20
96.16
72
4
94
2
73
0
74
0
95
6
96
3
40
0.0
40
0.0
40
0.0
40
1.0
40
1.0
40
1.0
10
78.12
20
96.16
10
78.08
20
96.37
10
78.29
20
96.39
97
0
75
0
76
1
98
0
0
HATCH
5
639
100
AcDbEntity
8
Layer 1
6
Solid
370
0
62
7
100
AcDbHatch
10
0
20
0
30
0
210
0
220
0
230
1
2
FILL_1593
70
1
71
0
91
1
92
0
93
94
72
1
10
93.1007323064
20
49.7971319552
11
92.4638328693
21
46.3176102431
72
4
94
2
73
0
74
0
95
6
96
3
40
0.0
40
0.0
40
0.0
40
1.0
40
1.0
40
1.0
10
92.4638328693
20
46.3176102431
10
92.3643309394
20
45.7576897115
10
91.794497059
20
45.7572124114
72
1
10
91.794497059
20
45.7572124114
11
88.0155819469
21
45.7740413294
72
4
94
2
73
0
74
0
95
6
96
3
40
0.0
40
0.0
40
0.0
40
1.0
40
1.0
40
1.0
10
88.0155819469
20
45.7740413294
10
87.5657130939
20
45.7736645135
10
87.4853679668
20
46.2134692914
72
1
10
87.4853679668
20
46.2134692914
11
86.8525789142
21
49.7619071447
72
4
94
3
73
0
74
0
95
8
96
4
40
0.0
40
0.0
40
0.0
40
0.0
40
1.0
40
1.0
40
1.0
40
1.0
10
86.8525789142
20
49.7619071447
10
86.8043672712
20
50.0556560325
10
86.576093623
20
50.2875456354
10
86.28225936
20
50.3412608106
72
1
10
86.28225936
20
50.3412608106
11
83.0027128551
21
50.938339379
72
4
94
2
73
0
74
0
95
6
96
3
40
0.0
40
0.0
40
0.0
40
1.0
40
1.0
40
1.0
10
83.0027128551
20
50.938339379
10
82.6427591569
20
51.0080175257
10
82.4030635652
20
50.7278981598
72
1
10
82.4030635652
20
50.7278981598
11
80.1858709682
21
48.1467911113
72
4
94
2
73
0
74
0
95
6
96
3
40
0.0
40
0.0
40
0.0
40
1.0
40
1.0
40
1.0
10
80.1858709682
20
48.1467911113
10
79.8562769691
20
47.7766226117
10
79.4261929453
20
48.0261896837
72
1
10
79.4261929453
20
48.0261896837
11
76.0955556857
21
49.9428416856
72
1
10
76.0955556857
20
49.9428416856
11
76.0955556857
21
49.9428416856
72
4
94
3
73
0
74
0
95
8
96
4
40
0.0
40
0.0
40
0.0
40
0.0
40
1.0
40
1.0
40
1.0
40
1.0
10
76.0955556857
20
49.9428416856
10
75.8824019776
20
50.0635848755
10
75.7889293283
20
50.3220803973
10
75.8751090072
20
50.5524796874
72
1
10
75.8751090072
20
50.5524796874
11
77.0220859006
21
53.7625071457
72
4
94
2
73
0
74
0
95
6
96
3
40
0.0
40
0.0
40
0.0
40
1.0
40
1.0
40
1.0
10
77.0220859006
20
53.7625071457
10
77.1517465609
20
54.122511086
10
76.9015682098
20
54.4222143125
72
1
10
76.9015682098
20
54.4222143125
11
74.8601195638
21
56.8597949722
72
4
94
2
73
0
74
0
95
6
96
3
40
0.0
40
0.0
40
0.0
40
1.0
40
1.0
40
1.0
10
74.8601195638
20
56.8597949722
10
74.469848035
20
57.319334337
10
73.9001816283
20
57.1189153245
72
1
10
73.9001816283
20
57.1189153245
11
70.502160612
21
55.936412168
72
4
94
2
73
0
74
0
95
6
96
3
40
0.0
40
0.0
40
0.0
40
1.0
40
1.0
40
1.0
10
70.502160612
20
55.936412168
10
70.0824086212
20
55.7861041889
10
69.8621545375
20
56.1658092214
72
1
10
69.8621545375
20
56.1658092214
11
67.9599533269
21
59.4532593905
72
4
94
2
73
0
74
0
95
6
96
3
40
0.0
40
0.0
40
0.0
40
1.0
40
1.0
40
1.0
10
67.9599533269
20
59.4532593905
10
67.6696191596
20
59.9528708347
10
68.1091811005
20
60.3231314448
72
1
10
68.1091811005
20
60.3231314448
11
70.7665469175
21
62.5447118531
72
4
94
2
73
0
74
0
95
6
96
3
40
0.0
40
0.0
40
0.0
40
1.0
40
1.0
40
1.0
10
70.7665469175
20
62.5447118531
10
71.1961117729
20
62.9149640896
10
71.0157120527
20
63.4546559868
72
1
10
71.0157120527
20
63.4546559868
11
70.0036031571
21
66.3229738178
72
4
94
2
73
0
74
0
95
6
96
3
40
0.0
40
0.0
40
0.0
40
1.0
40
1.0
40
1.0
10
70.0036031571
20
66.3229738178
10
69.8332507646
20
66.802691575
10
69.3333211204
20
66.8922466613
72
1
10
69.3333211204
20
66.8922466613
11
66.5437071741
21
67.3997617697
72
4
94
2
73
0
74
0
95
6
96
3
40
0.0
40
0.0
40
0.0
40
1.0
40
1.0
40
1.0
10
66.5437071741
20
67.3997617697
10
65.5938333138
20
67.5789138107
10
65.5930294399
20
68.5386340303
72
1
10
65.5930294399
20
68.5386340303
11
65.6006400251
21
71.3878118061
72
4
94
2
73
0
74
0
95
6
96
3
40
0.0
40
0.0
40
0.0
40
1.0
40
1.0
40
1.0
10
65.6006400251
20
71.3878118061
10
65.5997524144
20
72.4475028819
10
66.6392985927
20
72.6283212864
72
1
10
66.6392985927
20
72.6283212864
11
69.3681010303
21
73.1104674124
72
4
94
3
73
0
74
0
95
8
96
4
40
0.0
40
0.0
40
0.0
40
0.0
40
1.0
40
1.0
40
1.0
40
1.0
10
69.3681010303
20
73.1104674124
10
69.6213109375
20
73.1539166776
10
69.8312830388
20
73.3298288181
10
69.91755555
20
73.5707939037
72
1
10
69.91755555
20
73.5707939037
11
70.9747596411
21
76.5408159439
72
4
94
2
73
0
74
0
95
6
96
3
40
0.0
40
0.0
40
0.0
40
1.0
40
1.0
40
1.0
10
70.9747596411
20
76.5408159439
10
71.1642855837
20
77.040829325
10
70.7541119942
20
77.3903840006
72
1
10
70.7541119942
20
77.3903840006
11
68.062953267
21
79.7074553433
72
4
94
2
73
0
74
0
95
6
96
3
40
0.0
40
0.0
40
0.0
40
1.0
40
1.0
40
1.0
10
68.062953267
20
79.7074553433
10
67.6227632996
20
80.0869761547
10
67.912268472
20
80.577076187
72
1
10
67.912268472
20
80.577076187
11
69.7490693942
21
83.7576901728
72
4
94
2
73
0
74
0
95
6
96
3
40
0.0
40
0.0
40
0.0
40
1.0
40
1.0
40
1.0
10
69.7490693942
20
83.7576901728
10
70.0385494456
20
84.2777814619
10
70.6085507997
20
84.0783170496
72
1
10
70.6085507997
20
84.0783170496
11
73.898580064
21
82.9014158889
72
4
94
2
73
0
74
0
95
6
96
3
40
0.0
40
0.0
40
0.0
40
1.0
40
1.0
40
1.0
10
73.898580064
20
82.9014158889
10
74.3885879858
20
82.7218786583
10
74.7381510351
20
83.1220551622
72
1
10
74.7381510351
20
83.1220551622
11
76.7456225499
21
85.4430621371
72
4
94
2
73
0
74
0
95
6
96
3
40
0.0
40
0.0
40
0.0
40
1.0
40
1.0
40
1.0
10
76.7456225499
20
85.4430621371
10
77.0751998016
20
85.833224808
10
76.9048474092
20
86.3129425652
72
1
10
76.9048474092
20
86.3129425652
11
75.8225830669
21
89.3911405784
72
4
94
2
73
0
74
0
95
6
96
3
40
0.0
40
0.0
40
0.0
40
1.0
40
1.0
40
1.0
10
75.8225830669
20
89.3911405784
10
75.642200094
20
89.9108383044
10
76.1218257406
20
90.1911586387
72
1
10
76.1218257406
20
90.1911586387
11
79.3293410932
21
92.0433074317
72
4
94
3
73
0
74
0
95
8
96
4
40
0.0
40
0.0
40
0.0
40
0.0
40
1.0
40
1.0
40
1.0
40
1.0
10
79.3293410932
20
92.0433074317
10
79.5943496669
20
92.199154538
10
79.9330549797
20
92.1401734576
10
80.1292251745
20
91.9040181279
72
1
10
80.1292251745
20
91.9040181279
11
82.2207094907
21
89.4064968229
72
4
94
2
73
0
74
0
95
6
96
3
40
0.0
40
0.0
40
0.0
40
1.0
40
1.0
40
1.0
10
82.2207094907
20
89.4064968229
10
82.5008958461
20
89.0868245463
10
82.9207148264
20
89.1571558404
72
1
10
82.9207148264
20
89.1571558404
11
86.0393449875
21
89.7096081395
72
4
94
2
73
0
74
0
95
6
96
3
40
0.0
40
0.0
40
0.0
40
1.0
40
1.0
40
1.0
10
86.0393449875
20
89.7096081395
10
86.6390780142
20
89.8200785025
10
86.7485519086
20
90.4099986647
72
1
10
86.7485519086
20
90.4099986647
11
87.3755045022
21
93.8295294893
72
1
10
87.3755045022
20
93.8295294893
11
87.3755045022
21
93.8295294893
72
4
94
3
73
0
74
0
95
8
96
4
40
0.0
40
0.0
40
0.0
40
0.0
40
1.0
40
1.0
40
1.0
40
1.0
10
87.3755045022
20
93.8295294893
10
87.4331779779
20
94.1424298488
10
87.7062175042
20
94.369649501
10
88.0248628885
20
94.3699164025
72
1
10
88.0248628885
20
94.3699164025
11
91.7337900277
21
94.3630259543
72
4
94
2
73
0
74
0
95
6
96
3
40
0.0
40
0.0
40
0.0
40
1.0
40
1.0
40
1.0
10
91.7337900277
20
94.3630259543
10
92.2636355656
20
94.3634697596
10
92.3640502271
20
93.8337079585
72
1
10
92.3640502271
20
93.8337079585
11
92.9767697453
21
90.3752271284
72
4
94
2
73
0
74
0
95
6
96
3
40
0.0
40
0.0
40
0.0
40
1.0
40
1.0
40
1.0
10
92.9767697453
20
90.3752271284
10
93.0671956949
20
89.8354598681
10
93.597116596
20
89.7459299028
72
1
10
93.597116596
20
89.7459299028
11
96.6166970063
21
89.1986190467
72
4
94
2
73
0
74
0
95
6
96
3
40
0.0
40
0.0
40
0.0
40
1.0
40
1.0
40
1.0
10
96.6166970063
20
89.1986190467
10
97.0466386775
20
89.1190024303
10
97.3262807433
20
89.449140719
72
1
10
97.3262807433
20
89.449140719
11
99.2837417089
21
91.8000970824
72
4
94
2
73
0
74
0
95
6
96
3
40
0.0
40
0.0
40
0.0
40
1.0
40
1.0
40
1.0
10
99.2837417089
20
91.8000970824
10
100.2025608543
20
92.8905497942
10
101.2934908662
20
91.4018967683
72
4
94
2
73
0
74
0
95
6
96
3
40
0.0
40
0.0
40
0.0
40
1.0
40
1.0
40
1.0
10
101.2934908662
20
91.4018967683
10
101.8239476832
20
90.6725533233
10
102.535641589
20
88.403809419
72
4
94
2
73
0
74
0
95
6
96
3
40
0.0
40
0.0
40
0.0
40
1.0
40
1.0
40
1.0
10
102.535641589
20
88.403809419
10
102.9867246263
20
86.9546088198
10
101.8278749418
20
85.983920167
72
1
10
101.8278749418
20
85.983920167
11
96.533137479
21
81.5407760977
72
4
94
2
73
0
74
0
95
6
96
3
40
0.0
40
0.0
40
0.0
40
1.0
40
1.0
40
1.0
10
96.533137479
20
81.5407760977
10
96.1734936073
20
81.2405620764
10
95.7434430781
20
81.450140806
72
4
94
3
73
0
74
0
95
8
96
4
40
0.0
40
0.0
40
0.0
40
0.0
40
1.0
40
1.0
40
1.0
40
1.0
10
95.7434430781
20
81.450140806
10
88.7025723845
20
84.933228613
10
80.3479395952
20
81.4272482443
10
77.8249237026
20
73.9673038284
72
4
94
3
73
0
74
0
95
8
96
4
40
0.0
40
0.0
40
0.0
40
0.0
40
1.0
40
1.0
40
1.0
40
1.0
10
77.8249237026
20
73.9673038284
10
75.0625722868
20
65.7973653649
10
81.2778298483
20
57.3650251595
10
89.9152532092
20
57.4422396233
72
4
94
2
73
0
74
0
95
6
96
3
40
0.0
40
0.0
40
0.0
40
1.0
40
1.0
40
1.0
10
89.9152532092
20
57.4422396233
10
100.2121760359
20
57.5408382902
10
102.3334244243
20
67.2497920235
72
4
94
2
73
0
74
0
95
6
96
3
40
0.0
40
0.0
40
0.0
40
1.0
40
1.0
40
1.0
10
102.3334244243
20
67.2497920235
10
102.4529540201
20
67.76974096
10
102.9526659485
20
67.9401100999
72
1
10
102.9526659485
20
67.9401100999
11
111.347747633
21
70.8962842541
72
4
94
2
73
0
74
0
95
6
96
3
40
0.0
40
0.0
40
0.0
40
1.0
40
1.0
40
1.0
10
111.347747633
20
70.8962842541
10
112.0873226269
20
71.1468310474
10
112.3478581321
20
70.4172615129
72
1
10
112.3478581321
20
70.4172615129
11
112.9290791299
21
68.7582309736
72
1
10
112.9290791299
20
68.7582309736
11
112.9290791299
21
68.7582309736
72
4
94
3
73
0
74
0
95
8
96
4
40
0.0
40
0.0
40
0.0
40
0.0
40
1.0
40
1.0
40
1.0
40
1.0
10
112.9290791299
20
68.7582309736
10
113.045302606
20
68.4270538155
10
112.8710482173
20
68.0643639406
10
112.5398710593
20
67.9481404645
72
1
10
112.5398710593
20
67.9481404645
11
110.2711941444
21
67.1564698737
72
4
94
2
73
0
74
0
95
6
96
3
40
0.0
40
0.0
40
0.0
40
1.0
40
1.0
40
1.0
10
110.2711941444
20
67.1564698737
10
109.6115790882
20
66.9259842412
10
109.4921834714
20
66.2460819347
72
1
10
109.4921834714
20
66.2460819347
11
108.9548110851
21
63.2964894974
72
4
94
2
73
0
74
0
95
6
96
3
40
0.0
40
0.0
40
0.0
40
1.0
40
1.0
40
1.0
10
108.9548110851
20
63.2964894974
10
108.8851580595
20
62.9065445424
10
109.1752828847
20
62.6568602388
72
1
10
109.1752828847
20
62.6568602388
11
111.7263735553
21
60.4696337776
72
4
94
2
73
0
74
0
95
6
96
3
40
0.0
40
0.0
40
0.0
40
1.0
40
1.0
40
1.0
10
111.7263735553
20
60.4696337776
10
112.1865744413
20
60.0701355423
10
111.8771002187
20
59.5500275057
72
1
10
111.8771002187
20
59.5500275057
11
110.0702570586
21
56.4094269836
72
4
94
2
73
0
74
0
95
6
96
3
40
0.0
40
0.0
40
0.0
40
1.0
40
1.0
40
1.0
10
110.0702570586
20
56.4094269836
10
109.7907489718
20
55.9193353249
10
109.2607443338
20
56.1088361464
72
1
10
109.2607443338
20
56.1088361464
11
106.2207175732
21
57.1959728786
72
1
10
106.2207175732
20
57.1959728786
11
106.2207175732
21
57.1959728786
72
4
94
3
73
0
74
0
95
8
96
4
40
0.0
40
0.0
40
0.0
40
0.0
40
1.0
40
1.0
40
1.0
40
1.0
10
106.2207175732
20
57.1959728786
10
105.9792156371
20
57.2824375979
10
105.7127926228
20
57.2365353307
10
105.521022064
20
57.0754216932
72
1
10
105.521022064
20
57.0754216932
11
103.1134159138
21
55.0539923394
72
4
94
2
73
0
74
0
95
6
96
3
40
0.0
40
0.0
40
0.0
40
1.0
40
1.0
40
1.0
10
103.1134159138
20
55.0539923394
10
102.6139049538
20
54.6436931447
10
102.8343516323
20
54.0340551429
72
1
10
102.8343516323
20
54.0340551429
11
103.966727008
21
50.8059427137
72
4
94
2
73
0
74
0
95
6
96
3
40
0.0
40
0.0
40
0.0
40
1.0
40
1.0
40
1.0
10
103.966727008
20
50.8059427137
10
104.1671543942
20
50.2262792214
10
103.6375600669
20
49.9259228474
72
1
10
103.6375600669
20
49.9259228474
11
100.490002107
21
48.1038155533
72
4
94
2
73
0
74
0
95
6
96
3
40
0.0
40
0.0
40
0.0
40
1.0
40
1.0
40
1.0
10
100.490002107
20
48.1038155533
10
100.0403509699
20
47.8435145113
10
99.7101205706
20
48.2331245189
72
1
10
99.7101205706
20
48.2331245189
11
97.5786060435
21
50.7805977573
72
4
94
2
73
0
74
0
95
6
96
3
40
0.0
40
0.0
40
0.0
40
1.0
40
1.0
40
1.0
10
97.5786060435
20
50.7805977573
10
97.348438611
20
51.0603235599
10
96.9885937707
20
51.0000395935
72
1
10
96.9885937707
20
51.0000395935
11
93.7200324464
21
50.4174704322
72
4
94
2
73
0
74
0
95
6
96
3
40
0.0
40
0.0
40
0.0
40
1.0
40
1.0
40
1.0
10
93.7200324464
20
50.4174704322
10
93.2002593572
20
50.3270612299
10
93.1007323064
20
49.7971319552
97
0
75
0
76
1
98
0
0
HATCH
5
6fd
100
AcDbEntity
8
Layer 1
6
Solid
370
0
62
7
100
AcDbHatch
10
0
20
0
30
0
210
0
220
0
230
1
2
FILL_1789
70
1
71
0
91
1
92
0
93
97
72
1
10
202.51
20
50.41
11
199.24
21
50.99
72
4
94
2
73
0
74
0
95
6
96
3
40
0.0
40
0.0
40
0.0
40
1.0
40
1.0
40
1.0
10
199.24
20
50.99
10
198.88
20
51.05
10
198.65
20
50.77
72
1
10
198.65
20
50.77
11
196.52
21
48.22
72
4
94
2
73
0
74
0
95
6
96
3
40
0.0
40
0.0
40
0.0
40
1.0
40
1.0
40
1.0
10
196.52
20
48.22
10
196.19
20
47.83
10
195.74
20
48.09
72
1
10
195.74
20
48.09
11
192.59
21
49.91
72
4
94
2
73
0
74
0
95
6
96
3
40
0.0
40
0.0
40
0.0
40
1.0
40
1.0
40
1.0
10
192.59
20
49.91
10
192.06
20
50.21
10
192.26
20
50.79
72
1
10
192.26
20
50.79
11
193.39
21
54.02
72
4
94
2
73
0
74
0
95
6
96
3
40
0.0
40
0.0
40
0.0
40
1.0
40
1.0
40
1.0
10
193.39
20
54.02
10
193.61
20
54.63
10
193.11
20
55.04
72
1
10
193.11
20
55.04
11
190.7
21
57.06
72
1
10
190.7
20
57.06
11
190.7
21
57.06
72
4
94
3
73
0
74
0
95
8
96
4
40
0.0
40
0.0
40
0.0
40
0.0
40
1.0
40
1.0
40
1.0
40
1.0
10
190.7
20
57.06
10
190.5080386802
20
57.2209998166
10
190.2414997249
20
57.266692209
10
190.0
20
57.18
72
1
10
190.0
20
57.18
11
186.96
21
56.09
72
4
94
2
73
0
74
0
95
6
96
3
40
0.0
40
0.0
40
0.0
40
1.0
40
1.0
40
1.0
10
186.96
20
56.09
10
186.43
20
55.9
10
186.15
20
56.39
72
1
10
186.15
20
56.39
11
184.34
21
59.53
72
4
94
2
73
0
74
0
95
6
96
3
40
0.0
40
0.0
40
0.0
40
1.0
40
1.0
40
1.0
10
184.34
20
59.53
10
184.03
20
60.05
10
184.49
20
60.45
72
1
10
184.49
20
60.45
11
187.04
21
62.64
72
4
94
2
73
0
74
0
95
6
96
3
40
0.0
40
0.0
40
0.0
40
1.0
40
1.0
40
1.0
10
187.04
20
62.64
10
187.33
20
62.89
10
187.26
20
63.28
72
1
10
187.26
20
63.28
11
186.72
21
66.23
72
4
94
2
73
0
74
0
95
6
96
3
40
0.0
40
0.0
40
0.0
40
1.0
40
1.0
40
1.0
10
186.72
20
66.23
10
186.6
20
66.91
10
185.94
20
67.14
72
1
10
185.94
20
67.14
11
183.67
21
67.93
72
1
10
183.67
20
67.93
11
183.67
21
67.93
72
4
94
3
73
0
74
0
95
8
96
4
40
0.0
40
0.0
40
0.0
40
0.0
40
1.0
40
1.0
40
1.0
40
1.0
10
183.67
20
67.93
10
183.5108701061
20
67.9856954629
10
183.3803826948
20
68.1023238888
10
183.3072435072
20
68.2542283553
72
4
94
3
73
0
74
0
95
8
96
4
40
0.0
40
0.0
40
0.0
40
0.0
40
1.0
40
1.0
40
1.0
40
1.0
10
183.3072435072
20
68.2542283553
10
183.2341043196
20
68.4061328219
10
183.2243045371
20
68.5808701061
10
183.28
20
68.74
72
1
10
183.28
20
68.74
11
183.86
21
70.4
72
4
94
2
73
0
74
0
95
6
96
3
40
0.0
40
0.0
40
0.0
40
1.0
40
1.0
40
1.0
10
183.86
20
70.4
10
184.12
20
71.13
10
184.86
20
70.88
72
1
10
184.86
20
70.88
11
193.26
21
67.93
72
4
94
2
73
0
74
0
95
6
96
3
40
0.0
40
0.0
40
0.0
40
1.0
40
1.0
40
1.0
10
193.26
20
67.93
10
193.76
20
67.76
10
193.88
20
67.24
72
4
94
2
73
0
74
0
95
6
96
3
40
0.0
40
0.0
40
0.0
40
1.0
40
1.0
40
1.0
10
193.88
20
67.24
10
196.01
20
57.53
10
206.31
20
57.44
72
4
94
3
73
0
74
0
95
8
96
4
40
0.0
40
0.0
40
0.0
40
0.0
40
1.0
40
1.0
40
1.0
40
1.0
10
206.31
20
57.44
10
214.95
20
57.37
10
221.16
20
65.81
10
218.39
20
73.98
72
4
94
3
73
0
74
0
95
8
96
4
40
0.0
40
0.0
40
0.0
40
0.0
40
1.0
40
1.0
40
1.0
40
1.0
10
218.39
20
73.98
10
215.86
20
81.44
10
207.5
20
84.94
10
200.46
20
81.45
72
4
94
2
73
0
74
0
95
6
96
3
40
0.0
40
0.0
40
0.0
40
1.0
40
1.0
40
1.0
10
200.46
20
81.45
10
200.03
20
81.24
10
199.67
20
81.54
72
1
10
199.67
20
81.54
11
194.37
21
85.98
72
4
94
2
73
0
74
0
95
6
96
3
40
0.0
40
0.0
40
0.0
40
1.0
40
1.0
40
1.0
10
194.37
20
85.98
10
193.21
20
86.95
10
193.66
20
88.4
72
4
94
2
73
0
74
0
95
6
96
3
40
0.0
40
0.0
40
0.0
40
1.0
40
1.0
40
1.0
10
193.66
20
88.4
10
194.37
20
90.67
10
194.9
20
91.4
72
4
94
2
73
0
74
0
95
6
96
3
40
0.0
40
0.0
40
0.0
40
1.0
40
1.0
40
1.0
10
194.9
20
91.4
10
195.99
20
92.89
10
196.91
20
91.8
72
1
10
196.91
20
91.8
11
198.87
21
89.45
72
4
94
2
73
0
74
0
95
6
96
3
40
0.0
40
0.0
40
0.0
40
1.0
40
1.0
40
1.0
10
198.87
20
89.45
10
199.15
20
89.12
10
199.58
20
89.2
72
1
10
199.58
20
89.2
11
202.6
21
89.75
72
4
94
2
73
0
74
0
95
6
96
3
40
0.0
40
0.0
40
0.0
40
1.0
40
1.0
40
1.0
10
202.6
20
89.75
10
203.13
20
89.84
10
203.22
20
90.38
72
1
10
203.22
20
90.38
11
203.83
21
93.84
72
4
94
2
73
0
74
0
95
6
96
3
40
0.0
40
0.0
40
0.0
40
1.0
40
1.0
40
1.0
10
203.83
20
93.84
10
203.93
20
94.37
10
204.46
20
94.37
72
1
10
204.46
20
94.37
11
208.17
21
94.38
72
1
10
208.17
20
94.38
11
208.17
21
94.38
72
4
94
3
73
0
74
0
95
8
96
4
40
0.0
40
0.0
40
0.0
40
0.0
40
1.0
40
1.0
40
1.0
40
1.0
10
208.17
20
94.38
10
208.4887382768
20
94.38
10
208.762047586
20
94.1529430354
10
208.82
20
93.84
72
1
10
208.82
20
93.84
11
209.45
21
90.42
72
4
94
2
73
0
74
0
95
6
96
3
40
0.0
40
0.0
40
0.0
40
1.0
40
1.0
40
1.0
10
209.45
20
90.42
10
209.56
20
89.83
10
210.16
20
89.72
72
1
10
210.16
20
89.72
11
213.28
21
89.17
72
4
94
2
73
0
74
0
95
6
96
3
40
0.0
40
0.0
40
0.0
40
1.0
40
1.0
40
1.0
10
213.28
20
89.17
10
213.7
20
89.1
10
213.98
20
89.42
72
1
10
213.98
20
89.42
11
216.07
21
91.92
72
1
10
216.07
20
91.92
11
216.07
21
91.92
72
4
94
3
73
0
74
0
95
8
96
4
40
0.0
40
0.0
40
0.0
40
0.0
40
1.0
40
1.0
40
1.0
40
1.0
10
216.07
20
91.92
10
216.2660293809
20
92.1563883711
10
216.6047837788
20
92.2156703907
10
216.87
20
92.06
72
1
10
216.87
20
92.06
11
220.08
21
90.21
72
4
94
2
73
0
74
0
95
6
96
3
40
0.0
40
0.0
40
0.0
40
1.0
40
1.0
40
1.0
10
220.08
20
90.21
10
220.56
20
89.93
10
220.38
20
89.41
72
1
10
220.38
20
89.41
11
219.3
21
86.33
72
4
94
2
73
0
74
0
95
6
96
3
40
0.0
40
0.0
40
0.0
40
1.0
40
1.0
40
1.0
10
219.3
20
86.33
10
219.13
20
85.85
10
219.46
20
85.46
72
1
10
219.46
20
85.46
11
221.47
21
83.14
72
4
94
2
73
0
74
0
95
6
96
3
40
0.0
40
0.0
40
0.0
40
1.0
40
1.0
40
1.0
10
221.47
20
83.14
10
221.82
20
82.74
10
222.31
20
82.92
72
1
10
222.31
20
82.92
11
225.6
21
84.1
72
4
94
2
73
0
74
0
95
6
96
3
40
0.0
40
0.0
40
0.0
40
1.0
40
1.0
40
1.0
10
225.6
20
84.1
10
226.17
20
84.3
10
226.46
20
83.78
72
1
10
226.46
20
83.78
11
228.3
21
80.6
72
4
94
2
73
0
74
0
95
6
96
3
40
0.0
40
0.0
40
0.0
40
1.0
40
1.0
40
1.0
10
228.3
20
80.6
10
228.59
20
80.11
10
228.15
20
79.73
72
1
10
228.15
20
79.73
11
225.46
21
77.41
72
4
94
2
73
0
74
0
95
6
96
3
40
0.0
40
0.0
40
0.0
40
1.0
40
1.0
40
1.0
10
225.46
20
77.41
10
225.05
20
77.06
10
225.24
20
76.56
72
1
10
225.24
20
76.56
11
226.3
21
73.59
72
1
10
226.3
20
73.59
11
226.3
21
73.59
72
4
94
3
73
0
74
0
95
8
96
4
40
0.0
40
0.0
40
0.0
40
0.0
40
1.0
40
1.0
40
1.0
40
1.0
10
226.3
20
73.59
10
226.3864994952
20
73.3490371206
10
226.5966800499
20
73.1732497476
10
226.85
20
73.13
72
1
10
226.85
20
73.13
11
229.58
21
72.65
72
4
94
2
73
0
74
0
95
6
96
3
40
0.0
40
0.0
40
0.0
40
1.0
40
1.0
40
1.0
10
229.58
20
72.65
10
230.62
20
72.47
10
230.62
20
71.41
72
1
10
230.62
20
71.41
11
230.63
21
68.56
72
4
94
2
73
0
74
0
95
6
96
3
40
0.0
40
0.0
40
0.0
40
1.0
40
1.0
40
1.0
10
230.63
20
68.56
10
230.63
20
67.6
10
229.68
20
67.42
72
1
10
229.68
20
67.42
11
226.89
21
66.91
72
4
94
2
73
0
74
0
95
6
96
3
40
0.0
40
0.0
40
0.0
40
1.0
40
1.0
40
1.0
10
226.89
20
66.91
10
226.39
20
66.82
10
226.22
20
66.34
72
1
10
226.22
20
66.34
11
225.21
21
63.47
72
4
94
2
73
0
74
0
95
6
96
3
40
0.0
40
0.0
40
0.0
40
1.0
40
1.0
40
1.0
10
225.21
20
63.47
10
225.03
20
62.93
10
225.46
20
62.56
72
1
10
225.46
20
62.56
11
228.12
21
60.34
72
4
94
2
73
0
74
0
95
6
96
3
40
0.0
40
0.0
40
0.0
40
1.0
40
1.0
40
1.0
10
228.12
20
60.34
10
228.56
20
59.97
10
228.27
20
59.47
72
1
10
228.27
20
59.47
11
226.37
21
56.18
72
4
94
2
73
0
74
0
95
6
96
3
40
0.0
40
0.0
40
0.0
40
1.0
40
1.0
40
1.0
10
226.37
20
56.18
10
226.15
20
55.8
10
225.73
20
55.95
72
1
10
225.73
20
55.95
11
222.33
21
57.13
72
4
94
2
73
0
74
0
95
6
96
3
40
0.0
40
0.0
40
0.0
40
1.0
40
1.0
40
1.0
10
222.33
20
57.13
10
221.76
20
57.33
10
221.37
20
56.87
72
1
10
221.37
20
56.87
11
219.33
21
54.43
72
4
94
2
73
0
74
0
95
6
96
3
40
0.0
40
0.0
40
0.0
40
1.0
40
1.0
40
1.0
10
219.33
20
54.43
10
219.08
20
54.13
10
219.21
20
53.77
72
1
10
219.21
20
53.77
11
220.36
21
50.56
72
1
10
220.36
20
50.56
11
220.36
21
50.56
72
4
94
3
73
0
74
0
95
8
96
4
40
0.0
40
0.0
40
0.0
40
0.0
40
1.0
40
1.0
40
1.0
40
1.0
10
220.36
20
50.56
10
220.4463977833
20
50.3296059111
10
220.3531145323
20
50.0709568967
10
220.14
20
49.95
72
1
10
220.14
20
49.95
11
216.81
21
48.03
72
4
94
2
73
0
74
0
95
6
96
3
40
0.0
40
0.0
40
0.0
40
1.0
40
1.0
40
1.0
10
216.81
20
48.03
10
216.38
20
47.78
10
216.05
20
48.15
72
1
10
216.05
20
48.15
11
213.83
21
50.73
72
4
94
2
73
0
74
0
95
6
96
3
40
0.0
40
0.0
40
0.0
40
1.0
40
1.0
40
1.0
10
213.83
20
50.73
10
213.59
20
51.01
10
213.23
20
50.94
72
1
10
213.23
20
50.94
11
209.95
21
50.34
72
4
94
3
73
0
74
0
95
8
96
4
40
0.0
40
0.0
40
0.0
40
0.0
40
1.0
40
1.0
40
1.0
40
1.0
10
209.95
20
50.34
10
209.6561252895
20
50.2860230123
10
209.4279795446
20
50.0538747105
10
209.38
20
49.76
72
1
10
209.38
20
49.76
11
208.75
21
46.21
72
4
94
2
73
0
74
0
95
6
96
3
40
0.0
40
0.0
40
0.0
40
1.0
40
1.0
40
1.0
10
208.75
20
46.21
10
208.67
20
45.77
10
208.22
20
45.77
72
1
10
208.22
20
45.77
11
204.44
21
45.75
72
4
94
2
73
0
74
0
95
6
96
3
40
0.0
40
0.0
40
0.0
40
1.0
40
1.0
40
1.0
10
204.44
20
45.75
10
203.87
20
45.75
10
203.77
20
46.31
72
1
10
203.77
20
46.31
11
203.13
21
49.79
72
4
94
2
73
0
74
0
95
6
96
3
40
0.0
40
0.0
40
0.0
40
1.0
40
1.0
40
1.0
10
203.13
20
49.79
10
203.03
20
50.32
10
202.51
20
50.41
97
0
75
0
76
1
98
0
0
HATCH
5
70f
100
AcDbEntity
8
Layer 1
6
Solid
370
0
62
7
100
AcDbHatch
10
0
20
0
30
0
210
0
220
0
230
1
2
FILL_1807
70
1
71
0
91
1
92
0
93
8
72
4
94
3
73
0
74
0
95
8
96
4
40
0.0
40
0.0
40
0.0
40
0.0
40
1.0
40
1.0
40
1.0
40
1.0
10
168.5
20
7.44
10
168.5
20
7.2190861001
10
168.3209138999
20
7.04
10
168.1
20
7.04
72
1
10
168.1
20
7.04
11
167.28
21
7.04
72
4
94
3
73
0
74
0
95
8
96
4
40
0.0
40
0.0
40
0.0
40
0.0
40
1.0
40
1.0
40
1.0
40
1.0
10
167.28
20
7.04
10
167.0590861001
20
7.04
10
166.88
20
7.2190861001
10
166.88
20
7.44
72
1
10
166.88
20
7.44
11
166.88
21
19.98
72
4
94
3
73
0
74
0
95
8
96
4
40
0.0
40
0.0
40
0.0
40
0.0
40
1.0
40
1.0
40
1.0
40
1.0
10
166.88
20
19.98
10
166.88
20
20.2009138999
10
167.0590861001
20
20.38
10
167.28
20
20.38
72
1
10
167.28
20
20.38
11
168.1
21
20.38
72
4
94
3
73
0
74
0
95
8
96
4
40
0.0
40
0.0
40
0.0
40
0.0
40
1.0
40
1.0
40
1.0
40
1.0
10
168.1
20
20.38
10
168.3209138999
20
20.38
10
168.5
20
20.2009138999
10
168.5
20
19.98
72
1
10
168.5
20
19.98
11
168.5
21
7.44
97
0
75
0
76
1
98
0
0
HATCH
5
737
100
AcDbEntity
8
Layer 1
6
Solid
370
0
62
7
100
AcDbHatch
10
0
20
0
30
0
210
0
220
0
230
1
2
FILL_1847
70
1
71
0
91
2
92
0
93
13
72
4
94
2
73
0
74
0
95
6
96
3
40
0.0
40
0.0
40
0.0
40
1.0
40
1.0
40
1.0
10
201.76
20
8.13
10
199.1
20
6.04
10
196.6
20
7.24
72
4
94
3
73
0
74
0
95
8
96
4
40
0.0
40
0.0
40
0.0
40
0.0
40
1.0
40
1.0
40
1.0
40
1.0
10
196.6
20
7.24
10
190.57
20
10.14
10
194.87
20
20.6
10
201.73
20
15.76
72
4
94
2
73
0
74
0
95
6
96
3
40
0.0
40
0.0
40
0.0
40
1.0
40
1.0
40
1.0
10
201.73
20
15.76
10
202.15
20
15.46
10
202.15
20
15.99
72
1
10
202.15
20
15.99
11
202.14
21
19.79
72
4
94
2
73
0
74
0
95
6
96
3
40
0.0
40
0.0
40
0.0
40
1.0
40
1.0
40
1.0
10
202.14
20
19.79
10
202.14
20
20.36
10
202.71
20
20.37
72
1
10
202.71
20
20.37
11
203.0
21
20.37
72
4
94
2
73
0
74
0
95
6
96
3
40
0.0
40
0.0
40
0.0
40
1.0
40
1.0
40
1.0
10
203.0
20
20.37
10
203.72
20
20.37
10
203.72
20
19.65
72
1
10
203.72
20
19.65
11
203.77
21
7.61
72
4
94
2
73
0
74
0
95
6
96
3
40
0.0
40
0.0
40
0.0
40
1.0
40
1.0
40
1.0
10
203.77
20
7.61
10
203.77
20
7.05
10
203.21
20
7.01
72
4
94
2
73
0
74
0
95
6
96
3
40
0.0
40
0.0
40
0.0
40
1.0
40
1.0
40
1.0
10
203.21
20
7.01
10
202.94
20
6.99
10
202.5
20
7.12
72
4
94
2
73
0
74
0
95
6
96
3
40
0.0
40
0.0
40
0.0
40
1.0
40
1.0
40
1.0
10
202.5
20
7.12
10
202.06
20
7.26
10
202.07
20
7.71
72
4
94
2
73
0
74
0
95
6
96
3
40
0.0
40
0.0
40
0.0
40
1.0
40
1.0
40
1.0
10
202.07
20
7.71
10
202.07
20
7.9
10
202.09
20
7.99
72
4
94
2
73
0
74
0
95
6
96
3
40
0.0
40
0.0
40
0.0
40
1.0
40
1.0
40
1.0
10
202.09
20
7.99
10
202.15
20
8.43
10
201.76
20
8.13
97
0
92
0
93
6
72
1
10
198.9566879489
20
8.254725572
11
198.9566879489
21
8.254725572
72
4
94
3
73
0
74
0
95
8
96
4
40
0.0
40
0.0
40
0.0
40
0.0
40
1.0
40
1.0
40
1.0
40
1.0
10
198.9566879489
20
8.254725572
10
200.8155040239
20
8.3488891322
10
202.2387891409
20
10.0751773425
10
202.1356842337
20
12.1104982081
72
4
94
3
73
0
74
0
95
8
96
4
40
0.0
40
0.0
40
0.0
40
0.0
40
1.0
40
1.0
40
1.0
40
1.0
10
202.1356842337
20
12.1104982081
10
202.0325793266
20
14.1458190736
10
200.4421281261
20
15.7194379882
10
198.5833120511
20
15.625274428
72
4
94
3
73
0
74
0
95
8
96
4
40
0.0
40
0.0
40
0.0
40
0.0
40
1.0
40
1.0
40
1.0
40
1.0
10
198.5833120511
20
15.625274428
10
196.7244959761
20
15.5311108678
10
195.3012108591
20
13.8048226575
10
195.4043157663
20
11.7695017919
72
4
94
3
73
0
74
0
95
8
96
4
40
0.0
40
0.0
40
0.0
40
0.0
40
1.0
40
1.0
40
1.0
40
1.0
10
195.4043157663
20
11.7695017919
10
195.5074206734
20
9.7341809264
10
197.0978718739
20
8.1605620118
10
198.9566879489
20
8.254725572
72
1
10
198.9566879489
20
8.254725572
11
198.9566879489
21
8.254725572
97
0
75
0
76
1
98
0
0
HATCH
5
75f
100
AcDbEntity
8
Layer 1
6
Solid
370
0
62
7
100
AcDbHatch
10
0
20
0
30
0
210
0
220
0
230
1
2
FILL_1887
70
1
71
0
91
1
92
0
93
19
72
4
94
2
73
0
74
0
95
6
96
3
40
0.0
40
0.0
40
0.0
40
1.0
40
1.0
40
1.0
10
145.29
20
8.97
10
144.64
20
8.43
10
145.49
20
8.44
72
1
10
145.49
20
8.44
11
150.44
21
8.51
72
4
94
3
73
0
74
0
95
8
96
4
40
0.0
40
0.0
40
0.0
40
0.0
40
1.0
40
1.0
40
1.0
40
1.0
10
150.44
20
8.51
10
150.6830052899
20
8.5155228475
10
150.8844771525
20
8.3230052899
10
150.89
20
8.08
72
1
10
150.89
20
8.08
11
150.89
21
7.76
72
4
94
2
73
0
74
0
95
6
96
3
40
0.0
40
0.0
40
0.0
40
1.0
40
1.0
40
1.0
10
150.89
20
7.76
10
150.9
20
7.17
10
150.32
20
7.17
72
1
10
150.32
20
7.17
11
143.98
21
7.07
72
4
94
2
73
0
74
0
95
6
96
3
40
0.0
40
0.0
40
0.0
40
1.0
40
1.0
40
1.0
10
143.98
20
7.07
10
140.41
20
7.02
10
143.25
20
9.18
72
4
94
3
73
0
74
0
95
8
96
4
40
0.0
40
0.0
40
0.0
40
0.0
40
1.0
40
1.0
40
1.0
40
1.0
10
143.25
20
9.18
10
145.63
20
10.99
10
148.97
20
13.65
10
148.84
20
16.78
72
1
10
148.84
20
16.78
11
148.84
21
16.78
72
4
94
3
73
0
74
0
95
8
96
4
40
0.0
40
0.0
40
0.0
40
0.0
40
1.0
40
1.0
40
1.0
40
1.0
10
148.84
20
16.78
10
148.8187826808
20
17.3502154532
10
148.571917161
20
17.8886478187
10
148.1537110371
20
18.276848122
72
4
94
3
73
0
74
0
95
8
96
4
40
0.0
40
0.0
40
0.0
40
0.0
40
1.0
40
1.0
40
1.0
40
1.0
10
148.1537110371
20
18.276848122
10
147.7355049131
20
18.6650484254
10
147.1802154532
20
18.8712173192
10
146.61
20
18.85
72
4
94
2
73
0
74
0
95
6
96
3
40
0.0
40
0.0
40
0.0
40
1.0
40
1.0
40
1.0
10
146.61
20
18.85
10
144.12
20
18.76
10
143.9
20
16.61
72
4
94
3
73
0
74
0
95
8
96
4
40
0.0
40
0.0
40
0.0
40
0.0
40
1.0
40
1.0
40
1.0
40
1.0
10
143.9
20
16.61
10
143.8657421471
20
16.2845503978
10
143.5911592444
20
16.0357096421
10
143.26
20
16.03
72
1
10
143.26
20
16.03
11
142.77
21
16.02
72
4
94
3
73
0
74
0
95
8
96
4
40
0.0
40
0.0
40
0.0
40
0.0
40
1.0
40
1.0
40
1.0
40
1.0
10
142.77
20
16.02
10
142.6068738628
20
16.0175283919
10
142.451075982
20
16.0876122134
10
142.3448107225
20
16.2112663336
72
4
94
3
73
0
74
0
95
8
96
4
40
0.0
40
0.0
40
0.0
40
0.0
40
1.0
40
1.0
40
1.0
40
1.0
10
142.3448107225
20
16.2112663336
10
142.238545463
20
16.3349204537
10
142.1928123105
20
16.499345471
10
142.22
20
16.66
72
4
94
3
73
0
74
0
95
8
96
4
40
0.0
40
0.0
40
0.0
40
0.0
40
1.0
40
1.0
40
1.0
40
1.0
10
142.22
20
16.66
10
142.8
20
20.17
10
146.99
20
21.37
10
149.4
20
19.16
72
4
94
2
73
0
74
0
95
6
96
3
40
0.0
40
0.0
40
0.0
40
1.0
40
1.0
40
1.0
10
149.4
20
19.16
10
150.51
20
18.14
10
150.45
20
16.61
72
4
94
3
73
0
74
0
95
8
96
4
40
0.0
40
0.0
40
0.0
40
0.0
40
1.0
40
1.0
40
1.0
40
1.0
10
150.45
20
16.61
10
150.32
20
13.31
10
147.88
20
11.08
10
145.29
20
8.97
97
0
75
0
76
1
98
0
0
HATCH
5
781
100
AcDbEntity
8
Layer 1
6
Solid
370
0
62
7
100
AcDbHatch
10
0
20
0
30
0
210
0
220
0
230
1
2
FILL_1921
70
1
71
0
91
1
92
0
93
16
72
4
94
3
73
0
74
0
95
8
96
4
40
0.0
40
0.0
40
0.0
40
0.0
40
1.0
40
1.0
40
1.0
40
1.0
10
154.1129569069
20
13.3314637353
10
154.0724739937
20
8.5310627069
10
159.1264528158
20
6.5229227793
10
162.1936364509
20
10.0916289166
72
4
94
2
73
0
74
0
95
6
96
3
40
0.0
40
0.0
40
0.0
40
1.0
40
1.0
40
1.0
10
162.1936364509
20
10.0916289166
10
162.66
20
10.63
10
163.37
20
10.63
72
1
10
163.37
20
10.63
11
163.92
21
10.64
72
1
10
163.92
20
10.64
11
163.92
21
10.64
72
4
94
3
73
0
74
0
95
8
96
4
40
0.0
40
0.0
40
0.0
40
0.0
40
1.0
40
1.0
40
1.0
40
1.0
10
163.92
20
10.64
10
164.0997844725
20
10.64
10
164.2631322286
20
10.5353868602
10
164.3383379779
20
10.3720829474
72
4
94
3
73
0
74
0
95
8
96
4
40
0.0
40
0.0
40
0.0
40
0.0
40
1.0
40
1.0
40
1.0
40
1.0
10
164.3383379779
20
10.3720829474
10
164.4135437272
20
10.2087790346
10
164.3868599071
20
10.0166361991
10
164.27
20
9.88
72
4
94
2
73
0
74
0
95
6
96
3
40
0.0
40
0.0
40
0.0
40
1.0
40
1.0
40
1.0
10
164.27
20
9.88
10
160.09
20
4.96
10
155.2560284776
20
7.9315795257
72
4
94
2
73
0
74
0
95
6
96
3
40
0.0
40
0.0
40
0.0
40
1.0
40
1.0
40
1.0
10
155.2560284776
20
7.9315795257
10
152.3444992344
20
9.7201947554
10
152.3750775138
20
13.3461196818
72
4
94
2
73
0
74
0
95
6
96
3
40
0.0
40
0.0
40
0.0
40
1.0
40
1.0
40
1.0
10
152.3750775138
20
13.3461196818
10
152.4056557932
20
16.9720446081
10
155.3469364152
20
18.7113017129
72
4
94
2
73
0
74
0
95
6
96
3
40
0.0
40
0.0
40
0.0
40
1.0
40
1.0
40
1.0
10
155.3469364152
20
18.7113017129
10
160.2303369042
20
21.6009323505
10
164.3267652501
20
16.6111352798
72
1
10
164.3267652501
20
16.6111352798
11
164.3267652501
21
16.6111352798
72
4
94
3
73
0
74
0
95
8
96
4
40
0.0
40
0.0
40
0.0
40
0.0
40
1.0
40
1.0
40
1.0
40
1.0
10
164.3267652501
20
16.6111352798
10
164.4413041297
20
16.4725476402
10
164.4647436135
20
16.2799821031
10
164.3867943957
20
16.1179697822
72
4
94
3
73
0
74
0
95
8
96
4
40
0.0
40
0.0
40
0.0
40
0.0
40
1.0
40
1.0
40
1.0
40
1.0
10
164.3867943957
20
16.1179697822
10
164.3088451779
20
15.9559574613
10
164.1437563255
20
15.8541141048
10
163.9639974235
20
15.8571462188
72
1
10
163.9639974235
20
15.8571462188
11
163.4142443021
21
15.8764206961
72
4
94
2
73
0
74
0
95
6
96
3
40
0.0
40
0.0
40
0.0
40
1.0
40
1.0
40
1.0
10
163.4142443021
20
15.8764206961
10
162.7043452846
20
15.8883950391
10
162.2471278405
20
16.4345548987
72
4
94
3
73
0
74
0
95
8
96
4
40
0.0
40
0.0
40
0.0
40
0.0
40
1.0
40
1.0
40
1.0
40
1.0
10
162.2471278405
20
16.4345548987
10
159.2405676466
20
20.054482349
10
154.15343982
20
18.1318647637
10
154.1129569069
20
13.3314637353
97
0
75
0
76
1
98
0
0
HATCH
5
7bd
100
AcDbEntity
8
Layer 1
6
Solid
370
0
62
7
100
AcDbHatch
10
0
20
0
30
0
210
0
220
0
230
1
2
FILL_1981
70
1
71
0
91
1
92
0
93
29
72
4
94
2
73
0
74
0
95
6
96
3
40
0.0
40
0.0
40
0.0
40
1.0
40
1.0
40
1.0
10
100.7507525454
20
9.5792687655
10
100.9127426514
20
9.579021483
10
100.9592524525
20
9.6786788623
72
4
94
2
73
0
74
0
95
6
96
3
40
0.0
40
0.0
40
0.0
40
1.0
40
1.0
40
1.0
10
100.9592524525
20
9.6786788623
10
103.62
20
15.38
10
105.11
20
18.99
72
1
10
105.11
20
18.99
11
105.11
21
18.99
72
4
94
3
73
0
74
0
95
8
96
4
40
0.0
40
0.0
40
0.0
40
0.0
40
1.0
40
1.0
40
1.0
40
1.0
10
105.11
20
18.99
10
105.2374786436
20
19.2995909916
10
105.5400569504
20
19.5039295884
10
105.88
20
19.51
72
1
10
105.88
20
19.51
11
106.54
21
19.51
72
4
94
2
73
0
74
0
95
6
96
3
40
0.0
40
0.0
40
0.0
40
1.0
40
1.0
40
1.0
10
106.54
20
19.51
10
107.11
20
19.51
10
107.11
20
18.95
72
1
10
107.11
20
18.95
11
107.15
21
7.59
72
4
94
2
73
0
74
0
95
6
96
3
40
0.0
40
0.0
40
0.0
40
1.0
40
1.0
40
1.0
10
107.15
20
7.59
10
107.16
20
7.02
10
106.58
20
7.02
72
1
10
106.58
20
7.02
11
106.05
21
7.02
72
4
94
2
73
0
74
0
95
6
96
3
40
0.0
40
0.0
40
0.0
40
1.0
40
1.0
40
1.0
10
106.05
20
7.02
10
105.51
20
7.01
10
105.51
20
7.55
72
1
10
105.51
20
7.55
11
105.48
21
14.86
72
4
94
2
73
0
74
0
95
6
96
3
40
0.0
40
0.0
40
0.0
40
1.0
40
1.0
40
1.0
10
105.48
20
14.86
10
105.47
20
16.45
10
104.87
20
14.98
72
4
94
2
73
0
74
0
95
6
96
3
40
0.0
40
0.0
40
0.0
40
1.0
40
1.0
40
1.0
10
104.87
20
14.98
10
104.38
20
13.82
10
101.57
20
7.54
72
4
94
2
73
0
74
0
95
6
96
3
40
0.0
40
0.0
40
0.0
40
1.0
40
1.0
40
1.0
10
101.57
20
7.54
10
101.45
20
7.26
10
101.2639023696
20
7.1480928046
72
4
94
2
73
0
74
0
95
6
96
3
40
0.0
40
0.0
40
0.0
40
1.0
40
1.0
40
1.0
10
101.2639023696
20
7.1480928046
10
101.0274338439
20
7.0054942955
10
100.7468242595
20
7.005922654
72
4
94
2
73
0
74
0
95
6
96
3
40
0.0
40
0.0
40
0.0
40
1.0
40
1.0
40
1.0
10
100.7468242595
20
7.005922654
10
100.4662146751
20
7.0063510125
10
100.2301826118
20
7.1496708072
72
4
94
2
73
0
74
0
95
6
96
3
40
0.0
40
0.0
40
0.0
40
1.0
40
1.0
40
1.0
10
100.2301826118
20
7.1496708072
10
100.0444275069
20
7.2621456463
10
99.9252829201
20
7.5425107073
72
4
94
2
73
0
74
0
95
6
96
3
40
0.0
40
0.0
40
0.0
40
1.0
40
1.0
40
1.0
10
99.9252829201
20
7.5425107073
10
97.1344691681
20
13.8310605085
10
96.6480129894
20
14.9925510965
72
4
94
2
73
0
74
0
95
6
96
3
40
0.0
40
0.0
40
0.0
40
1.0
40
1.0
40
1.0
10
96.6480129894
20
14.9925510965
10
96.0525037687
20
16.4643760753
10
96.0376494664
20
14.8744140161
72
1
10
96.0376494664
20
14.8744140161
11
95.9853318132
21
7.5645396763
72
4
94
2
73
0
74
0
95
6
96
3
40
0.0
40
0.0
40
0.0
40
1.0
40
1.0
40
1.0
10
95.9853318132
20
7.5645396763
10
95.9836831664
20
7.024542193
10
95.4437162136
20
7.0361907933
72
1
10
95.4437162136
20
7.0361907933
11
94.9137186837
21
7.0378089096
72
4
94
2
73
0
74
0
95
6
96
3
40
0.0
40
0.0
40
0.0
40
1.0
40
1.0
40
1.0
10
94.9137186837
20
7.0378089096
10
94.3337213868
20
7.0395796784
10
94.3454615785
20
7.6095464913
72
1
10
94.3454615785
20
7.6095464913
11
94.4201440362
21
18.9693714253
72
4
94
2
73
0
74
0
95
6
96
3
40
0.0
40
0.0
40
0.0
40
1.0
40
1.0
40
1.0
10
94.4201440362
20
18.9693714253
10
94.421853744
20
19.5293688154
10
94.9918510875
20
19.5276285771
72
1
10
94.9918510875
20
19.5276285771
11
95.6518480115
21
19.5256135643
72
4
94
3
73
0
74
0
95
8
96
4
40
0.0
40
0.0
40
0.0
40
0.0
40
1.0
40
1.0
40
1.0
40
1.0
10
95.6518480115
20
19.5256135643
10
95.9917709435
20
19.518505318
10
96.2937239842
20
19.313243887
10
96.420256837
20
19.0032651396
72
4
94
2
73
0
74
0
95
6
96
3
40
0.0
40
0.0
40
0.0
40
1.0
40
1.0
40
1.0
10
96.420256837
20
19.0032651396
10
97.8992283835
20
15.3887329203
10
100.5425571139
20
9.6793149596
72
4
94
2
73
0
74
0
95
6
96
3
40
0.0
40
0.0
40
0.0
40
1.0
40
1.0
40
1.0
10
100.5425571139
20
9.6793149596
10
100.5887624394
20
9.579516048
10
100.7507525454
20
9.5792687655
97
0
75
0
76
1
98
0
0
HATCH
5
7d3
100
AcDbEntity
8
Layer 1
6
Solid
370
0
62
7
100
AcDbHatch
10
0
20
0
30
0
210
0
220
0
230
1
2
FILL_2003
70
1
71
0
91
2
92
0
93
4
72
4
94
3
73
0
74
0
95
8
96
4
40
0.0
40
0.0
40
0.0
40
0.0
40
1.0
40
1.0
40
1.0
40
1.0
10
119.34
20
11.94
10
119.34
20
9.1288706234
10
117.0611293766
20
6.85
10
114.25
20
6.85
72
4
94
3
73
0
74
0
95
8
96
4
40
0.0
40
0.0
40
0.0
40
0.0
40
1.0
40
1.0
40
1.0
40
1.0
10
114.25
20
6.85
10
111.4388706234
20
6.85
10
109.16
20
9.1288706234
10
109.16
20
11.94
72
4
94
3
73
0
74
0
95
8
96
4
40
0.0
40
0.0
40
0.0
40
0.0
40
1.0
40
1.0
40
1.0
40
1.0
10
109.16
20
11.94
10
109.16
20
14.7511293766
10
111.4388706234
20
17.03
10
114.25
20
17.03
72
4
94
3
73
0
74
0
95
8
96
4
40
0.0
40
0.0
40
0.0
40
0.0
40
1.0
40
1.0
40
1.0
40
1.0
10
114.25
20
17.03
10
117.0611293766
20
17.03
10
119.34
20
14.7511293766
10
119.34
20
11.94
97
0
92
0
93
6
72
1
10
114.2890597548
20
8.1902045183
11
114.2890597548
21
8.1902045183
72
4
94
3
73
0
74
0
95
8
96
4
40
0.0
40
0.0
40
0.0
40
0.0
40
1.0
40
1.0
40
1.0
40
1.0
10
114.2890597548
20
8.1902045183
10
116.1446347663
20
8.2096367647
10
117.631387876
20
9.8952760301
10
117.6098157691
20
11.9551851946
72
4
94
3
73
0
74
0
95
8
96
4
40
0.0
40
0.0
40
0.0
40
0.0
40
1.0
40
1.0
40
1.0
40
1.0
10
117.6098157691
20
11.9551851946
10
117.5882436622
20
14.0150943592
10
116.0665152567
20
15.6692277281
10
114.2109402452
20
15.6497954817
72
4
94
3
73
0
74
0
95
8
96
4
40
0.0
40
0.0
40
0.0
40
0.0
40
1.0
40
1.0
40
1.0
40
1.0
10
114.2109402452
20
15.6497954817
10
112.3553652337
20
15.6303632353
10
110.868612124
20
13.9447239699
10
110.8901842309
20
11.8848148054
72
4
94
3
73
0
74
0
95
8
96
4
40
0.0
40
0.0
40
0.0
40
0.0
40
1.0
40
1.0
40
1.0
40
1.0
10
110.8901842309
20
11.8848148054
10
110.9117563378
20
9.8249056408
10
112.4334847433
20
8.1707722719
10
114.2890597548
20
8.1902045183
72
1
10
114.2890597548
20
8.1902045183
11
114.2890597548
21
8.1902045183
97
0
75
0
76
1
98
0
0
HATCH
5
7f7
100
AcDbEntity
8
Layer 1
6
Solid
370
0
62
7
100
AcDbHatch
10
0
20
0
30
0
210
0
220
0
230
1
2
FILL_2039
70
1
71
0
91
1
92
0
93
17
72
4
94
2
73
0
74
0
95
6
96
3
40
0.0
40
0.0
40
0.0
40
1.0
40
1.0
40
1.0
10
125.0625167444
20
8.8654244311
10
125.1539234973
20
8.8654468971
10
125.2033536248
20
8.9912517737
72
4
94
2
73
0
74
0
95
6
96
3
40
0.0
40
0.0
40
0.0
40
1.0
40
1.0
40
1.0
10
125.2033536248
20
8.9912517737
10
126.63
20
12.62
10
127.86
20
16.23
72
1
10
127.86
20
16.23
11
127.86
21
16.23
72
4
94
3
73
0
74
0
95
8
96
4
40
0.0
40
0.0
40
0.0
40
0.0
40
1.0
40
1.0
40
1.0
40
1.0
10
127.86
20
16.23
10
128.0211551517
20
16.7019543728
10
128.5007790038
20
16.986333117
10
128.99
20
16.9
72
1
10
128.99
20
16.9
11
129.33
21
16.84
72
4
94
2
73
0
74
0
95
6
96
3
40
0.0
40
0.0
40
0.0
40
1.0
40
1.0
40
1.0
10
129.33
20
16.84
10
129.85
20
16.74
10
129.66
20
16.25
72
1
10
129.66
20
16.25
11
126.23
21
7.56
72
4
94
2
73
0
74
0
95
6
96
3
40
0.0
40
0.0
40
0.0
40
1.0
40
1.0
40
1.0
10
126.23
20
7.56
10
126.05
20
7.1
10
125.5640675695
20
7.0051992198
72
4
94
2
73
0
74
0
95
6
96
3
40
0.0
40
0.0
40
0.0
40
1.0
40
1.0
40
1.0
10
125.5640675695
20
7.0051992198
10
125.4109241691
20
6.9745258432
10
125.0629815116
20
6.9744403256
72
4
94
2
73
0
74
0
95
6
96
3
40
0.0
40
0.0
40
0.0
40
1.0
40
1.0
40
1.0
10
125.0629815116
20
6.9744403256
10
124.7150388541
20
6.9743548081
10
124.5618803944
20
7.0049529016
72
4
94
2
73
0
74
0
95
6
96
3
40
0.0
40
0.0
40
0.0
40
1.0
40
1.0
40
1.0
10
124.5618803944
20
7.0049529016
10
124.0759014221
20
7.0995148049
10
123.8956753258
20
7.5594262683
72
1
10
123.8956753258
20
7.5594262683
11
120.4614040737
21
16.2477391636
72
4
94
2
73
0
74
0
95
6
96
3
40
0.0
40
0.0
40
0.0
40
1.0
40
1.0
40
1.0
10
120.4614040737
20
16.2477391636
10
120.2711632317
20
16.7376457078
10
120.7911140128
20
16.8379013075
72
1
10
120.7911140128
20
16.8379013075
11
121.131084478
21
16.8980684311
72
4
94
3
73
0
74
0
95
8
96
4
40
0.0
40
0.0
40
0.0
40
0.0
40
1.0
40
1.0
40
1.0
40
1.0
10
121.131084478
20
16.8980684311
10
121.6202629771
20
16.9846420197
10
122.1000265608
20
16.7004990743
10
122.2614136875
20
16.2286239761
72
4
94
2
73
0
74
0
95
6
96
3
40
0.0
40
0.0
40
0.0
40
1.0
40
1.0
40
1.0
10
122.2614136875
20
16.2286239761
10
123.4931880746
20
12.6192290325
10
124.9216180291
20
8.9911825285
72
4
94
2
73
0
74
0
95
6
96
3
40
0.0
40
0.0
40
0.0
40
1.0
40
1.0
40
1.0
10
124.9216180291
20
8.9911825285
10
124.9711099915
20
8.8654019651
10
125.0625167444
20
8.8654244311
97
0
75
0
76
1
98
0
0
HATCH
5
831
100
AcDbEntity
8
Layer 1
6
Solid
370
0
62
7
100
AcDbHatch
10
0
20
0
30
0
210
0
220
0
230
1
2
FILL_2097
70
1
71
0
91
2
92
0
93
14
72
4
94
2
73
0
74
0
95
6
96
3
40
0.0
40
0.0
40
0.0
40
1.0
40
1.0
40
1.0
10
132.66
20
10.7
10
133.4
20
7.61
10
136.82
20
8.4
72
4
94
2
73
0
74
0
95
6
96
3
40
0.0
40
0.0
40
0.0
40
1.0
40
1.0
40
1.0
10
136.82
20
8.4
10
137.29
20
8.51
10
137.6
20
8.87
72
4
94
2
73
0
74
0
95
6
96
3
40
0.0
40
0.0
40
0.0
40
1.0
40
1.0
40
1.0
10
137.6
20
8.87
10
138.53
20
9.96
10
139.72
20
10.04
72
1
10
139.72
20
10.04
11
139.72
21
10.04
72
4
94
3
73
0
74
0
95
8
96
4
40
0.0
40
0.0
40
0.0
40
0.0
40
1.0
40
1.0
40
1.0
40
1.0
10
139.72
20
10.04
10
139.9035552298
20
10.0512380753
10
140.0777329904
20
9.9574147969
10
140.1690732133
20
9.7981004546
72
4
94
3
73
0
74
0
95
8
96
4
40
0.0
40
0.0
40
0.0
40
0.0
40
1.0
40
1.0
40
1.0
40
1.0
10
140.1690732133
20
9.7981004546
10
140.2604134362
20
9.6387861124
10
140.2530156902
20
9.4417140165
10
140.15
20
9.29
72
4
94
2
73
0
74
0
95
6
96
3
40
0.0
40
0.0
40
0.0
40
1.0
40
1.0
40
1.0
10
140.15
20
9.29
10
137.62
20
5.6
10
133.48
20
7.41
72
4
94
2
73
0
74
0
95
6
96
3
40
0.0
40
0.0
40
0.0
40
1.0
40
1.0
40
1.0
10
133.48
20
7.41
10
130.97
20
8.5
10
130.93
20
12.01
72
4
94
2
73
0
74
0
95
6
96
3
40
0.0
40
0.0
40
0.0
40
1.0
40
1.0
40
1.0
10
130.93
20
12.01
10
130.87
20
17.07
10
136.42
20
16.97
72
4
94
2
73
0
74
0
95
6
96
3
40
0.0
40
0.0
40
0.0
40
1.0
40
1.0
40
1.0
10
136.42
20
16.97
10
138.82
20
16.93
10
139.9
20
14.56
72
1
10
139.9
20
14.56
11
140.4
21
13.45
72
4
94
2
73
0
74
0
95
6
96
3
40
0.0
40
0.0
40
0.0
40
1.0
40
1.0
40
1.0
10
140.4
20
13.45
10
141.34
20
11.38
10
139.06
20
11.37
72
1
10
139.06
20
11.37
11
133.18
21
11.35
72
4
94
2
73
0
74
0
95
6
96
3
40
0.0
40
0.0
40
0.0
40
1.0
40
1.0
40
1.0
10
133.18
20
11.35
10
132.51
20
11.35
10
132.66
20
10.7
97
0
92
0
93
14
72
1
10
132.8273689711
20
12.6250637521
11
138.6273601372
21
12.6149408476
72
1
10
138.6273601372
20
12.6149408476
11
138.6273601372
21
12.6149408476
72
4
94
3
73
0
74
0
95
8
96
4
40
0.0
40
0.0
40
0.0
40
0.0
40
1.0
40
1.0
40
1.0
40
1.0
10
138.6273601372
20
12.6149408476
10
138.7157255626
20
12.6147866207
10
138.7874849191
20
12.686295926
10
138.7876391461
20
12.7746613514
72
1
10
138.7876391461
20
12.7746613514
11
138.7877962256
21
12.8646612143
72
1
10
138.7877962256
20
12.8646612143
11
138.7877962256
21
12.8646612143
72
4
94
3
73
0
74
0
95
8
96
4
40
0.0
40
0.0
40
0.0
40
0.0
40
1.0
40
1.0
40
1.0
40
1.0
10
138.7877962256
20
12.8646612143
10
138.7890784305
20
13.5993097722
10
138.4826666144
20
14.3044059741
10
137.9359678792
20
14.8248367039
72
4
94
3
73
0
74
0
95
8
96
4
40
0.0
40
0.0
40
0.0
40
0.0
40
1.0
40
1.0
40
1.0
40
1.0
10
137.9359678792
20
14.8248367039
10
137.3892691439
20
15.3452674336
10
136.6470662034
20
15.6384017158
10
135.8726352326
20
15.6397533542
72
1
10
135.8726352326
20
15.6397533542
11
135.5926356591
21
15.6402420461
72
1
10
135.5926356591
20
15.6402420461
11
135.5926356591
21
15.6402420461
72
4
94
3
73
0
74
0
95
8
96
4
40
0.0
40
0.0
40
0.0
40
0.0
40
1.0
40
1.0
40
1.0
40
1.0
10
135.5926356591
20
15.6402420461
10
133.9799666458
20
15.6430566874
10
132.6704756004
20
14.4051690509
10
132.6678055469
20
12.8753426239
72
1
10
132.6678055469
20
12.8753426239
11
132.6676484674
21
12.785342761
72
1
10
132.6676484674
20
12.785342761
11
132.6676484674
21
12.785342761
72
4
94
3
73
0
74
0
95
8
96
4
40
0.0
40
0.0
40
0.0
40
0.0
40
1.0
40
1.0
40
1.0
40
1.0
10
132.6676484674
20
12.785342761
10
132.6674942404
20
12.6969773356
10
132.7390035457
20
12.625217979
10
132.8273689711
20
12.6250637521
72
1
10
132.8273689711
20
12.6250637521
11
132.8273689711
21
12.6250637521
97
0
75
0
76
1
98
0
0
HATCH
5
847
100
AcDbEntity
8
Layer 1
6
Solid
370
0
62
7
100
AcDbHatch
10
0
20
0
30
0
210
0
220
0
230
1
2
FILL_2119
70
1
71
0
91
2
92
0
93
4
72
4
94
3
73
0
74
0
95
8
96
4
40
0.0
40
0.0
40
0.0
40
0.0
40
1.0
40
1.0
40
1.0
40
1.0
10
180.79
20
11.93
10
180.79
20
9.1243934709
10
178.5156065291
20
6.85
10
175.71
20
6.85
72
4
94
3
73
0
74
0
95
8
96
4
40
0.0
40
0.0
40
0.0
40
0.0
40
1.0
40
1.0
40
1.0
40
1.0
10
175.71
20
6.85
10
172.9043934709
20
6.85
10
170.63
20
9.1243934709
10
170.63
20
11.93
72
4
94
3
73
0
74
0
95
8
96
4
40
0.0
40
0.0
40
0.0
40
0.0
40
1.0
40
1.0
40
1.0
40
1.0
10
170.63
20
11.93
10
170.63
20
14.7356065291
10
172.9043934709
20
17.01
10
175.71
20
17.01
72
4
94
3
73
0
74
0
95
8
96
4
40
0.0
40
0.0
40
0.0
40
0.0
40
1.0
40
1.0
40
1.0
40
1.0
10
175.71
20
17.01
10
178.5156065291
20
17.01
10
180.79
20
14.7356065291
10
180.79
20
11.93
97
0
92
0
93
6
72
1
10
175.614902524
20
8.2005680971
11
175.614902524
21
8.2005680971
72
4
94
3
73
0
74
0
95
8
96
4
40
0.0
40
0.0
40
0.0
40
0.0
40
1.0
40
1.0
40
1.0
40
1.0
10
175.614902524
20
8.2005680971
10
177.4813406675
20
8.1679892981
10
179.0235328664
20
9.8113025007
10
179.0594852096
20
11.8710108662
72
4
94
3
73
0
74
0
95
8
96
4
40
0.0
40
0.0
40
0.0
40
0.0
40
1.0
40
1.0
40
1.0
40
1.0
10
179.0594852096
20
11.8710108662
10
179.0954375529
20
13.9307192318
10
177.6115356196
20
15.626853104
10
175.745097476
20
15.6594319029
72
4
94
3
73
0
74
0
95
8
96
4
40
0.0
40
0.0
40
0.0
40
0.0
40
1.0
40
1.0
40
1.0
40
1.0
10
175.745097476
20
15.6594319029
10
173.8786593325
20
15.6920107019
10
172.3364671336
20
14.0486974993
10
172.3005147904
20
11.9889891338
72
4
94
3
73
0
74
0
95
8
96
4
40
0.0
40
0.0
40
0.0
40
0.0
40
1.0
40
1.0
40
1.0
40
1.0
10
172.3005147904
20
11.9889891338
10
172.2645624471
20
9.9292807682
10
173.7484643804
20
8.233146896
10
175.614902524
20
8.2005680971
72
1
10
175.614902524
20
8.2005680971
11
175.614902524
21
8.2005680971
97
0
75
0
76
1
98
0
0
HATCH
5
871
100
AcDbEntity
8
Layer 1
6
Solid
370
0
62
7
100
AcDbHatch
10
0
20
0
30
0
210
0
220
0
230
1
2
FILL_2161
70
1
71
0
91
1
92
0
93
20
72
4
94
2
73
0
74
0
95
6
96
3
40
0.0
40
0.0
40
0.0
40
1.0
40
1.0
40
1.0
10
189.16
20
7.78
10
186.83
20
5.93
10
184.18
20
7.76
72
4
94
2
73
0
74
0
95
6
96
3
40
0.0
40
0.0
40
0.0
40
1.0
40
1.0
40
1.0
10
184.18
20
7.76
10
182.75
20
8.74
10
182.74
20
11.74
72
4
94
2
73
0
74
0
95
6
96
3
40
0.0
40
0.0
40
0.0
40
1.0
40
1.0
40
1.0
10
182.74
20
11.74
10
182.73
20
14.96
10
182.75
20
16.41
72
4
94
2
73
0
74
0
95
6
96
3
40
0.0
40
0.0
40
0.0
40
1.0
40
1.0
40
1.0
10
182.75
20
16.41
10
182.76
20
16.89
10
183.24
20
16.9
72
1
10
183.24
20
16.9
11
183.83
21
16.9
72
1
10
183.83
20
16.9
11
183.83
21
16.9
72
4
94
3
73
0
74
0
95
8
96
4
40
0.0
40
0.0
40
0.0
40
0.0
40
1.0
40
1.0
40
1.0
40
1.0
10
183.83
20
16.9
10
183.9679125747
20
16.9
10
184.1001766094
20
16.8462680114
10
184.1976955262
20
16.7506244584
72
4
94
3
73
0
74
0
95
8
96
4
40
0.0
40
0.0
40
0.0
40
0.0
40
1.0
40
1.0
40
1.0
40
1.0
10
184.1976955262
20
16.7506244584
10
184.295214443
20
16.6549809054
10
184.35
20
16.5252604098
10
184.35
20
16.39
72
1
10
184.35
20
16.39
11
184.43
21
10.76
72
4
94
2
73
0
74
0
95
6
96
3
40
0.0
40
0.0
40
0.0
40
1.0
40
1.0
40
1.0
10
184.43
20
10.76
10
184.46
20
8.38
10
187.06
20
8.3
72
4
94
2
73
0
74
0
95
6
96
3
40
0.0
40
0.0
40
0.0
40
1.0
40
1.0
40
1.0
10
187.06
20
8.3
10
187.15
20
8.3
10
187.38
20
8.31
72
4
94
2
73
0
74
0
95
6
96
3
40
0.0
40
0.0
40
0.0
40
1.0
40
1.0
40
1.0
10
187.38
20
8.31
10
189.81
20
8.37
10
189.9
20
10.93
72
1
10
189.9
20
10.93
11
190.08
21
16.32
72
4
94
3
73
0
74
0
95
8
96
4
40
0.0
40
0.0
40
0.0
40
0.0
40
1.0
40
1.0
40
1.0
40
1.0
10
190.08
20
16.32
10
190.091194095
20
16.6782110401
10
190.3817889599
20
16.9644029525
10
190.74
20
16.97
72
1
10
190.74
20
16.97
11
191.12
21
16.97
72
4
94
2
73
0
74
0
95
6
96
3
40
0.0
40
0.0
40
0.0
40
1.0
40
1.0
40
1.0
10
191.12
20
16.97
10
191.6
20
16.97
10
191.6
20
16.47
72
1
10
191.6
20
16.47
11
191.64
21
7.57
72
4
94
2
73
0
74
0
95
6
96
3
40
0.0
40
0.0
40
0.0
40
1.0
40
1.0
40
1.0
10
191.64
20
7.57
10
191.64
20
7.11
10
191.18
20
7.02
72
4
94
2
73
0
74
0
95
6
96
3
40
0.0
40
0.0
40
0.0
40
1.0
40
1.0
40
1.0
10
191.18
20
7.02
10
190.19
20
6.83
10
189.87
20
7.6
72
4
94
2
73
0
74
0
95
6
96
3
40
0.0
40
0.0
40
0.0
40
1.0
40
1.0
40
1.0
10
189.87
20
7.6
10
189.63
20
8.15
10
189.16
20
7.78
97
0
75
0
76
1
98
0
0
HATCH
5
88b
100
AcDbEntity
8
Layer 1
6
Solid
370
0
62
0
100
AcDbHatch
10
0
20
0
30
0
210
0
220
0
230
1
2
FILL_2187
70
1
71
0
91
1
92
0
93
12
72
1
10
132.8273689711
20
12.6250637521
11
132.8273689711
21
12.6250637521
72
4
94
3
73
0
74
0
95
8
96
4
40
0.0
40
0.0
40
0.0
40
0.0
40
1.0
40
1.0
40
1.0
40
1.0
10
132.8273689711
20
12.6250637521
10
132.7390035457
20
12.625217979
10
132.6674942404
20
12.6969773356
10
132.6676484674
20
12.785342761
72
1
10
132.6676484674
20
12.785342761
11
132.6678055469
21
12.8753426239
72
4
94
3
73
0
74
0
95
8
96
4
40
0.0
40
0.0
40
0.0
40
0.0
40
1.0
40
1.0
40
1.0
40
1.0
10
132.6678055469
20
12.8753426239
10
132.6704756004
20
14.4051690509
10
133.9799666458
20
15.6430566874
10
135.5926356591
20
15.6402420461
72
1
10
135.5926356591
20
15.6402420461
11
135.8726352326
21
15.6397533542
72
1
10
135.8726352326
20
15.6397533542
11
135.8726352326
21
15.6397533542
72
4
94
3
73
0
74
0
95
8
96
4
40
0.0
40
0.0
40
0.0
40
0.0
40
1.0
40
1.0
40
1.0
40
1.0
10
135.8726352326
20
15.6397533542
10
136.6470662034
20
15.6384017158
10
137.3892691439
20
15.3452674336
10
137.9359678792
20
14.8248367039
72
4
94
3
73
0
74
0
95
8
96
4
40
0.0
40
0.0
40
0.0
40
0.0
40
1.0
40
1.0
40
1.0
40
1.0
10
137.9359678792
20
14.8248367039
10
138.4826666144
20
14.3044059741
10
138.7890784305
20
13.5993097722
10
138.7877962256
20
12.8646612143
72
1
10
138.7877962256
20
12.8646612143
11
138.7876391461
21
12.7746613514
72
1
10
138.7876391461
20
12.7746613514
11
138.7876391461
21
12.7746613514
72
4
94
3
73
0
74
0
95
8
96
4
40
0.0
40
0.0
40
0.0
40
0.0
40
1.0
40
1.0
40
1.0
40
1.0
10
138.7876391461
20
12.7746613514
10
138.7874849191
20
12.686295926
10
138.7157255626
20
12.6147866207
10
138.6273601372
20
12.6149408476
72
1
10
138.6273601372
20
12.6149408476
11
132.8273689711
21
12.6250637521
97
0
75
0
76
1
98
0
0
HATCH
5
899
100
AcDbEntity
8
Layer 1
6
Solid
370
0
62
0
100
AcDbHatch
10
0
20
0
30
0
210
0
220
0
230
1
2
FILL_2201
70
1
71
0
91
1
92
0
93
6
72
1
10
175.614902524
20
8.2005680971
11
175.614902524
21
8.2005680971
72
4
94
3
73
0
74
0
95
8
96
4
40
0.0
40
0.0
40
0.0
40
0.0
40
1.0
40
1.0
40
1.0
40
1.0
10
175.614902524
20
8.2005680971
10
173.7484643804
20
8.233146896
10
172.2645624471
20
9.9292807682
10
172.3005147904
20
11.9889891338
72
4
94
3
73
0
74
0
95
8
96
4
40
0.0
40
0.0
40
0.0
40
0.0
40
1.0
40
1.0
40
1.0
40
1.0
10
172.3005147904
20
11.9889891338
10
172.3364671336
20
14.0486974993
10
173.8786593325
20
15.6920107019
10
175.745097476
20
15.6594319029
72
4
94
3
73
0
74
0
95
8
96
4
40
0.0
40
0.0
40
0.0
40
0.0
40
1.0
40
1.0
40
1.0
40
1.0
10
175.745097476
20
15.6594319029
10
177.6115356196
20
15.626853104
10
179.0954375529
20
13.9307192318
10
179.0594852096
20
11.8710108662
72
4
94
3
73
0
74
0
95
8
96
4
40
0.0
40
0.0
40
0.0
40
0.0
40
1.0
40
1.0
40
1.0
40
1.0
10
179.0594852096
20
11.8710108662
10
179.0235328664
20
9.8113025007
10
177.4813406675
20
8.1679892981
10
175.614902524
20
8.2005680971
72
1
10
175.614902524
20
8.2005680971
11
175.614902524
21
8.2005680971
97
0
75
0
76
1
98
0
0
HATCH
5
8a7
100
AcDbEntity
8
Layer 1
6
Solid
370
0
62
0
100
AcDbHatch
10
0
20
0
30
0
210
0
220
0
230
1
2
FILL_2215
70
1
71
0
91
1
92
0
93
6
72
1
10
198.9566879489
20
8.254725572
11
198.9566879489
21
8.254725572
72
4
94
3
73
0
74
0
95
8
96
4
40
0.0
40
0.0
40
0.0
40
0.0
40
1.0
40
1.0
40
1.0
40
1.0
10
198.9566879489
20
8.254725572
10
197.0978718739
20
8.1605620118
10
195.5074206734
20
9.7341809264
10
195.4043157663
20
11.7695017919
72
4
94
3
73
0
74
0
95
8
96
4
40
0.0
40
0.0
40
0.0
40
0.0
40
1.0
40
1.0
40
1.0
40
1.0
10
195.4043157663
20
11.7695017919
10
195.3012108591
20
13.8048226575
10
196.7244959761
20
15.5311108678
10
198.5833120511
20
15.625274428
72
4
94
3
73
0
74
0
95
8
96
4
40
0.0
40
0.0
40
0.0
40
0.0
40
1.0
40
1.0
40
1.0
40
1.0
10
198.5833120511
20
15.625274428
10
200.4421281261
20
15.7194379882
10
202.0325793266
20
14.1458190736
10
202.1356842337
20
12.1104982081
72
4
94
3
73
0
74
0
95
8
96
4
40
0.0
40
0.0
40
0.0
40
0.0
40
1.0
40
1.0
40
1.0
40
1.0
10
202.1356842337
20
12.1104982081
10
202.2387891409
20
10.0751773425
10
200.8155040239
20
8.3488891322
10
198.9566879489
20
8.254725572
72
1
10
198.9566879489
20
8.254725572
11
198.9566879489
21
8.254725572
97
0
75
0
76
1
98
0
0
HATCH
5
8b5
100
AcDbEntity
8
Layer 1
6
Solid
370
0
62
0
100
AcDbHatch
10
0
20
0
30
0
210
0
220
0
230
1
2
FILL_2229
70
1
71
0
91
1
92
0
93
6
72
1
10
114.2890597548
20
8.1902045183
11
114.2890597548
21
8.1902045183
72
4
94
3
73
0
74
0
95
8
96
4
40
0.0
40
0.0
40
0.0
40
0.0
40
1.0
40
1.0
40
1.0
40
1.0
10
114.2890597548
20
8.1902045183
10
112.4334847433
20
8.1707722719
10
110.9117563378
20
9.8249056408
10
110.8901842309
20
11.8848148054
72
4
94
3
73
0
74
0
95
8
96
4
40
0.0
40
0.0
40
0.0
40
0.0
40
1.0
40
1.0
40
1.0
40
1.0
10
110.8901842309
20
11.8848148054
10
110.868612124
20
13.9447239699
10
112.3553652337
20
15.6303632353
10
114.2109402452
20
15.6497954817
72
4
94
3
73
0
74
0
95
8
96
4
40
0.0
40
0.0
40
0.0
40
0.0
40
1.0
40
1.0
40
1.0
40
1.0
10
114.2109402452
20
15.6497954817
10
116.0665152567
20
15.6692277281
10
117.5882436622
20
14.0150943592
10
117.6098157691
20
11.9551851946
72
4
94
3
73
0
74
0
95
8
96
4
40
0.0
40
0.0
40
0.0
40
0.0
40
1.0
40
1.0
40
1.0
40
1.0
10
117.6098157691
20
11.9551851946
10
117.631387876
20
9.8952760301
10
116.1446347663
20
8.2096367647
10
114.2890597548
20
8.1902045183
72
1
10
114.2890597548
20
8.1902045183
11
114.2890597548
21
8.1902045183
97
0
75
0
76
1
98
0
0
ENDSEC
0
SECTION
2
OBJECTS
0
DICTIONARY
5
17
330
0
100
AcDbDictionary
281
1
3
ACAD_GROUP
350
18
0
DICTIONARY
5
18
330
17
100
AcDbDictionary
281
1
0
ENDSEC
0
EOF
