<?xml version="1.0" encoding="UTF-8" standalone="no"?>
<!DOCTYPE svg PUBLIC "-//W3C//DTD SVG 1.1//EN" "http://www.w3.org/Graphics/SVG/1.1/DTD/svg11.dtd">
<svg xmlns="http://www.w3.org/2000/svg" version="1.1" viewBox="0.00 0.00 300.00 192.00">
<path fill="#ffffff" d="
  M 124.27 19.40
  Q 134.66 10.23 147.08 7.59
  C 164.14 3.96 181.22 9.56 193.12 22.39
  Q 199.70 29.48 203.47 39.62
  Q 203.64 40.09 204.13 40.19
  Q 224.08 44.49 236.87 56.98
  Q 247.01 66.90 250.60 83.20
  Q 250.69 83.61 251.16 83.65
  L 288.10 86.50
  Q 288.17 86.50 288.17 86.60
  Q 288.18 86.62 288.18 86.64
  Q 288.18 86.67 288.14 86.67
  L 7.68 87.74
  A 0.13 0.13 0.0 0 1 7.58 87.53
  L 7.76 87.31
  Q 7.78 87.29 7.80 87.29
  L 45.42 83.90
  A 0.92 0.91 9.7 0 0 46.16 83.38
  Q 51.86 71.35 64.18 64.02
  A 1.03 1.02 -11.4 0 0 64.67 63.29
  Q 68.21 37.63 89.38 25.15
  Q 104.84 16.04 123.46 19.62
  Q 123.92 19.71 124.27 19.40
  Z"
/>
<path fill="#ffffff" d="
  M 81.03 96.26
  L 81.62 97.12
  Q 81.89 97.51 81.48 97.75
  L 77.24 100.20
  Q 76.77 100.47 76.52 99.99
  C 73.21 93.61 63.23 97.06 64.84 104.22
  Q 65.45 106.91 67.92 108.37
  A 0.63 0.62 -59.9 0 1 68.14 109.22
  L 65.94 113.03
  Q 65.69 113.47 65.19 113.38
  Q 64.82 113.31 64.46 113.09
  Q 64.06 112.83 64.14 112.35
  L 64.40 110.86
  Q 64.49 110.36 64.17 109.97
  Q 63.84 109.56 63.33 109.42
  Q 62.91 109.31 62.20 109.58
  Q 61.94 109.69 61.65 109.75
  Q 61.12 109.88 60.80 109.44
  Q 60.15 108.53 60.14 108.00
  Q 60.12 107.45 60.62 107.23
  Q 62.03 106.57 61.15 104.86
  Q 60.90 104.37 60.35 104.34
  L 59.56 104.29
  A 0.72 0.72 0.0 0 1 58.91 103.72
  Q 58.72 102.79 58.99 102.01
  Q 59.17 101.48 59.73 101.50
  Q 60.89 101.53 61.58 100.01
  Q 61.73 99.69 61.48 99.45
  L 60.40 98.36
  Q 59.93 97.89 60.17 97.27
  Q 60.44 96.59 61.22 96.04
  A 0.80 0.79 -42.9 0 1 62.17 96.07
  Q 63.15 96.85 64.32 95.57
  A 0.46 0.45 23.1 0 0 64.01 94.81
  L 7.79 91.26
  Q 7.62 91.25 7.60 91.00
  Q 7.57 90.82 7.72 90.82
  L 117.50 89.21
  Q 118.02 89.20 118.05 89.72
  Q 118.82 103.41 128.24 111.67
  Q 136.03 118.50 146.35 119.07
  Q 160.82 119.87 170.81 108.60
  Q 177.45 101.11 177.95 89.77
  Q 177.97 89.23 178.51 89.23
  Q 243.72 89.31 280.02 89.21
  Q 284.30 89.20 286.23 89.38
  Q 287.11 89.47 286.23 89.53
  L 233.20 93.60
  Q 232.34 93.67 232.28 94.53
  Q 232.24 95.09 232.71 95.78
  A 1.29 1.29 0.0 0 0 234.23 96.28
  L 235.11 95.97
  Q 235.79 95.72 236.04 96.41
  L 236.52 97.76
  Q 236.68 98.21 236.26 98.43
  Q 234.62 99.28 235.57 100.89
  Q 235.85 101.36 236.39 101.40
  L 236.94 101.43
  Q 237.60 101.47 237.73 102.11
  Q 237.93 102.99 237.71 103.82
  A 0.71 0.70 9.5 0 1 236.98 104.34
  L 236.32 104.30
  A 0.79 0.78 -75.3 0 0 235.57 104.74
  Q 234.71 106.54 236.32 107.47
  Q 236.84 107.76 236.54 108.27
  L 235.83 109.51
  Q 235.58 109.93 235.12 109.80
  L 233.78 109.43
  Q 233.34 109.31 232.98 109.60
  Q 231.71 110.63 232.65 112.15
  Q 233.09 112.88 232.29 113.17
  L 231.12 113.59
  Q 230.44 113.84 230.19 113.16
  L 228.67 108.93
  Q 228.52 108.49 228.92 108.26
  C 234.42 104.98 232.12 96.68 225.64 96.66
  Q 221.99 96.65 220.04 100.43
  Q 219.80 100.90 219.35 100.64
  L 215.59 98.47
  Q 214.71 97.96 215.22 97.07
  L 215.60 96.41
  Q 216.14 95.48 217.04 96.06
  Q 218.22 96.81 219.33 95.24
  A 0.37 0.37 0.0 0 0 219.00 94.66
  L 195.15 96.48
  Q 194.79 96.51 194.70 96.85
  L 192.50 104.82
  Q 192.20 105.91 193.06 106.63
  L 199.80 112.28
  Q 200.28 112.68 199.86 113.41
  L 195.33 121.25
  A 1.55 1.55 0.0 0 1 193.48 121.94
  L 185.12 119.01
  A 0.44 0.42 -57.0 0 0 184.69 119.11
  L 178.41 125.39
  Q 177.97 125.83 178.18 126.42
  L 181.24 134.92
  A 1.02 1.01 65.4 0 1 180.79 136.14
  L 172.81 140.75
  Q 171.91 141.27 171.22 140.48
  L 165.42 133.75
  Q 165.11 133.39 164.65 133.51
  L 156.10 135.82
  Q 155.62 135.94 155.54 136.43
  L 154.02 145.08
  A 1.33 1.33 0.0 0 1 152.72 146.18
  L 143.50 146.32
  A 1.00 0.99 -5.5 0 1 142.51 145.51
  L 140.84 136.41
  Q 140.78 136.06 140.44 135.97
  L 131.65 133.55
  A 0.55 0.55 0.0 0 0 131.07 133.73
  L 125.17 140.76
  A 1.15 1.14 34.6 0 1 123.72 141.02
  L 115.50 136.27
  A 0.86 0.85 -65.6 0 1 115.12 135.25
  L 118.23 126.36
  Q 118.34 126.07 118.12 125.85
  L 111.86 119.59
  Q 111.44 119.17 110.88 119.37
  L 102.62 122.34
  A 1.35 1.34 -24.8 0 1 101.00 121.75
  L 96.32 113.64
  A 0.81 0.81 0.0 0 1 96.49 112.62
  L 103.48 106.59
  A 0.89 0.88 -28.3 0 0 103.76 105.68
  L 101.51 97.30
  Q 101.40 96.92 101.01 96.90
  L 81.37 95.66
  Q 80.58 95.61 81.03 96.26
  Z
  M 78.29 95.61
  Q 78.08 95.63 78.12 95.84
  Q 78.27 96.53 79.19 96.29
  Q 80.16 96.03 79.31 95.60
  Q 79.15 95.51 78.29 95.61
  Z"
/>
<path fill="#ffffff" d="
  M 93.10 142.20
  L 92.46 145.68
  Q 92.36 146.24 91.79 146.24
  L 88.02 146.23
  Q 87.57 146.23 87.49 145.79
  L 86.85 142.24
  A 0.71 0.70 0.6 0 0 86.28 141.66
  L 83.00 141.06
  Q 82.64 140.99 82.40 141.27
  L 80.19 143.85
  Q 79.86 144.22 79.43 143.97
  L 76.10 142.06
  A 0.50 0.50 0.0 0 1 75.88 141.45
  L 77.02 138.24
  Q 77.15 137.88 76.90 137.58
  L 74.86 135.14
  Q 74.47 134.68 73.90 134.88
  L 70.50 136.06
  Q 70.08 136.21 69.86 135.83
  L 67.96 132.55
  Q 67.67 132.05 68.11 131.68
  L 70.77 129.46
  Q 71.20 129.09 71.02 128.55
  L 70.00 125.68
  Q 69.83 125.20 69.33 125.11
  L 66.54 124.60
  Q 65.59 124.42 65.59 123.46
  L 65.60 120.61
  Q 65.60 119.55 66.64 119.37
  L 69.37 118.89
  A 0.71 0.71 0.0 0 0 69.92 118.43
  L 70.97 115.46
  Q 71.16 114.96 70.75 114.61
  L 68.06 112.29
  Q 67.62 111.91 67.91 111.42
  L 69.75 108.24
  Q 70.04 107.72 70.61 107.92
  L 73.90 109.10
  Q 74.39 109.28 74.74 108.88
  L 76.75 106.56
  Q 77.08 106.17 76.90 105.69
  L 75.82 102.61
  Q 75.64 102.09 76.12 101.81
  L 79.33 99.96
  A 0.63 0.63 0.0 0 1 80.13 100.10
  L 82.22 102.59
  Q 82.50 102.91 82.92 102.84
  L 86.04 102.29
  Q 86.64 102.18 86.75 101.59
  L 87.38 98.17
  A 0.66 0.66 0.0 0 1 88.02 97.63
  L 91.73 97.64
  Q 92.26 97.64 92.36 98.17
  L 92.98 101.62
  Q 93.07 102.16 93.60 102.25
  L 96.62 102.80
  Q 97.05 102.88 97.33 102.55
  L 99.28 100.20
  Q 100.20 99.11 101.29 100.60
  Q 101.82 101.33 102.54 103.60
  Q 102.99 105.05 101.83 106.02
  L 96.53 110.46
  Q 96.17 110.76 95.74 110.55
  C 88.70 107.07 80.35 110.57 77.82 118.03
  C 75.06 126.20 81.28 134.63 89.92 134.56
  Q 100.21 134.46 102.33 124.75
  Q 102.45 124.23 102.95 124.06
  L 111.35 121.10
  Q 112.09 120.85 112.35 121.60
  L 112.93 123.24
  A 0.64 0.64 0.0 0 1 112.54 124.05
  L 110.27 124.84
  Q 109.61 125.07 109.49 125.75
  L 108.95 128.70
  Q 108.89 129.09 109.18 129.34
  L 111.73 131.53
  Q 112.19 131.93 111.88 132.45
  L 110.07 135.59
  Q 109.79 136.08 109.26 135.89
  L 106.22 134.80
  A 0.72 0.70 34.4 0 0 105.52 134.92
  L 103.11 136.95
  Q 102.61 137.36 102.83 137.97
  L 103.97 141.19
  Q 104.17 141.77 103.64 142.07
  L 100.49 143.90
  Q 100.04 144.16 99.71 143.77
  L 97.58 141.22
  Q 97.35 140.94 96.99 141.00
  L 93.72 141.58
  Q 93.20 141.67 93.10 142.20
  Z"
/>
<path fill="#ffffff" d="
  M 202.51 141.59
  L 199.24 141.01
  Q 198.88 140.95 198.65 141.23
  L 196.52 143.78
  Q 196.19 144.17 195.74 143.91
  L 192.59 142.09
  Q 192.06 141.79 192.26 141.21
  L 193.39 137.98
  Q 193.61 137.37 193.11 136.96
  L 190.70 134.94
  A 0.72 0.70 -34.5 0 0 190.00 134.82
  L 186.96 135.91
  Q 186.43 136.10 186.15 135.61
  L 184.34 132.47
  Q 184.03 131.95 184.49 131.55
  L 187.04 129.36
  Q 187.33 129.11 187.26 128.72
  L 186.72 125.77
  Q 186.60 125.09 185.94 124.86
  L 183.67 124.07
  A 0.64 0.64 0.0 0 1 183.28 123.26
  L 183.86 121.62
  Q 184.12 120.87 184.86 121.12
  L 193.26 124.07
  Q 193.76 124.24 193.88 124.76
  Q 196.01 134.47 206.31 134.56
  C 214.95 134.63 221.16 126.19 218.39 118.02
  C 215.86 110.56 207.50 107.06 200.46 110.55
  Q 200.03 110.76 199.67 110.46
  L 194.37 106.02
  Q 193.21 105.05 193.66 103.60
  Q 194.37 101.33 194.90 100.60
  Q 195.99 99.11 196.91 100.20
  L 198.87 102.55
  Q 199.15 102.88 199.58 102.80
  L 202.60 102.25
  Q 203.13 102.16 203.22 101.62
  L 203.83 98.16
  Q 203.93 97.63 204.46 97.63
  L 208.17 97.62
  A 0.66 0.66 0.0 0 1 208.82 98.16
  L 209.45 101.58
  Q 209.56 102.17 210.16 102.28
  L 213.28 102.83
  Q 213.70 102.90 213.98 102.58
  L 216.07 100.08
  A 0.63 0.63 0.0 0 1 216.87 99.94
  L 220.08 101.79
  Q 220.56 102.07 220.38 102.59
  L 219.30 105.67
  Q 219.13 106.15 219.46 106.54
  L 221.47 108.86
  Q 221.82 109.26 222.31 109.08
  L 225.60 107.90
  Q 226.17 107.70 226.46 108.22
  L 228.30 111.40
  Q 228.59 111.89 228.15 112.27
  L 225.46 114.59
  Q 225.05 114.94 225.24 115.44
  L 226.30 118.41
  A 0.71 0.71 0.0 0 0 226.85 118.87
  L 229.58 119.35
  Q 230.62 119.53 230.62 120.59
  L 230.63 123.44
  Q 230.63 124.40 229.68 124.58
  L 226.89 125.09
  Q 226.39 125.18 226.22 125.66
  L 225.21 128.53
  Q 225.03 129.07 225.46 129.44
  L 228.12 131.66
  Q 228.56 132.03 228.27 132.53
  L 226.37 135.82
  Q 226.15 136.20 225.73 136.05
  L 222.33 134.87
  Q 221.76 134.67 221.37 135.13
  L 219.33 137.57
  Q 219.08 137.87 219.21 138.23
  L 220.36 141.44
  A 0.50 0.50 0.0 0 1 220.14 142.05
  L 216.81 143.97
  Q 216.38 144.22 216.05 143.85
  L 213.83 141.27
  Q 213.59 140.99 213.23 141.06
  L 209.95 141.66
  A 0.71 0.70 -0.6 0 0 209.38 142.24
  L 208.75 145.79
  Q 208.67 146.23 208.22 146.23
  L 204.44 146.25
  Q 203.87 146.25 203.77 145.69
  L 203.13 142.21
  Q 203.03 141.68 202.51 141.59
  Z"
/>
<rect fill="#ffffff" x="166.88" y="171.62" width="1.62" height="13.34" rx="0.40"/>
<path fill="#ffffff" d="
  M 201.76 183.87
  Q 199.10 185.96 196.60 184.76
  C 190.57 181.86 194.87 171.40 201.73 176.24
  Q 202.15 176.54 202.15 176.01
  L 202.14 172.21
  Q 202.14 171.64 202.71 171.63
  L 203.00 171.63
  Q 203.72 171.63 203.72 172.35
  L 203.77 184.39
  Q 203.77 184.95 203.21 184.99
  Q 202.94 185.01 202.50 184.88
  Q 202.06 184.74 202.07 184.29
  Q 202.07 184.10 202.09 184.01
  Q 202.15 183.57 201.76 183.87
  Z
  M 198.9567 183.7453
  A 3.69 3.37 87.1 0 0 202.1357 179.8895
  A 3.69 3.37 87.1 0 0 198.5833 176.3747
  A 3.69 3.37 87.1 0 0 195.4043 180.2305
  A 3.69 3.37 87.1 0 0 198.9567 183.7453
  Z"
/>
<path fill="#ffffff" d="
  M 145.29 183.03
  Q 144.64 183.57 145.49 183.56
  L 150.44 183.49
  A 0.44 0.44 0.0 0 1 150.89 183.92
  L 150.89 184.24
  Q 150.90 184.83 150.32 184.83
  L 143.98 184.93
  Q 140.41 184.98 143.25 182.82
  C 145.63 181.01 148.97 178.35 148.84 175.22
  A 2.15 2.15 0.0 0 0 146.61 173.15
  Q 144.12 173.24 143.90 175.39
  A 0.66 0.65 2.5 0 1 143.26 175.97
  L 142.77 175.98
  A 0.55 0.55 0.0 0 1 142.22 175.34
  C 142.80 171.83 146.99 170.63 149.40 172.84
  Q 150.51 173.86 150.45 175.39
  C 150.32 178.69 147.88 180.92 145.29 183.03
  Z"
/>
<path fill="#ffffff" d="
  M 154.11 178.67
  C 154.07 183.47 159.13 185.48 162.19 181.91
  Q 162.66 181.37 163.37 181.37
  L 163.92 181.36
  A 0.46 0.46 0.0 0 1 164.27 182.12
  Q 160.09 187.04 155.26 184.07
  Q 152.34 182.28 152.38 178.65
  Q 152.41 175.03 155.35 173.29
  Q 160.23 170.40 164.33 175.39
  A 0.46 0.46 0.0 0 1 163.96 176.14
  L 163.41 176.12
  Q 162.70 176.11 162.25 175.57
  C 159.24 171.95 154.15 173.87 154.11 178.67
  Z"
/>
<path fill="#ffffff" d="
  M 100.75 182.42
  Q 100.91 182.42 100.96 182.32
  Q 103.62 176.62 105.11 173.01
  A 0.85 0.84 10.5 0 1 105.88 172.49
  L 106.54 172.49
  Q 107.11 172.49 107.11 173.05
  L 107.15 184.41
  Q 107.16 184.98 106.58 184.98
  L 106.05 184.98
  Q 105.51 184.99 105.51 184.45
  L 105.48 177.14
  Q 105.47 175.55 104.87 177.02
  Q 104.38 178.18 101.57 184.46
  Q 101.45 184.74 101.26 184.85
  Q 101.03 184.99 100.75 184.99
  Q 100.47 184.99 100.23 184.85
  Q 100.04 184.74 99.93 184.46
  Q 97.13 178.17 96.65 177.01
  Q 96.05 175.54 96.04 177.13
  L 95.99 184.44
  Q 95.98 184.98 95.44 184.96
  L 94.91 184.96
  Q 94.33 184.96 94.35 184.39
  L 94.42 173.03
  Q 94.42 172.47 94.99 172.47
  L 95.65 172.47
  A 0.85 0.84 -10.3 0 1 96.42 173.00
  Q 97.90 176.61 100.54 182.32
  Q 100.59 182.42 100.75 182.42
  Z"
/>
<path fill="#ffffff" d="
  M 119.34 180.06
  A 5.09 5.09 0.0 0 1 114.25 185.15
  A 5.09 5.09 0.0 0 1 109.16 180.06
  A 5.09 5.09 0.0 0 1 114.25 174.97
  A 5.09 5.09 0.0 0 1 119.34 180.06
  Z
  M 114.2891 183.8098
  A 3.73 3.36 89.4 0 0 117.6098 180.0448
  A 3.73 3.36 89.4 0 0 114.2109 176.3502
  A 3.73 3.36 89.4 0 0 110.8902 180.1152
  A 3.73 3.36 89.4 0 0 114.2891 183.8098
  Z"
/>
<path fill="#ffffff" d="
  M 125.06 183.13
  Q 125.15 183.13 125.20 183.01
  Q 126.63 179.38 127.86 175.77
  A 1.01 1.01 0.0 0 1 128.99 175.10
  L 129.33 175.16
  Q 129.85 175.26 129.66 175.75
  L 126.23 184.44
  Q 126.05 184.90 125.56 184.99
  Q 125.41 185.03 125.06 185.03
  Q 124.72 185.03 124.56 185.00
  Q 124.08 184.90 123.90 184.44
  L 120.46 175.75
  Q 120.27 175.26 120.79 175.16
  L 121.13 175.10
  A 1.01 1.01 0.0 0 1 122.26 175.77
  Q 123.49 179.38 124.92 183.01
  Q 124.97 183.13 125.06 183.13
  Z"
/>
<path fill="#ffffff" d="
  M 132.66 181.30
  Q 133.40 184.39 136.82 183.60
  Q 137.29 183.49 137.60 183.13
  Q 138.53 182.04 139.72 181.96
  A 0.48 0.48 0.0 0 1 140.15 182.71
  Q 137.62 186.40 133.48 184.59
  Q 130.97 183.50 130.93 179.99
  Q 130.87 174.93 136.42 175.03
  Q 138.82 175.07 139.90 177.44
  L 140.40 178.55
  Q 141.34 180.62 139.06 180.63
  L 133.18 180.65
  Q 132.51 180.65 132.66 181.30
  Z
  M 132.83 179.37
  L 138.63 179.39
  A 0.16 0.16 0.0 0 0 138.79 179.23
  L 138.79 179.14
  A 2.92 2.77 0.1 0 0 135.87 176.36
  L 135.59 176.36
  A 2.92 2.77 0.1 0 0 132.67 179.12
  L 132.67 179.21
  A 0.16 0.16 0.0 0 0 132.83 179.37
  Z"
/>
<path fill="#ffffff" d="
  M 180.79 180.07
  A 5.08 5.08 0.0 0 1 175.71 185.15
  A 5.08 5.08 0.0 0 1 170.63 180.07
  A 5.08 5.08 0.0 0 1 175.71 174.99
  A 5.08 5.08 0.0 0 1 180.79 180.07
  Z
  M 175.6149 183.7994
  A 3.73 3.38 91.0 0 0 179.0595 180.1290
  A 3.73 3.38 91.0 0 0 175.7451 176.3406
  A 3.73 3.38 91.0 0 0 172.3005 180.0110
  A 3.73 3.38 91.0 0 0 175.6149 183.7994
  Z"
/>
<path fill="#ffffff" d="
  M 189.16 184.22
  Q 186.83 186.07 184.18 184.24
  Q 182.75 183.26 182.74 180.26
  Q 182.73 177.04 182.75 175.59
  Q 182.76 175.11 183.24 175.10
  L 183.83 175.10
  A 0.52 0.51 -0.0 0 1 184.35 175.61
  L 184.43 181.24
  Q 184.46 183.62 187.06 183.70
  Q 187.15 183.70 187.38 183.69
  Q 189.81 183.63 189.90 181.07
  L 190.08 175.68
  A 0.67 0.67 0.0 0 1 190.74 175.03
  L 191.12 175.03
  Q 191.60 175.03 191.60 175.53
  L 191.64 184.43
  Q 191.64 184.89 191.18 184.98
  Q 190.19 185.17 189.87 184.40
  Q 189.63 183.85 189.16 184.22
  Z"
/>
</svg>
