
        <svg xmlns="http://www.w3.org/2000/svg" xmlns:xlink="http://www.w3.org/1999/xlink" version="1.1" width="3168.5393258426966" 
        height="1086.4745140662" viewBox="0 0 3168.5393258426966 1086.4745140662">
			
			<g transform="scale(8.426966292134832) translate(10, 10)">
				<defs id="SvgjsDefs1407"></defs><g id="SvgjsG1408" featureKey="rDwwlG-0" transform="matrix(0.9077359083543534,0,0,0.9077359083543534,-18.170967063685705,-13.6160386253153)" fill="#ffffff"><g xmlns="http://www.w3.org/2000/svg"><path d="M83.7,71.1c0.2,0,0.3,0,0.5-0.1l1.7-1c0.5-0.3,0.6-0.9,0.4-1.4c-0.3-0.5-0.9-0.6-1.4-0.4l-1.7,1     c-0.5,0.3-0.6,0.9-0.4,1.4C83,70.9,83.3,71.1,83.7,71.1z"></path><path d="M92.4,66.1c0.2,0,0.3,0,0.5-0.1l1.7-1c0.5-0.3,0.6-0.9,0.4-1.4c-0.3-0.5-0.9-0.6-1.4-0.4l-1.7,1     c-0.5,0.3-0.6,0.9-0.4,1.4C91.7,65.9,92,66.1,92.4,66.1z"></path><path d="M66.4,69l-1.7-1c-0.5-0.3-1.1-0.1-1.4,0.4c-0.3,0.5-0.1,1.1,0.4,1.4l1.7,1c0.2,0.1,0.3,0.1,0.5,0.1     c0.3,0,0.7-0.2,0.9-0.5C67,69.9,66.8,69.3,66.4,69z"></path><path d="M57.6,64.1l-1.7-1c-0.5-0.3-1.1-0.1-1.4,0.4c-0.3,0.5-0.1,1.1,0.4,1.4l1.7,1c0.2,0.1,0.3,0.1,0.5,0.1     c0.3,0,0.7-0.2,0.9-0.5C58.3,65,58.1,64.4,57.6,64.1z"></path><path d="M75,94c-0.6,0-1,0.4-1,1v2c0,0.6,0.4,1,1,1s1-0.4,1-1v-2C76,94.4,75.6,94,75,94z"></path><path d="M75,84c-0.6,0-1,0.4-1,1v2c0,0.6,0.4,1,1,1s1-0.4,1-1v-2C76,84.4,75.6,84,75,84z"></path><path d="M75,65.9c0.6,0,1-0.4,1-1v-2c0-0.6-0.4-1-1-1s-1,0.4-1,1v2C74,65.4,74.4,65.9,75,65.9z"></path><path d="M75,55.9c0.6,0,1-0.4,1-1v-2c0-0.6-0.4-1-1-1s-1,0.4-1,1v2C74,55.4,74.4,55.9,75,55.9z"></path><path d="M94.7,84.9l-1.7-1c-0.5-0.3-1.1-0.1-1.4,0.4c-0.3,0.5-0.1,1.1,0.4,1.4l1.7,1c0.2,0.1,0.3,0.1,0.5,0.1     c0.3,0,0.7-0.2,0.9-0.5C95.3,85.8,95.2,85.2,94.7,84.9z"></path><path d="M86,80l-1.7-1c-0.5-0.3-1.1-0.1-1.4,0.4s-0.1,1.1,0.4,1.4l1.7,1c0.2,0.1,0.3,0.1,0.5,0.1c0.3,0,0.7-0.2,0.9-0.5     C86.6,80.9,86.4,80.3,86,80z"></path><path d="M56.7,84.2l-1.7,1c-0.5,0.3-0.7,0.9-0.4,1.4c0.2,0.3,0.5,0.5,0.9,0.5c0.2,0,0.3,0,0.5-0.1l1.7-1c0.5-0.3,0.7-0.9,0.4-1.4     C57.8,84.1,57.1,83.9,56.7,84.2z"></path><path d="M65.4,79.3l-1.7,1c-0.5,0.3-0.7,0.9-0.4,1.4c0.2,0.3,0.5,0.5,0.9,0.5c0.2,0,0.3,0,0.5-0.1l1.7-1c0.5-0.3,0.7-0.9,0.4-1.4     C66.5,79.2,65.9,79,65.4,79.3z"></path><path d="M121.1,75c3.9-5.2,6.7-10.4,8-15.3c1.5-5.7,1.1-10.6-1.3-14.7c-4.6-7.8-15.8-10.8-29.8-9.2C92.4,23.1,84.2,15,75,15     c-9.2,0-17.4,8.1-23,20.8c-14-1.6-25.2,1.4-29.8,9.2c-2.4,4.1-2.8,9-1.3,14.7c1.3,5,4.1,10.2,8,15.3c-3.9,5.2-6.7,10.4-8,15.3     c-1.5,5.7-1.1,10.6,1.3,14.7c3.8,6.5,12.1,9.6,22.8,9.6c2.3,0,4.6-0.2,7.1-0.4c5.6,12.7,13.8,20.8,23,20.8     c9.2,0,17.4-8.1,23-20.8c2.4,0.3,4.8,0.4,7.1,0.4c10.7,0,19-3.2,22.8-9.6c2.4-4.1,2.8-9,1.3-14.7C127.8,85.4,125.1,80.2,121.1,75     z M105.2,37.3c9.9,0,17.5,2.9,20.9,8.8c2.1,3.6,2.5,8,1.1,13.1c-1.2,4.5-3.8,9.4-7.4,14.2c-3.2-4-7.2-8-11.7-11.8     c0.4-0.8,0.7-1.7,0.7-2.6c0-3-2.5-5.5-5.5-5.5c-1.1-5.7-2.7-11-4.6-15.8C101,37.4,103.1,37.3,105.2,37.3z M106.8,90.9     c0,1.9-1.6,3.5-3.5,3.5s-3.5-1.6-3.5-3.5s1.6-3.5,3.5-3.5S106.8,89,106.8,90.9z M103,85.4c-2.9,0.2-5.2,2.6-5.2,5.5     c0,0.9,0.2,1.8,0.6,2.5c-2.9,2-6,4-9.2,5.8c-3.2,1.8-6.4,3.4-9.6,4.9c-1-1.5-2.7-2.5-4.6-2.5c-1.9,0-3.6,1-4.6,2.5     c-3.2-1.5-6.4-3.1-9.6-4.9c-3.2-1.8-6.3-3.7-9.2-5.8c0.4-0.8,0.6-1.6,0.6-2.5c0-2.9-2.3-5.3-5.2-5.5c-0.3-3.4-0.5-6.8-0.5-10.4     c0-3.5,0.2-7,0.5-10.4c2.9-0.2,5.2-2.6,5.2-5.5c0-0.9-0.2-1.8-0.6-2.5c2.9-2,6-4,9.2-5.8c3.2-1.8,6.4-3.4,9.6-4.9     c1,1.5,2.7,2.5,4.6,2.5c1.9,0,3.6-1,4.6-2.5c3.2,1.5,6.4,3.1,9.6,4.9c3.2,1.8,6.2,3.7,9.1,5.7c-0.3,0.7-0.5,1.5-0.5,2.4     c0,2.9,2.3,5.3,5.2,5.5c0.3,3.4,0.5,7,0.5,10.6C103.4,78.5,103.3,82,103,85.4z M78.5,107.1c0,1.9-1.6,3.5-3.5,3.5     s-3.5-1.6-3.5-3.5s1.6-3.5,3.5-3.5S78.5,105.2,78.5,107.1z M46.7,87.4c1.9,0,3.5,1.6,3.5,3.5s-1.6,3.5-3.5,3.5     c-1.9,0-3.5-1.6-3.5-3.5S44.7,87.4,46.7,87.4z M43.2,59.1c0-1.9,1.6-3.5,3.5-3.5c1.9,0,3.5,1.6,3.5,3.5c0,1.9-1.6,3.5-3.5,3.5     C44.7,62.6,43.2,61,43.2,59.1z M71.5,42.9c0-1.9,1.6-3.5,3.5-3.5s3.5,1.6,3.5,3.5c0,1.9-1.6,3.5-3.5,3.5S71.5,44.8,71.5,42.9z      M103.3,62.5c-1.9,0-3.5-1.6-3.5-3.5s1.6-3.5,3.5-3.5s3.5,1.6,3.5,3.5S105.3,62.5,103.3,62.5z M99.5,54.9c-2.9-2-6.1-4-9.3-5.8     c-3.3-1.9-6.5-3.5-9.8-5c0.1-0.4,0.1-0.8,0.1-1.2c0-0.3,0-0.6-0.1-1c5.7-2,11.2-3.3,16.4-4c1.9,4.7,3.5,10.1,4.6,15.9     C100.7,54,100.1,54.4,99.5,54.9z M69.6,44.1c-3.3,1.5-6.5,3.1-9.8,5c-3.3,1.9-6.4,3.8-9.4,5.9c-0.5-0.5-1.2-0.9-1.8-1.1     c1.1-5.9,2.7-11.3,4.6-16c5.1,0.7,10.7,2.1,16.4,4c-0.1,0.3-0.1,0.6-0.1,1C69.5,43.3,69.5,43.7,69.6,44.1z M43,63.2     c0.6,0.5,1.3,0.9,2.1,1.2c-0.3,3.4-0.5,7-0.5,10.6c0,3.6,0.2,7.2,0.5,10.6c-0.8,0.2-1.5,0.6-2.1,1.2C38.6,83,34.7,79,31.5,75     C34.7,71,38.6,67,43,63.2z M50.4,95c3,2.1,6.1,4,9.4,5.9c3.3,1.9,6.5,3.5,9.8,5c-0.1,0.4-0.1,0.8-0.1,1.2c0,0.3,0,0.6,0.1,1     c-5.7,2-11.2,3.3-16.4,4c-1.9-4.8-3.5-10.2-4.6-16C49.2,95.9,49.9,95.5,50.4,95z M80.4,105.9c3.3-1.5,6.5-3.1,9.8-5     c3.3-1.9,6.4-3.8,9.4-5.9c0.5,0.5,1.2,0.9,1.8,1.1c-1.1,5.9-2.7,11.3-4.6,16c-5.1-0.7-10.7-2.1-16.4-4c0.1-0.3,0.1-0.6,0.1-1     C80.5,106.7,80.5,106.3,80.4,105.9z M107,86.8c-0.6-0.5-1.3-0.9-2.1-1.2c0.3-3.4,0.5-7,0.5-10.6c0-3.7-0.2-7.3-0.5-10.8     c0.7-0.2,1.4-0.6,2-1.1c4.5,3.8,8.4,7.8,11.6,11.9C115.3,79,111.4,83,107,86.8z M75,17c8.3,0,15.8,7.4,21,19.1     c-5.1,0.7-10.6,2.1-16.3,4c-1-1.6-2.7-2.7-4.8-2.7c-2,0-3.8,1.1-4.8,2.7c-5.6-1.9-11.1-3.3-16.3-4C59.2,24.4,66.7,17,75,17z      M22.8,59.1c-1.4-5.1-1-9.5,1.1-13.1c3.5-5.9,11.1-8.8,20.9-8.8c2,0,4.2,0.1,6.4,0.4c-1.9,4.8-3.5,10.1-4.6,15.9     c-3,0-5.4,2.5-5.4,5.5c0,0.9,0.2,1.7,0.6,2.5c-4.5,3.8-8.4,7.7-11.6,11.7C26.5,68.5,24,63.7,22.8,59.1z M23.9,104     c-2.1-3.6-2.5-8-1.1-13.1c1.2-4.5,3.8-9.4,7.4-14.2c3.2,4,7.1,8,11.6,11.7c-0.4,0.8-0.6,1.6-0.6,2.5c0,3,2.4,5.5,5.4,5.5     c1.1,5.8,2.7,11.2,4.6,15.9C38.3,113.8,28.1,111.1,23.9,104z M75,133c-8.3,0-15.8-7.4-21-19.1c5.1-0.7,10.6-2.1,16.3-4     c1,1.6,2.7,2.7,4.8,2.7c2,0,3.8-1.1,4.8-2.7c5.6,1.9,11.1,3.3,16.3,4C90.8,125.6,83.3,133,75,133z M126.1,104     c-4.2,7.1-14.4,9.8-27.3,8.4c1.9-4.8,3.5-10.1,4.6-15.9c3-0.1,5.4-2.5,5.4-5.5c0-0.9-0.2-1.7-0.6-2.5c4.5-3.8,8.4-7.7,11.6-11.7     c3.6,4.8,6.2,9.7,7.4,14.2C128.6,96,128.2,100.4,126.1,104z"></path><path d="M75,69.5c-3.1,0-5.5,2.5-5.5,5.5s2.5,5.5,5.5,5.5s5.5-2.5,5.5-5.5S78.1,69.5,75,69.5z M75,78.5c-1.9,0-3.5-1.6-3.5-3.5     s1.6-3.5,3.5-3.5s3.5,1.6,3.5,3.5S76.9,78.5,75,78.5z"></path></g></g><g id="SvgjsG1409" featureKey="textGroupContainer" transform="matrix(1,0,0,1,355,27)" fill="#ffffff"><rect xmlns="http://www.w3.org/2000/svg" y="0" height="1" width="1" opacity="0"></rect><rect xmlns="http://www.w3.org/2000/svg" y="0" x="-235" width="3" height="56"></rect></g><g id="SvgjsG1410" featureKey="4AZ1rv-0" transform="matrix(1.8357987335885186,0,0,1.8357987335885186,136.17079274618456,32.06447144978757)" fill="#ffffff"><path d="M3.9 5.02 c-0.2 0 -0.4 0.02 -0.6 0.02 c-0.3 0 -0.66 -0.06 -0.72 0.34 c-0.2 1.7 -0.38 3.58 -0.58 5.28 c-0.34 2.8 -0.66 5.68 -0.98 8.48 c-0.04 0.38 -0.08 0.74 0.34 0.82 c0.64 0.04 1.12 0.04 1.66 0.02 c0.2 0.02 0.42 0.04 0.48 -0.2 c0.04 -0.1 0.04 -0.2 0.04 -0.3 c0.04 -0.46 0.64 -6.22 0.88 -6.22 c0.38 0 1.38 4.68 1.86 6.4 c0.06 0.24 0.18 0.34 0.42 0.32 c0.5 -0.04 0.98 0 1.48 0 s0.4 -0.32 0.5 -0.74 c0.12 -0.46 1.28 -6 1.56 -6 c0.32 0 0.98 6.42 1.04 6.56 c0.12 0.28 0.46 0.16 0.7 0.16 c0.36 0 0.7 0.04 1.16 0 c0.34 -0.04 0.68 0.08 0.7 -0.36 c0 -0.1 -0.04 -0.2 -0.06 -0.3 c-0.08 -0.5 -0.18 -1.1 -0.28 -1.6 c-0.14 -1.04 -0.34 -2.06 -0.48 -3.1 c-0.2 -1.64 -0.4 -3.28 -0.58 -4.92 c-0.14 -1.4 -0.34 -2.98 -0.46 -4.38 c-0.04 -0.46 -0.56 -0.3 -0.88 -0.3 l-1.38 0 c-0.22 0 -0.32 0.42 -0.36 0.64 c-0.12 0.56 -1.5 7.78 -1.96 7.78 s-1.94 -6.6 -2.2 -8.04 c-0.06 -0.32 -0.28 -0.42 -0.58 -0.42 z M26.38 8.68 c0.42 1.24 0.52 2.58 0.52 3.9 c0 1.1 -0.2 2.16 -0.48 3.22 c-0.36 1.26 -0.96 2.4 -2.04 3.14 c-0.8 0.58 -1.64 0.96 -2.62 1.06 c-0.14 0 -0.26 0.02 -0.4 0.02 c-0.12 0 -0.24 -0.02 -0.38 -0.02 c-0.98 -0.1 -1.82 -0.48 -2.64 -1.06 c-1.06 -0.74 -1.68 -1.88 -2.02 -3.14 c-0.3 -1.06 -0.48 -2.12 -0.48 -3.22 c0 -1.32 0.1 -2.66 0.52 -3.9 c0.74 -2.14 2.78 -3.66 5 -3.7 c2.22 0.04 4.26 1.56 5.02 3.7 z M24.439999999999998 14.04 c0.2 -1.22 0.12 -2.46 -0.12 -3.68 c-0.24 -1.1 -0.72 -2.18 -1.64 -2.84 c-0.16 -0.12 -0.34 -0.22 -0.52 -0.28 c-0.26 -0.12 -0.54 -0.16 -0.8 -0.16 s-0.52 0.04 -0.78 0.16 c-0.2 0.06 -0.36 0.16 -0.52 0.28 c-0.94 0.66 -1.42 1.74 -1.64 2.84 c-0.24 1.22 -0.32 2.46 -0.12 3.68 c0.2 1.1 0.6 2.58 1.64 3.14 c0.44 0.24 0.92 0.4 1.42 0.42 c0.5 -0.02 1 -0.18 1.44 -0.42 c1.04 -0.56 1.44 -2.04 1.64 -3.14 z M33.28 20.02 c0.3 0 1.4 0.02 1.62 -0.02 c0.14 -0.04 0.22 -0.4 0.26 -0.52 c0.12 -0.38 0.2 -0.78 0.3 -1.16 c0.22 -1 2.44 -9.4 3.22 -12.54 c0.04 -0.14 0.08 -0.3 0.04 -0.44 c-0.06 -0.3 -0.24 -0.34 -0.48 -0.34 c-0.46 0.02 -0.92 0 -1.38 0 c-0.52 0 -0.72 0.06 -0.88 0.64 c-0.78 2.68 -1.3 5.88 -2.02 8.6 l-0.12 0.32 c0 0.02 -0.08 0 -0.08 0 c-0.04 -0.1 -0.1 -0.18 -0.12 -0.28 c-0.72 -2.86 -1.9 -8.52 -2.1 -9.06 c-0.12 -0.32 -0.42 -0.22 -0.7 -0.22 c-0.56 0 -1.08 0.02 -1.62 0.02 c-0.2 0.02 -0.34 0.1 -0.32 0.3 c0 0.16 0.22 1.04 0.26 1.28 l0.22 0.84 c0.14 0.64 0.34 1.44 0.48 2.06 c0.76 3.18 1.58 6.36 2.48 9.5 c0.08 0.28 0.14 0.76 0.34 0.92 c0.16 0.14 0.42 0.08 0.6 0.1 z M40.76 15.9 l-0.02 0 c0 0.5 -0.02 1.02 0 1.54 c0.02 0.64 0.06 1.28 0.1 1.92 c0 0.22 0.06 0.28 0.26 0.32 c0.42 0.1 0.82 0.12 1.24 0.12 c1.08 -0.04 2.16 0.04 3.24 0 c0.44 -0.02 0.64 0.02 1.08 -0.06 c0.4 -0.08 0.54 -0.3 0.54 -0.9 c-0.04 -0.38 -0.02 -0.54 -0.02 -1 c0 -0.66 -0.46 -0.88 -0.86 -0.86 c-0.28 0.02 -1.62 -0.02 -2.16 -0.02 c-0.9 0.02 -0.76 0.14 -0.76 -0.8 c0 -0.76 0.02 -1.74 0.02 -2.52 c0 -0.42 0.04 -0.56 0.44 -0.56 l2.5 0 c0.4 0.06 0.68 -0.22 0.68 -0.64 s0.04 -0.44 0.04 -0.86 l-0.06 -0.6 c-0.04 -0.34 -0.16 -0.46 -0.5 -0.46 c-0.22 0 -0.44 0.02 -0.66 0.04 c-0.86 0.06 -1.26 -0.06 -2.1 0 c-0.28 0 -0.32 -0.04 -0.34 -0.3 c-0.08 -0.78 0 -1.64 0.08 -2.42 c0.02 -0.32 0.1 -0.38 0.4 -0.4 l2.82 -0.02 c0.38 -0.04 0.5 -0.02 0.48 -0.4 c-0.04 -0.58 0.02 -1.18 -0.04 -1.76 c-0.04 -0.32 -0.14 -0.38 -0.5 -0.38 c-0.6 0.02 -0.74 0.02 -1.34 0.06 c-0.6 0.02 -3 0.02 -3.58 0.02 c-0.84 0 -0.9 -0.06 -0.92 0.96 c-0.04 0.8 -0.02 1.62 -0.02 2.44 c0 1.4 -0.08 6.42 -0.04 7.54 z M53.31999999999999 19.96 l2.68 0 c0.36 0 0.86 0.04 0.88 -0.44 c0 -0.48 0.04 -0.96 0.04 -1.44 c0 -0.42 -0.66 -0.34 -1.04 -0.34 l-2.34 0 c-0.16 0 -0.24 -0.1 -0.18 -0.24 c0.98 -1.86 2.2 -3.58 2.9 -5.6 c0.62 -1.74 0.98 -3.86 -0.26 -5.42 c-1.4 -1.72 -3.72 -1.78 -5.6 -0.82 c-0.4 0.2 -1.5 0.74 -1.1 1.36 c0.28 0.42 0.6 0.86 0.9 1.24 c0.08 0.1 0.22 0.16 0.3 0.06 c0.64 -0.68 1.76 -1.44 2.72 -1.06 c1.68 0.64 1.04 2.84 0.58 4.04 c-0.04 0.08 -0.08 0.16 -0.1 0.24 c-1.14 2.8 -2.94 5.38 -4.42 7.96 c-0.16 0.3 -0.06 0.48 0.28 0.48 c1.3 0 2.44 0 3.76 -0.02 z M66.82 7.359999999999999 c0.02 -0.66 0 -1.2 0 -1.84 c0 -0.74 -1.34 -0.66 -1.82 -0.64 c-2.14 0.14 -4.18 1.5 -5.16 3.36 c-0.28 0.54 -0.48 1.1 -0.62 1.68 c-0.34 1.36 -0.36 2.8 -0.2 4.18 c0.14 1.3 0.48 2.6 1.28 3.64 c1.38 1.82 3.92 2.46 6.1 2.12 c0.1 -0.02 0.2 -0.04 0.28 -0.1 c0.06 -0.04 0.12 -0.12 0.12 -0.2 l0.06 -1.14 c0.02 -0.36 0 -0.34 0 -0.7 c0 -0.48 -1 -0.12 -1.62 -0.12 c-0.6 0 -1.24 -0.02 -1.78 -0.3 c-0.96 -0.54 -1.5 -1.62 -1.8 -2.64 c-0.34 -1.1 -0.42 -2.28 -0.22 -3.4 c0.24 -1.46 0.94 -3.14 2.48 -3.64 c0.88 -0.3 1.82 -0.2 2.7 -0.1 c0.12 0.02 0.2 -0.06 0.2 -0.16 z M68.86 6.960000000000001 c-0.02 1.24 0.1 10.3 0.08 10.96 c0 0.62 0 1.24 0.02 1.86 c0 0.1 0.06 0.2 0.16 0.2 c1.4 0.06 2.78 -0.06 4.18 -0.04 c0.46 0.02 0.92 0 1.36 0 c0.44 -0.02 0.48 -0.2 0.46 -0.56 c-0.02 -0.56 -0.02 -1.06 -0.02 -1.6 c-0.02 -0.28 -0.18 -0.38 -0.42 -0.38 c-0.82 0.02 -1.64 -0.02 -2.46 0.02 c-0.14 0.02 -0.28 0.02 -0.42 0.02 c-0.24 -0.02 -0.3 -0.08 -0.32 -0.34 l0 -0.3 c-0.06 -1.66 0.06 -3.38 0.06 -5.04 c-0.02 -1.4 0 -2.66 -0.02 -3.9 c0 -0.54 0 -1.08 -0.02 -1.6 c-0.02 -0.32 0 -0.66 -0.08 -0.98 c-0.04 -0.12 -0.1 -0.28 -0.24 -0.28 l-1.88 0 c-0.32 0 -0.42 0.22 -0.44 0.54 l0 1.42 z M87.66 8.68 c0.42 1.24 0.52 2.58 0.52 3.9 c0 1.1 -0.2 2.16 -0.48 3.22 c-0.36 1.26 -0.96 2.4 -2.04 3.14 c-0.8 0.58 -1.64 0.96 -2.62 1.06 c-0.14 0 -0.26 0.02 -0.4 0.02 c-0.12 0 -0.24 -0.02 -0.38 -0.02 c-0.98 -0.1 -1.82 -0.48 -2.64 -1.06 c-1.06 -0.74 -1.68 -1.88 -2.02 -3.14 c-0.3 -1.06 -0.48 -2.12 -0.48 -3.22 c0 -1.32 0.1 -2.66 0.52 -3.9 c0.74 -2.14 2.78 -3.66 5 -3.7 c2.22 0.04 4.26 1.56 5.02 3.7 z M85.72 14.04 c0.2 -1.22 0.12 -2.46 -0.12 -3.68 c-0.24 -1.1 -0.72 -2.18 -1.64 -2.84 c-0.16 -0.12 -0.34 -0.22 -0.52 -0.28 c-0.26 -0.12 -0.54 -0.16 -0.8 -0.16 s-0.52 0.04 -0.78 0.16 c-0.2 0.06 -0.36 0.16 -0.52 0.28 c-0.94 0.66 -1.42 1.74 -1.64 2.84 c-0.24 1.22 -0.32 2.46 -0.12 3.68 c0.2 1.1 0.6 2.58 1.64 3.14 c0.44 0.24 0.92 0.4 1.42 0.42 c0.5 -0.02 1 -0.18 1.44 -0.42 c1.04 -0.56 1.44 -2.04 1.64 -3.14 z M90.18 8.28 c0 2.02 0.02 4.06 0.06 6.06 c0.02 1.22 0 2.6 0.58 3.72 c0.74 1.44 2.38 2.08 3.96 1.98 c1.08 -0.08 2.08 -0.36 2.86 -1.16 c1.32 -1.42 1.06 -3.64 1.08 -5.46 c0.04 -2.62 0.1 -5.06 0.1 -7.7 c0 -0.44 -0.14 -0.68 -0.58 -0.7 c-0.54 -0.02 -1.08 0 -1.62 0.04 c-0.22 0 -0.4 0.2 -0.4 0.44 c0.02 1.92 0.06 3.86 0.04 5.8 c-0.02 1.66 0.2 3.5 -0.42 5.08 c-0.24 0.58 -0.78 1.02 -1.42 1.02 c-1.6 -0.04 -1.54 -1.94 -1.6 -3.06 c-0.12 -2.44 0.06 -4.94 0.12 -7.38 c0 -0.46 0 -0.92 0.02 -1.38 c0.02 -0.24 0.06 -0.54 -0.26 -0.56 l-0.36 0 c-0.5 0.04 -1 -0.02 -1.5 0 c-0.48 0.04 -0.64 0.18 -0.64 0.66 c0 0.86 -0.02 1.74 -0.02 2.6 z M109.24000000000001 16.32 c0.12 -0.26 0.22 -0.52 0.32 -0.78 c0.22 -0.64 0.26 -1.3 0.32 -1.96 c0.12 -1.4 0.08 -2.82 -0.28 -4.18 c-0.44 -1.74 -1.56 -3.34 -3.24 -4.08 c-0.76 -0.34 -1.62 -0.38 -2.44 -0.36 c-0.86 0 -1.74 -0.04 -2.6 0.04 c-0.24 0.02 -0.36 0.14 -0.4 0.36 c-0.04 0.24 -0.08 0.48 -0.08 0.7 c0.04 1.22 0 4.84 0.04 5.44 c0.02 0.54 -0.04 1.2 -0.04 1.74 c0.02 1.34 0 2.7 0 4.04 c0 0.56 -0.02 1.1 -0.02 1.66 c0 0.6 -0.22 0.86 1.42 0.86 c1.46 0 2.98 -0.12 4.36 -0.64 c1.28 -0.46 2.08 -1.64 2.64 -2.84 z M103.42 14.24 l0 -2.4 c0 -1.52 0.04 -2.5 -0.02 -3.78 l0 -0.24 c0.02 -0.42 0.08 -0.44 0.52 -0.44 c0.58 -0.02 1 0.12 1.5 0.32 s0.78 0.64 1.04 1.06 c0.5 0.82 0.7 1.72 0.74 2.66 c0.02 0.54 0.04 1.08 0.04 1.62 c0 2.56 -1.5 4.34 -2.82 4.34 c-0.88 0 -1.02 0.06 -1.02 -0.52 c0 -0.6 0.04 -1.2 0.04 -1.8 c-0.02 -0.26 -0.02 -0.54 -0.02 -0.82 z"></path></g>
			</g>
		</svg>
	